<mxfile host="app.diagrams.net" modified="2023-10-15T16:25:18.574Z" agent="Mozilla/5.0 (X11; Linux x86_64) AppleWebKit/537.36 (KHTML, like Gecko) Chrome/118.0.0.0 Safari/537.36" etag="DspqDBmJICQrW_oFl8u2" version="22.0.4" type="device">
  <diagram name="Page-1" id="WYns2SZizj5gSE5qiDZ3">
    <mxGraphModel dx="2626" dy="998" grid="1" gridSize="10" guides="1" tooltips="1" connect="1" arrows="1" fold="1" page="1" pageScale="1" pageWidth="827" pageHeight="1169" math="0" shadow="0">
      <root>
        <mxCell id="0" />
        <mxCell id="1" parent="0" />
        <mxCell id="1d8bsyRUThCjwzLBU1c--1" value="" style="shape=image;verticalLabelPosition=bottom;labelBackgroundColor=default;verticalAlign=top;aspect=fixed;imageAspect=0;image=data:image/png,iVBORw0KGgoAAAANSUhEUgAABaUAAAJ2CAYAAABPSe4wAAAABHNCSVQICAgIfAhkiAAAIABJREFUeF7snQd8FFXXxp/ZTe+NhBRaQhJIgAQIPdSXJoIISJWuooLSxII0UbCAiICIIlIUEBAFBFF67z0SWkIgEEJ6JT27894tSTbbskl2QgJnft++n3tnbjn/W5Y898y5nI+fPw+6iAARIAJEgAgQASJABIgAESACRIAIEAEiQASIABEgAkSACFQBAVEV1EFVEAEiQASIABEgAkSACBABIkAEiAARIAJEgAgQASJABIgAEZATIFGaBgIRIAJEgAgQASJABIgAESACRIAIEAEiQASIABEgAkSACFQZARKlqww1VUQEiAARIAJEgAgQASJABIgAESACRIAIEAEiQASIABEgAiRK0xggAkSACBABIkAEiAARIAJEgAgQASJABIgAESACRIAIEIEqI0CidJWhpoqIABEgAkSACBABIkAEiAARIAJEgAgQASJABIgAESACRIBEaRoDRIAIEAEiQASIABEgAkSACBABIkAEiAARIAJEgAgQASJQZQRMqqwmqogIPAcExAFDMGdYE5hygOTRQaxYfRyJ0ufAcDKRCJSbgAiunSZgYncPNl94FCacwOqVB/GI5ku5SVIGIkAEiAARIAJEgAgQASJABIgAESACNY2AEURpDlZeIej9Uh90bdUMjb1rw8nWEqKCbGSkxOLe7es4f/wA9uw/h+gnpDbUtAFC7S0fAbFXGwwY1BsWTJQuDI/Bhp+YKF2+IuhpIlBtCZjWaoIQ11icC09B5VdzEeq0H4ghr3hCzCyWJgMHfiBRGiIPdB4zCM3t2CLC5+PO3rXYG5lfbccENax6EDDu3KweNlEriAARIAJEgAgQASJABIgAEXi2CVROlLZqiH5T5+KDoS3gKnMNVb0szGFp6wi3eoFo23MIJr1/E6vfGYlvL+U920TJOiJABIjAM0WAg51fT7w6bjSG926CjHXD0Z+J0nQJQ8Cy9XjMmz4cnkyplybvxuT1BcJURKU+AwRobj4DnUgmEAEiQASIABEgAkSACBCB55ZAhUVpkXMoPlj1NcY0sUVxYGpegpzUOMSl5EFk6wRXF3tYimViNQexvQ/83GXVkSj93I42MpwIEIEaSMAULcbMw5T+9mwllyDDqBbwKqXxUP1m1GpqSmEiN/Qd1w8eMtdxvhCR2zbgSMZzT6Wm9N5TaKeQc/MpmENVEgEiQASIABEgAkSACBABIvBcEaiYKG0RiDdXLGGCtI1CkJZm4uZfq7B07S6cikxDoRKh2LYugkJ74pWRr6JfsP1zBZaMJQJEgAgQAX0EJLi1/XPMjqgFMYspLU25jv+Kfjz0ZXuG75kGDMOY9tZM/Gea9JNTWL/1VvHv6TNsNplGBIgAESACRIAIEAEiQASIABEgAs8hgQqI0hZoOuFTvB1UJEgn4cjC1zHttwjkqAGUZD7A5X/WsM8mrO07BT0zyePrORxjZDIRIAJEQAsBHlmRx/BnpJZbz2MSZ49uY16Bj/ztIgli/lqHvQn0m/k8DgWymQgQASJABIgAESACRIAIEAEi8DwQKLcoLXLriykj/WEuDyEtweNdn+CjLZqCdGl4OYjc8yVIe3gehhTZSASIABEgAuUlIK4/COO7O8rfPuJzr2Hjr5c1NnrLWyY9TwSIABEgAkSACBABIkAEiAARIAJEoLoSKKcoLYbvKyPQ3kZxqCGfexVrfziGNKM6c3GwrN0U7dq3QKC3O5xtTCHNSUf8gwhcPXcKF6PSmRRu6GUCOzd3OMoUdD4biY+SkC1V5jVzQWCHzmjX1BvuDuaQZqfgUWQYTh87izup+t4hF6LMEns4c1cEtG2HlgHe8HCygYWoAJmJDxHx3wWcOn8HyeU+84rxdAtAm7bN0biBJ1zsLSCW5CE7Mxmx0VG4HXYFYfdSkKe3D8WwcfWAs4WMYx5SYuORKesEsT0atuuKzi384OnIGGYlIfrmRRw9ehEPs/QWqKUDjdHvrAxnT9SyFoHjC5Ae/xhp+bKqOFh5tkDnzq0QWK8WbEwKkBEXiSvHD+PE7ZTyvR5vVguBoZ3RvpkPPOxNUZiRgLthp3DwRDiS5HWV9+Jg4eKLoOBANGpYF66OtrAWFyArIwWPo24h7MoVhD96YsCYrwLblaaJrL0Q1CYETf3qszFqy8ZoPrLSk/Dwzn+4eP4yIvXOH00+xh/zmnVUPsUY80izFULZXvE+Upnrxc01RS2b4pMDYGbvhrp1n6BoKS2xioXgYGtATHKOztjQIuta8HK2lIenUL94yRMkPEpBrvoNg7/XkDVEqz2WaDN6OJrKd3ulSD6wHn8+NPyXTrbGVX6d12yY8cenCRz92qFrhyD4ejjCksnuyQ9u4OyRI7gYoxg3YitHOFqxoNq8FHmZKchUXVdNbOHm7ggLFu4lL/Ux4jI51GrWA/26NoWXTQEe/3cYu/65igT576QJnAO7o2+3ZqjnwCEt6gL+3X0UdzI0R66m5YxopX+Ljb0mCzs3tTEQKo0TsfVEKtW5TghVL5VLBIgAESACRIAIEAEiQASIQPUiwPn4+RuuHoobYfIf2zDJT34KE3JOfYIeE7Yj0fAS9Fovdm2NcR/OxJs9fWEnf4VZ7eJzEXt2C75e+B3+jlIPFqL+MPsu9sZbW3ZgWiDT3vPP4pOer+O3BFPU6f4uFn48Eq1rm2mII3xuDI4vm47JG8K1iyNClClruokb2o+dgY9e6wU/e7FGu2S88xOu4I/ln2PJjpswJBKKiVt7vD7zQ7z2Px/tPGX1sj/8cx5fw7+rPsGsPyK1i5+cM4auPohPO5gx5/go/DBsAH7I74e5iz7Ey37soMtSXcVDkn4TO5fMwed/3MITA8aG8frdDN2+OoHv+9mAkyZj64T/Ye5Fd/R+/wvMHRoEZ5PSY4qXZiFy95eYNv9PRJSphJnBq9s7WDh7FNpojBseuTHHsWr2bGxwmIWzS3sz0QQoDF+Gl4atxl0t2hLn1BT9hw5Az65sY6SxG6y0jXd5/+Qi7vJurP5mObZcSdHeP/KhL6Tt8gogcmyKVyZNx9sDQ+BuwYR/RXKp/+ULUnDz8Db8tGo9/rmTqV90EGDMa2lSpZOMNo9UWyKQ7ZXuI9W5Xm5y7Ddh71S0nnEQ2vdnODgN+gHHPgtlo1XzkiZvxxvd5uFkuTfe2FJvtN8O4eeRpuVsbrm9gtV7PkFHa46db3gH3w8djOU39W2OlpRSU8anyKklxs/7FJO614eV2uLBFybh4oa5mPHtafjMOYQ1Q5wh4rOwe3IoZhwqGU3iuuOwec8MBJuwt7Q2T8aMhLH4bnIIHIt+hNjvWcrZxRg7aQcsR6/AKnbPqfgHikfBo734cPRH+PuxHmHaaHPTyGNJ0LmpbVQaP83Cuz8+XjAV/Zs5Q/LoHDZ/MQdLj8bp+V0zfhuoRCJABIgAESACRIAIEAEiQASqD4ES9zcD2iRybYlWDWSCtOyS4M6ZC0gxQHQ0oGiY1h+ApZtXY8YLfroFVM4CHu3G4uvNazClpa1WUUxnXSIHODKP6HoDv8bmpeO0CIuKnJyFF/PS9oelNsVNvXAjlcnZNMPrP27Dmml94K9VkJZVzMHMtQWGf/YLNn7cCS5l9JzYoy8Wb1qFqT0b6uYpL1YES49g9GhdB0U9q25mqe8iV9QLGYhFP83HAH91QVrRTrF9AAZ9sg6r32wKK72FQbh+F9nA1a0B+n2xDt+MCNYQpBWmW8P3pU/w4+wucNTb36aoP4iNm2Xj0VZDkFbYbOHVGVNXfocJAeZlWKy4bdJoEN6fNBT/a1JbtyAtL9oCtVsOxpz1W/HtKw20inkaFRrVdkXpVo1HYuX2X/HpiNbw0CFIy5tr6oSAXm/ikzEtYKrRsJIEIca8nuoqfEuIeSSU7cbuowpDq+KMgv12CDCPtKMxReDw0WgvV2p5ZJ7YgN9uGSZI15TxyTl1xOz17Pe9h6YgLWPCmbig1filWDOjG/w82O+KdlAqqWK49pyLb99VEaTlBYng1HYKFny+AIveURWk5Tdh6tkbH7zZlnloa7+EmpuosrGk3a5qkWoSgDe/mY8hwa7s7RoxrOuwTfPFCzDEs+zerhbtp0YQASJABIgAESACRIAIEAEiYHQC5QrfYdqoCRoV5ZCm4/btWON4uFgG492lc9DTw1QuNPOSZFz+fTXW/nUaNx5nw9TZB61eGI2JozrA04yDyC4Yby2Zh4ghH7CDoPR4PKniYodIuQa/ioXvd4MrU1/z4q7i4L4juHDrEZJZTA8LRy/4Nw9Fzx4hqG0oZmOUKfbCwK9W4r12Too/xKVPEHlwE9b9eRiXI+KRITGHY91AdH55PF7vHwhHsRUaDf8Ki6KG4Y3forXzZx5VfT6aid4eJnKe0vRw7Fi9Gr8fDcPduHTkcZawc3ZHw4BgtOnSC327t4CjwTZbo9uUj2DGhElp8mVs/eFn7Dx9G3G5TDxt3BGD33oLgwLtIRLZocWkxfggbDDmn9bhMStov5vAf/RXaOHrBkncGWxauwX7LkWxEBsWcA/oguFvj0fPBiyMACeGx0tTMXrzSSy7oV0IMgt4HUtmdYOb3JuZeYNGHcDq7zfhwNVopElt4BnYGcMmvoX+jZvhjbEF7KVxwy8+Lwk3Th/EkdNXcO1GJB4lpSKDvQRg4eQBv+ZdMXDUMHTztobI1AM9Zn2Nt28Nx7Lr2v1QS2o1nu2yMsVeA7Bk9Yfo5qwQD3hJKm78uxVb9p7E1chYpLD5Iwvp4B3YBj1ZeJ+XQ9z0AxBizOuvsWJ3hZhHAtlutD7iM3BixRS8tUl1l8YETUZ/gUltrdl6IkHsP4uxYPcDLeE72NsB8eF6wuEwwfX0Kkx5d1ux6Ciu9xJmT+suX5MrdNWQNUSfbZxDN4xnG06K8w0fYdeGfw17+6imjE+2kdl37kIMb2ih+H2XZuLmX6vxw/ZjuB6TCdjXQ4teYzB5fBc0HDkfE3MMW0HFzi7I/XseBi76B/c5b/Sd+Q3m9fJkHC3QrHd3tu4fxsIZC/HnrXx4dJuG5QsHoIEpE7O7dEew6WmcUffIF2huKvreCGuyoHNT3wg1zj2Re2u0a6D4N15RiZxVc4Q2t8JvLEQVXUSACBABIkAEiAARIAJEgAg8fwQM++tPzkUEFy/PEg9i6WM81PcKrMEsxag/bAbG+JkrBel47Js1Gu/9FVMibsTHIfrGGRw5PwsbVwyFt0yYdu2J9yb8jiMLzhl2GJTIBT0mjmOxKnNwa+scTF70L6LVI4Bs+xnfLA7CK13NUGCIB3ilyxTB/eWP8VFnhSDNS+Kwf/4b+HB7VCmbkhJiEHHxKA6FfYONc7swL2k7tJs0GT3/nYF/UjUbyjl3xcuhTBiW9YEkBlunv4b5Z1SF4TwkZqch8eFNnNn3G1YsCkT3wGztArdGP3Iwt2DxoxMPYc7I6fjjYYmQG//4Hq6dPo8HazZgegsWQoP9kT9o2ghsOvcjIjRCWAjd70xs9vdF/t0tmDj2c5xILtm8uB91A+fOR+Pb7V+iF3M550y88WKfQKy8cU1TUBPVxstTxyJQFo+DCdIFUVvwzqiFOFnMPRGJcczus5cR+/PPmNjMSj6Oy7r4zEj8u3Iatm0+hNvpGnCApHgWo/kKDv21DxN/Xo/Jwaxccz+MGNsZ62YcQIbeCoxku6wOkQcGzf0QXYsE6SfXsW76O/j6ZGLp8ZKciNio6zi5exN+7vEuZgVLdITuEGbM68VRwZvGn0cC2W7UPipAbNhxxJZiZga+R8k8z4q+xOLG3zBwvSgNv+DxVRx+XJImbhqE6RXsH7ZdIvBvhxHnkU4bxWgwaCy6O8pWaxYG6Nom/HqpzFhC8tJqyvi0aDEek//HwnHIGi3NwIVvxmHC2lslv3EJCXgUcQlnwufjt+UDUFd5ZoVOZMobfOFlrP9mB8KTZGv7dWxfsQ2Du09DU9m/atiZAtd++QobL8fJN0/u7F2FzUP7YVZLU4ic/BHgLsKZB6ob2gLNzWIjjDGWhJ2bZfGu7H0+Nwc5vOzfK6q/kPnIztK+GVzZ+ig/ESACRIAIEAEiQASIABEgAtWfQDnem+Tg4qr8w1JmlzQNKWkGeinr42ASiMGDm8lj8MoOeEo9+DU+3a0iSBfnZYc/nViC+dsfKcUQMTz7DkUXO0MkQFYIZ8rab4eEPTPx2mdaBGllPZKUa9j6xwUY5LdT2TJNm2Lka6Gwk+sREjzY8jE+VhOkS9Dl4d72BfjuXLZc7BM5dsGw3m5aX3MW1/VhHmEKLtL0szh4UYencpHNqeHYd/Ke4SITn4nj3y7EDhVBuridubew7svfEClR/PFp1mggBgdpCeRQFf0ueYTfF3xTSpAuaqc0YR9+3vWgeCx5NGsKVy2zQVy/H4bKPUTZJU3B3qXLcErLRgCfFYYfv9yC+1r05ZI+LPmvwv824rNV+7UL0qoZcsKx7sd9UGjqIti1CUUzLTg16jCC7bIyzZqPxoR2ylA5zP7Dn0/BYnVBulTluYg+sBhvf3MG6o6I8scEGvMa9hshwejzSCDbjd5HRmBXJUXUkDVELwurNhgzIhBsn5WtL8nYt3YHHhi4htSM8WmD0CF94SX3hGeHE4avxacbVATpYjhSJB1diuWHM7V64GtjKE28jdtyQVpxSR5FILLogF1pIq5fVwjS8rvse9Q9ZdlcbXjUVlvsBZqbpdptpDW5VJk16AuffBjbDyep9C/b5L2/C9vPG7YJU4NMpaYSASJABIgAESACRIAIEAEiYCABLTKcrpzMQ9ZSJRIjO4AtJ0fTS1dXbl3p4oad0amO8t1tSSL2bT2EZJ3FZuPC1h24rXSs4WzaoGtLw2L4yurns8/hh6WHofJ3rK5mGZxemTJNg19EH6XtfN5FrF9bhhgujcO+PReQK9d7zREU2gZaNXl2sn2RVM+ZWMCioq/G66AgTT2MrfvidYoHBTf/xt4i12ixO0I7+WnEq66Kfpfc34s/LmbrsKIQt69eR7ZyrIk86kAztCXzngvtBH/lAYnS5CPYfUq3wJ/3327siTRQUdLRKm3JueHXise8yNYDnvZlb8RU3nZZS8zRql8veBZNz7vb8N0eFaFHW2OVaRKJdg6CjXk9banwLSPPI2FsN34fVZhXFWesGWuIPihsfek7Dv1qyyYYj8KI37HuuO71RaOkmjA+zYPQpZ3yrR0+H5d3/KX14Fe5bXwKjuw5gQwD97r51BSU2h9kYYWSizbK+VQklTrwQoqMtHTF2xvsLAhnh9IviQkzN0v3mHHWZI1RUHMS2MbA3x+PwTvLtmP/8WPYu+krvD5+Mc5l1RwTqKVEgAgQASJABIgAESACRIAIGJdAuURpUxOxyouXUkh1iseGNpKDXUAg6ilbwWdfwqlreXozS+6dxdlYpeAlskVAk/oagqf2Atir0ef2YF+8gX/xai9ELbUyZYrh06YVi1OsKLLwv0M4WmbbeKTfuokYuQns4EPfRvDRIjhLHz1gzyg6h7PpjDGjmyq8sQ2yqayHeORfO4uL6qFPVLNJ7uPy1RSlaC1GncAAtYMEq6LfeWQxMfeudm1U3trClCSkKoeDyNYWthqzwQyNm/gqY0Qzu8MvI0zf8JTcw6UryTrF+rLIyu+LzGBl5wQXFi/VxUXxcWb7LvlFc42NeTvNhqoVbQzbWZFiX7QNKXo7QoKoQweLxXGDbNF4SLgxr1GVERKMO48Est3ofWQEcFVSRE1ZQ/TAMA3Eq6PbwFq2x8Q/wfFftsLA8w3lhdaE8Smu2xSB9sqFla2PFy6respqsskOu4JbetZs1Rx8bjYLB6GakoOsol1GnoWKkO/ellw5ObkKUZqTbbCrvm4i0NwsVbuR1mRNZDUrJTcah36ch3ffmohpC3/F2XgDO7tmWUmtJQJEgAgQASJABIgAESACRMBAAuWIKc1etSwoUIkTawrTcuTW3h4RPOp6QOmIysIf38X9ss5wY4JnZDT7Q6auTI1lnmZ1PJgofcuA0BNMVAu7joxKC+mqllSmTEs09KurDL8hRU4eE9g7dYa/dlDFqRwTK4v8ZEUurnCR9YFaSEZp/BHsvTAFrdqzsBNMxGw9ZRMO9mNhPA4ex6lzF3ApLBJx2RX9Y1CK+Hv3UfSWtPbmSvDogewQTFe5fWLmhezB/iOpuMqq6HcpUhKTtYeQUDaaz89H8XATm2pubrCY4V4eisO5ZKFlEu8/KNPuh/djiu3WzqZ0qqlLE3Tv1wddWgehWaAf6jpZwkSkzxPaFGZlhu8wgu2yZlp5o6Gs42QXE83C/4syYJ7ps1q4Ma+v1oreM+48Esh2o/dRRWlVdb4asoboxMLB8X9j8Up9xa6iJGYX1v2TqCMOu/ZCasL4FHvVVYbuYEtIYQyiY/T/7khTovGAuUq3Vcaw1265MlVSqLYeFaKwuHiJyn8rnpdKijak2YauqfJQZfktgeZmqcYbaU3WC4RuEgEiQASIABEgAkSACBABIkAEahaBcsjKPDLSM5l17goLRTaws2GC1ZPKeB6LYO9gXyyyStNTkV5WcXw2UtPy2B/vZiwf++PS3kHuaVbsSaqTvwTxjxMqKaqpF16JMsXOqF3LRGk7ixUc+i5WhqqXr/87x1lC7vClHpJRGovfP/0C7dZ/gp61WR2cGPY+HTBI9nlTFr46F8kPbuO/K+dw7N9d2H36fjm6kUdaSrr+hrHeyUzPKBZYOHt7hae2iihdFf2em6vPrbkME2S3OTvYywN+yy5md2paGaKRVP5MWUNYXhwru+mrc7F4am80sNInQiurL/p/nAh6NWvlc5W2nZUjdnKBc9GOEXv1Oja+kgdSCTnm1TAZ5asx55FAthu9j4wCrioKqZrfDmPMI600xA0weFw3OMiWFxYK68qmTbiovo5rzaiSWO3HJwcrB0fleREyMzORqTXQvKpN6UhJZzvHzmUZL+Mm/z+Vi4e0aPFlB+rx8kP1Si5p8U22nc1CnxRfAs3NUpWzL4KNJfWK6DsRIAJEgAgQASJABIgAESACRKCGECiHKM08ReMSmairjA/MvEjdXJiYFlc5S01YSJDiKz8PZcuILIxCrsJjWy7lmZgqwyuU0Q72B2peZUVK9SoqVaY5LBSnO6qXavh39hqySK5Qarp/Fz7YgWmv3MPgtydh/EttUNe2JPQKJ7aAS4MgdJV9BozHOxfX4cMZK3AyUb8Xm6JhjD/zMNasUbXZ7BkVr3pO1kdqumuV9bvhNLU8KUbJ8GRvCuSrvimg5XGWVJBviHBrjoDXVmLt1BbKsCo8JJkxuHzmHMLu3ENsciZy8iUljMVNMGLucDRVztZySNjaG2loqpkZ2/pRXjybm2VPzjJKFnbMl1F5hW4bbx4JZLvR+6hCmJ5KppqxhmhHY9VuNEYEyDZWZecb7sPaHQ8N28xSK666j0+xico/MVic+bJ/Ydgzhiyh2rFWMFWguVnB1lA2IkAEiAARIAJEgAgQASJABIjA80KgHKI0i2d8LwqJkg6Kg89E7vBpYAVcl3lPV/wqKCj5C5Qzt5R7VckcpXRfsniQij/m5c8U5OsN0aC7nKd9p4CFQykytBA31k7CR7t0Hx6otbXSLMQ/0Q1LknIVWxa+gS1fO8M3OAQtg5qgWbMWCAlpgrp2Si9tzgQurV7HihXZGD5qNW6V5cnGZBRzi6KQFlpbxRLZM0wsKxJPZWEyik1VZqkZ/Z7HwqoU8WU2mauMOx2mm1sUy7g6nmBeenUGY+bE5gpBmh3+Ff3vl5g2/3eE6zrhyzIf3WaViNI6Czb2DaZCF+vQzCvfSuWc04pVJfyYr1i79OcyzjwSyHaj95F+FtXpbs1YQ7QQY7+dL419EYrzDQtxZ+svOJapex3XUkKppOo7PnnkZGcrzp5gPwacheL3Xa89nAVUz1PW+6zRbgo0N43WPiqICBABIkAEiAARIAJEgAgQASLwbBIohyjNQhffuYbrOSPhaSP7C9MMgc0DYLb7XElc3nIzkiI9NZ15hNaS5xQ5OsOJFR2vrxzOFi6OReIg835OT0PR2Ub6slW7e9JUJKXIvGFl4jAH0/wUREZEGOBJVgFL8pIRcW6f/LNFlt3UCQFdh2Li1NfQvb6lvH6rJqMwvuMmfHA4q4wKODg5O7Ic9/Q8x8KRONgp42UzP+60FKSVimlRQ/pdmsL6qCQOqaOLE7M7Sq/djk4OmrGpS+VgcdC79kJzpZe85O4vmPHxVoTr8UIWOTnDUeVtcz0NMOotSUo8EguZWCZzcxfVgqc7E9yv6zvhsozqq3LMl9GUCt2uzDwSyHaj91GFwDyNTDVkDdGCxqzJcIxpYyXftOOfnMD6bbfVjwXQksuApGo4PvMT4iFbQj3YC1GcmSvcZbGiH+sJcGTC3sCq6sVOoLlpQI/RI0SACBABIkAEiAARIAJEgAgQgeeaQPmkricsBvEl5Qn2THKsFdoNweaV4SdlB+I9KvaiFXk1hHdZ3pgsFmfDBkUhPxT5y34luDJtFCgvOzjubmSc8pVtEbz8fWFb5FosUJXFxRak4Mb+VXh35PvYEaukJ7JHcMuGBoRCYf3u4w17vW0Vo049L6UozcJexEQjRk2UrhH9zqcj+kFqcR+5NKgPB712m6Cud9Hhlbo6UYwGPvWUwrUEsaeO4oYeQVpWirlvY/gUR7lhMaVVIt7oqsUo6TlRiHig7DjOCk2D/Q0YH3pqfppjXk+zKnyrPPNIKNuN3UdaYah58eqdA1oL0J3IS0s24sTiMjZ0VIupob8dnCN6jBsExfmGEjzcuR7/JFbcS1o3WHanGoxPSdQdRMk2tmSX2AeNffW/SSKu5wcfS2MOML2EFDeFmpsGVF35RwScm5VvnEYJnE0jDPzgW/y6ZTPWLXoH3etW6h+QGuVTAhEgAkSACBABIkAEiAARIAI1i0D5RGk+FYf+OlZ8GKHY40WM7OFcHKah/KbzeBIehntKXZSzaInQEP2qtNi/A9pgBRQfAAAgAElEQVS7KVU5aTrCw6KF8S4uvzHlzFGIW2fOI1mu+XGwCOmJrs5V+8c4n3ISu44nK0VXDra2Ngb0JTtcMqg9WtvoMVfcEC2bOyhFaQnuXgtH6SgjNaXfWR+F3YQiggcHk8BWaG6tx24Tf7RtYV/sIa79SVn4mZLwJzlZOWXE57ZCq/+1g33xTGVxns2qaJxI7uLMhaLDQcXw6v4C8/DWbpVhqU9/zBvWzvI9Zdg8Esh2o/eRdtsLVGLEW1iYG7BOaC9HIzUzo3ht4Cyd4GzwoZ81ZQ0pbbHY+xWM66pYI/jcK/h142WNc2o1GFUy4WmOTz7tCi5Elmx8dujWArp/4dlmZoeO8Cnfv0oqSUeWXaC5aYSWGVKEYHPTkMrL8wwLWzNw0RosHNsDrZsFoX3ft7D854/Rqcp248vTWHqWCBABIkAEiAARIAJEgAgQgaogUM4//3ikHVqHrXcLFUKayAHdp72PHrUMKMbcHXWKxGQVyyRRx3H0ftEfrY7oOaIvPHQVx0J3dBrRH0WO0tK0Uzh0pQw306qgWME6ci/sxJ6HCts5m4546622sDNYbxRBrIuTwe0xh4ODLHyH7GJ9m5Jm0GFbnE0njHi5jk7x1SK4H14s6iTJPRw7dk9j46Bm9DuPjDNHcUkZV1pk1xH9u+jehLFqPQB96pblxixFRlp6sfe1u099sMjsOi9xg1fwRu9aJaw5G9jJwudUyVWAy3/tRbRyeoq9BmLaCN+Sww/1tMGMxd/Wdj39Ma+tVZVNM2weCWO78ftIk4YUyUkpys0TQ96U0CxBV4okPgr3shTe+JxpU7RuoW82lC6lZqwhqm22RvvRwxEg31SSImnfeuws/QqJLkyVTH+K41NyH/v331S+DSWGW98JGFxP+xrJ2bbBuGGBMK2q5U2FqjBzs5LdZlB24eamQdWX4yFRrS7o38FR5d8NHMQevdG/LXlLlwMjPUoEiAARIAJEgAgQASJABJ4pAuWXNfPDsebL3xEtfyWX/VHh3hdfrp7DREhd/k9mqB0yDAs2bsGHrbS4WUpu4Y+tl5RxoTnYtJ+KBaP8tHhTmcDjhTmY85Kr4hVvXoL7O7fg5JMa3B/5YVi38hCSZJoMJ0a9oYuw7I3m+uMHi23RIHQEZv+0HfM6axf+zDtOxfIPBqONZ5HgrI0RB7uWEzChi9I7msVPvnTxroZ4rC0n2KF3IZM+xfhGmn3O2bbApJlDoNBmeWRf3Io/7mgJsFJD+l2acADbDitDeIjs0G3ah3hBfkJZ6Ytzao/3Zg6Au+YttScluHPtBnLkb12z8d55PF4LstbqeSquFYqPlkxGK2sVlYaF0XCwN1WvXrDvhdd/xfeHUxQiOqu7xeTl+Pxlby3zU9kEkS38Xp6Pn2e01S5eCzTmhQBg9HkkkO1G7yMNmBJE37iNTOVbHeathmJ0kCFvVWgUpJmQdxUnz2cpNzkd8cI7byLE0J25GrKGFBkt8uiH8S8qfr/4wghsXX8cGZWI3FEzxqcE9/7YgIOpyo0HqxBM/3YmunuW/u3irP0w7PPPMNizzAVUcwwZI0WguWmMpukvQ8C5qb/i8t81M4XmL5cJzEyfUp+X3wLKQQSIABEgAkSACBABIkAEiICRCZTroENF3TLv0SWY/p0/1k9uATsRB2v/IVjyZ2eMPrQXB87fxMOkPIhsHeHeoAladeiEDgGuMOfycEhr46V4uH0xfur/CyY3YSIq877u8P6v+L35RqzfeQo3H2fDxMkbrV54FeMHBMFZLBPoeEhiduDLNddQc/2kZTCkSPh7Iea08cfygfVgKnZC+ykbsLfnAfy58xDO3riPuPQCmNk6wNndB81C2iK0SyiCalsyb6Ms7JafWqh5iWzqo8vYN9Bz9Ad4fO04Dp64gCvX7+BBQiqyCpnXnIcvWnYbgFcHtIaHuYJnTtiv2HA2V7MwjRQpsrNyYWHXGu/98huabtiAP0/fRlwu23xo1BGvvDYGPbwV4Sn43JtYt2SHWjzpogJrSL/zaTj4/Rpc7vw+Qpg4LHbvg0WbnRH802bsv/YA6RJreDbtgqGvj0LXuibIzsiEua2t/GxA7ReP9GPb8HdcVwxlCjZnEYi31mxBw02M4/HriE7Nh6mDJxq37oVhI/shyNkEfOJR7I0KQZ82TAjkTODuWZttzEQZtoGgvRGGp/KJ+HvhZ+gUuBj9PNihnGZ10W/h72jebxe2/X0SVyMeISVPBGsHV9Rv0gbdXnwJ3Rs54MnOwzrqEGbM66isUsnGn0cC2W70PtLElnNuD/Yn9MEQtiHDmQfizbU70erQIZyLeIz0XKnSi5pH4b2j2HLioeFjUza/NvyBe13HwJtNGovG47FuVyscOR6G2CfKN3JYcwoj9mD5TuZxW6ppNWQNkbfZDEEjRqKNPDwJj8wTG/Cbts06TfQ6U2rK+ORT9mPxkhfR6rOucGH/XrD0H4YVuzri0tETuPogHZyjD1p37YSmrmYovH8CZ9AeoYqg2zptN/4Ngeam8RuqUaJgc1OjpsolSGPP4tjtPDRvUhL+R5p5DkcvVeLw3Mo1iXITASJABIgAESACRIAIEAEi8JQJVECUlrU4B+E/TcQbBV9h6dRO8GDv23LmbgjuM459KmBR3g38OHUWvFZ/joEyQVNkA9+eb2Eh+2heTJCOP44vJn+BY2mVcDPTLPjppPBJODz/dUzPYx6owxrDlp1i5xTQG6/LPvpaZIDpnMgKHs17Y7Tso7MsHnnRezD7g/WIKNT5kMoNCa5v/BaPX/wAL3n5ovekBeyjmY8vjMOBBTOw6roeobuG9LskaiM+mN8Evyx8AV5srJvWbosxc9inlNlsXMYdwMLFsZiwaKzyIDNNLvKUJ6exdO5mBC8fCX92qBdn7Y0eE+azj/rzrMzUC/huysf4u/n36NkmmHmasYMSmzSGNRdVKS9L9Zr0fZcm7MesNywhXTEH/dlJpBxnAa92QzGdfbRfZQxOAce89vZULtWo80gg243eR+rIsk5h2afb0fKbIfCxYGPWwh0tXxyJlqWe45Gz9zF+L48ozfLnXF6J979tjJ+mt4YTEy3N3Jqh1+BmpUrOO3QDqzREafZIDVlDOKfuGMc2HuU+oZIY7Fy3D0llTBP1LtD1vfqPTwke7ZyJSS5LsXJyW7iwjWWRlRda9RmOVipGSdMuYNnMVTCf1w6hRelGYqSLXal0geamQXVX5iEB52ZlmqWRV3IHP09/Hzaz3kH/YFcUPjyDzV9/jh3xysN0NTJQAhEgAkSACBABIkAEiAARIALPOoHyh+8oIsJn4uq6d/DysI+x5vAdpMrDeWi5WJiN7EeXsGPZTHx7XLdHjCR2H2aPGIVZm87hUU6R513p8viCZFzfvQTjh07Gr7f1iJ1amlGtkwpjsX/Bq3hpwiJsvxiLHKkOljIP8ScxuHpgI76cOg5fnsjXalb+1S1Y/PNfOH0nETkSPWVlPcSpjXMxnPXhnhgtITa0ls78/BIPYs7497COHYKXr148L0VW9FF8N/FVTPszWs2zUbPAmtHvTFTZ8xFGvP0dDkdnK71CVWzhC5B4aSOmj/sIO87fR9koeaSe+gqvjvoE264lajJkNUhz4nDlr28xYfAEfH81HTGnzygPBGWehiFd0a6KD4fKv7cLHw0ZjMkr/0F4cr4mAzkO5imbcQ8nf/sc7644C+2jU8nNyGNec2RVPkWweSSQ7Ubvo1IIeSQd/QxDhkzD0u0nEB6bgXyd61R52Wfj+tqJGDJxGXZdjkGmzjVLe7nVfw0Ro+ErY9FVflopE+6vbMKvlyv/+1Wjxqfs3ws/vYn+YxZi44kI9nZFiXe9JCsWV/Ysx8Shb+IntonJccrXTNi6mq/r3xXah0LlUwWam5VvmL4ShJyb+uot/72CmEP4+u0B6NiuA7oOmYGfzitDQ5W/KMpBBIgAESACRIAIEAEiQASIwDNAgPPx81eXFStkloldXTQNbgLferXhZG0GPj8bGcmPEHX7OsJuxytj6BpWtMjaE01aBqFxfXdWlimkuelIeBiBsEvXcDe19AvchpVYk55ioqOrH4KCGsHbsxbsLcUozM1CZvJj3I+8jZsRMWARPQy+TGy94N+4IbzrecHVwQbm4kLkpichJuomrl67g4RcA7qfc8bQ1QfxaQdZHNACnFvQC2M3x7PgI+ao1bg12gX7wN3eHNIniYi+eRFnrj5gwpLBTSx+sEb0O4vpXS+4DUIa14OrjRgFGXGIuHqWhVpJqGAoGTM4+7ZA62BfeDpaQJqZhLhHd3H14nXEZldTDzLGoE5AMzTxqw93JxtYcPl4kpaIBxHhuBZ+DywCSTkv4475clZu0ONGmUdaaxLIdqP3kWbjORNL2FibswNXmee0/DbP1v0spGWVY4HSLBZic1s4OtnDylRUHGtdms3WrCQtG0Jq+avlGmLdEQt2r8RgWSx6aSJ2vNsPM49k6tjY0QLEgKQaNz5NrOHsbM9+QbKRmpTGNk+VRpqEYNa/azHag7FihySuefUlLA6rwI+JAczKfkSguVl2xZV+Qqi5WemGUQFEgAgQASJABIgAESACRIAIEAEVAkYTpYnqM0xApyj9DNtMphEBIkAEKk1ABM/hP+Hv2W1hybE3CW59j0GDv8etp6WzVtoeYQvgXAbj54Pz0MGMA597DB//bxL+TDVg41TYZlHpRIAIEAEiQASIABEgAkSACBABIiAAgYqH7xCgMVQkESACRIAIEIFnhoB5M4wc1YoJ0swiaSaObdiG2yRI6+heDs6hXRDE4vbLQwHdPI+L6SRI64BFyUSACBABIkAEiAARIAJEgAgQgRpPoIIHHdZ4u8kAIkAEiAARIAKCEuBEifh73ms4Ihel03HvWpJRw3YI2ngjFi5yD0ao00OcCU/Wec6AyKkTpr7dkR3iyirmc3Bu17+IqaYRjIyIhooiAkSACBABIkAEiAARIAJEgAg8twRIlH5uu54MJwJEgAgQASEJ8DmPcP3CIyGrqBFli+v2xYI1AyG+dQJ7/z2MUxeu4cb9eKSw+OOm9p5o1OYFjH/3DfSoI2ZxxHnk3dmI5X/FsXML6CICRIAIEAEiQASIABEgAkSACBCBZ5UAidLPas+SXUSACBABIkAEqgsBzhwugd0xWvbR2SYekoTj+GLGKlzL1fkQ3SACRIAIEAEiQASIABEgAkSACBCBZ4AAxZR+BjqRTCACRIAIEAEiUF0JSBNv4ey1B8go0B0jmi9IQfiepXh96GT8dje/uppC7SICRIAIEAEiQASIABEgAkSACBABIxHgfPz8df+VaKRKqJiaTsAUtZu0gq+DbA9DirS7F/HfYxINanqvUvuJABEgAlVJQGTpBt8mjVDfzQUutZzhaCVGYXYa4qLvIOzyNUSlFVZlc6guIkAEiAARIAJEgAgQASJABIgAEXiKBEiUforwqWoiQASIABEgAkSACBABIkAEiAARIAJEgAgQASJABIjA80aAwnc8bz1O9hIBIkAEiAARIAJEgAgQASJABIgAESACRIAIEAEiQASeIgESpZ8ifKqaCBABIkAEiAARIAJEgAgQASJABIgAESACRIAIEAEi8LwRIFH6eetxspcIEAEiQASIABEgAkSACBABIkAEiAARIAJEgAgQASLwFAmQKP0U4VPVRIAIEAEiQASIABEgAkSACBABIkAEiAARIAJEgAgQgeeNAInSz1uPk71EgAgQASJABIgAESACRIAIEAEiQASIABEgAkSACBCBp0iAROmnCJ+qJgJEgAgQASJABIgAESACRIAIEAEiQASIABEgAkSACDxvBEyeN4OfT3tFcO00ARO7e8CU41GYcAKrVx7EI+nzSaOmWS0OGII5w5qwvgMkjw5ixerjSKS+q2ndSO0lAkSACBABIkAEiAARIAJEgAgQASJABIgAEVASqHaitIV7CHr3fwHd2jVHQAMPuNiaAQU5eJKagIfRkbh17TLOnjmNM9eikSF5dvvRtFYThLjG4lx4CiqvP4pQp/1ADHnFE2KGTJoMHPiBROmaMnrEXm0wYFBvWDBRujA8Bht+YqJ0TWk8tZMIlEHAuGtdGZXRbSJABIgAESACRIAIEAEiQASIABEgAkSgWhCoPqK0eR30ePdTzBnZCm5mTH1TvczNYWnjgFp1/NAitA9GTOKRn3IDP00egeWXC6sFSOM0goOdX0+8Om40hvdugox1w9GfidJ0EQEiQASeLQK01j1b/UnWEAEiQASIABEgAkSACBABIkAEiAARKB+B6iFKm/vi1eVrMCvUBeJiPZqHJCsZjxPSkSe2hoOTMxytTSGS3+dg5ugDb5dnLSS2KVqMmYcp/e2ZhRJklK8vy3iaV7nPQ/VbGRnpNhEgAkTAyASEXOuM3FQqjggQASJABIgAESACRIAIEAEiQASIABEwOoFqIEpbIOjtRfioSJDm8xF76lcsW/Ub9l17jJyi2BWcOZy9m6FtlxcxeEgftPGSBaKgyzACEtza/jlmR9Rioj8Pacp1/PcsOZgbBoGeIgJEgAgQASJABIgAESACRIAIEAEiQASIABEgAkSgGhB46qI059ILbw33hTxiB1+I+79PxaufHkOSeiBlPg/Jdy/gb9ln/QoEDxqP4BTy9zVsDPHIijyGPyMNe5qeIgJEgAgQASJABIgAESACRIAIEAEiQASIABEgAkSACAhF4CmL0iyuaPseaGejiNkhzTiIb5ce1xSk1a2XJOPqtsW4qp5O34kAESACRIAIEAEiQASIABEgAkSACBABIkAEiAARIAJEoFoTeMqitAj1/bwVXtIMk+TWRVzOFMb7mTN3RUDbdmgZ4A0PJxtYiAqQmfgQEf9dwKnzd5BcULF+Ell7IahNCJr61Wfl2rJy85GVnoSHd/7DxfOXEZmqK06GGDauHnC2UD3U0RS1bEriZJvZu6Fu3SdQdxpnLuWQZiUhJjlHZ2xokXUteDlbstjUmhcveYKERynI1bxlYAoHy9pN0a59CwR6u8PZxhTSnHTEP4jA1XOncDEqnUXELutiZTh7opa1CBxfgPT4x0jLl+XhYOXZAp07t0JgvVqwMSlARlwkrhw/jBO3U6CLpvbaWB1uAWjTtjkaN/CEi70FxJI8ZGcmIzY6CrfDriDsXgryhBly2pukLdWsFgJDO6N9Mx942JuiMCMBd8NO4eCJcCTJmVTsEmrMV6w1unIJ00fGt90Ejn7t0LVDEHw9HGGJHCQ/uIGzR47gYoxiHoqtHOFoxcIK8VLkZaYgU7XvTGzh5u4ICxY+Jy/1MeIyOdRq1gP9ujaFl00BHv93GLv+uYoE+TpkAufA7ujbrRnqOXBIi7qAf3cfxZ0MzZVAG9XK227suSnsWqeNAaURASJABIgAESACRIAIEAEiQASIABEgAtWbAOfj5/8UJTlTdPjkINYMcYFMis0/9Qm6TvgdScZskYkb2o+dgY9e6wU/e7EWkZZHfsIV/LH8cyzZcROGauIix6Z4ZdJ0vD0wBO4WTFjV0s98QQpuHt6Gn1atxz93MksLyJwzhq4+iE87mGnJWVYSj5y9U9F6xkFo1yw5OA36Acc+C4W20qXJ2/FGt3k4WQEhXuzaGuM+nIk3e/rCruRUypIG87mIPbsFXy/8Dn9H5egxxAzdvjqB7/vZgJMmY+uE/2HuRXf0fv8LzB0aBGeT0kR5aRYid3+JafP/RIQBarqJW3u8PvNDvPY/H+3tlLWMiYc5j6/h31WfYNYfkQYI6XrMqdAtM3h1ewcLZ49Cm9pmamOIR27McayaPRsbHGbh7NLeTNAECsOX4aVhq3FXn+ov0JivkIl6MgnSRwLYLnJqifHzPsWk7vVhpTbR+cIkXNwwFzO+PQ2fOYfYWuYMEZ+F3ZNDMeNQyewU1x2HzXtmINhEgsebJ2NGwlh8NzkEjoqTW+VjMeXsYoydtAOWo1dgFbvnVHSPrRwFj/biw9Ef4e/HeoRpo9lu5Lkp6FqnZ4DRLSJABIgAESACRIAIEAEiQASIABEgAkSg2hIocct9Kk3kkZ2VXSzWmvg1Q6CV8RrC2TTD6z9uw5ppfeCvVZCW1cXBzLUFhn/2CzZ+3AkuBhCxajwSK7f/ik9HtIaHDkFaXrKpEwJ6vYlPxrSAqfHMemolmdYfgKWbV2PGC366hV7OAh7txuLrzWswpaWtVrFewwCRDVzdGqDfF+vwzYhgDUFazlJkDd+XPsGPs7vAUdsOgEqhYo++WLxpFab2bKi7nYpCYekRjB6t66Dqj800Rf1BX2PzsvFoqyFIyxsHC6/OmLryO0wIMNdApitBqDGvq76KpgvRR0LYzjl1xOz1bMz30BSk5b1k4oJW45dizYxu8POwlW+u6b/EcO05F9++qyJIywsSwantFCz4fAEWvaMqSMtvwtSzNz54sy3z0NZ+CWG7vCYjz03tradUIkAEiAARIAJEgAgQASJABIgAESACROB5I/CUw3dIEHUzArl8XVgzoVHk8iLen3YAN744jkR9nqCG9JLYCwO/Won32jkphCLpE0Qe3IR1fx7G5Yh4ZEjM4Vg3EJ1fHo/X+wfCUWyFRsO/wqKoYXjjt2idXrNirwFYsvpDdHNWyE+8JBU3/t2KLXtP4mpkLFKypZCF3fAObIOer4zAyyFu2lvLZ+DEiil4a5OqwmqCJqO/wKS21kyGkiD2n8VYsPuBlvAdzGM2PlxPKAsemadXYcq724pFMnG9lzB7Wne4VlR9tQzGu0vnoKeHqVxo5llc78u/r8bav07jxuNsmDr7oNULozFxVAd4slMrRXbBeGvJPEQM+QB7E/R4d8rpmMB/9Fdo4esGSdwZbFq7BfsuRbHQFRZwD+iC4W+PR88GLBQJJ4bHS1MxevNJLLuhI5AH88rs89FM9PYwkbdTmh6OHatX4/ejYbgbl448zhJ2zu5oGBCMNl16oW/3FnDU3kOCppoFvI4ls7rBTe5tzjzfow5g9febcOBqNNKkNvAM7IxhE99C/8bN8MbYAkbIgEugMW9AzeV7RIg+EsJ2kSv6zl2I4Q0tFGNemombf63GD9uP4XpMJmBfDy16jcHk8V3QcOR8TMwxqJcgdnZB7t/zMHDRP7jPeaPvzG8wr5cnxGxDp1nv7mwOHMbCGQvx5618eHSbhuULB6CBKROzu3RHsOlpnFF/w0EI24t71AhzU9C1rnxDj54mAkSACBABIkAEiAARIAJEgAgQASJABKoHAcNUFMHayiPjxF84nNIV/WQiL2cO3+HfYXfzfdi8cTv2HL6EqHQd4qPeNong/vLH+KizQpDmJXHYP/8NfLg9ikWCLbmSEmIQcfEoDoV9g41zuzAvaTu0mzQZPf+dgX9StcQQEXlg0NwP0bVIkH5yHeumv4OvTyaWFrGTExEbdR0nd2/Czz3exaxgiZbYzwWIDTuO2FJ2mIHvUWJvVvQlHD16Q6dArg9BweOrOPy45Alx0yBM15dB7z0x6g+bgTF+5kpBOh77Zo3Ge3/FlAjj8XGIvnEGR87PwsYVQ+EtE6Zde+I9Fo7lyIJzpbhrVsXEZn9f5N/dgoljP8eJ5BIR+37UDZw7H41vt3+JXsyNnTPxxot9ArHyxjWtojzn3BUvh9orxHhJDLZOfw3zz6iGTslDYnYaEh/exJl9v2HFokB0D8yuEGNNOwxMEdXGy1PHIlAeT5yFZojagndGLcTJ4jGXiMS4e7h29jJif/4ZE5tZybnrvwQa8/orrdBd4/eRMLZbtBiPyf9j4ThkVkozcOGbcZiw9lbJWE5IwKOISzgTPh+/LR+AusoDW8uCwhdexvpvdiA8STbOr2P7im0Y3H0amspWYxZf/dovX2Hj5Tj5ZtSdvauweWg/zGppCpGTPwLcRTjzQHWTRxjbS2wwxtwUdq0rizfdJwJEgAgQASJABIgAESACRIAIEAEiQASqH4Gy3zYXuM18+mF889UBxEmUIjDzhnVs3AeTFq7F3pNncGzHWiyb+y5GvdAKDewMdPM1bYqRr4XCTmYdL8GDLR/jYzVBusSsPNzbvgDfnVOEERE5dsGw3m5aX8M3az4aE9opQ1JIU3D48ylYrC5Il+KVi+gDi/H2N2eg7twoMFbjFm8SiMGDm8ljGjN1DqkHv8anu1UE6eLapEg+sQTztz9SirxiePYdii52ZUuqkDzC7wu+KSVIFxUrTdiHn3c9KC7To1lTuOoYueK6PsyrVFGfNP0sDl5Ui+WtRkaSGo59J+9VqSgtrt8PQ+Xe8DKcKdi7dBlOadkE4bPC8OOXW3DfkLcGBBrzxh1IitKM3keC2G6D0CF94SVfctjhhOFr8ekGFUG6GIwUSUeXYvnhTK1vNGjjJ028jdtyQVpxSR5FIDJLuf5JE3H9ukKQlt9l36PuKcvmasOjttrAF8R2tVYbaW6qlUpfiQARIAJEgAgQASJABIgAESACRIAIEIHnmIAOaa8qiUgRu2cmxs78AzczpaU8ijkWUqO2fxv0HvYWZi9hhwUeP4w/vp6E3g3Z4Xh6mmga/CL61FEI2HzeRaxfewFP9DwPaRz27bnAwoiwh5i3dlBoG2jqqOZo1a8XPJW6uOTuNny3R0U80lO+RGKIqqingKd8S9ywMzopeUKSiH1bDyFZiyO5opnZuLB1B24rHb45mzbo2rLsmMiS+3vxx8VsHZYW4vbV68hW1inyqANPXSNXVHLoJGdiAQsD9zF0VCxAMvNsDe0Ef+VBjtLkI9h9SrdwnvffbuyJLHv8CDPmBTBfVqSR+0gQ282D0KWd0uOez8flHX/pPlyST8GRPSeQUVaUGiVOPjUFpfYgWAig5DRlZj4VSSmqk0uKjLR0xboocoCzQ+mXWwSxXa3bjTY3BRpOVCwRIAJEgAgQASJABIgAESACRIAIEAEiUPMI6JL2qtgS5q28Zx5eeXEUPv5xL67EsnAKWkRPzswFTfpMZKEcduD7cY7i0vMAACAASURBVM20CMeyZovh06YVi9WrMKHwv0M4Gl+WWsQj/dZNxMgfYwcf+jaCj7qYKfZF2xDlq/zMrzbq0MFi4bWKYVVxdRzsAgJRTzlS+OxLOHUtT28bJPfO4mysUkgV2SKgSf0yDhLkkRV+Tbfox2orTElCqrIbRba2sNUxcqWPHrB+VAwezqYzxoxuqvCY19viqrxphsZNfJUxonnkh19GmD6cknu4dCW5DC9cgca8QFiM20fC2C6u2xSB9spBxvrgwuUkvX2QHXYFt8reO5AT5XOzkVNqfctBVtGOC5+DHPnuWMmVk5OrEKU5DuaWqkemCmN76W433twsXS59IwJEgAgQASJABIgAESACRIAIEAEiQASeZwJPOaZ0afSFSVfx5zLZxxwufsFoHdISLZs3R4uWwfB3s2IHgSme58w80O29H7CicBRe//WuWmgMSzT0q6sMvyFFTh4TRTt1hn8Zvcyxw8eKvK9FLq5wkZFRDWdt5Y2GHkXK7BOE/xdVpSEfymi+gLdF8KjrAaVjLyQxd3E/v4zqJPcRGc0UuroyZZ95BtfxYKL0LT28pEhJTNYb4oTPz0dxtWJTnSK3NP4I9l6YglbtWXgMJoi3nrIJB/uxMB4Hj+PUuQu4FBaJuGwD1cMyzKzQbZELvDwUB+fJQqEk3n+AosgN2suT4OH9GMbOVWtIGUUegca89gZVOtW4fSSM7WKvusrQHUxELoxBdIz+MSNNicYD5irdVhlvXi8kSaHaXChEYXHxEpX/VpQilRRtqrENM1PlQaPyW8LYXrrtxpubepnQTSJABIgAESACRIAIEAEiQASIABEgAkTguSJQrUTpEvJ5SLpzDntln82yVDO4NO6El0e/hQn9GsFexORjkT3avDMD/fdPwnZVT2ixM2rXMlEKzCLYhb6LlaHl61OOs4TcITG3JJ/YyQXORcosi/MaG1+RAxjL147q8bQI9g72xYK9ND0V6WU6nmcjNS2PeXeasXxMSLN3gDXrsnwt3u9FNubm6nMXLgcJaSx+//QLtFv/CXrWZuOAxSi39+mAQbLPm7IQ47lIfnAb/105h2P/7sLu0/fxpCx7ylF9mY9ydrCXBzuXXTzSUtO0HIKpWopU/ozeJgo05su0paIPGLOPBLGdg5WDozKGusyzOROZZQWFl6YjJZ0NcGcDoLDHSk8FHtKiDuZ58OxTagQU35RFPlF5RUAQ2zXbb7S5qVk0pRABIkAEiAARIAJEgAgQASJABIgAESACzykBHUEQqhuNfCTdPIg1M0dixMITSFYKOJxNWwzs5aHmQWoOC8WJfBU3gr0mL5IJ36qXmRmTWJUXn4c8I2moFW9k1eU0MVGJZZLPbC+zahaWIregRHgzMVWGqygzo1EeKHywA9NeGYNPNp1GdKZELU65BVwaBKHrwAn45Mdd2LduKkJrqcdqMUozdBQiRglOHgX5Kpx05CjIL2sDRKAxr6M9xkg2Xh8JY7vYRGW/jsWE1+8nLSPCnimrm4wBrlQZwthu9GZSgUSACBABIkAEiAARIAJEgAgQASJABIgAEVAjUE09pXX1Uy4it32Ftf3bYUYz9ho7Z4pGQQEwRwxyirMUoKCgyNOwEDfWTsJHu+L1e5qqVyfNQvwTNbdepkIXi7HMk9rKUj3Ts/u9oKBEbePMLeUepDKnUN2XLPatzEtaeRXk6w3Nobucit+RpFzFloVvYMvXzvANDkHLoCZo1qwFQkKaoK6d0pOeM4FLq9exYkU2ho9ajVtlecNWvDkqOfNYSJkieIyTuQonHeWbWxRvh+h4QqAxr6M2YyUbp4+EsJ1HTnY25KHJ2SDmLBRjXq/dnAUsq3xNEMJ2vVbSTSJABIgAESACRIAIEAEiQASIABEgAkSACBiFQA0TpZnNkhhcvsJE5mZeLK4wCw3BYkE7MH/vnKLX36WpSEqRecfKhEcOpvkpiIyIMMDTUT9PSUo8EguZSiUL4SGqBU93JhReL5HC9eeuyXelSE9NZzxryY0QOTrDiSGI12cSZwsXxyKxlUdeehqKznHTl02Qe3nJiDi3T/7ZIqvA1AkBXYdi4tTX0L2+pXyMWDUZhfEdN+GDw1mCNKFUodIUNj5LYgQ7ujixFkTpqVcERycHnTG05RkFGvN6GmXcW5XpI4Fsz0+Ih6ybPJgTPWfmCndZrOjHeoKomLjAzbGKXzwRyHbjdi6VRgSIABEgAkSACBABIkAEiAARIAJEgAgQAU0CVayiaDag/ClM5NQXf5h/gruRcUrPaBG8/H1hqxaJo/x1shw5UYh4UBQ3xApNg/0FCEmh5n5sjHYXGctLS4R5sVi/yFkKkBSPHjxCkfO5yKshvMvyCBU3QMMGRSExFPnLDn9QoV4pf6aCFNzYvwrvjnwfO2KVrWLxyYNbNhSgP7U0j09H9IPU4vHp0qA+HPT2swnqehcd3KmlPFmSUGNeR3WCJ5enjwSyXRJ1B1GyTSjZJfZBY1/93urien7wsdTbkcbHJpDtxm+othIFXOu0VUdpRIAIEAEiQASIABEgAkSACBABIkAEiEC1IlADRWkr1K3vpowjzWLypiYjrZQDYyFunTmvjDvNwSKkJ7o6G0EsktzFmQsJSmFXDK/uL6C5hfH7sqCgJMawhYV5SQiMylaVmYGiiCScpROcrQxlwuNJeBjuKfVbzqIlQkP0q9Ji/w5o76YUpdkBcOFh0ZX2VK+s+er5+ZST2HU8WSkOc7C1tTEea/XKSn1n4zPsJhQRPDiYBLZCc2s9GUz80baFvVrcdPXnBRrz6tVU8XfD+kgY2/m0K7gQWbJp0aFbC+ge9WLU6dARPlW+mgpje1V1s2BrHZvJlq5+CGnfFk09rIw0r2tKmVXVe1QPESACRIAIEAEiQASIABEgAkSACBCByhGochlFvbli/94Y0dELhuq74jp9MaSDtVJokODOf7eQr1Zo7oWd2PNQIShxNh3x1lttYWeoBsvkP7FWKgW4/NdeRCt1KrHXQEwb4Vty+KG6YSrfzVjcYMMuKZKTUpQH84lQy8cb9ga3W38Nkvgo3MtSqPecaVO0bmGlP4PKXUnUcRy9XyTQOaLniL7w0MqIZWKhOzqN6I8iR2lp2ikculL20YgGN8ZoD5rDwUEWvkN28UhLSStf3PEKt4NHxpmjuKSMKy2y64j+XZx1CmdWrQegT92yD2IUZsxX2EgjZTSsjwSxXXIf+/ffVL4hIIZb3wkYXE97P3C2bTBuWCBMjTRXywNPENvL04AKPyvUWmeBRiOWY8++P7Fpzc/4/d89+HGkv8G/L9rNqSllam89pRIBIkAEiAARIAJEgAgQASJABIgAEaiOBHRJi1XWVlGtDpi8ahf+XvMxRnVqADvtuo+8PZbefTB3+XS0s1FKiblXsOfAQ00v3PwwrFt5CEkyDZYTo97QRVj2RnPoDfkqtkWD0BGY/dN2zOusXUQuvP4rvj+cohAvOSu0mLwcn7/srduDUmQLv5fn4+cZbQ0Sr1nAbETfuI1MuXbMDsFrNRSjg4zkwZt3FSfPZykEb5EjXnjnTYQYqtRLbuGPrZeUcaE52LSfigWj/LTYbQKPF+ZgzkuuivAgvAT3d27BySdVNpxg3nEqln8wGG08iwRnbXVzsGs5ARO6KNmyOM+XLt7VHEfashohTZpwANsOK0N4iOzQbdqHeKG25sDnnNrjvZkD4K55S7MVAo15zYoqn2L0PhLEdgnu/bEBB1OVGzlWIZj+7Ux09yy9NnDWfhj2+WcY7GlIJ1WenUYJgtiuUYsACcKsdSK3l/DBjK7wMlf8RnAmbug0dTr6uVZ8x6CmlClAJ1GRRIAIEAEiQASIABEgAkSACBABIkAEBCNQTQ46tIBX+1cxu91wvJdwCxfOnMXF8Pt4nCQ7IM8c9m71EdiqC3p1CoCLmVJc4HNxY90SbH+o7fAxKRL+Xog5bfyxfGA9mIqd0H7KBuzteQB/7jyEszfuIy69AGa2DnB290GzkLYI7RKKoNqWzE86C7vlJ+JpufhE/L3wM3QKXIx+HuwgRbO66LfwdzTvtwvb/j6JqxGPkJIngrWDK+o3aYNuL76E7o0c8GTnYS2FaU/KObcH+xP6YAgTKTnzQLy5didaHTqEcxGPkZ4rVXpR8yi8dxRbTmgR5LUXy5yB03Bwwx+413UMvNlhjRaNx2PdrlY4cjwMsU8KleUChRF7sHwn8xAtVY4UD7cvxk/9f8HkJkzsFTmgw/u/4vfmG7F+5yncfJwNEydvtHrhVYwfEARnsayPeHYm5Q58ueYaqtJPWmRTH13GvoGeoz/A42vHcfDEBVy5fgcPElKRVcg8bz180bLbALw6oDU85MIVj5ywX7HhbK4ucsZPl/XF92twufP7CLHmIHbvg0WbnRH802bsv/YA6RJreDbtgqGvj0LXuibIzsiEua2t/IxN3ZdAY153hRW+Y/w+EsZ2PmU/Fi95Ea0+6woXEQvf4D8MK3Z1xKWjJ3D1QTo4Rx+07toJTV3NUHj/BM6gPULrV7U4LYztFe7ccmQUYq0T1fOFt5rLOmdeH75erF8SCsvRupJHa0qZFTKOMhEBIkAEiAARIAJEgAgQASJABIgAEXhKBKqBKM0XC6JM7YSlWwA6vSz76CEifYIbWz7GpO//Q46ux/gkHJ7/OqbnMW/mYY1hKxLDKaA3Xpd9dOWRpaudv6X+qDRhP2a9YQnpijnoz0784zgmqLcbiunso/0qo0D1TFmnsOzT7Wj5zRD4WHDgLNzR8sWRaFnqOSak7n2M38sjSrP8OZdX4v1vG+On6a3hxEQ2M7dm6DW4WamS8w7dwCoNUZo9kncDP06dBa/Vn2OgtwXrKhv49nwLC9lH82KCdPxxfDH5CxxLK6f9moVVKIUTWcGjeW+Mln10lsAOzYzeg9kfrEdExfQqnSWXdUMStREfzG+CXxa+AC8mopnWbosxc9inVEbGMe4AFi6OxYRFY1Gm3inQmC/LloreN2ofCWK7BI92zsQkl6VYObktXNhmi8jKC636DEcrFaOlaRewbOYqmM9rh9Ci9Koc9oLYXtFeLUc+AdY66eMYPJby7O2Ckh0cXhKHmHhtm5eGtbWmlGmYNfQUESACRIAIEAEiQASIABEgAkSACBCB6kHgqYfvKDj1BQaN/hDfbDmMa4+eQKJHzOGlOYi9vBNfTxyE4QsO4bEyzLFOlIWx2L/gVbw0YRG2X4xFDhMrtF9M/HsSg6sHNuLLqePw5Qn1KNWlc+Xf24WPhgzG5JX/IDw5X4eOzbyZM+7h5G+f490VZzXiXmtvhyyVR9LRzzBkyDQs3X4C4bEZyNfZbt2laL+TjetrJ2LIxGXYdTkGmfpgaylAErsPs0eMwqxN5/Aop8hru/SDfEEyru9egvFDJ+PX21XofaxsRv7VLVj88184fScROTrtY/2d9RCnNs7F8GEfY09MWQNJC4xKJzHBc89HGPH2dzgcna05hvgCJF7aiOnjPsKO8/dhcBMFGvOVNlelAMH6SAjb+Uxc/elN9B+zEBtPRLA3IUreVpBkxeLKnuWYOPRN/HQ9l21QFb3FUYD8Ql1rjTFJqpQlhO0CNbWkWOOvddKYnVj+6008KdKg+Rzc3rQKO2MrIUrXkDIF7y6qgAgQASJABIgAESACRIAIEAEiQASIgBEJcD5+/lWsnuhrvQnsPHzg5+uD+h4usLe1grlIgvwnqYh/dA+3/gtHZFKupoCnr8jie+z1e1c/BAU1grdnLdhbilGYm4XM5Me4H3kbNyNiwCJ6lP9isajrBDRDE7/6cHeygQWXjydpiXgQEY5r4feQql/fNqg+zsQSNtbm7ABG5jktz8G8y/OzkJZVkQaXVCk2t4Wjkz2sTEXFB+1Js5MQk6RFJFVrqcjaE01aBqFxfXc4WZtCmpuOhIcRCLt0DXdTK9cug6AY8JCJrRf8GzeEdz0vuDrYwFxciNx0Zl/UTVy9dgcJudVk6LMxVC+4DUIa14OrjRgFGXGIuHqWhZlJqGToE4HGvAHsDX1EuD4SyHYTazg728Mc2Uhl4YVyivYzTEIw69+1GO3BwkSwQxLXvPoSFoc9jc0OGXmBbDe0UyvxnHHWOgt4tOiCjgGOyIk4iQPnHyKn0lO9ppRZCfiUlQgQASJABIgAESACRIAIEAEiQASIQBUSqGaidBVaTlURASJABIxEgHMZjJ8PzkMHFvOezz2Gj/83CX+mVloJNVLrqBgiQASIABEgAkSACBABIkAEiAARIAJEgAhULwJPPXxH9cJBrSECRIAIlJcAB+fQLgiSH7DHwvbcPI+L6SRIl5ciPU8EiAARIAJEgAgQASJABIgAESACRIAIPD8ESJR+fvqaLCUCRKCcBETuwegU6AxTPflETp0w9e2OsJZr0jk4t+tfxFQ8hLGemugWESACRIAIEAEiQASIABEgAkSACBABIkAEng0CJs+GGWQFESACRMD4BMR1++L/7N0HeBRV2wbgZ3bTCOmV3kmAEEroELogKCJKVz8LdlAUxIaCvSsqyi9WRFFRqYIICIgiHemht0AoCSQQQnp25z9bk2x2Nxu2JLt59rr4PjM7e+ace860d8688/pXt0N5aANWrFyHjdv34MCpVGSIfO7ewXXRostgjHv8QQyorxSZnGXkH5mHmb9dAGPSjl8XLJECFKAABShAAQpQgAIUoAAFKEABzxFgUNpz1iVbQgEKOENA8kVE3A24W/PPYvkyVGn/4K0pn2FPnsWZ+AUFKEABClCAAhSgAAUoQAEKUIACFKCAEGD6DnYDClCAAhYE1BcPYcue07haaDlHtFyYgaTlH+KB0RPx0/ECCyVxMgUoQAEKUIACFKAABShAAQpQgAIUoIBBQGoaE2s52kInClCAAhSAokY0mrdugUbREYiIDEeovxJFOVdwIfkI9u7cgxNXiqhEAQpQgAIUoAAFKEABClCAAhSgAAUoYKMAg9I2QnE2ClCAAhSgAAUoQAEKUIACFKAABShAAQpQgAIUsF+A6TvsN2QJFKAABShAAQpQgAIUoAAFKEABClCAAhSgAAUoYKMAg9I2QnE2ClCAAhSgAAUoQAEKUIACFKAABShAAQpQgAIUsF+AQWn7DVkCBShAAQpQgAIUoAAFKEABClCAAhSgAAUoQAEK2CjAoLSNUJyNAhSgAAUoQAEKUIACFKAABShAAQpQgAIUoAAF7BdgUNp+Q5ZAAQpQgAIUoAAFKEABClCAAhSgAAUoQAEKUIACNgowKG0jFGejAAUoQAEKUIACFKAABShAAQpQgAIUoAAFKEAB+wUYlLbfkCVQgAIUoAAFKEABClCAAhSgAAUoQAEKUIACFKCAjQJeNs7n3rP5RKPjLaMxclAiEmIbIDLQG6rsdJw9uhcb1yzGT4s24nRuBZvojDIrWAXOTgEKUIACFKAABShAAQpQgAIUoAAFKEABClDA3QSkpjGxsrtVuiL19Ws8FNM/fAG3xQTA/LBwGXln1uC9SS/ihwPXYAuGM8qsSJs4LwUoQAEKUIACFKAABShAAQpQgAIUoAAFKEABdxVQhoVHvOyulS+v3opaN+GduW9iaCM/XUBaViPv8hkcPX4WWfBHkL8PFJIEr+Cm6HlDK2Ss/wP7LqutFuuMMq0ukF9SgAIUoAAFKEABClCAAhSgAAUoQAEKUIACFPAgAfODhz2hgYpoDJv2AgbXVkIS7ZGLzmLVW3ehf5/BGDZqJAb3649bn/kJB7J1Y6MVYd3x9Kv/Q1OllcY7o0wri+NXFKAABShAAQpQgAIUoAAFKEABClCAAhSgAAU8TcBjg9K+7e7FI71C9COk87Dn08cwZd4eXCrSr0J1Fo7+/iYeemkVLmkHR0vwbzcO4/sHa4PY5j7OKNPccjiNAhSgAAUoQAEKUIACFKAABShAAQpQgAIUoICnCnhoUNof3YcPQX39qGfVhaWY+f0RFJRZi2pcXPUxvt5ToMslrQhF/xEDEGk2Ku2MMstUiBMoQAEKUIACFKAABShAAQpQgAIUoAAFKEABCni0gGcGpX3bo19P/ShpqJCy8jdsy7WwHlUp+OP3XSjQZvGQ4NexP3qGmolKO6NMC1XiZApQgAIUoAAFKEABClCAAhSgAAUoQAEKUIACnirgkUFpZdMOSAjVN019Ff9tPYhC/RqUQrth/GtPol+0oelqpO3YjhMq3QySTxt0ivcps76dUWaZhXACBShAAQpQgAIUoAAFKEABClCAAhSgAAUoQAEPF/DAoLSEgOaxqGdomeoo9h82hKSVaDbmKUy4fRyev7ctvPUrV5V8AIeztYmlAUUAYmLrovT7Dp1Rpof3LDaPAhSgAAUoQAEKUIACFKAABShAAQpQgAIUoIAZAQ8MSitQp34deOszcMi553HusiHgXAvdujeDl6REnS5d0dgQeS5Kxbk0bf4O8RG/b1BX94JEI5gzyjSzNjiJAhSgAAUoQAEKUIACFKAABShAAQpQgAIUoICHC3hkUDo8KkJkh9Z91OkXcUmfmgNeTdGiqS4SrWzUErH+xpmQlm6YSYGakRGoWSqttAKOL9PDexabRwEKUIACFKAABShAAQpQgAIUoAAFKEABClDAjIAHBqWVCAzyNwal5ZwcGN5xKAVGIdpf12TJqxbqRemHSss5uJZjGCktXndYMwiBpYLSzijTzNrgJApQgAIUoAAFKEABClCAAhSgAAUoQAEKUIACHi7ggUFpb/j6SMVB6cJ8FOjjzYrAYAQaWiyFICzEEHkuQoGYyRCWlnx8IIoo8XFGmR7es9g8ClCAAhSgAAUoQAEKUIACFKAABShAAQpQgAJmBDwvKC0poJBKRJTVahgSc0ChKH6BoeQNb0PiaRGOVqv0eac1SApl6ZzSzijTzMrgJApQgAIUoAAFKEABClCAAhSgAAUoQAEKUIACni7geUFpuQiFqhKpOLy9jaOe1VlXkWWIPct5yM0rfrmht4/SOLoaqkIUllzzzijT03sW20cBClCAAhSgAAUoQAEKUIACFKAABShAAQpQwIyA5wWlRTg5J6ewRCoOX/joGy5npiItXx+Ilq/i8lX9f0s+2pQfho82D3VxXFtMdkaZZtYGJ1GAAhSgAAUoQAEKUIACFKAABShAAQpQgAIU8HABDwxKq5F5OROGAdFSSBhCDK1UJeN4si6Zh1yUivMX9Yk9FKEIN84koyjzSvGIam0HcEaZHt6z2DwKUIACFKAABShAAQpQgAIUoAAFKEABClCAAmYEPDIonXo+rTgoHRyFKF99y1Up2LMvXfud6kQSDubop0vhiAo3jJRWI/1CKgpKYanh+DLNrA1OogAFKEABClCAAhSgAAUoQAEKUIACFKAABSjg4QKeGZQ+fhLX9EOlJe9GaNZQqV+Nhdj1+0qcKcrGzqWrcFI/UFoKaowmkXoKWYVTJ5KLX46o/aUISju8TA/vWWweBShAAQpQgAIUoAAFKEABClCAAhSgAAUoQAEzAh4YlBYZoA/tw8EifVJoRX3Ex4UZX2KYv3MGRt04BA/PO2UMPPu0jEcLb/1IafUZ7E+6YsxJbTBzRplm1gcnUYACFKAABShAAQpQgAIUoAAFKEABClCAAhTwaAGPDErLGduw6bBhGLQ3Em7ojUjjewyLcEWk98gxvsjQF+36JiJML6FK3YKNR/W/LbHqnVGmR/csNo4CFKAABShAAQpQgAIUoAAFKEABClCAAhSggBkBjwxKQ3UGq//Yh3xt4FmCX+exGNPSx0zzAUXkANw1KBq6BB8qpKxagV2lE0rrfueMMs3WiBMpQAEKUIACFKAABShAAQpQgAIUoAAFKEABCniugGcGpUVijtNLv8eaDF1iacknFve9/Bg6BxuHS+vWqG9jDJ8+Gf31w6Tl7B2YO38vCs2ub2eUaXZBnEgBClCAAhSgAAUoQAEKUIACFKAABShAAQpQwGMFlGHhES97ZOvyTuFAdjyG9moIP0mCd1R7DL6xDUIkGT7BddCi6y145KWX8FCnCCg1sWo5B7v/7ym88dclk5ccltBxRpkeic9GUYACFKAABShAAQpQgAIUoAAFKEABClCAAhQwLyA1jYk1Zlc2P4sbT5XCkPjsl5j5vxaoaTJIulSr5HycWjIV901fiXNl00mXBnBGmW5MzKpTgAIUoAAFKEABClCAAhSgAAUoQAEKUIACFKiIgOeOlNYq5OL0xj/w9zl/NI2LQZ0AL5FhuuRHRmFGEpZ8+DQmz/wXF3XZPsrxc0aZ5SySX1OAAhSgAAUoQAEKUIACFKAABShAAQpQgAIU8BABzx4pXXIleYWgSfuOaB/TAJGB3lBlpyPl2F5s/+8ILpl7saEtK9gZZdqyXM5DAQpQgAIUoAAFKEABClCAAhSgAAUoQAEKUMBNBapPUNpNVxCrTQEKUIACFKAABShAAQpQgAIUoAAFKEABClDAkwQUntQYtoUCFKAABShAAQpQgAIUoAAFKEABClCAAhSgAAWqtgCD0lV7/bB2FKAABShAAQpQgAIUoAAFKEABClCAAhSgAAU8SoBBaY9anWwMBShAAQpQgAIUoAAFKEABClCAAhSgAAUoQIGqLcCgdNVeP6wdBShAAQpQgAIUoAAFKEABClCAAhSgAAUoQAGPEmBQ2qNWJxtDAQpQgAIUoAAFKEABClCAAhSgAAUoQAEKUKBqCzAoXbXXD2tHAQpQgAIUoAAFKEABClCAAhSgAAUoQAEKUMCjBBiU9qjVycZQgAIUoAAFKEABClCAAhSgAAUoQAEKUIACFKjaAgxKV+31w9pRgAIUoAAFKEABClCAAhSgAAUoQAEKUIACFPAoAQalPWp1sjEUoAAFKEABClCAAhSgAAUoQAEKUIACFKAABaq2AIPSVXv9sHYUoAAFKEABClCAAhSgAAUoQAEKUIACFKAABTxKgEFpj1qdbAwFKEABClCAAhSgAAUoQAEKUIACFKAAnJ+oGgAAIABJREFUBShAgaotwKB01V4/rB0FKEABClCAAhSgAAUoQAEKUIACFKAABShAAY8SYFDao1YnG0MBClCAAhSgAAUoQAEKUIACFKAABShAAQpQoGoLeFXt6rF2FKguAgpE9XoI42+oA29JRlHaBnwxaw3OqqtL+9lOClCAAhSgAAUoQAEKUIACFKAABShAgeoiUD2C0j7R6HjLaIwclIiE2AaIDPSGKjsdZ4/uxcY1i/HToo04nXv9q9yrfh/cM6wNArXjzlU489dcLNp7DfL1F8lfVjsBBep3vx2jRtSFUrRdnQ78ObvqBqW9I1ujY9Q5bE3KAOPm1a6zssEUoAAFKEABClCAAhSgAAUoQAEKUMAuAY8PSvs1HorpH76A22ICUCpXiW9dxHbR/BuEO+5eg/cmvYgfDlQ8kCyF98aLn32IMU18IGlXRSG2XlyAxQxK29Ux+eOqKCAhKGYg7rzvbowd1BpX54zFrSIozQ8FKEABClCAAhSgAAUoQAEKUIACFKAABSoi4NE5pRW1bsKbX72O2w0BaVmNvIzTOLj/AE6kZUOlHcoswa/+ALzwxQyMbVLBGH3NeDw68x2MNgakK0LPeSlgKlBybL1cBUfaeyPhnpfwxK3tEO2ruwVj2gL+TQEKUIACFKAABShAAQpQgAIUoAAFKECB8gQqGIUtr7gq9L0iGsOmvYDBtZXaEcxy0VmsfvdpvDp/Dy4ViQmKQDQf/ATefXkMWtWUoAjrjqdf/R+23jMHx1U2tMOrIUa8MxOPtQssPQLbhp9yFgqUFVDh0II38eLRSChFTml1xn7s0/RTfihAAQpQgAIUoAAFKEABClCAAhSgAAUo4GECHhuU9m13Lx7pFaILGMt52PPpY5gy7wgKDCtQnYWjv7+Jh+RQLHl3ECIUEvzbjcP4/oswZXWm9VGqUjj6vDALL/WNEgFETcC7ECqlN7w4eNTDNg9XNkdG9rG/seiYK5fJZVGAAhSgAAUoQAEKUIACFKAABShAAQpQwPUCHpq+wx/dhw9Bfc0b48RHdWEpZn5fIiBtdFbj4qqP8fWeAl0QWhGK/iMGINJqcLkm2jwyE++PbAwfTUBalYo1b3yK9cZot+tXIpdIAQpQgAIUoAAFKEABClCAAhSgAAUoQAEKUMBdBDxzpLRve/TrqR8lDRVSVv6GbbkWVokqBX/8vgtPtusCX0nkl+7YHz1DF2JhRsn8vobfeqHh8Lcxa3xbBGrC+WK09e7/ewLPLKmNt56zUD4nU8CCgKJmJOqF19C/ILP0TLLqGtLOZiDPwm/LTpZQI7wuImsqIMmFyEw9jyvaGyXiCYC6CejduxPiGkYiwKsQVy8cw65/1mHD4QxYzhCiREBUHYT7lbxD443IgOL7WD7B0WjQ4BrUZSoj0o9kX0JKeq71Jw70v5N8o9Cqazd0aNUEdcIC4KcoRNbFMzi6bzs2bjuC9MIyC7AwwQtB0bURqsl3Lefg4tlLyDFUzicCcT16o1t8E9QO8YU6JwNnj+3Fpr+34Mhlcwol2i/nI+NcKrI0aX2UwWjWrS96J8SgbqgoR7Qz+eAOrF+/A2eyze0zLFSVkylAAQpQgAIUoAAFKEABClCAAhSgQDUW8MigtLJpBySE6oNn6qv4b+tBGOJaUmg3PDq5Cw59OhPrUjURKzXSdmzHCVUXtBQakk8bdIr3wcK/88t2CykITdvHIFyk+oBcgJMLn8Njn+9DjlftsvNyCgWsCkgIGfQ6fn8tET5m5lOnL8CD/V7CvzYHZL3R7ZmF+L9bAiCp0/HzQ/0xfUdtDHr6LUwf3RbhJrll5CeewbFlb2PSK4tw1FzkWwrBzW/8hld7mKudpsJKNBz7KVaONVN5EYrOXfEkOk9ZU5wux9xsXtHofu8UPHf/jYgJ1uV+Lz2bjIK0XVg48018sPggssqL+Sob4I5PF2NSnNiQC7bg5YEP4Kc0b9S/4XG8MfUudK7lU+YGgJyXgn8+noyJc5NK3wAo2X7VCcwecxtmF9yC6e8+i2ExIo98qacpZDyfeRBLPpiGNxcewrXy6mnOgtMoQAEKUIACFKAABShAAQpQgAIUoEA1EvDA9B0SAprHop6hZaqj2H/YENlTotmYpzDh9nF4/t628NavaFXyARzO1g+pVAQgJrauCLmZ+cgZWPfGU/h0bxYu/fMWHn19PS6VHSZq5oecRAEXCog+HBXdGLe8NQcz7mhXJiCtqYmkqInmQ1/G5y/2QajVdDXOqbcU0AYPfP4Lvpp0E2LNBqS1tYRPVALGvvYd5k3tJfK+V6AuihCEihHRDW9/Hz9+eB+6mAlIa5fgVw/duseihjUDRRQadrwd7375Cm6LNQ1I6+qpDG6F4S/PwRcPx8O/AtXkrBSgAAUoQAEKUIACFKAABShAAQpQoDoKeOBIaQXq1K8Db32QSc49j3OXDQHnWiIA1Uy8kFCJOl26orFyF45oHskvSsW5NDG8MVjTBcTvG9QV/3tCJP4w88ndj88fH4VluWdwxuZRrGbK4aRqLiAja9NneOLxX3Qv4xQayoZD8eKkGxBl9o5IRbi8EHv3O0hoHi3yqW/GD9/Mx6r/TuBSgR9qt+qDsY+Ow8DGIm2IZjsY+iTu/vFffHzAJIWFfBUbPnkCj/xQMlrrhdZ3v4UJXWuKcLEK5/54D68vO20mfYdmk0qynBpEWQ+3vzMLT3UL07VdfQ3H1vyAOYvWYefRVFxV+SK0QRx6DxuHB26NQ6jSHy3GvoN3T4zBgz8lm98uTXmkYES1uxNvPN1P65l/YTfWrPoL2w+dRbrI6eEXWg+x7RMxcEBH1DL9renfUk30e+I5+PgpoE7fiZ9nf40lmw7jQp4farXsiZGPPILhccFQKIKQMOE9PLN3JF7ZlGVT6hLTRfFvClCAAhSgAAUoQAEKUIACFKAABShQHQQ8MigdHhVhfExfnX4RlwzRZa+maNFUF/FTNmqJWDGk8UiWWM0i3UFaupipueY7BWpGRqCmiMVdsfAYvurSaZypDr2DbXSqQOH53Vh3vngRyvi2mOyQJYpgc2xzFByfj/H3vokN6cXD+U+dOICt25Lx0YK3caMYeix5NcHNN8Vh1oE9JkHkQpzb+w/OlaqPD+QBxcHr7OT/RC7lA7YFiY3lKFB72FQ811sXkJZVF7D6lQfx7IITKJn2/VJaCo7uWI+1e2dg3vQ+YpR0ELpNmIiBK6fgj8sWNsySdVVEYMD4+xDqn4tDP0/DxHdXItk0r/wvX2PGe20xoq8PCq0WKcHXT+SPvrgW0+6ajIVnig1Sz5/Enk3bcPqruZicIFKniID78El34Ietn+Oo2btaDlnBLIQCFKAABShAAQpQgAIUoAAFKEABCri1QEUeiHeThioRGORvDErLOTnGYJcUGIVof12TJa9aqGcYkipeinYtpzgqJdUMQqC1x/ndRILVrMYCqrP49fUZpQLSBg112ip8vfS0PpgsAtht4hHlqj2Bdzzuuj8RQZrlySqcnj8VU00C0sVrLR8nF7yOT7fmaEcdK0L7YMygaOPIcqtrV/JGRFQQ0pY/j/tfMxOQ1v9YlbEHPy/cjmtWC9PUNQv/fPQGFpcISBt/kncIc97+CcdUmlqKlCMtbsfItobkQOUVzO8pQAEKUIACFKAABShAAQpQgAIUoED1E3BVKMqFst7w9ZGKg9KF+SjQx5sVgcEINLRYvMgsLMQQeS5CgZjJEJaWfHwgiuCHAm4roDq1Agt35FiofxEO794Pw30YRZ36qOuiPYF3u5txU33d0wpy/g58+005AWH1Baxavh152nivL9omdkGQjdumnLMVsz9c55C87+rL6/DzqlSzqUo0yIUHf8cKw9BoZW0k9ooxn5fewhrhZApQgAIUoAAFKEABClCAAhSgAAUoUJ0EXBSKciGppIBCKhG1UquL0wsoFMWBIjGS0tuQeFqEo9WqEm8sVChtG43pwmZxURSwXUBGdtIeHLeSPqIo4xKMqdYDA4tv1ti+kOuYU4mmXTohWp8zu2jfWqxPLe9NoTIyDx1EinY2MQq5eQvoM/CUs3wZeVuXY1W55ZdTjPZrGQV7tmCHafqPkj9VncLO3Rn6oLUS9eNaVcoLJG1pDeehAAUoQAEKUIACFKAABShAAQpQgAKVLeB5OaXlIhRqH6PXfSRvb+OoZ3XWVWQZYmByHnK1wy81HwW8fZTG0dVQFYLvMDQI8v/dT0CNjIvpVvuwXFCAAkPDlN4uGtVbA81iGuhv+KiRmx+IVr16I7YcYCm8OEe8IiIKEZq9lsl7GcsWocKJvftxtXhXUHYWm6eokXryFLKtlqXC2dPnxA2wKG37lGL0eR3xH8Z89jYvizNSgAIUoAAFKEABClCAAhSgAAUoQAHPF/C8oLQIxeXkFIqxjb7aILPk4wsf/XqUM1ORli8iS5rcHPJVXDZErCQfbcoPw0ebh9pqAMrzOwZb6N4CeXn5Va8BynDUivTS3/xRICjxccxKrFg1JakGamjSNeeV9zsVUs+nVfAljJbKlHElI9PSl/rpMrIyrxanAAoO1uXNtjJavZwC+TUFKEABClCAAhSgAAUoQAEKUIACFPBYAc9L3yEeoM+8nGnM/SqFhCHE0EpVMo4n66JEclEqzl/UR4wUoQg3ziSjKPNK8Yhqj131bBgFXC3gCz8/GxNCW6qaSM2jUNhQhiwj32GBeZG+Q4wst36fSsxTqLkZpvtIXt7wsqGalprJ6RSgAAUoQAEKUIACFKAABShAAQpQwJMFPHCktHjUXoyQVKOuNiWBFByFKF/xH5p8HKoU7NmXDnXraKhPJOGg4T1wUjiiwg0RJDXSL6QWpzbw5LXPtlHApQIiLU6hIWxbhAPfTMBzSy2/PNBs1dTZSL1mPTxs9nd2TZTg6+dXnN7HbFliHvGCVMNeRJMexdhUs/NzIgUoQAEKUIACFKAABShAAQpQgAIUqL4CnhmUPn4S19TtESpGSEvejdCsoQhPJ2lGRRdi1+8rcWbkCKQuXYWT+oHSUlBjNInUD6eWVTh1ItlBj/1X347FllOgjID6Mi5lqMRoYk0KDwneBRk4dvSoG2xrEsLCQ0WNT5ZpUvEEkY4kJMj4glT5SgaulPcORyul8SsKUIACFKAABShAAQpQgAIUoAAFKODJAh6YvkOEng/tw8Ei/WhKRX3Ex4UZRzDm75yBUTcOwcPzThmDYT4t49HCWz/GUX0G+5OulPOovid3Cbat0gRkdXGAVql00csHK9JakxHKFU1PIV/D8WMX9Kl1FKgX2xyBFS2jItV12LwKRDZtgmCrdVWifsN6+qC0jMKUZKQwKO2wNcCCKEABClCAAhSgAAUoQAEKUIACFPAsAY8MSssZ27DpsGEYtDcSbuiNSGNAqQhXRHqPHGN8zRft+iYiTC+hSt2CjUf5djLP6ubOaI2EGlEx6Ni9K+Lr+JeT2sHG5WddhSEzhVQjDOH+VqOgNhbq2NkKS+RN9vPTvUzU9iUU4dDmbUjXBmsl+HUciL7GtDm2l+L6OSX4tO2OzgFWlqxshg7tQ/RBaRWO70kyrksrv+JXFKAABShAAQpQgAIUoAAFKEABClCgWgp4ZFAaqjNY/cc+5GsDzyL41XksxrT0MbuCFZEDcNegaP2oVBVSVq3ArgKzs3IiBfQCfmhxx0wsX7UIP3z1NX5duRyf3xULPzt9VKkncDJbN7xW8o5H5wR/O0t09M9FvvVLGfqnCGwZPVx2+Xnbl2D5Gd1NHymgJx55pCuCbI69K6CspD2WFNALdwyrb0zPYdoyv3a34ObGmiz24qM6ib//PukGaUlMW8G/KUABClCAAhSgAAUoQAEKUIACFKCAawQqKcTj7MapcHrp91iToQ/w+cTivpcfQ2fT5+99G2P49Mnorx8mLWfvwNz5e7XvROSHApYEFNFD8cyUvqjnq4umSl7R6PXkZNwSZXN01XzR+bvx77ZsXdBXEYrBjz2MjrZHbM2X6dCpKiQfOIws/Uhn306jcXfbgIqNEi/Yizmz1uKSpgxJiYaj38XHD+ryv1usqjIQjRPvwItfLsBLvc3fXLL4W0d9IdVAxwmvYlyLGmVKlAITMOH5UWigjUnLyNnxMxYe4dMWZaA4gQIUoAAFKEABClCAAhSgAAUoQAEK6AU88EWHupbJl9fgw082osf0nghRSPBvPQ5f/BKD+fOWYdupa/CtHY/+o8fiphYhulHScg52f/kOfj1jPRGs/8A38fu0RJQOjfkg0DjBCwlPLsCGR0vn3y3Y/DaGPbsCmSZpedkT3U9A0bA5mhhykOurL/k2QvN6IiqZVnT9DZKvYM3chTjZ9x408RIj/FuOw5ylnfDXP3tx7lqRMc950dHlmLnkYKXcPMnduhyr027CqFpKSL5xePibJei0di22Hj2PzDy1vo4yik6ux/wNZ8yMFlYj7fc3MK1LLGbe3hDeyjB0f2IuVgz8E4uWrMWWA6dwIbMQPoEhCK/dFG06dkVin0S0rVVDjFLOxrL51897/b9UIyc7D35BnfHUdz8hfu5cLNp0GBfyfFCrRU+MuP8eDGjipw3Oy3kHMeeDxcwnff3Y/CUFKEABClCAAhSgAAUoQAEKUIAC1UDAY4PS4hl6nPl1Kp5q8iVm/q8FakoiB3D9nrjvefHPdMXK+Ti1ZBomf30Y5WXukHwCER4eDl/TMox/S/AOCEOESf7ZgmA/i4/+WyyKX1RJAfX5FJxXy6itLB4ZLasuICXV+g0NWxqTu3MWnv6oJb6c3FnkORe5jKPb4MaRbUr9NH/tAXxWSUFpZG/Ex68uQIcZo9DUT4LkVxsdbr4LHUrVUEbuivP41WxQWswoX8K6Vx7A5PyZeHNMSwQqlAhrNQgPaP5ZQ6q0Gzoq7J/3Ec7f/AyG1muOQRNeF//KVlQuuoA/X5+Cz/bnlf2SUyhAAQpQgAIUoAAFKEABClCAAhSgAAWMAh6avkPfPjkD/75zL+548Udsu5BvHGlavP5lFGbsx8I3x2HMtJU4xyfuuWnYIKBOWYKZ3x/ENUMMWs7F4R8+w5Jz9gelgRzs/2Y8Ro3/GEt3piBLVWmRWAsSMi6tfw2jRk3Chws2IOncVRSIAH2FP0XnsPr1OzH0oXexYMc55FosQ4bqWgp2/zkPbz95H97eUN5towrXxKYfyBfXYNq4pzBnexoKTJsrq5GdvB6fjr8TkxYlV8oIdpsawZkoQAEKUIACFKAABShAAQpQgAIUoEAVEZCaxsSahliqSNUcXA2vEDRp3xHtYxogMtAbqux0pBzbi+3/HcGlyolzObiBLM61An6ok9AHPVuFIvfov/hz2xnkOmFLUvoGIjQsGP7eCmPuZnXOJaRcyjFzk8W1AoalSV41EFDTV7yEUIyc1k6UIRdk40q2rdnZxVMMUTFo27YFmtSNRHANJYryspGVfh6njh3GwaMpEBk9XPuRwjH6izV4tYcmL08htr5+I+79MRVq8YxEZMvO6NauKWoH+0J97SKSD+7A5t2nxQ0E11aRS6MABShAAQpQgAIUoAAFKEABClCAAu4qUH2C0u66hlhvClDA9QIWg9KurwqXSAEKUIACFKAABShAAQpQgAIUoAAFPE3As9N3eNraYnsoQAEKUIACFKAABShAAQpQgAIUoAAFKEABCri5AIPSbr4CWX0KUIACFKAABShAAQpQgAIUoAAFKEABClCAAu4kwKC0O60t1pUCFKAABShAAQpQgAIUoAAFKEABClCAAhSggJsLMCjt5iuQ1acABShAAQpQgAIUoAAFKEABClCAAhSgAAUo4E4CDEq709piXSlAAQpQgAIUoAAFKEABClCAAhSgAAUoQAEKuLmA1DQmVnbzNrD6FKAABRws4I1arTuheYjmvp0aV47vwL7zBQ5eBoujAAUoQAEKUIACFKAABShAAQpQgALVU4BB6eq53tlqClCAAhSgAAUoQAEKUIACFKAABShAAQpQgAKVIsD0HZXCzoVSgAIUoAAFKEABClCAAhSgAAUoQAEKUIACFKieAgxKV8/1zlZTgAIUoAAFKEABClCAAhSgAAUoQAEKUIACFKgUAQalK4WdC6UABShAAQpQgAIUoAAFKEABClCAAhSgAAUoUD0FGJSunuudraYABShAAQpQgAIUoAAFKEABClCAAhSgAAUoUCkCDEpXCjsXSgEKUIACFKAABShAAQpQgAIUoAAFKEABClCgegowKF091ztbTQEKUIACFKAABShAAQpQgAIUoAAFKEABClCgUgS8KmWpXCgFKGAioEBUr4cw/oY68JZkFKVtwBez1uCsmlAUoAAFKEABClCAAhSgQNUS8ELr0VMxtrXmclqNlFWfYPa/6ZCrViUt1MbO6w5lAwyeeD8SwyTz5cvZ2PH9+1h8VGX+ewdMVbYahWljWovrJkB1dg0++eIfXKy06yY7PSvoUbXaXsHKc3YKUIACJgLVIyjtE42Ot4zGyEGJSIhtgMhAb6iy03H26F5sXLMYPy3aiNO5tvUNyS8acd16o0+PTmgX1wJN64UjpKYv1HlXcTk1GQf37sTmv1Zg+YZjuOq847BtleVcbiSgQP3ut2PUiLpQilqr04E/Z1fdoLR3ZGt0jDqHrUkZ4jScHwpULQH2z6q1PlgbCribAPch7rbGHFNfrnfHOFafUrxQv9swjBjoK5pchL3Jc/GFCEq7x+WfndcdUjjaDb4NI+pprlrMfNSXIa2e4dygdL0uuG34IPiJoHRRUgrmfimC0maq4ppJdnpWsJLKKtX2ClbeA2evnscOJRr2vw/DWvtDd2tKhip5Hb5ekoQcG9axFNoRY+7sjmizuxAZslqNwtwsZKSewfFD+7Dv2CXklXvHT4HoHndiTMdQfZ1sqIh2Fhl5B5bhyz9PVfr+u3r2JcDjg9J+jYdi+ocv4LaYAJTKVeJbF7FdNP8G4Y671+C9SS/ihwPXLN7dlgJb4fYJj+GB2xLROFBZtqP7+SEgJAr1Yzth4IgHMOnIMrz/wtv45UCWxTJt3Uw4HwWqhoCEoJiBuPO+uzF2UGtcnTMWt4qgND8UqBoC7J9VYz2wFhRwVwHuQ9x1zdlXb653+/z462opIBfg8rkzOC2XjCj5IKRWFII0Q5f5oYDHC1TzY4eyOYZNnIjxzYv3AeqM2khaNRXrbBjsqQhth+EPPYx4W6KRsgrZKdvx27ez8OkvO3HJ4p0/CVGdR+PhBxtrB/nZ/pGRuXgvvqm0oHQ170tiRdnSDWxfn1VsTkWtm/DmV6/jptr6ILKsRt7lFJw8dw2+UQ3RMLImlJIEv/oD8MIX/lDfPR4/nigy2wpFnX64987eaGLaw8VGUpCbC5WPP/y8FLpgtaREUOwwvDynCaIfeRCf7LIc7Da7ME6spgIlb/+JO4RVTsEbCfe8hCduDRb9XIWrVa5+rFD1FmD/rN7rn62ngL0C3IfYK+iev+d6d8/1xlrbL2DHdYcqCbPvvRmzS1ZCGYfJS3/Cw2Uulu2vqXuUYIenezSQtSwlUL2PHcpGvdC7cenAmCKkO/om+GHdxjzH9hURW6tZvyvGvtgJA/rNwMNPfov92Y5dROWWVr37ksbec4PSimgMm/YCBusD0nLRWax+92m8On8PLmnizopANB/8BN59eQxa1ZSgCOuOp1/9H7beMwfHLd59Eb8TgW3NnZo/lq7Auk3bsetQCjLyxA8UNRDdKhG3PfAEHhnQGDXETWJFYDweeXsS/hvxOjZmVb0QY+VufFx6aQEVDi14Ey8ejRQ3SmSoM/Zjn/n7I4SjAAUoQAEKUIACFKAABShwnQK87rhOOAs/o6cFGE72SAEF6vXqjRhtTFqNrKvZqBkUCIUiDIl94uGzcTsKKtJuuRC7vp2KOXtKBD8kL/gGhKJOk9boMWAAOtWrAUkEpyO6T8Ynz5/EbdP+xpUy4TWR2//PmZh2JqhUhgRFvQGY+EAiIjRpE+QsbP9uBpYeL5mAVEb+qcMiCRM/lSXgsUFp33b34pFeIboOKedhz6ePYcq8I8UbiDoLR39/Ew/JoVjy7iDRSSX4txuH8f0XYcrqTDOjVFXIPLwCH876P8z7+ySumSbSVecidf+fmD1pK3ZOmYuv7o2BrxiFraw3DONv+xabvzvD3LuV1cvdYrkyso/9jUXH3KKyrCQFKEABClCAAhSgAAUo4JYCvO5w7Gqjp2M9WVqVFlDUQq8+reClydQjXoS1+uvlaDPxPjRXKhHdsw/ivMTAzQpFeFW4sGcNVq02H8qePfMLjJ4xBy/3jYRCBKZrD3kEI77+F1+dNB1JKuPy/tVYuL+0njK+AcbdL4LSmslyPk5sWIxfNxVWaeLqVrlSaZY9p/H+6D58COrrnyhQXViKmd+XCEgbG6rGxVUf4+s9BbogtCIU/UcMQKSZVFiq419j3KinMfsvMwHpknDyVWz77CMsv6SPWku+aNuvJ6I9VNpz+gxbQgEKUIACFKAABShAAQpQgAIUoAAFKGBOQIpIRN94b23aWjl7O/5esB6bL+gCxMq6vdAn1jTfrblSKjAt/yQWfDgfB/WBbsm7BRK7hJd9x1sFiuSsVUvAM0dK+7ZHv576UdIi923Kyt+wzVLCdVUK/vh9F55s10U7stmvY3/0DF2IhRkmzwMUFdj+GMK1/7BZBLpvv8FPbCwiNUiDJqgvgtLnTUdXV62+wNq4WEBRMxL1wsWjKGaWK6uuIe1sBmzPyCShRnhdRNYUec3FIzCZqedxRXuzUTwBUDcBvXt3QlzDSAR4FeLqhWPY9c86bDicYeUxFSUCouogXPNKa+PHG5EBxXdXfIKj0aDBNTNPAIj0I9mXkJKea+aJg7KNlXyj0KprN3Ro1QR1wgLgpyhE1sUzOLpvOzZuO4J0m29keiEoujZCfUWd5RxcPHsJOYZtzicCcT16o1t8E9QO8YU6JwNnj+3Fpr+34Mhlc7dyS7Rf3FEPU38pAAAgAElEQVTNOJeKLM2xVhmMZt36ondCDOqGinJEO5MP7sD69TtwJrvMM0RlG+sWUxzdl8w1WiyjVjy6dU9AXJPaCA/whjo3E6mnj2L31o3YcSKznLcfu2P/NOfgqGleCI3phr492qJ5nVDUQC7STx/Alr/+wo4U3Xao9A9FqL84SRQpqPKzMpBVZjCCc9a7b1AUQkQ+K82epDA7HenXzG1vegevAESE19TmFZPFE05X0jKR7ygiq+U4c3t35H7JtBH2bkea8pzZ9uL6Vr39vBP2Id7BqF0rGD7aq7R8XD6fiqtWunsJHdQIE8dvcXzV/jQ3HSkXs80cW03Xf1X72zn7kNKttLfPO2G9W1gNjuvzFhbgkMk8djiEsUwhPohs3Qv9u7ZA/egQ1CjKwoWT+7Bp/UbsTyv/qOas46ZjrzvKNNrxE3wiEZfYG93bNEWdYG8UXU3D8b0bsWZDEi6VOYdx/OLLK9GpnlW87eXZVOx7HjtKelX9Y4eE0B59kKC53hZX+nm7NmHHlf3I35aJu24Lg0LZAH16N8XMpCPlXMtVrJeoTh/EkRwZcUFiuZrR0nVriYwIaQ5dRsVqdL1zu+I8RMQ0I5qjbbs4tGjWAFGhgaipLET21QycP3EIe3ftQtLZa9dh54hzBvNuHhmUVjbtgIRQffBMfRX/bT0IQ1xLCu2GRyd3waFPZ2JdqiZipUbaju04oeqClkJD8mmDTvE+WPh3+ScN5kk1U/NxJTNHbKaaoLQo00sJvojYslb1/EZCyKDX8ftrifAxA6BOX4AH+72Ef20OyHqj2zML8X+3BEASj9H8/FB/TN9RG4OefgvTR7dFuPb5muKP/MQzOLbsbUx6ZRGOmot8SyG4+Y3f8GoPc7XTlKNEw7GfYuVYM5UXPT93xZPoPGWN9Rs5XtHofu8UPHf/jYgJ1r+MtHQtUZC2CwtnvokPFh9EuWnZxUHwjk8XY1Kc2JALtuDlgQ/gpzRv1L/hcbwx9S50ruVT5gaAnJeCfz6ejIlzk0rfACjZftUJzB5zG2YX3ILp7z6LYTEiZ1YpThnPZx7Ekg+m4c2Fh3DN7WPTDu5LJl1EGdUZ9z37PB4e2BxBytL9UjurCEae2zIf77/xKX4/YeFuojv2T3ObigOmKcI6YNxLr2LCDY3gb8I54elL2DF3OqZ8tAlNn1mKr0aFQyFnY9nERExZa3pF54z17oMeLyzT7ZfEqc+hWSNw+yzLJ6nK2Psxd/5DaKaJneeswOPdn8afptV0gFmZIpy5vTtyv1Si4g7ZjjTlObPtmvKr6n7eGfsQ77Z4fN4sDI8U55/yNaybOhjjl2aUf3NW2QIPzflZ9wZ7uQhJnwzHyNnumMvLGfuQ4k7vkD7vjPVuukNxdJ83Ld9Bf/PY4SBIk2L8mgzB0289i5Gtw3SPtpf4fnLeOfz79UuYOnsT0kyfOjfO56zjpqOvO5zjpyvVB/X6PYY3XvwfupQ5d5+I51P+wWcvvoi5zqxCuWU7y9Md2l4uTgVn4LFDC+Ymxw5IQejepwO049Y05ywbt+GyuHbbufE/5AwbgACRC7pZ755o8PkRlMmuUcGeUWp2cX0tl7jGVqss7kTtWYrzf+vE8xApLB63jr4NA/uKgXgto+Fv7jpb00Kxvi7sXIYvZszE/F0ZNgWnHXfOYJ7YA5NKSAhoHot6hpapjmL/YUNkT4lmY57ChNvH4fl728Jbb6JKPoDD2fohlYoAxMTWFSE3Oz5SDYSF+RsDYOrUC9DGv/mhgCsERB+Oim6MW96agxl3tCsTkNZUQVLURPOhL+PzF/sg1Exc0NnVlALa4IHPf8FXk25CrNmAtLaW8IlKwNjXvsO8qb10LyewtWKKEISKEdENb38fP354n5mTWl1Bkl89MVo3VvtiUosfRRQadrwd7375Cm6LNQ1I6+qpDG6F4S/PwRcPx8PfYkFu+IWD+5J3o9vw4Y9fYMrgGPMBaS2nH+p0uxfv//gVnugQWOZGgisUnd4/HdQIKawnXvxWeA4oG5DWUnpFoNO4D/HVlH6IqSP6rq3LdfB6t3WxVWI+Z27vDtovOW07cnDbnb4dOcjTYf0uZwsWrDirO7mXaqLbrQNRy4aNzrvtLRjSRHfWKefvwuJlJ2y6QHBYvZ1RkIP3IU7r8w5uu9P7vIPqy2OHgyBNilFED8ZbX72JMfFlA9KaWSW/Oug5fha+f7kfNPeu+DEn4I1Gw8W5+8fj0LVMQFqrCL96vfHkrE/xUCtfcwW48bTq3Hb9auOxwznXxY7cKmp2Rr/O+jiX6jg2brmgfbIra/tG7M7XRY2VLfqgV23H7uSUdZqiSU39BbsIhp8TTzEzvFZ6xXq1GI6nJ4xG/9a1LAektbtRP9TqMBLTvv0ZH41obHaAZMmSnXbOUGIhHjhSWoE69esYRybLuedx7rIh4FxLBKCaiTvXStTp0hWNlbtwRHOTpSgV59LERhSskRG/b1BX/K8dFwX+HdC9rWFUpgqpO3cg2U1v5pTu6vzLcQIysjZ9hice/8UYKFI2HIoXJ92AKLvuiGhq6IXYu99BQvNoqC5sxg/fzMeq/06IR938ULtVH4x9dBwGNta9wbbO0Cdx94//4uMDJs8Yi9zoGz55Ao/8UDJa64XWd7+FCV1rilNCFc798R5eX3ba7AGhKDXJcmoQZT3c/s4sPNVNPOKjqa76Go6t+QFzFq3DzqPicWeVL0IbxKH3sHF44NY4hCr90WLsO3j3xBg8+FOybRfrUjCi2t2JN57up/XMv7Aba1b9he2HziJd5PTwC62H2PaJGDigI2qVt1JFcKHfE8/Bx08h3uWwEz/P/hpLNh3GhTyxQ2/ZEyMfeQTD44LFG4eDkDDhPTyzdyRe2ZRV/ui48pZbJb53QF8ytKNGOzz+4TQMrKPPQaZKx85fv8A3v23CgfM58A5vik6D78b4//VAXfH8uyKoHR754CUcHfUMVqSZnHa4e/90xLoVAcQh09/A2Ga6J3Jk8fLeg799gdkL/sb+lCxxPGuIhBvvwcRxfdDsrlcwPrcih3sHrndHtNWVZThze3fEfsmR25GpqyPbXtX3807ZhxRgz5LfcPSuCWghRqf4JQzFzfV/xVdWTwD90HnoINTVHvfFi7I2L8Yf5zzhMsuB+xBH9nmnrHf9huSKPm+6zV7P3zx2XI+aDb9RImbkg4jzUaAg5W98M2suVvx3EpcLayC6ZQ+MeOhRjGobBqXkg0a3vYLpW/fjieVpZs+hbVjYdczizOuO66iOhZ/4tHoAH7zQD9HaEX7iycsTf+KL//sBf+5OxhV1AOrG9caY8Y/g1pZt8OC9hdp0X5Xzcbyn+7TdmeI8djjlutiBq6xGx77oFqgLOKvObcYm/XBoOX0LNh4qQmI7cZ3nFSdS6Ubi+58cFDgWo4u73TcS8foNXi7Yj7832/AkmgPb7bCinHkeoq+knH8JBzatwV+bdmHPgWM4e+kyroqHj/3C6iCmfV/c/r8x6NekJhTedTDghffx6KGx+Hi/hUdTnXrOUKxaeftyh61Z04IUCI+KKB6lnH4RlwwBYa+maNFUF/FTNmqJWDGk8Yi4dte8NTQtXczUXPOdAjUjI6C5EXPluh7DV6D2zWNxgz59iFx0AkuX7jGmDzGtLf+uvgKF53dj3fni9ivj22KyQzjETZfY5ig4Ph/j730TG9KLL3BPnTiArduS8dGCt3FjhMhf6dUEN98Uh1kH9pgEkQtxbu8/OFeqPj6QBxQHr7OT/xO5lA/YFiQ2liO2j2FT8VxvXUBaVl3A6lcexLMLTogsuMWfS2kpOLpjPdbunYF50/uIUdJB6DZhIgaunII/LtuwYSoiMGD8fSKHbi4O/TwNE99diWTTTBC/fI0Z77XFiL4+KLRapARfP5E/+uJaTLtrMhaeKTZIPX8SezZtw+mv5mJygkidIi5Kh0+6Az9s/RxHPeJGlCP6kma9KtFozBTcE+Or3TfLqlSseuFuPPVbSnG/E0+UJB/YjL+2vYB5n4xGE01gOmognnroV/z1+tZS/UNkJ3bv/umA7dwvYRwm9hfpODRliTRV22fch4e+OVTslJaGs0fF+w2SXsFPM29DgwBrjwOYVshR6920XHf424nbu937JUdvR6brw1Ftd4f9vHP2Iaqjv2HR7gfwfAexr/NpjaFDmmHOrMOWj5MB3XDrDZG6p/PUl/HX4nW4ZPV4ZLrOqurfjtqHOLrPO2e9a64dXHJu44DVzWOHAxDNFiGe7vPxhirlNzx114v4s8TN9Iupydi/RQxQ+uw7PNNFPLWkCEP/8Xej7er3sctCHMDsIuyc6LzrDjsrZvi5ohaGPXkv4nR5AVB4Yj4e+98b+Nd43n8RFy+I8+4tO3Hu668xvk3xU8kOqkGFinGop5u1vUJQFZqZxw6nXBdXaB1Ym9kPHfp0Q4ju4gMZWzYZXz4I9Tls3nwSqnYx2ptvbfskImz+QrvOaZQ1wtGgZWfcOPYhPDi4ge5cSaSeOPrDTHE97q438J11HiKur7OOYeWsSfjlx7U4nGkmEHEpFWeO7MLa31Zh/NffYmI7sQ/1jcEd9/bGnCl/4qqZVe/cc4biBTp2XL2Zhrh+khKBQcUHKTknx3iRLgVGIdpf12TJqxbqGYakipeiXROJ0w0fqWYQAity/V6ikVJYP0x+pKvIp6OZqEb66tn4wfCqUNdjcInVVUB1Fr++PqNUQNpAoU5bha+XntZfJIuDf5t4RLlqT+Adj7vuT0SQZnmyCqfnT8VUk4B08SrLx8kFr+PTrZr87OKSL7QPxgyKti0FgeSNiKggpC1/Hve/ZiYgrV+IKmMPfl64HdfK6ydyFv756A0sLhGQNv4k7xDmvP0Tjqk0tRQXJS1ux8i2huRA5RXsBt87oi+JO+YjR7bR5R8T+8XLa97Hq8tKBKSNDGKfueEDvLJA/wi8OP2oO2Q0+mheauGKj6v6p91tCUDiqCGopx9dmZ/0DV6dWyIgXcLz0voPMXNdVsVHYzlivdvdzkoqwFnbu737JVdsR45ou6u2I3s9ndG91Gfx+6It0J1SipRxQ4aijcXDgchJ2mso+uoHMajSVmPRv5qREh7yccQ+xBV93hHcrurzdteVxw67Ca0VoM7Enx+9hzWmT3dpfpN3BN+9/R2O6Mc1KBsMwfDOftZKq3bfKRvdgtHapzHFR52BFR9+jI1mBqLI2Xvx+dvzccpMzMVd0apz28usMx47TAbiGITsuC4ug3ydE3zi0benfkCMeHfGtk17SryQXIWjG7fggna71Dwt1gfdg228fpN8MeiDHTiwb2+Jf/uQtOMfrJz3PibdHIMAhYzCjAP47d0Hce+MHci+ziZ48s+K9s3Da5+tNh+QLtnw3CTM+XwVdOMWFQjqkmjhXNUF5wz6erkqFOXC9e8NXzHCzrAJyIX5KNDHmxWBwdA/bSC2lRCEhRjmKkKBmMkQlpZ8fHRvT69orTWP7r06DUNqaSIFskidsBKvvbvarjtEFa0C56eARkB1agUW7sixgFGEw7v36y+aRbC3Tn3UddGewLvdzbipviF35g58+005AWH1Baxavh152nivL9omdoGt8Uk5ZytmfyhGnTngRqr68jr8vMryI0iFB3/HCsPQaGVtJPYSd4kt6LvbZEf0JWWz3uilX+9QXcSqn9ci3eJowBxs/3kxDusv3KSALugrRh264uPK/mlXe3zbok83kTJGU4hcgJ2Lf8NxSxdncgb+Wr4BVyu4HThivdvVxkr8sTO3d3v2S67YjhzRdlduR/Z4OqeLyUhfswjrrug2OGW9wbi1o4XAkxSBG25N1A+CUCF5+RJsM/fiYedU1OmlOmIf4oo+7wgIV/Z5u+rLY4ddfOX9WH3lbyxdf9li+jbVsT+w3DBQSYyW7pbYqhLTT5TXGld/L542SOyFWP2L2dXpf2HZRsup8PL3LcPyY5ZOfFxdd3uXV53bXtaOx46yJsYpdlwXWynV5q+8RBrQnvpBnZp3YGw0iTUUHdiELfrzH8m/E/p1CbCxbBG7UyqhLPVPPNFtDOgVIT1pBT6Z9gxe/X6nPphqY9GczaxAXtIe47W2IrAO6pq7geCCcwZD5VwUijJr4ZyJkgIKYw8Wi1Crix+bVCiKA0VihI23t7GnQ60qccWuUNo2GrNkC6QAJDw+A9P6Rmh/K+cfw/fPv4pV5u6WO6flLJUCegGRl1LsaCwGqcRcRRmXYEy1HhhYfLPGqYZKNO3SSeSJ0y2kaN9arC/3DaAyMg8dRIp28xSjkJu3gD4DTzk1lZG3dTlWlVt+OcVov5ZRsGcLdpim/yj5U9Up7NydoR+NqkT9uFaV8gJJW1pTsXkc0ZckBLWKQ0P90UbO+Q8b9+RbrYbq5BZsOae/2FAEolXrRi4I8ruyf1ptfrlfKhvEIy5YD6o6ie07L1kdCZ2zdxcOVejazRHrvdxmVNEZnLm927NfcsV25Ii2u3I7ssfTed1PzvoXi1an6c49lZG4cVgPmLssU9QZiFs7i/c7iKrIhYdEqrcDlt/F4LzqOqlkR+xDXNHnHdF8V/Z5++rLY4d9ftZ/LUbxHfgPe6yeK57Brt2pxicVo1u25AsPjag+aNm6uT5IL45FSTux19qpojj3+W9XutVzH+vrqyp9W53bbroeeOwwFSn99/VeF1sv1bZvlYjt08v4lGbh/k3YbJrrNm83/v1P94QzxHtKuvbtBJEt14aPGlfPHEBSUlLxvwOHcDQ5FVkix6YseSE87mZM/nQp1s6fjiGNXTNYyYaKu8csCh/4B4UhIjwCERG6f+GC0DBwF+JaO8g4cre4Sc4/ZyhelufllBZv4yzUPkav+0je3sZRz+qsq8gyxJ5FPppc7fBLzUcBbx+lcXQ1VIUVzAHthYbD3sBH97dCDXF1IYuRgH+9NQnvb7V8h9dQP/4/BRwvoEbGxXSrfVguKIAxjZ3S2wUBP00ra6BZTAP9DR81cvNFsLFXb8SWAyCJHajh9pEiIgoRmr2WyXsZyxahwom9+3HV4mjcsr+wPEWN1JOnkG21LBXOnj4nLjSitO1TitHndcR/GPPZWy68in/jiL6keXlsHfGCWV1TVSnHcaq8HIoiyH9M83KwBro8/7XFy2uVOGQ5L6tDFF3ZP+2rsLJeA/1JoTjeFKUgOcV6xFmdkYzTYqh013Bb70M7Yr3b18bK+7Uzt3d79kuu2I4c0XZXbkf2eDqzh+Vh26LfkTzifjRRKhDaR5OiYx2WlXoMXYmGg29Be/Fkn+bGZ/7OxfhN/7IgZ9bMdWU7Yh/iij7vCBFX9nn76stjh31+1n8t+nzyaWSWc66YfOKMOJepqz3vVtQVx3JxWD5fwSeZrNfDTb8V71yoV0f34mZN+suLp06Xe9595lSK8bzbcqslRPSdiBdubVzBax2Ram7D/+HVhcecfO6p6QjOartllar7DY8dzrkudsAaVzZF394N9duRCsc2bUHZsV8ipcdGkdJjQA+RslGB4O590MFvHTaU9xSYeOpz4wd34snVZS8QJb9IES+4HQ9NfAA3NvFHcOtRePfrYEh3PYNlhgFMDmie5SLcYB9iUnnviNa44Zab0KdzW7SJi0GDsBrwUhiiKeZaKuKlZlLNOf+cobgunheUFqG4nJxCcYqve6GW5OMLH3175cxUpOWLswXNRYB48+VlQ8RKJGPXpPwwfLR5qK2eVJRcmQpE9ZuGz1/qr3tTsDoLuz+biCm/nrQaFDTXHTiNAo4SyMuzNrzAUUupYDnKcNSK9NIHmEX+osTHMSuxYmVIUg3U0Ow0yzu4iVPI1PP6kWoVW4SZuWVcycg0M73kJPEW7syrxSmAgoN1ebOtxwrLKbNqfG1/XxInJSHi5EHfHHXmZWSWdwEm8vxfvpIvPH3E78QI+eAQ7ctnjXd0nUHj0v5pTwMk+IeE6vNzi0NZXpYYRVBOeSLPZYbmSjm8nPlKfG3/erd9WVVrTmdu7/bsl1yxHTmg7S7djuzxdG6vKzqwBEsO3o1JrcVb6AN6YNiAKPz+S4kUUMpmuGVIK2gf2BN5GTcuXuVxgSn79yGu6PMO6Acu7fP21JfHDnv0bPlt5pVMi6k7dL8XoxzTM1CkvxRVhITpXxhmS+kePo8UhGDtC2c0H3EsunylHEu1dp7yTic1T1n6N+qMAQPbwUzMxQqqCucv/lQ8YM3KnHZ/5bS2212zSimAxw7b2W2/Lra9TEtzKhv0Qh/D48oi7/emzafM3LCRxcsPN4qXH/ZAe7HBKUJ7oF9bH2zYWjbYbGk5ptPlvItIWv05nty2D9PmfYY7mnhBWWsgpj69Fpsmr7CSDtK0pOv92w32IYamiX1J/J3T8d6Tg9DY31oQ2sRCm2nC1Mc15wyGpXpgUFqNzMuZ4iAVoL2TIxkO+JrgkCoZxzWj71p7idFlqeJgY3g8PBThuteIiplkFGVeKR5Rbbp+Sv0tIbjLJMx+dzgaawPd+Tj2yzOY8Nnecu7uWi2UX1LAQwV84ad9o7YdH5GaR6Hda5Zz10gWI88cFpgXjxGKkeXWlyjmKdTcDNN9JC9v48hgO1rrMT/18iqRYbsgv8RLMSw1UXjm6Ty1PUbjaWlWh013Yf+0s85KrxIaKpWZk0LTBYh5yn26wPQ31fVvJ27vdu6XnL8dOaLtLtyO7PR0ag8XT3ssW/wfHo3rKp6g80PnoYNQb8FcnNZHULzjb8EQ/cWd+vJfWLguo5xjjFNrW2ULd36fd0TTXdjn7awujx12Alr9ubh+LCz/QCsXFhgHLUniSUUvWx9gsrpsT/hSieJTRZEKpaD4nNpS6woLyve29NuqNb06t905a4LHDke7iieXevVBC/3lnFyYhYD44RjbwsxylFHIzxYnO5rYmkhh1rNPHLy27ir/IWczRZWcJF/ZjE+/2IBb3+qLABFEDe0zEoNqrcQPfNREz+SLVvfPwjdPJugGxomzSlVWCnZu3oq9R07iXHoWcgtUxeeayta4Y/pYxOsvKc1FaFx5zuD86/xyOpjjvxaPn4oRkmr9o1FScBSiNGlnNCPJVCnYs0/kn2odDfWJJBw0vAdOCkdUuGFVqJF+IbU4tYGVCvq3vh+zPr4XcZo7ESJtyNk/puHhN/5xwR0bK5XiVxSosgIiLY7IC6X7FOHANxPw3FLLLw802wx1NlKvWQ8Pm/2dXRMl+PoZHim0VJCYR7wg1bAX0aRHMTbV0k+q0fTCEhdqkm8N7Shf64+4Cs8axZ7i6sQFT564S/+UkSue5lFrNgPhKPnpPK12JxEUq1HD6hz80ihQdbd3529Hjmi7u2xHzu7yapxfuRj/PtkFAwLF0x5thoog9Dz8n/aFuH7oOHSwPgWPChdWLcHGa86uj3uW7/w+7wgXd+nzPHY4Ym1bLkNs5+I8sLyPouQTvIV5yC9/qG95RXrI9/kirZ9xaAd8fUucA1pooa9f+d6aVCBnF0zGTWt1T1BbKMrMZBEYz0qzO5BmpmAzk5zVdjOLqiaTeOxw8IpWRKFXH/FiVv2FruTXGmOmtrZhIUptMLvl+7uwz+6nh8UTFDu3iZfz9UUHMQpb8olDx3hfEZS2lsjfhiqWO4s77EPEqPT6I/H8+Pa6gLRIh5K88m1MeuVXJFl6032NAvR7oTgoXZbBtecMnhmUPn4S19TtESpu0EjejdCsobitk6TZEgqx6/eVODNyBFKXroIhfZ8U1BhNIvW3qmUVTp1ILnfkmXej4Xjv04noqHnUSPwmdf0bePCF31FOas+y65tTKFBdBNSXcSlDc4dOk8JDgndBBo4dPVrutlb5PBLCwkNFjU9aqYpIRxISZHxBqnwlA/qXD1v5TXX5Svf0ioxIbYMVoeEIEyc1qdaaLwUiItRwQSJGvYunV3KcfS/CjfpnQVoqMsSFbB1xaJN8olBbkyva2kgBrwhEaw6Ilfwxdxe+ZJU0AfbKj51X1e3dFduRA9ruRtuRszcHWTMCek06+t8mXoDt1RxDh8bhiw/2oqhmV9wq0nloBxyJJ/g0I6rLzUjl7MpWyfJd0ecd0HA36vM8djhgfVssQkJoeIj2PNBy7EWM7osMNwZ21JfTjS8dt1Ssexw3LdW+AtPVGeIawRChF5YRYeK8+4SVAoRlWIhNeaJVWak4nWWlqMr+yoltr+ymVc7yeexwtLsUloi+Ig1Hefsjc8vVpv1oNhP7DlveM5r7nblp6pLX1yL9bkSkZp+ba0MaH3Ol2T6tyu9DhELtvjeivf6JdNXx7zBl6s9IspLNVREWro2VWvu48pyhnKpYq2bV/a7w0D6Ry0YfwVDUR3yc5sCm++TvnIFRNw7Bw/OK8+D4tIxHC21iP/FRn8H+JOt5rDR5bF6bPQ39o8TLEUVA+sJfr2PcU7/guJUVX3W1WLMqIyCri09klUqbTrRcW3eTqGBFj0wib+bxYxf0Bw4F6sU2hxhA5gYfBSKbNkGw1boqUb9hPX1QWoyuSElGCke/6NetuMN8+qxx5LiiXjM0KS/yqGyMZo0NKT90vy//VKb69E/ViSM4YTjGiRePtGxufbSQsmEMmmrewuvyj3h0rKjI+KiYr5/1t2X7RkWXe4Lk/CZU1e3dFduRA9rutvt5Tc+ycx9SpnNmY9PiP6B7D48SDW4aio6+Iu1bz6Hop70SEMeKg0tF7mlPeQS9DICdE1zR5x2w3t2oz/PYYWeXtPpzBUIaNUaY1StrJRo1NbwoTASvz5zCmTInNy48bjr8ukPU3RhXFtcxhmGVVt30X8qZSD592XiNENG4EUKsnrZ4oUETw8vTbVmAC+a5Xk9PaLsLeG1fBI8dtlvZMqeEEPHCwgRx/qL5yLm78O2Lz+HpZ638m/o5NhpGZymboI/xBYm2LM/yPJJ/AGpa3cda/m3V/sbe808lGhuPLSqc27geB8qJS/o2bwlDinAxZAyKEpk2DVauPGfwzNWasQ2bDHdjJJIrYeMAACAASURBVG8k3NAbkcYDWxGuiPQexaPufNGub6LxJEKVugUbtY9Xmv8owhMxdfZbGNZAvLxGE5Be9yruEwHpYxzmYh7MY6dKqBEVg47duyK+jv913TksQ5N1FYbMFFKNMIRXJEF9mcKcM6GwRN5kPxFgsnq+WKYKRTi0eRvStSesEvw6DkRfY9qcMjNXoQnikcy23dE5wEqVxEurOrTXjZDRjJE5vifJuC6t/MqJXzmhf153bWVcS9pb/GSKXwckdrQelVbG9kD3aP3RUbykL2lv+U+vaKrnXv3z+teRfGUXth/TH6cUwejRL8HKCGNxw6RHTzStlKO9jKtXsvShPgUiatcyvni4bHfyQVxCa+jPect+Xe6U6/csXXRV3d5dsR05ou3uup/X9QL79iFlO2n+riVYely3rSqjB2JYjwa44dZE/eOV+fhv8e84ZfmUs2yBTp/iqO3IERV1RZ93xHp3dZ+//nXEY4e5fnn9nqalebXqhA4BVs6MRXCmcwfx5IT2hyqc3n8Al8s8BebC46ajrztk8eLlLENU2g9hYTUrcJ0gtqO9B6HL4CHBK64T2tc0FS7xt1csuiYEG59QtDKn6766bk8PaLtY0w6/Lr7uNcdjh3m6611HAejatyN0YQnx7pG9y/HNkmX4bZmVf0vmYMG2HP35vxKxvXuirgOuQ/xaxaO5IXgq3uWWlma4kWW+xe401b7zT03ay+JUo7nZuabDLEwo/NGpfzcEG9eJj0g/VfbY5cpzBgd0jyq4ulVnsPqPfcYDm1/nsRjT0vxIMkXkANw1KFo/KlWFlFUrsMvCC0Kl4E6Y9NkM3BkjVroISF/85008MGUBTpRzJ6IKCrFKdgn4ocUdM7F81SL88NXX+HXlcnx+V6zIEmnfR5V6Aic1LwYQH8k7Hp0T/O0r0OG/FvnWLxlexmTLiLqyFcjbvgTL9cNCpICeeOSRrggquw8s+0PtFAWUlbTHkgJ64Y5h9S2e/Pq1uwU3G0b2qk7i779PWnl800LzHDbZOf3TnuqpTvyD9YbIiyIUA+8YgjqW1qVI3dHrjlth4FRf2Yi1u2zZybpT/7RzHYmXqK1efVA/+lyJ6CEPYaQmTZWZjxTYBfeNiYPhYSAzszhxkjimJqdApb3oFifDCd2RYGFHKYX2Fk8x1brOJ0Ts9DQRqKrbuyu2I0e03V3385rco/Ye48psTKojWLpkLwo024AiDDc8+Aru6qq7kS1nb8biVYanh8r8shImOHY7ckQDXNHnHbHeXdfn7VxHPHaYdEs7PcscOxIxXFxTWjq98W1zC24yDE1TncO//xwxc67oquOmCIs7+rpDnYbjp67pRjtLXmjdJQHW4sql+UQwfvN6/KfPK60I6olb+4RbDGr7d74NNzUwf97jiH3P9ZRx/Z7u3nbHbkfXY2/6Gx47TEXsWEc1O6NfF8MNJhWObNqKS+U+DXwN2/7dXeImU1/0ira0ZzStq4W/fZvjzvsHGgeSyvn7sGOvhaCdhSKq7mR7zz/VYhBQpvFJk9pNG8FaFEnZeAQeHBRZfKySAhBk7oaqC88Z7OwdVXXVirvPS7/HGn1uKsknFve9/Bg6mz5/79sYw6dPRn/9s1Zy9g7Mnb/X/Au1asThoU9n4oHWmo1SjctbP8TDk+fjqC2xkqrKxHpdl4AieiiemdIX9fRD+iSvaPR6cjJuibI5ump+ufm78e+2bN2dLRG4G/zYwyJnuZ1lml/SdU5VIfnAYegGQYg7cp1G4+62ARZPGM0upGAv5sxaqzuYSUo0HP0uPn5Ql//d7PyaicpANE68Ay9+uQAv9TZ/c8nibx31hVQDHSe8inEtyo7wlQITMOH5UdCdG8vI2fEzFh6pvKFvTuuf9liqDmHhz//pn1CREND9Sbz+vxgzo3u9UGfwNEwbqs+3qsnxv2Q+/rXpJWDu0z/tX0cqnFw4F2su629i+XfE5I+exw11S28fUs0YjHnzNYysW1kXbjIy9uzCSf3JqzJ6CB6/p2XZ9e7TEMOmP4ubNLmxr+Njv6fJQqvq9u6K7cgRbXfX/bwID9l9jCvTf9U4vWIxtuRqotISAtt2QivtuYMaV9YvwdqMMsMky5TgqgkO344cUXFX9HlHrHcX9Xn71xGPHSW7pf2epseOmuj+2IsY3lC8hcv0q8D2mDB1LBppD8ditOGhxViwp9B0Nu13rjhuahfs8OuOAuz6d5v+SUGR83ngeIzvFGzzdYI67U/8sk4/8lERhH6TnsXgWmXPX6Sw7njq+dtQu+xXZjxdOMkOT3duu8O3I0esMh47Sinas45qdOiD7pp3qGk+YuDn5s2nzdxMM11pYj+2eSP261MNagbb9U20fJPJ9Ncl/5Z8w9C8x2i8+NVXmCwG7OkiI2pcWv0TVqSVGx23VnQV+s7e809xs2DPAWhPNYVQQO9xuL+t+SdVlJGJeO6DiehUs0SMSfJHSHDZ45bmiR5XXW964IsOdf1LvrwGH36yET2m90SIQoJ/63H44pcYzJ+3DNvEXVzf2vHoP3osbmqhf0mCnIPdX76DX8+Y79wB/R7Cown6F5nJMvxa3YcvVt9nW2cuTMKsuyfgRyaZtc2ris+laNgcTUyGHUq+jdC8njg7SrMjN6R8BWvmLsTJvvegicjD5tdyHOYs7YS//tmLc9eK87IWHV2OmUvEKMlKcMrduhyr027CKHGSKPnG4eFvlqDT2rXYevQ8MvPU+kdFZBSdXI/5G86YOWipkfb7G5jWJRYzb28Ib2UYuj8xFysG/olFS9Ziy4FTuJBZCJ/AEITXboo2HbsisU8i2taqIe7mZWPZ/EpotAge5GTnwS+oM5767ifEz52LRZsO40KeD2q16IkR99+DAU10j8zIeQcx54PFlZpP2mn90y56Nc4seA9f3vodJrauAUkRgh5Pf49f28/Dt0s24uD5HHiFNUGnwXdi3G1tEa7UHChFbsKUxXj7qz2w9d6fu/RPR6wjOWM13vvgZnR6rS8ixDGuRuwYfLK0J/5bvwG7T2dCCm2Kzn17IT7KB0WnNmAzuiNRdzVs15qs6I9Vx1bgt6T7MaWNSPcjTnraPf4Nfmr2A376cy/O5igR2qg9BowYhQHN/XFh21YUdOyiv2i3fUmO8CxeWlXe3p29HTmq7e64n9f1APv3IWX7rXzxTyz8ezISBxtSPIl5VGlYufhfVKV3bzl2OyrrcH1TnN3nHbXeXdPnHbGOeOwo7omO8Px/9s4DPorii+O/vcul9wpJCBAgdAi9SG8Cip2qIoJYQAEBkY4iHQVpFkDQv4AoIKKAoDTpHRIILZAQCCE9hPRyt/+5lnp3ueT2krvL28/nlGyZefN9b3dn37x5U/TdkfY0A/YePfD5ls1ouuF/2H8pEin59vBp1Jn1FUfh2fqqvqL0EX5ftQ3qLFwl743KeG8q6hT8u4NF/B79H36L7I0xgWxRc5tGGL2BfSf8dxxXH6VDvRQGpHexd93u0otwyeX5ZiMud/8EbZnDRFxzIJZt80Dwhm34J+QBUqUO8GveA0PfeRM9A6yQ+TQNNk5OBQtHluRY6X8bwtOM2y7sfSSU1ujdUZRkxXXE0tz2eKYgOlmWcA6n9Qy8ksWexin2kGvbmLkbORu07tEZrjv3aEhZxCRlixZ2m7EbByYWHagXQWLnDA+2mKGd4rtQvfHIjtiBOcuPILXUuL4Yjd/7CevfKJFvXmxfuGYN544XVxxG72KOFB5pf0/HoEVnqsS/Im+ZYf1PHqn//YZ9sT0xlI3WcbZN8f7G7ai/lfksjl9HVEouJK5+aNz+WQx7YxBaeliBTziG/RFtMbADCzBkM1tq+slnq0aU8t1UVp/BYp3Scs/+wx0zMSVwA1a/2QgOHPtor9UVb89gv6J3qfzfLCfN/T/mYPIPt6F5EgDLs2hri4L7gUV42jl7lI72Klmu+u98F9gxpwFtlkFA9jgaj2U8G6Ev1CkvjUV0nOYBjfK0OuvyOnzydWNsmNyevQCY3fm0wLODWxQrIufwDXxbRU5pZJzCqvk70WbFENRjK7xytjXR5rk30KaYhDyy9j/GDo1OaXYin4gjn7+DyTmrsWhYYzixzPruTfrjHflPF6xSLx5dJwt5TIrrW77G4+em4QX/Bug/fgH7lS6fz4/Fvwum4tvrVZtg3pj2WbrV5diTcwPfT5oF//WL8IrciS9yRIN+72Mh+5XemEM67jgWT1iM/56UQ/FmYp/C6EiKR3/MwHjPlVg3oSM82fNIZO+PdgOHo10RoLInF7BqxrewmdcJXdT7y4G0tG7KuYels/nly214acMoNGARohyLfmr83AeY/1zRctgz49aPmDE7HG/tbc+c0uV7XwrDUy2Pid/vRr2PBGy72T3nVfoX4hlS8hbhn+K/3/9FQr/BUKfKlz7+F3svVe27oqSYwt5HJUs34G+j2ryAeq8EmxdGR/TuUFujMDxVpbFvyTMrZyJm+HK8FdQKw6eznyazlz3FlW+mYdkp9XoLGk6qhPemulbBvzuyr2LttBVo/P0UdPZgzhFrb7To+xqKfcnkHMXNDRqc0kwoacQWTPu8Gf63cAD8WQCQpEZHvDWH/YphYn3E2H+xcHkM3l02qtwD2RqIC7bLEJ7m2nZB7yPBNMEKondHAc0K60jSDL26qPPgy5B28TRCNDvLSmuOPcdOnnqIDxvXZc5O5odr2wOdHP/E/jRNHyEiOPjUQd3SpRS/82XpuPfPd5i34Cdc1DLTzMqeBbZ5eGhPB8iJWKCZR4m0qzwkDtZ6z+ooQ8yKHTa0/5l+GivnbkPw6jfQkC1uzzkEou+7n7NfSXHY8zPlAtZOnIl9rb5Bvw7BkDBadZs1Zv7SCDwtpZ7K6TNUbK5sybaZ6t98Mk4uHYURs7fhfGyOhoTfbOXz5OvYtWg0hs05oFoh3VQbQ3KZCgFZ9B9Y/fNNpKt90HwWbm/9Fn/EGO6UBjJxfdM4DBm3CnsuRyNNmYzVVJrO5OCReOwLDBnyMVbuPIGwmKfIZQ76cm/5Mfhnwet44d1l2HkxBllay2APzvRoXP13C5ZMehtLTuj7Jiy3RDov4BMOYc7oKdh8IV6ZG7To2Wy17YyoY1g77nV8/HtUlY2wqkUyrn3qxFTmQWnMQcwe8SZmbT2HR1nqyPril/F5Sbj+11cYPXQCfr5dXqeNedinYDpiiwpd3fAeXnxrIbacCEdyTuFsBWlGDK7sXY1xQ9/DBjZQwrGBWcXG5yG3IFypTJUJckLGxZUY+/EmnI/PK/Ue5qVpCP97OUaPWYGz8Y8RW55BCJV0gvFUlWfq97sx7yNB225mz3nVDSLMO67EnZN1YR/+jVendWLTIff/pXX9EkFuugoUIvR9VAERtF5iTJsXVO9GtnnBdETvDoXaBeOpKCweD24dx9Ix7+PrI1HILNWvZbMIk0Lwy+y38M53Icgoo+ts7Pdm4c0m/HdH1o2f8MHwcfhqzyU8TJOWeu9rvdEVB5gDZO90jPhgLY5EqRdKK3IF68MkXNqCyW9Px+7z9xFdddnytDTDEJ7m2XZB7yMtVCu6m94dSnIV1ZG4cXd0U+fJYQNvl05fRpbeypDi1qmzSFDdo5wiN7WuTMfFC+bZ97U0Jx3JjyNx7cxB/LLuM7z7Yl+8MHkzc0gL4XPRuyGVdKKh37A8Uk4txetvfobfQhJK+yvYk1iWFYsrf36Ndwe/i2+upiL69BlEKvQjHzToiU5OWoKCKqHPwNULaljGa7GS9GDsaqxcEdiqLVoFBcDLSQJpRhKi74biwqU7SKwaP5exW0zlG5WALXxb90DXJm7ICj+Jf88/VOXxEbZSsY0T3NxdYC8RFYzeyTITEZ2ooaMmbNV6l8ZZ2cHRwYYtQshG5RRX8eBzM/AkQ98EI8rVgFu2bIRAPy+42ImRn52BtKTHuH/3Nm6GR4Nl9KjcjfPA0PWHMP8ZeY7ePJxb8CxGbYtjiTxs4NW4PToF10NNFxvI0hMQdfMizlx9wAYQKldE3bVVjn3qlkH3UZGDH5q1aYnGdWrC3UECWXYq4h+GI/RSCO6lCKdw07VPI+jIyoFFB7gwK81ESuITZKlt0qotZh3YhJG+LMUQW7Ri4+svYHloFRisjQ+adeqI4MAacJbkIS3+Pq5fOIeQ6AzV4hy6bUb3UQN4mvH9bvB9VGltN8HnvG6DKjhq+DOErXFYayR+/nMa2srzSeffwmqWsmadnlNg9RRToNMMuI8EkqCsYgy2+bIqUB03XO/Gsnkj6IjeHQL358Vwrtsando0Rm1PlgM1OwUx7Jvz3IVbiFct5KenGQJGfW+WlkLw7w6xDZxd3eBsz2LxCgbHM5HwKJE57kvXX2wPW1OmdnAHNv2/Nrwdxch7Govwq2dZqr94vdO6lVGD0Q9XmKfZtd0IzyWBtUPvDtPXkcAqN/viKt4PsYZHg9ZoH9wAfm62kKUlIvbRPVy9eB0xZT549cBmhD5D9XFK68GXTiECRIAIKAhoddQQHyJgfgQ4z8H44dA8PGPNgc/+DzN7j8fvKdVjPFovbVXn+706t10v4xDiJCs0+WgHdrwfxHKfsgXOLi/H8yN/QlRZDhkhqqYyiIABBOjdYQA8upQIEAEiQASIQDUiYEifwbLTd1QjI6CmEgEiQASIABEoTYCDR5ceaKlYnJVNH755HhdLrwxS+jLaQwSIgCAEONceGD24vnIxLj4Dp3btwwNySAvClgoxJgF6dxiTLpVNBIgAESACRMByCBjWZyCntOVYArWECBABIkAEqhEBUc1gdGvqwRao0L6J3Lth0gdd2eIV7ByW//7cngOIJoeYdmB0hAgISYBzRqfxkzDAQ9ndlsb9jS0HE8uZY1VIgagsIsDSydC7g8yACBABIkAEiAAR0INAZfQZrPSQg04hAkSACBABIkAETIyAOOB5LNj4CsS3TmD/gSM4dSEEN+7HIZnlc5e4+KFRhwEY/dFY9K0lX/eaR86dLVj9Z6wA+ZtNDASJQwRMhQDnhAbPPIMgZxFEdp5o1H0whveqWxAlfWnTJpzJNBVhSY7qSoDeHdVV89RuIkAEiAARIALlI1AZfQZySpdPJ3Q2ESACRIAIEAHTIcDZwLNpH4yU/7RKxUMafxyLp36LkGytJ9EBIkAEDCUg8sPAT5ZhXAO2qGjRjZci8fiXmLv9AapgiVFDW0XXWyIBendYolapTUSACBABIkAEhCdg5D4Dpe8QXmVUIhEgAkSACBABoxOQJdzC2ZAHeJqnfdFCPi8ZYXtX4p2hE/DLvVyjy0QVEAEiUJQAD1lWNE79OA2vf/wbIvOJDhGoegL07qh6HZAERIAIEAEiQATMgUBl9Bm4ekENtX/NmgMlkpEIEAEiIDgBCWo0a4cGrvJxOxme3LuIa4/JoSc4ZipQEAIiOx80aNYIdXw84enlATd7MfIznyA26g5CL4cg4gl5wnSDrs73e3Vuu26rqNBRzgG1W7VEgL2IJcyRIvdpPCLvRCIhmxK5V4gnXWRUAvTuMCpeKpwIEAEiQASIgMUQMGafgZzSFmMm1BAiQASIABEgAkSACBABIkAEiAARIAJEgAgQASJABIiA6ROg9B2mryOSkAgQASJABIgAESACRIAIEAEiQASIABEgAkSACBABImAxBMgpbTGqpIYQASJABIgAESACRIAIEAEiQASIABEgAkSACBABIkAETJ8AOaVNX0ckIREgAkSACBABIkAEiAARIAJEgAgQASJABIgAESACRMBiCJBT2mJUSQ0hAkSACBABIkAEiAARIAJEgAgQASJABIgAESACRIAImD4Bckqbvo5IQiJABIgAESACRIAIEAEiQASIABEgAkSACBABIkAEiIDFECCntMWokhpCBIgAESACRIAIEAEiQASIABEgAkSACBABIkAEiAARMH0CVqYvIklIBKoDARG8u72LcX18IeF45MefwPp1h/BIZmptNxc5TY2bkeQRB2DAhDHo4s5proDPwMWfv8TucKnm47TX+ARIR8ZnTDWYFgGyedPSB0lDBIhA2QQk7mjYsSs6tagPf08n2IpF4FRdq7xbv2PJ1qvILrsUdoa59JPNRU69oNNJRIAIEAEiYMYEqodT2toHbQcNxeD+XdC6YQC8nCSQZiThUXgoTh3ajV9+P4UHWXpokbOFV/3maN0qGC2aNkajenUQUKsG3J1sIc7PRFpKHCJvhuLS6cP48+/TiEwzOY+iHo2kU6qGgAi1Or+CIa/5QcwEkCUB/35nmk5pY8kp8WqGtt4xOBeWDLpz9LRCzgPBA17Ga/5yq9GwyVLA/bNCMKc06UgD47J2kY7KImTSx8nmK6AesvkKQKNLTIFAdb7fq2/bOTi3HIlFSz9CnwA7aBrizzl6CSvK4ZQ2Vj9Z2HvEXL47hG01lUYEiAARIAKmR8DindK2dV/A3JWz8HKQIxu7LrLZ+KFhB/mvP0aMPITlH8/G1hvp4LXqyAZ9lv6Htc85FoycFz/VBnaObvCu1Qgd+g3GexPDsGP5bCzdE45M7YVqrY0OEIHqQYB9DAT1w+tvj8Tw/s3wdPNwvMic0rTpSYDPRUrMQzzgizqlreFawxvOEk2fVnqWW+w00lFFqBVcQzoyCF/VXEw2bxB3snmD8NHFlU2gOt/v1bntSjsT+b6Epeumopc7ZbSs7DuP6iMCRIAIEAEiICdg0U5pUY2BWLRxAQbWFCtHvnkZslOiERmTDhvv2qjt5QAxm5tlW6svZq23h2zkOGyLyNdiGRwk1pJSDmlelo+czCzkW9nB3sYKIoUfiIPYrRmGLfgJ9bzGYuyGMOgTiK2lYtpdbQgUHb3gdQyQVDUQIeWUoPVb8zDxRRd210jxtKqbZm71S8Pw3ajn8F1RucVNMXnPL3gvUEv0dLnbSDoqN7KiF5CODMJXNReTzRvEnWzeIHx0cWUTqM73e3Vuu9zOJGj5xnvornBI85DGHsfq+auw+1IUkjLzCvvh7PuxfEnQhOwnG/N+MBc5jcmAyiYCRIAIEIGqJmC5TmmRD16aMwsDVA5pPv8R/ln2CeZvD0Gi3O8sckKDAROx7LNhaOLAQeTeGZ/MfxPn3tqMe1p7HjyyHofg5PEzOHfhEkJuheNeVAIyFOeLYedVD+36DsW4cYMR7M4c4SIXtP1wCT68OBjLr+iXiayqDYLqryoCUtzauQizw73YQAkPWfJ1XNM2PlJVIirqNRc5qxQSVU4EiAARIAJEgAgQASJgygTEgeja2VeRNg98Jv5bNRvfH0s2MCjEXPrJ5iKnKRsQyUYEiAARIAJCELBYp7RN8Ci8381VmbKDz0bI2g8xdcsd5KqpydIQvm8R3uXd8Mey/vBkIc72waMxrvfvmPpPqoYOSS5OLx6ITvFxyNKYjkOKrIQ7OL7tC5w7/xAbt01Fe0cOnKQuhrzVC+uv7keqxuuEUCOVYf4EeGTc/Q+/3zX1lpiLnKbOkeQjAkSACBABIkAEiAARqDICVv4I8FOl7ZBFI+yWpu+/8kpnLv1kc5GzvPzpfCJABIgAETA3AhaaQMsenV99HrVUs9elsXuw+uciDukCLcmQcHAVfgjJVTqhRW7o/VpfeGlMxSpDapw2h3Rxtefc/QXf7I1XTfXi4NimPZpZrPvf3Eye5CUCRIAIEAEiQASIABEgAkSgWhOQsNSLVqqPPhbAlEW5Fqu1OVDjiQARIAJEoGoIWKar1KYVenVVRUkz13D0gT9xXltHQxqNv/ddwaTgDrCR55du2xtd3XZhV7IhYc25uHPjLqvZRzElTOTkDR971umhUOmqsXITrVXk4AV/D80rffPSdMQ/Sob+SV842Hn4wctBBI7PYwMoj/FEMS2AzQDwa43u3duhaW0vOFrl4WnsXVw5fgQnbidDnwwhwskphqO3Lzxsi476SODlWDg2Zu3ig4CAdMhK6YylNMlIRHRSloZZDKVONtEdRdrP5yA5Jg5p8tQ/YhfU79QT3VsHwc/NRtHOqJsXcezYRTzMMOQ5VBEMpKMCGyUdVcSAyrjGCm5BndDzmZZo4OsGO7baQtKDGzh79CguRivvbbG9G9zs2ZuT5fDMSUtGWsH0Jm1Fs2dfjebo1Lk1mgbWhIejBLKsVMQ9CMfVc6dwMSK1jFygZPNk89psS4j9zD59mqBDx1ZoXNcPni62EEtzkJmWhJioCNwOvYLQyGTklPNRz9l4o0nHTmjTJBC+7o6wFeUhLeEhwq9dwKnzd5CUVzHZRQ7+aNmhLZoH1WHlOrFyc5GRmoiHd67h4vnLuJuiT6+hYnVXzlWVd78bpCPOFh5+rM+mWKiGR25qLB6nlq1UKycf+LJ+hKKXxZysSTHxSC9ISVh5ba8cXZazFisn1Kjpxr71ilxn7wn555lys4abby3U1tADlWUm4lFipoYjyiuF6yfLyzOH/nw52dPpRIAIEAEiQAR0ELBIp7S4Xhu0dlNPx3qKS+duQt2V49w64YPJHXBr7WociZO7vmSIv3gBEdIOaMxocNYt0K65NXb9l6MDW9mHxOLCRcZ4WR5ycsv5xVF2FXSGWRPg4Np/AfZ90QXWGtohS9qJsb3m4WTZ3yCqqyXoNG0XvhnkCE6WhF/f7Y25F2ui/yeLMXdoS3ioI0FUZ/MTp+HuX0vw8ee/I1yn51tAOTlXPLfwT8x/RlOL5YKJUXv4WhwYrgEI+yjL2j8J7aceKkzBo+k0U95XtP3SCHw37GV8lzsIc5d9ipeCnFSLpKobwGNG6k388dUcLNp1C+mV9fggHRXaKOlI0LtJ5N4Go+fNx/g+dYo4AZRVjP8kERd/moupX59GvWl7sHGIB0R8Bv6a0AVTD2v3Sou92+PtT2fgvX4N4CzWMMWJOWVizm7HlwvXYl+ElpFpsnmyeUEtvbAwK5/OeGfGpxjTu55m+5SfygZf5GuVHPj2M8zaJQ9mKGOz8kHnUVMxfcyzCHJRLeJd7BLmp/ukLQAAIABJREFUwIy/gl2rF+Gr3TeRpue7Q+TWHK+Nn4wPXmmLmrZscFuDGHxeMm4e+Q0bvv0Rf99JM88B4sq434XQES9GnSGrsHlMQ+ZE5ZF/fzveG74QJ3UEt3CObTFlywa83cCaBSdIEbN3MgbPOIR0tS4ro+0a7MZUdokDhmLtHx+jubYvX6vGGLtpH8ZqEDjn6Ex0Gb9Hy2LcAvaTFXWbQX9eAyPaRQSIABEgAkSgogQsMH0HS5fRoCH81S2ThuP6bbVnT4z6w6Zg/CujMWNUS/baV27SqBu4naGKzRQ5Iqihn3LRi4pS5ZzQql0jqPs9sqjbuKv9u7qitdB1REAzAWbD3j51MWjxZqwYEVzKIS2/iBM5oMELn+H72T3gpunrU3PJtFcoAiJv1G77CpZt+BwvNyzpkFZoiAVQN8Grn23G+veaw16oeqkc/QmQjvRnVcaZnHtXzP5xPab2Le2QVli7lSfajV6JjVN7IciX3Q9llCc/LKnzMlZuY2UOCNLu8GPRhr6dRuHLbRsxsY2TRkebHlVVn1PI5gXTtdj3eSzf+i0m9auv3T4Vxi+CnW8w+ravVWa/k3NsgXe+/w0bPx6Ihhod0ooCYe3dGsO/+B+2zOzG1kspu0n2jd/Aup0/Y/6I9vDV4pBWlCxxR5Nn38Nnb7Uu6D+XXXr1OkM4HWXg0tpPsepSGgud4WBVZwgWzu4HL2365NzQ7ZOFeKs+c0jLI6sjtmL6gsNILD3trHopxNxbS/15c9cgyU8EiAARIAJ6ENA2XqzHpaZ6igi+tXwhUTna+KzHiElRO5xrsCm+9WHFieHboSPqiq/gjjwsJT8OMfEsnMRF3iZ2fYAf+29E2RErGhGIUaPXVEzu51KwyOLVPftxt8zwF42F0U6LJcAj7fS3mPjRbwUOGHHtFzD74z7wLgyyr2DrrdBw5FK0buADaewZbN20HQcvRSAx1xY1m/TA8A9Go19dljZEfh+8MAkjt53EqhvapuQKKCf/FCfWTMT7W4t6wa3QbORijO/owD6kWGTP38ux4K8HGqdI5seF6ZVupILQKvcyzgG9Jk6HNXMAyJIu49fvfsAfp28jNtsWNRp3xeD338erTdkzROSM1uOXY1roYHx+uhIi00hHhXZAOhLmnmCOzufnLsTw+rYKpzDPFhm++ed6fLfzP1yPTmPv3dpo/exbmDC6B+q/8TnGZenRLbELxkcr56Cfr0RZpjQJl3esx6Y/T+PG40xIPOqh3YCRGPfmM/Cz5iByDsb7X81D+JBp2B9fwktDNk82L4ylF+HogYHTZ6C/r5XCPmWpYdi9fj12HAvFvdhU5HB2cPaoifpNgtGhx7N4vk9ruJUlg9gfryxdhymd3JV9Blk67h7ais2/H8Hl8Dg8ldrALaApur80Gu+82BRuYns0Gr4UyyKGYewvUVr7s2L/l/HV+k/Ry0Pp7eSlKbhx4Fds338SV+/GIDlTBnlarcCmHdDvtRF4qa1PWZKa9nFj3u9C6yg3HD/OWII2279Abw/2bTFgDhaev4EPdjwsoU8RfAbMxoJX/CGfMMJnhuCbaatwrmSYvDHbbtpaV0gniz2IxR+Gw7moY9+2PT5YOgot5VFK0kjsmv8V/k0o7cmXJt5ChtY2CthPLlWHifbnS8lJO4gAESACRIAIVJyAHl9/FS+8aq4UwcPbU/EhIN9kSQlIVDuEreqhUT2lx09cpzEasvBDNgNRfhLik9hJDRQZoOHg5QkHVsATndMerWDnZKeKFhHD2sENNeu3QNfnhuPN55vBXdEzlCLp9ArM23Zf6wdB1TCiWk2BQN7jqzjyuFAScfOWmCyIYMzZ3LABcu9tx7hRi3AiqbCDfT/iBs6dj8LXO5fgWRZCxVkF4rmBTbHuRohWh69wcuYhJvQ4Yoq10Rp830KHeEbUJZZL+UY1uF842Niy/NEJhzHnjcnY9bCQQdzjSIScPo8HG3/C5NYsHQv70H314xHYeu57hBt9cIt0VGiepCMhHke2rUdjQm+WjkNemOwpLqx4G+9uusWySau2+Hg8Cr+EM2Gf45fVLyPAseiglSYJ2LT2YVPxVpAybyovjcPBWSMx5c/owmdYXCyibpzB0fOzsGXNUATKHdPe/TDl3R04uuBcYd2K4snmCymTzWuyuPLu4zx64qUuqsAEtm7Jr5PH4PMzRQcVc5CQ+QQJD2/izMFfsGZZU/RpmqnjvSdCzZdmYnp3pUOal8bin8/H4tOdEcVsOTE+GuEXj+Fw6ApsmduDRUk7o9P4Ceh3YCr+TtHQoRX54tW5n6Kn2iGdfh2bJ3+IL08mFJeF9aNjIq7j5F9b8UPfjzArWGqeqTuMer8bR0fSR3swZ24bNGTPRn+xPBp6Ed4OHYONtwunX4prvYYFLIpaEdAgS8GJZTOw/qamvGzV+1nHZz7EpeMPi9/OTs4You4iM6f9vXPHcfRB+TtawvWTSz5tTLU/X1JO+psIEAEiQASIQMUJaJsIVvESq/xKMZyc7Quc0nxmZkGnnVMsOKhsMmdVA/7qkFQ+E+mZhR12zsEZTmV9FzsNwIrjZ3HhnPx3CqeO7MXO9Ysw8cXmzCHN+oUZ93Hku4kY+uFWhFPqjiq3imongPQRdixYUcwhrWYgiz+IH/Y8UH10sg5vi+bwtsAngcnrnE/D8a8XYncRh3SBzNm3sHnJL2yGhfy5xKZjN3oFgxWhPLRVKgHSkYG4HdFlyPPMmSIvhkdO2CbM/6mIQ7qgdBkSj63E6iPyqeplbFZNMXhwCyjXS5Uh5dCXmP9XEYd0kTKTTnyFz3c+KnjW+T0/FD2cy3q5l1G/pR8mmzdYw+KAeqirmq4nSz2LQxd1z3KRpoTh4MlI7U5pSXO8MaaLMsKTBTs82D4TM0s4pAuFzkHkzgVYey5T4TgWufXAsP4+GlPiWLcaiXc7qdLayJJxZNFELC/pkC5GIxtR/y7HByvOFKzTYjAsSynASDqSPzeTji7BtB/DFYthco6tMGHJeLRW5/SyDsLbi6egqyvrxMnzSO//nNmGun9nKXCreTuoP1/NDYCaTwSIABGwfAIW6IqSwIZFRak/O/m8HKjXGBQ5ucBJ3WK24Ie7q/qsfOSyk9Ruac7aGqyICm48pImX8dNnk/DpuqN4aNh6iRWUgS6r7gSk9/dj18VMLRjycfvqdajHYURstXE/C3wSaGm8yeyWpRzBrwfjtDrh8m7uw351aLS4Jrp0Cyoz56jJNM5CBCEdGahIm5bo0UmdyioXl3f/iXvagtD4ZBzdewJPy/BKi+t3R7daqhxH0gQc/PUwkjQEgSolz8SFX3fjtmoiAufYAT3b2BjYKMu+nGxeAP2KChcK5KxsYWtgSi5J8HMYqLJ5Puciftx0oXDxOk3iymJxcO8FZCvGNG3QsksHlB6LsUG7Qc/CT30r3fsNa/fGan0fFa1GKtV2E2sSpnrsM46O1OxYfuk1n2L15XT2ncJmMwSNwpJpXeEqskPwB4vwUSs2o0qdR/qLQ9CQfaJ6KMFCW0n9eQtVLDWLCBABIkAECghYniuKLRoj4op4lGWywugT9qFQ8G3ASSBRJ55mnTmZtMiXsEisMaqkmN3kpyDyeihCQtnvWhhuRz7GU4Vjmy1Q5tkGby/bhX9//RyvBslz5dJGBCqTAI+MsBDtzh8mSn5yIgpSrTs5FQ7WVKaY1bouthBRyFlcLMhhoAGG9D4uX01WOQnEqNW0CS1KqQGT8XaRjgxlKw5ojqYuqm4Gy9d54XKiTqdXZugV3NLp7+Lg3KQpaquK5DMv4VSI7pFfaeRZnI1RFSpyQpNmdWhwR6tiyea1oinHAdmjB4iWKUdKOMfueGtk8+J5bMtRFpi11uvQDj6qzmv+tcM4FlfGyA3riabeuslkkFfEZto0aARV5rrCmsUN0LGtKq0O6yVHHD5UMHhTLvHoZEbASDoqyjb3DjZPX4Kj8nRsnBVqvzofi2fOx9LRjRSzRvjMUHzzqYY80qQfMydA/XkzVyCJTwSIABEgAnoQsLyc0nw+8hRT3pUbJ5EURD3L0p4irSB3WDayFGEk8k0EibW40HkszSt7amLWSSx786S6GsX/ORtvNOs9FOMmjkLPWrZwbcryvP0YALcxH2CjxvxuxS6nP4iAQARkSE5I0mnDfG4uCrLKiCXkpBGIvP7FyBAXeR8ZWiM85SVJ8ehBDPuvt2KQTMwi2n3ZPwpy5OtfGZ1ZIQKkowphK3KR2D9AlbqDOU3yoxEVrdPjDFlyFB6wUOmOqhy3peuXL0TsyxYrVh6RRt/D/bLSY7HBnbtRrN4AuVeP5X1lCyGLcUt7qoTSlVajPWTzQihbFncU+y9MRLvOLCiBDYS0n7gVhwaxNB6HjuPUuQu4FHoXsZm674VCOexQPyhAFSghQ1YOG1jp1h0NyxCU8yhcW0Xk6Q1PeW+/6HrG9oGoL3+hyDc+HWHXKrq4dxmCVIvDRtJRCXbSR39gNssv/dvql9hz1Ru9RgxUnsHySJ9czvJI39CUR7paKMCCG0n9eQtWLjWNCBABIkAEVAQszynNXHGZmXksTkS5CBJnbQNrVWP51DjEy5OyyXNzsAUtUp6qPEKctSLlh3pT5KHW6SzSbD98Tjyu7V+DcSfPYPLG7zC2mR1Eru0wcdFYnBmyBmF5mq+jvURAaALZ2bqjB4Wuj8orLwEeT5JTy7iIreie+rQwrZCLizLaTl9fRhml0+GyCJCOyiKk+zgHe1c3Ve5n9srNTkNaWe9AWSqSU9nL10NbySK4uLoUDCDLUlOQWmbQaCZSnuSw+8iaXceiRl1cFQsZq9N6aaupeu4nmxdE77IY7Ji/GJ1+/Az9aliB48RwqfcMXpX/3pOn/s1G0oPbuHblHP47sAd/nb6PdG12LPZADS9WhkIwEZy7fIR1XconJcfZwU6+JEERn6XY3RMe6tEdGVvIMK6ox7p85Vf7s42ko9JcWX7pY0vw6U9NsentINjIjYLlkX68fz5m7IiigbbSwCxiD/XnLUKN1AgiQASIABHQQcDy0newycGpKakFU4Q5V3eWd01FQBqFe/KIKbbx+XF4nKCe0usGj4KTeOSnPimMqNYBT9sh/ulFrPlimyp9gnzq5GC83slW2+m0nwgQgWpHgE2TZ9Hquse+2Dl58gE25cZZSQoiRKsdrippMOnIUOxiqyLj3iwPbdnjKeycMnxjVlZFEvTm5qDs4Temx+zC+wjy+8jQhlns9WTzQqk2/8FufPzaW/hs62lEpUmLPes5sS0867ZEz1fexWff78HBzZPQxUtb4mkb2CpX9ay4aCylnUhUGHihKEi+doq6RJ7dR2XfSBWv3+KvNJKONHHjZcjPyy+WBknK+gmqbDGarqB9RIAIEAEiQASIABEwaQIW+G3Gpp8+jmcdNj9FSgLOxRve8nWN5BFa0miW/zkJsmY+kEWE4aZ6HTjOA94e6g67DEmxcYWpDSqovtwbh3AsehTq12ZSiFzRqnU9iI+H6fFRXsEK6TIiQATMiABbrMjWtox88+wc5jhQP5nkKVfydHuxzaj95iAq6cgwLfHIYrOOFM4SZsScrV1B1LTWcjlb2NlpPao4kMccMuqNs1GWKQ+u1r4xPdoV3kfIY/eR9pOr+RGyeSENQJp8FdsXjsX2Lz3QILgt2rRshhYtWqNt22YIcFZFP7P8wJ7t3sGaNZkY/uZ63CplnCydXMGDPx83No3H9D3aF8jVKL8sA3HpJW4S5oUu8EOzSGr7Mu47jeXSThUBI+moFF8Obl2nYdmYxrBTdwxYFL7/i/Ox4NJwfPh7NH1jlGJGO4gAESACRIAIEAFTJ2CZTul7kWwqZCu4sQhpTlJH6RgOk8do5eHKvgN4OPg1xO05iEhV2BbnXBeBXurcelLcjxBgGhwfj9h4Nh9T7pRmUy69anozJzk5pU39hiD5iEDlEODg7uHGfHWROqpjU7VdnQsWXeWfJOOJtineOkqhQxUlQDqqKDn1dbnxcUhmNuvLXoOctTdqynNFP9ZhxFae8JG/uLVuyplQPLwUZ4jcPODOnDNxWs9nBzgneLqpndI8cthMqEydTmxdhVn6MbJ5o2g4Jwnh5w4qftvlFUjc0aQnW39k0hj0qWOnSCtj3+xNjO66FdOOZBQXgeULTkyWR1rLndgcJLnJuBsebrDzUZoch4R8diPIU3iIvOBXk8VNX9e18q5RyFhGoUbSUUk44pqDMH/Bq6gt1xlLdXTpUBj8endCDbE7erJFEMeEjcH62xTyXpIb/U0EiAARIAJEgAiYNgFdX3+mLbkO6fJuXcNNeWdbvolqoXlT94Jow5zLKzDk2efx3pb7BZ1668bN0UiiCjuQPcT1sCdlTKvXUbn6EOcAB3t1KAMTg7NI1HqAoFP0JsCmZRZMbxeLTXfxQUHlLOEdKrxl9MZmnieygap6gXDR2V4xatX2VzmleeRFRyFahz+vkAMPqfo8FkUlVucNrTAo0pF2dKQj7WzY5KSIO4hQv4vF9dC4QUHCAI2XiWsHoV5BCKCmU2Rs8c9HBTMGRP71EVhWhKe4LurXVadGUF5fdhoRsnlN9JX7yOa1s9HzSF4ybvzzLT564xPsjlGnkXNBcJv6pVPLsEUI792NVaVrEMG/YQM46Xxv6ClDVgTCH6heFJw9mgc3LF23nkWZ/2kG3u/G0lFRsNb1MXLxTPRRBNDIkHhoMaZMmYKZv0ZB/ojlHIPx4bIJaF9u4zCw7eavfOO0QNB+snFEVJRqLnIaEQEVTQSIABEgAlVPwCI9pXzyeZy+rQ6DlqB1n+7wKujE5+MJS+9RGCllg+CeXeCuIiGNO4tT4WV/spalOs4tGG0CCz+E41lKEMNLLatWOl55BDjYeQehbeeOaO5rXzDoYVD9aU+hnmHL2bnDo8ighkHlCn2xwHLmFcmbbGurXKBUaJGFK08ovbNc8y07o72jDsnE9dGmlavKKS3FvZCwAvvQcRX7yGALyqWpvdK2cHd3MNg+SUdaiFcLHVXc5vknV3DhbqHT7ZleraHdh8ycnc90RT2dvRIe6WGhhbOcbNugS1vtJcq1Jm74DDr7qN7FLLowLFS/mVBk82Tzgr7fNeDkk09iz3GWUk5xjIOTk6OGZ3U+bp05jyTFSRxs2/ZDz4J0cxoK1XeX9B7OXIhX9UtZCog+A9DKrJY+qfhzSRMiw+53I+moQFAHtBq3FJPaObH+ABt0frQHc+bvxWPpU5xaMQsbb2ezvSz1Tv03sXRmb3iWc9DCsLZromnMfcLq3WiSCtxPrvZyGg0AFUwEiAARIAKmQEDn558pCFghGaQP8c/f15CjCABgnfj2wzGsseYILZFXX7zR30cVlSpF9MH9uJJbulaJk3NhDrfSh4vvYdOF240dhc7qxWlkT3D54l1ySpfFzWyO26LRiNXYe/B3bN34A3Yc2Ivv32gIQ7/npHERiMxQfZ5KmqN9a3uTJCKsnCyHe2KyamaCPtHDVYlEWL1zjt0w4qVaBek5SrbMNngQnlNHeEoj8d9/kfo9Q2TxuHc/XenoYPlKm3VoDYeShZfrb9KRthel5evIQJuX3sc//9xURTaL4fP8uxisSGlVeuOcOuDtYU2hnrRU+gzlHmnEcRy7r3Z0u6HfiOfhq01B7F3cbcSLUN9GsiencPiKPtPbyea1ISWb12aZFdlvA1dXefoO+cbjSfKTYgvYqUvMvvAH9j5U2jzn2BXvv98Rzno7HkUQa1RmHi7/uR+qtb8h9n8FH49oULj4oY7mWNto7k/ruETgQwY+l0pJY/j9bhwdyQVlKXV6yPNIsz4m0zmfF4mts5fiaLIqwjnzKtZN/waX5RENbGaU76B5WPharXLMtDO87aVwGm2H0Ho3mqAQtp9MchqPAJVMBIgAESACpkBAY1fVFAQzTAYpHuz5GYfkySzZxlk3xNuffYj2JefK29TFq3Mno7cqTJrPuIiftodqWARJBO+XVuGfHcvw4aA28HfQjo2zrY1+U7/DmtcDFan65B8a+ff/wI5z2YY1ia42GQIinxcwbWpP+Nsovwo5Kx90mzQZg7z1/krU3Jacqzh5PkPpoBW5YcCH76Gt/l+emss0xl5B5ZQi6sZtKAN7WaRPu6EY2VJTtJgxGlK+MgXXO1tcqu34+RjdqHSkJ+fUGuNnDEGAwn/HI/Pir9h1R9+5Frm4cvK8KqpaBLd+4zCunYuGCDx92086qq46MtzmpYjc9RMOpajexfZtMfnrGejjV9ypxTkEYdiiLzDYT7PDupilSm9h16+XVLOdODh2noQFbwZpiMC2gu+AOZjzgnw9B/ltxNaL+GM7TqbrY/dk82TzFX+/23SdhNXTBqODn9rhrMnmODi3eRfv9lC972TJuHTxnuaBx9xQbF53GIny24g5HmsPXYZVY5XrpmgqWbFP7IS6XUZg9oadmNddsxM5//rP+OZIsmoA0x6tJ6zGopcCNdxLqlpETgh66XP8MLWjXs5rrbIZeMDw51JJAQS4342kI7Hfi/jii1dYX0Dukc7GjQ0zseJcmmogX9mO3Ds/YvqXJ6F4zIrc0X3aEoxtrG+YhABtL4nTSH8Lr3cjCSovVtB+MslpRAJUNBEgAkSACJgAAQtc6FBJlU85hJVrTuGZuV3hKpIvIjMa638LwvYtf+E8iyK0qdkcvYcOx8BGrqoP1kxc3bAUOx6qp72X1I4Ybk2ew0dLB2J8dgLCQ0Jx/dZdPExIRVq2DNaO7vCr3xKdurZDoIu4wAHE59zFz19swFV9grNKVkl/myQBUe0GCCwRzsfZ1EEDf+b6iM+vuMz8Exz6aRcie76FQDaiYdt4NDbvaYejx0MRk55f8BGSH74Xq/9g0YcVr8mwKwWWM+vcXvwTPxBDarD7xqYp3tv0B9odPoxz4Y+Ryu4tZTwQG9yJPIbtJx5q/mg3rEV6XS2s3mXIzMiGrXN7TPnfL2j+00/4/fRtxGZbo0ajrnhtzFvoG2ireI7w2Tex+avdeuaTljeFx9Oj/8Nvkb0xJpAtjmXTCKM3MKb/HcfVR+mK/JOKTXoXe9ftRpgezybSUfXUkRA2zyf/g+VfPYd2X/SEJ3sX2zUchjV7uuLSsRO4+iAVnFs9tO/ZDc29rdkA7gmcQWd0qaPLOS3Dw53LseHF/2FCM+b0E7nimU9+xo5WW/DjH6dw83EmrNwD0W7A6xj9ckt4yJ057J6QRu/Gko0h0MPcFbcH2TzZvPJByfzA5Xy/ixzroMeoseg3choehxzHoRMXcOX6HTyIT0FGPouO9m2ANr1exusvt4evYnCbR1boz/jprLbgBRni9y3EnA4NsfqV2pCwhe06T/wJ+/v9i9//OIyzN+4jNjUP1k6u8KhZDy3adkSXHl3QsoYdm4mTgb8Uqytq2PgE7Fv4Bbo1XY5BvuxdYR2AQQt3oNWgPfht30lcDX+E5BwRHFy9UadZB/R67gX0YX3m9D+OaCis8nYJ8VwqKa3h97sRdGQdhFGLp6O3fIFYZiNpl9bg0++vofRylCwQZ+dczO+wHV8OYDM/HVpi/LKJuDJiGc6llcgZXbLh7G/D266hUCPsMobejSCmskiB+8nVXk6jAaCCiQARIAJEwBQIWKxTmnlc8HDHTEwJ3IDVbzaCA8c+hmt1xdsz2K8keT6HRVDNweQfbkND5o4SZ3MQ2XqjYYc+ip+uTZYWhq3TJ2B5iagGXdfQMdMnIHscjccyHjUVzg7lxktjER2nbUBD/zZlXV6HT75ujA2T27M85yzvsE8LPDu4RbECcg7fwLdV6ZRm0ggqZ8YprJq/E21WDEE9Nj+Vs62JNs+9gTbFWs0+2vc/xo4qdEoLq3cprm/5Go+fm4YX/Bug//gF7FfaTvj8WPy7YCq+va7NWVH6GsWe7KtYO20FGn8/BZ09mLPf2hst+r6GYpaUcxQ3N+jnlAbpqFrqSBibl+LRHzMw3nMl1k3oCE/23BTZ+6PdwOFoV8R8ZU8uYNWMb2EzrxO6qPdr86fk3MD3k2bBf/0ivCIfvBE5okG/97GQ/UpvzCEddxyLJyzGf0+0FVj6KrL56vlcEsbmlfbEiezh26o/Rsp/GkxMuYtHTtRezJ72I8J1jWnziTjy+TuYnMOimYc1hpNIDPcm/fGO/Ke1bHagDJOXxf+DWWPtIFszBy+yVUM5zhb+nYZiMvtp3sooUPNFgu4VUkcFggnxjhNSR5wj2ny0FBPbOCkGp2UpJ7Bs1s8I1xaNwNJ2/f3FPHRsthZDalnBOvB1LJlzGUOm/4uEsrqmQrRdUA1rLswoetdclSB7Be0nCyKR5kLMRU7N0tNeIkAEiAARsAQC2vNQWELr+GScXDoKI2Zvw/nYHA19cx55ydexa9FoDJtzAOpF0Es3na10few7LPx+N07cjEOmVFennIcs8xHO71qOsS+/gQVHY6sssrN0O2iPEARk0X9g9c83ka7u6PNZuL31W/wRU1bPX5/aM3F90zgMGbcKey5HI02nrelTnrHOEVJOnt1fX2DIkI+xcucJhMU8RS5z+pvaJrTe+YRDmDN6CjazxaZySzaXrYieEXUMa8e9jo9/j6pQVHzWjZ/wwfBx+GrPJTxMk2p4/pWHMOmoOupIMJtni29e3fAeXnxrIbacCGfRl4UzIKQZMbiydzXGDX0PG9jgC8cGkBUbn4fcgrD+0rYqjTmI2SPexKyt5/AoS11e8fP4vCRc/+srjB46AT+zxcDKt5HNk83L7bD87/fcq9ux/Ic/cfpOArK0vsPZYEnGQ5zaMhfDh83E3mg90jPlx+CfBa/jhXeXYefFGGRpfU+ystOjcfXfLVgy6W0sOaE73CI3cg+mDxmMCev+RlhSrpZ3BZut9DQSJ39ZhI/WnNUjgKN8d1t5zhbsuVSsUoHud0F0xMGjx3QsG9UAikB6aRz+XjAPO1V5xbWx4p+cwNIZ/0O4fEEdeX7pgfOweHBad4qoAAAgAElEQVRtPfJLC9R2bYIJtN84ehdIOI3FCNlP1liBQDvNRU6BmkvFEAEiQASIgMkR4OoFNSzpDjE5IQURyMoVga3aolVQALycJOxjIAnRd0Nx4dIdJOrur5eqXuzgg8AG9VC3di3UdHeCna0VRNIcpCXH41HkbYSG3UNidvXAWgpOtdlhC9/WPdC1iRuywk/i3/MPkWUElYttnODm7gJ7iaggJYwsMxHRiZlaPhyrRgFCy8lZ2cHRwYYt0MQipxVN4sHnZuBJhrYwocpqtwF65zwwdP0hzH9Gnt8zD+cWPItR2+JYPk8beDVuj07B9VDTxQay9ARE3byIM1cfsEEJgdoltoGzqxuc7SUQFzj9MpHwKBGZFRxLIR1VFx0ZYPPazNfKAR4eLszyM5GS+IQ57lQnWrXFrAObMNKXpe9giyRufP0FLA8t+yYQOfihWZuWaFynJtwdJJBlpyL+YThCL4XgXopwzwyyebJ5bSatbb+Vkz8aNq6PwNr+8HZ1hI04H9mp7B0ecRNXQ+4gvsJ9RTb7zzsILVs2QqCfF1zsxMjPzkBa0mPcv3sbN8OjwTJ6lH9juahrNWmBZkF1WP/WkS2ul4v0Jwl4EB6GkLBIpJSzv1x+AfS9wgjPpRJVG36/G0lH+iIy4DzD225A5TovNb7edVZvwEGh+8kGiKLzUnORU2cj6CARIAJEgAiYFYHq45Q2K7WQsESACFgcAa1OaYtrqfk2iHRUpbrjPAfjh0Pz8Iw1x3Kp/4eZvcfj9xQjjPZVaStNrHKyeRNTCIlDBIgAESACRIAIEAEiQASqDwHLTt9RffRILSUCRIAIEAEiYMYE2JT1Lj3QUrGILEsVcPM8LqaSQ9qMFUqiEwEiQASIABEgAkSACBABIkAEdBIgp7ROPHSQCBABIkAEiAARMISAqGYwujX1gERHISL3bpj0QVe2KDE7ieXxPbfnAKIrmFpGRzV0iAgQASJABIgAESACRIAIEAEiQARMhICVichBYhABIkAEiAARIAIWSEAc8DwWbHwF4lsnsP/AEZy6EIIb9+OQzHLES1z80KjDAIz+aCz61hKzHPI8cu5sweo/Y1m+ddqIABEgAkSACBABIkAEiAARIAJEwFIJkFPaUjVL7SICRIAIEAEiYCoEOBt4Nu2DkfKfVpl4SOOPY/HUbxGSrfUkOkAEiAARIAJEgAgQASJABIgAESACFkCA0ndYgBKpCUSACBABIkAETJWALOEWzoY8wNM87Tmi+bxkhO1diXeGTsAv93JNtSkkFxEgAkSACBABIkAEiAARIAJEgAgIRICrF9RQ+1eiQJVQMUSACBABIiBBjWbt0MBVPhYow5N7F3HtMTnfTMsuSEfG1IfIzgcNmjVCHR9PeHp5wM1ejPzMJ4iNuoPQyyGIeJJvzOqpbI0EyOY1YqGdRIAIEAEiQASIABEgAkSACBidADmljY6YKiACRIAIEAEiQASIABEgAkSACBABIkAEiAARIAJEgAgQATUBSt9BtkAEiAARIAJEgAgQASJABIgAESACRIAIEAEiQASIABEgApVGgJzSlYaaKiICRIAIEAEiQASIABEgAkSACBABIkAEiAARIAJEgAgQAXJKkw0QASJABIgAESACRIAIEAEiQASIABEgAkSACBABIkAEiEClESCndKWhpoqIABEgAkSACBABIkAEiAARIAJEgAgQASJABIgAESACRICc0mQDRIAIEAEiQASIABEgAkSACBABIkAEiAARIAJEgAgQASJQaQTIKV1pqKkiIkAEiAARIAJEgAgQASJABIgAESACRIAIEAEiQASIABGwIgREgAgQASEIiJsMwZxhzSDhAOmjQ1iz/jgSZEKUTGWYPwExGr06HW8E24CDDI+PfItvjsaxf5nZJnFHw45d0alFffh7OsFWLALH7F2+5d36HUu2XkW2mTWJxJUTqHr7pOdnVVhi1etdkFbTc0kQjFQIESACRIAIEAEiQASIQOUTqB5OaWsftB00FIP7d0HrhgHwcpJAmpGER+GhOHVoN375/RQeZBkOn3Nvh2EjOsJHrPJS5N/F/u/3406+4WVTCUTA1AmI/Tvg5Vf7w5aZf35YNH7awJzSVSy0xKsZ2nrH4FxYsvk5QKuYnbDVi+Hb/gW8NsiROaWluBW7Dd8yp7T5bBycW47EoqUfoU+AHWtD6S3n6CWsIKd0aTBmsafq7dMUn59moTqDhKx6vRskPnsS0XPJMIJ0NREgAkSACBABIkAEiEDVErB4p7Rt3Rcwd+UsvBzkiGK5Smz80LCD/NcfI0YewvKPZ2PrjXTwFdUH54qeUxZjzss1WcyVass5hPBN5JSuKFK6jghUjAD7UA/qh9ffHonh/Zvh6ebheJE5pWkjAhUlIPJ9CUvXTUUvd8p4VVGGdB0RIALCEqDnkrA8qTQiQASIABEgAkSACBCByidg0U5pUY2BWLRxAQbWFCsj23gZslOiERmTDhvv2qjt5QAxm3ttW6svZq23h2zkOGyLqEhYM3OCdfoIM1+oUeiQrnxdUo1EgAgoCEjQ+q15mPiiiyIq9ylRIQIGEZCg5RvvobvCIc1DGnscq+evwu5LUUjKzCscyGTvF6lB9dDFRIAIEAF9CdBzSV9SdB4RIAJEgAgQASJABIiA6RKw3LAvkQ9emjMLA1QOaT7/EQ4ufgO9ewzAS0MGY0Cv3nhx2i+4kaGMjRa5d8Yn899EvYIw53Iozb4Nxs98Df7s2qys7IpHW5ejSjqVCBABIkAEKoGAOBBdO/sqBxz5TPy3aja+P3YbcWnZyJdKIVX/ZBWeZ1MJjaAqiAARsCgC9FyyKHVSY4gAESACRIAIEAEiUF0JWKxT2iZ4FN7v5qpM2cFnI2Tth5i6JQSJ6kBoWRrC9y3Cu/MOIlGx2hYH++DRGNdbHl1Zns0Wwe/Nwut1rcA/OY4ftt9ERWKty1MjnUsEiAARIAKVRMDKHwF+qlelLBpht1Jp4LGS0FM1RIAIaCFAzyUtYGg3ESACRIAIEAEiQASIgDkRsFCntD06v/o8aqminqWxe7D65zvILaUZGRIOrsIPIblKJ4PIDb1f6wuvcnilrZuMxtyRDVjCgExcXv8V/oxVeLhpIwJEgAgQAUsgILGDvZXqpcAGOLMEWBTXErBQG4gAEahCAvRcqkL4VDURIAJEgAgQASJABIiAUAQsM6e0TSv06qqKkmZZPqMP/Inz2hwJ0mj8ve8KJgV3gI08v3Tb3ujqtgu7kvWYim3VAG/NHo0mNkDu7f9hyS+RyB8ilGqoHMsnYAVnn5pws2EOL5YWIOFRIjLVYxrWnmj6THd0ah6Imq42kGUm49HdUJz+7yzupOgTi8/BrkZzdOrcGk0Da8LDUQJZViriHoTj6rlTuBiRWv78t9ZeaNqlOzq3qAdfFwnyn8bjXugpHDoRhsTSIz56qI/db54N0DK4KRrVD4C3mxMcxHnIeJqMxxG3EHrlCsIepZchpxiO3r7wsC06kiSBl2PheJu1iw8CAtJReriIhywjEdFJWWVEvgohpx44TPgUzsYbTTp2QpsmgfB1d4StKA9pCQ8Rfu0CTp2/g6S8igrP7NQ3GN27t0fTOl5wsspHWnwUrp85gmOhccipaLEVvc7KCTVqurF3QZEC7D1hX/C3Ndx8a6G2BmuSZSbiUWKmhiPqsox1vwtgn6zdPqzdthyPnJTHiE3j4NWiLwb1bA5/xzw8vnYEe/6+iniFnq3g0bQPnu/VArVdOTyJuIADfx3Dnael7zBNajCeLWmqzdB9AtqnoM9PY9mSobwq93rj2ZKAehcCCT2X6LkkhB1RGUSACBABIkAEiAARMEECFumUFtdrg9Zu6unWT3Hp3E2ofSacWyd8MLkDbq1djSNx8o9oGeIvXkCEtAMaMxqcdQu0a26NXf+V5Q4Ro87wWXi/pR0gfYidyzbjGrvEzwSVTCKZKAFxAEas3Y2PmzLDyz2Lz/q9g1/iJajV5yMsnPkG2tewLpVKhs+OxvFVkzHhpzBka2mW2Ls93v50Bt7r1wDOYg1h/yzaM+bsdny5cC32RWgbrSlauDX8e32IhbPfRIdSMk3AjOjj+Hb2bPykRZ6Suzn35nhx6Mvo15M53Rv7wF6TjPKLmJyxl//C+hWrsf1KsmbnNOeK5xb+ifnPWJesRvW3GLWHr8WB4ZoO88jaPwntpx7SMIuCPQuElFNT9eawz8oHnUdNxfQxzyLIRbVgbDG5eeTGX8Gu1Yvw1e6bSNNjLK/gcusAPDt1MeYOawlPdSSy+uCEqXh4+CtMmL4NNzIrD5Q4YCjW/vExmmt7M1o1xthN+zBWg0g5R2eiy/g92hfWFPh+F9I+xb6vYfXeqQi2kuLxtgmYGj8Kaye0hZtIHSH+Nka/uByjxu+G3cg1+JYdc1cfw5t4d9R+fDpyOvY91uGYNqYtadCHwbsEs09hn5+KdglsSwazquwCjGlLguldOCj0XKLnknDWRCURASJABIgAESACRMC0CFhg+g4Ojg0awl/dMmk4rt9Wu6TFqD9sCsa/MhozRrVkKTeUmzTqBm5nqD6mRY4IauinXNRKh67E/q9izvg2cORkSDywAmvPpus4mw4RgTIIiFzhxiKia7/yJbatfFuD81d5PWfrz6KfG8JOg69ZfoakzstYuW09pg4I0uyQlp/E2cK30yh8uW0jJrZxKuX4Li6pBHVeZTKtGo2OpRzSisJg698dk9atxbvyKQN6bFaNXsUn44eid7Ma2h3SKjlrtBmMOT/+iq9fqwttbmc9qqzQKeYiZ4Uap8dFnGMLvPP9b9j48UA01OiQVigJ1t6tMfyL/2HLzG7w1PeNIqqJ5xdtxsrXg0s7pFW6r9V7Or6Z1xeeWmxdjyaY7ikC3O/GsU8xvPvNxdcfFXFIK/QhgnvHiViwaAGWfVjUIa20AYlff0x7ryPYEK3Gzai2pLFGA3cKZp/CPz9LtUwAWypVpgnvMKotCaZ3EwaoSzQBbImeS7oA0zEiQASIABEgAkSACBCBkgS0xYOVPM+M/hbBt5YvJOoAr6zHiElRO5xrMIdefVhxYvh26Ii64iu4I2VNy49DTDwL8XORN5NdH+DH/huhOTJTcUoNvDBjAjo7iyBLO4k1Xx9CUnkiBM2IJolaSQQ4F3gHv46Fn/SCN8uFnhN7FYcOHsWFW4+QxHJ62Lr5o2GrLujXty1qaBPJLhgfrZyDfr4ShaOZlybh8o712PTnadx4nAmJRz20GzAS4958Bn7WHETOwXj/q3kIHzIN++M1RzhaN3kHX83qBR9FNDOLLI74F+u/2Yp/r0bhicwRfk27Y9i49/Fi4xYYOyqPTezXf+NzEnHj9CEcPX0FITfustQHKXjKArdt3X0R1KonXnlzGHoFOkAk8UXfWV/ig1vDsep6iTwh/FOcWDMR728t6rm0QrORizG+owPjIEXM38ux4K8HGtMq5MeFlbkwqSBy6o/FNM4U++OVpeswpZO7crFYWTruHtqKzb8fweXwODyV2sAtoCm6vzQa77zYFG5iezQavhTLIoZh7C9R2p+dqtZ5PPsJZtfxQXbEQWz+YRf+u/4IqTIH+Dfvhdc/GIVeAbbg2HO6xsAJGPnzUay4rk/KGsPRyWIPYvGH4WCP9sLNtj0+WDoKLeWjmNJI7Jr/Ff5NKH2/SBNvIUNfEYS431V1CW2fYg9PZO+bh1eW/Y37XCCen7EC855lA7VsMKtF/z6Qxh7BwqkL8futXPj2+hirF76MuhLmzO7RB8GS0zhTMpWLkW1JX+TlOU8o+zTm87OgPQLaUnkYVcm5RrYlofQuNBt6LrHJAfRcEtqsqDwiQASIABEgAkSACJgEgfL4kExC4LKFEMHD27Mg+lOWlIBEueNZvlnVQ6N6ytUPxXUao6E9cCeN7ZclIT6JndRAfkwEBy9PODAf1xONjmYOnv0/wdTubhCx9AJXNyzHrkelHRRly0lnEIEiBESe6DvubbjZZ+HWr3MwYdkBRJXMrPHbD1ixvCVe62mNvFK2ydLJDJuKt4JsVA7pOBycNRJT/owudLrGxSLqxhkcPT8LW9YMRaDcMe3dD1Pe3YGjC86hZHXywZeXJo1CU0W+Zh55Edvx4ZsLcTJFXXkCEmIjEXL2MmJ++AHjWtiXEXWtbC+fdhcH1n2M37Ydxu1U9c1ZhEViHB7euYLDfx7EuB9+xIRgVq5NEEaM6o7NU/8tkR4hDzGhxxFTzJiswfctdGJmRF3CsWM3ynSUlrRHYeUsWbop/y1CzZdmYnp3pUOal8bin8/H4tOdEcVsJDE+GuEXj+Fw6ApsmduDRUk7o9P4Ceh3YCr+LrARTe0UwyuwDrKub8DbY1bjSpGcH1ERYTh7Ngqrdi1EX3cROHFt9OvXmA1GXCu3/jTVXNY+PvMhLh1/WPw0J2cMUT/i2SDIvXPHcfSBBrstq/Cixw2+39kdKeh9VCgcn38ZP67YjbBEeaOvY+ea3zC4jyqlCZ+HkP8txZbLsYpBnjv7v8W2oYMwq40EIveGaFJThDMPir4PjW1L5YGu77kC2aeRnp+lWiGALZUq0yR3GNuWBNK7EdjRc4k976r9c8kIhkVFEgEiQASIABEgAkTABAjoO9naBETVVwQxnJwLnWN8ZmaBI4Vz8oaPvbLJnFUN+MtDUuUbW2QuPbPQy8c5OMNJy5Rxzq0XPpnKppSLeOTf24olW+6WGWmpr+R0XjUmwEng6e2M+L0zMOYLDQ5pFRppcgh+3XUBpZLFWDXF4MEt2EJl8hNlSDn0Jeb/VcQhXYBWhqQTX+HznY9UTj4x/J4fih7OpQ1eXGcQhiqijeVFJmP/ylU4pcHZyGeE4vsl23FfTz9d/rUt+OLbfzQ7pIuaQFYYNn9/EEkKH5cIzh26oIU6507R84z0b3ORU/DmS5rjjTFdlNHCvBQPts/EzBIO6cI6cxC5cwHWnstULBYpcuuBYf19lNHVugST3se2xd8Vc0irT5fG7ccPex4W2Kd/82bwsrQ3laH3O4NlLPuUJdzGbYVDWrlJH4Xjbobq/ShLwPXrSoe04ij7OyIyTTkLgasB3xolFFUZtlQgqYD/EMA+jfX8LNVKAWypVJmmuKMybEkAvZsiOr1lEsCW6LmkN206kQgQASJABIgAESACRIARsLRPfdYkCWxYBKjaxcbn5SBX9T0tcnKBk7rFbIE0d1f1WfnIZSep3dKctTVYEaU3zhldJk7DIB/mzJY+xu/LN+CqttXmSl9Ne4iATgJ85jl8t/IIiviDdJ5f9KC4fnd0q6UaZJEm4OCvh3WklMnEhV9347YqmJhz7ICebUrmg2ZRaV26oaFqATpZ0lH8dSqt4B4pKVjOtb+w966eXumSF+v4OzsspEBOkZMv/Fw03Zg6CqikQ+Yipz44JMHPYaDKlvici/hxk4ZBkKIFyWJxcO8FZMsfoJwNWnbpAA1jHMWqlt7/F/tCtS0mm4+bl69DPU4o8guAnwW+qQy53/XRY9FzymOffEoyio09SVOQ9ETlpOZTkJhcdJqGDE+fpCqfCywfrYdr8clXlWFL5WWhz/mG22flPj8r05b04WeMcyrDlgzXuzFaXrllVqYt0XOpcnVLtREBIkAEiAARIAJEwBQJWN6nPluQScQVcVzJZIXTvkWiwgUMWUSIRJ14mn1Sy6RFphyLxBq99Q7tx2P2q/Lcmiza9PDXWH1Su5POFJVNMpkyAR7Z5/biYFzRqe/6ysvBuUlT1FbdzXzmJZwK0ebwU5YpjTyLszEqJ7LICU2a1SmxuKc1GjdroMoRzSM37DK0+hDlRbJcu5euJGnM26xvKyCyhr2zOzxZ7khPT+XPg/nK1YNKYHI6F4wq6V2q8Ceai5wVarkY9Tq0YznElRfnXzuMY2XaJI/UWzcRrTBdtvBhg0ZQZUnSIgGPjBuhuKdjDCM/OQEFSwG4uBTP8aylVPPabcj9XkZLDbRPPpvNLirqd2ZzjTLUIwR8FrIUow+FW1ZWttIpzd67NnZFpzJUhi2VwaJCh4Wwz8p8fhrRlirEzxgXVYYtCaF3Y7S9Mss0oi3Rc6kyFUl1EQEiQASIABEgAkTAbAhYXk5pPh950sKPZk4iKYh6lqU9RZra58fyQRd+XIsgsRYX5sOV5qHkWk1gi8iNmzUUtdmCb3z6Oaz76gASin+bm43SSVBTJCBFROh1PK2QTckX5/RlC3gq2yWNvof7JdYDLNViNk35bhTzCgYo86jXZIuDinGryACOJ/x92WJzigtlSLj/AOoZ/KXKUuyQ4uH9aPZfb40DOpqukXg2Q59BA9GjfUu0aBqEAHc7WIl0RUKze7kS03eoZTYXOTUxLv8+O9QPClDpUIasHDZg0a07GpZREMcGEtSaE3l6w1P+ZtG6NqEMibEJpZ+xRergc3NRYMJiSbkW0CxDVBM5bMj9XrwJgtunNL9E/u585BcMIEiL/FspR+GALhuQYO9buR0oH2OVYUvGUKcA9snyPBv7+VnYcuFsyRg0hSmzMmxJAL0L09gqLEU4W6LnUhWqkaomAkSACBABIkAEiIAZEbA8pzRzdWRm5rGPYuWCb5y1DaxVCuFT4xCfwz6X5bk52IJVKWoPIGetSPmh3hR5qIs5B23Q7J3ZeLMe++Dmc3B98zL89lBHmJ8ZGQCJaioEpIh7HF/CGaSvbCK4uLoUOAVlqSlILSvgmuVRT3mSw+4Ta3Ydcya5uCoW9yyISmapalyc1RMpeDxJeaI1dYdSSpninLKqVZzLym7++lwsn9Qfde11OaFLtF8xC0JfJgKcZy5yCtDUgiLEHqjhZaWyJZbHu8tHWNelfBVwnB0UAbM6UhvlMqdz9d4Mud9V5Ixln+zdV3xsjM0kKhjMZWmu+OJHZQUHWT4wNhupsm3JGHZksH0a8/lZqsEC2FKpMk1sBz2XKkkhAtgSPZcqSVdUDREgAkSACBABIkAELIOABTqlZUhNSWXOMUdFOgLO1R2u8u9kuQ9ZGoV78ujQZlZsJe84PE5Qpy9wY7kwCx1w+alPCiOq2WXigCGYPqoRbDi2uGHkr1j8422dUX6WYRrUikolwBw9Odm6U27oksfKSpVvQX5Sbg7KLoml5MiWD97IEy6wzapkNKoYhUXyyMtVnqtLhrxcraGxRS6zQZMx67BpUmtVSgYe0rRoXD5zDqF3IhGTlIasXGmhU0zcDCPmDkdz1ZOq8nzS5iKnLo1U5JgNbJWrZVbkYuU1LI2DSDF6UKGw/4rXa05XGni/gw26mv59VJ1tyVjPTw1GbrAtaSjT5HZVZ1uqRGUYbEv0XKpEbVFVRIAIEAEiQASIABGwCAIW6ZSWR5zKwHI/MxVxLt7wlq/hJs/HIY1GyDWW97aZD2QRYbiZqdIh5wFvD7W7i+WLjo0rnDouL8PbH36KSGoenM/zWLH/Wa3KF9u7FU41t+6CeX8fwacK30weLq4Yjil/JZOrRis9OlBRAnl5hQ5hzsYOcr9iqk6foDz/qzxKWrXl5ZYYaMlhqRvUBbBzbYqcq0VIG1v1nAQtJ7DdolqDMWNcK6VDms9F1IEl+PjzHQh7qiXG2i4XvWYVOqW1lyzsEXORU9hWy0tjqYvy1HrPx41N4zF9T5x+EfBqYWQZiEvXaXzCi13NSjQP+6zOtmSc52c1M/Miza3OtmQ+WqfnkvnoiiQlAkSACBABIkAEiICpELBMp/S9SKTLWsGNBT9zkjqoX5u5p8PkUdF5uLLvAB4Ofg1xew4iUhUozTnXRaCXepU4Ke5HRGlJo8BBbO8OH3s91cfZwsWb/RSn58LNzvLWldSTBJ1mVALK2QE8vBS1iNw84M68zXG66uSc4OmmdjSzKG02O0C9lpniMlkyEpPVjmIObp7uzIEdoaNEEdzcXUsslljydBFq9nwWrVSRuNJ7/8PUmb8iTEdYt8jdQ3EfV+5mLnIagYosheldHqkuT+HBQZKbjLvh4Vqeh0aon4rUg4CZ2Gd1tiWjPD/1MA1LPaU625LZ6JSeS2ajKhKUCBABIkAEiAARIAImRKDS3T2V0fa8W9dwM18VqSeqheZN5Q415ZZzeQWGPPs83ttyv8DRYt24ORpJVGfIHuJ6WIn8uXnpSE5KQqIev+T0ImkOWP7pp8nq65LxNFtLNGhlQKE6LJiADI8ePII6wFXkXx+BdmU0V1wX9euqU34ory+WJZ1PRdSDFFWErAiedevAtSCsWlPZVggIVC+Qp+m4fJ8YdevVVjmupYg5dQw3dDik5VfYNGiMegWZSVhO6SJZSrTVUipthE65NZVSWXJqqruK9/HpuHc3tkDv/g0bwKnc/Kq4DRZfvZnYZ3W2JaM8Py3esLU3sDrbknYqJnaEnksmphAShwgQASJABIgAESACZkHAIp3SfPJ5nL6tDoOWoHWf7vAqcKzk4wlL71EYFWqD4J5d4K4iIY07i1PhxRcxzA9Zg1d7dMMzXcv69cBra0JRkEgh9wQ+66u+pjcm/kmpO8zirtBLSA523kFo27kjmvvaF6bB0OtaoU/ikR4WWhj5b9sGXdrq9kqLGz6Dzj4qD68sFWGhJWcH5ONW6E0oM3hwsGraDq0cdMht1RAdW7tA9wNFnjLk/+ydB3hUxRbH/3c3mx7SE1JogdAChBI6SK9SRDoKIioqKgJiQRArWFBREFEUFQUe0rs0EekdghB6IBAS0hvp2b1vtqZtS/buZjc59/vyntxy5sxvyt77n5kzjhpWudm5BkLZOKN9n85w1xi1h32JDUn1eMNCUBQPDjk6Kjc91Xd/6WuW89N4nyp6Z2XrJyv3E6eRohg/4+AY0R+9NKGNKuoD3W8eArZSP2tyXTJH/2me2mRZq9QvWZa3JVOjfsmStCktIkAEiAARIAJEgAhUFwL6NSRbzaX0Pvb99Z9GUHPsMB7jmmmPdyvy7YenB/prZm/G7t2NCwW2mnHy2zIEHNF0whLs3OMb0V0AACAASURBVLsZa35eiQ17duLHp5vA0TKJa01FGn0Yh+4Wb9zZf8IQBOpq3Sx0x2MThkM9UVqWfgx/Xyg7ZZlH5olDOKeKKy2q1R3De3rrFN+dO4zA4LqGpjHLkJku34RUfrClvg3rQ18kHHGDUXhhoG+x0M25oparMdN2WVz4ZPUAkAi+DUPgbsxjGrKW8lNrUQpw0rT6mXdmK3beV9YlzrU7XnqpE2oZzU8Esa56J0DOyIScgO3Uz5pbl8zRf9p67ad+ydZLUL//1C/p50NXiQARIAJEgAgQASJABLQRqKbygRT3tv2BA6qYuJx9Ezz7wavoUFaZcmiAkfNnoY9qmjSffRar1l0qs+GbNmx0riYTEPkPw1uzeyHYQanUcXb+eGzGLAz1M1q5Ex6f9Bo2/XlOtQKAg2uXGfhkYmOUny9th8BB7+G9YX7KgRiexVDfug5HH5V3SZa4H+sPqkJ4iGqh98y3Mah2eeGZ8+qCN+aMQED5S2WMSnEjMgq5isg6zMceU/BcuItWoVvs2w3vfDUd7V1KMOWc4eEuKe9ouTNSxERdR5Zqtq9D+7GYFO6qNZ1yjypOWMpP7ambetbk+llwCb8u+xvJcn6cGPXGfoFvX1DG6Nfpm9gNDbpNwLyfNuL9HtoHAHU+SxcqSMCG6mcNrkvC958VrCZWdjv1S1ZWIIK7Q/2S4EjJIBEgAkSACBABIkAEagCBarjRobLU+LQDWLz0GLrO7w4PEQfnFlOwYn1jrFu9A6fvPoJDQEv0GTseg5uqNmfjc3Dxp8+x4T7Ffa4B9d6kLIrqhSJEHYNcZYlzqI/QYKbKJmqCt5iURsUfluH+xkX4afjvmN7CCZzIA13f/AMb2qzGb1uP4Wp8Duy8QtB+0FOYMiIc3mK52MtDGrsFn/0cibLzpBXp8+k48P3PON/jTUQwcVgcMBhfrPVG65/WYl/kPWRIXRDUsifGPj8RveraISczCw5ubrDTqc3zyPh3PXY97IWxTMHmHMPw0s/r0GjNKmw+fBkxaQWQeAShWYcBGPf0UIR724FPOoTd0REY3JGJypwdAoJqMzE92uDGe7mndmJf4mCMYSI65xCGF3/ZivZ//41TN+ORwWK7KyPO8yi6cwjrjtwvY89yfla8nA0/YXr9lCFx1wK817EJljxZDxKxF7q8vgq7++/H5q1/42TUXTzMKIS9mwe8AxqiVUQndOvZDeG1ndis9mzsWGfYR7rDFAK2VD9rcF0SvP80pc5U/bPUL1V9GZjXA+qXzMuXrBMBIkAEiAARIAJEoHoSqLaitHy24/0N7+KNkJ+wZGJTuHAslmGd7nh2DvsrW5ZsQ8K7W9/DrJXXQZE7ysKhf5clIIuPRbyMZzODi9VXXvoQsQlVPKCRH4UfZ8xF8IqFeDKExW4WuSK0/0tYwP7KH0yQTjiMT6d/in/TVZuClr8J0ujVeOvDFvh9wSAEMyFeUrsTnnmP/ZW6l9l6uB8LFsVh6heTUV/fjOlHx7F4/lq0XvI0mjhx4FxC0G/qh+yvbOLMZtoZfPf6u9jV5nv079gaEvlGiS2asbYcjUzdLisNZR/Dtx9tRLuvx6ChI0vHMQDtHn8a7cr4nbs7HhvKidLsJkv5WTbbAvxbkPrJJ+Pgh89jVv4SLBzXDG5sh0mv5gPxvPxPn4+GykXfs3TNeAK2VD9rcF0SvP80voZY3Z3UL1ldkQjvEPVLwjMli0SACBABIkAEiAARqOYEqmn4DlWp8ak4+vlkTJi3Fqcf5mvZVI1HYeplbFo4BePe24O40vsbVvOip+xVloAsdiuW/HEVj9QaNJ+L62uWY2tcFYvSLEPSuL2YN2Ei5q45hQe56hnBpXPKF6bg8o6vMGXsdPxxPc8ABike7HwHE17+Dgdjcsq3Ib4QSedWY9az72DL6buINdiGeKQd+xxPTfwA6yOTUFBOxOQhy32IC9u/wdTRU/H9xQzEHj+h2sSRDSxF9EJnN51TsUvkhUfyoY8xZsxMLN54BFfiMlHABhKMPyzlp/EeGXunYPWzKA77PnkKw6Z+gY1n45Crkx8bQHgUi4v7V+OzGc/isyM0tGdsWVX+PhurnzW2Lgndf1a+xlT1k9QvVXUJWCJ96pcsQZnSIAJEgAgQASJABIhAdSLANWzcpCJKje3m3c4DIW0i0KZxXfi6SSDNTkHsrUs4c+4GkklDsd1yrTLPHRHYtie6N/dE7s2j2H/6vipWcpU5VC5hkUsQWrQLR7P6AfBykUCWl4HE+zdx6VwkbqcVlrvf4AkWN7he646IaFYPfq5iFGY+xM2LJ1k4h0Tt4T8MGrSHd2hbdGgdiiBPR8iykvHwwW1cPHsZcTnCC/ycnRNcXRzYRnxs5rTCNx58QTbSsw2xsKyfBrEZdYPQ9ZMNCPg1Rnh4U4QE+cLdSYyivGxkpcTj7q3ruHozFiyiBx1VQsDW6mcNrUuC959VUtlMTJT6JRMB2tDj1C/ZUGGRq0SACBABIkAEiAARqDICNUeUrjLElDARIAJEgAgQASJABIgAESACRIAIEAEiQASIABEgAkSACKgJVO/wHVTORIAIEAEiQASIABEgAkSACBABIkAEiAARIAJEgAgQASJgVQSq8UaHVsWZnCECRIAIEAGBCLh0m4mlL4SzzS9NOaS49b85+HhPIoQPFmOKX/SsLgJU7rrI0HlrIED10xpKgXwgAkSACBABIkAEiAARsCUCJErbUmmRr0SACBCBGk+Ag9gnFO3bt4e9SSwKITnkYJIFetiSBKjcLUmb0qooAaqfFSVG9xMBIkAEiAARIAJEgAgQAYopTXWACBABIkAEbIqAXe1wPBbmA9PiT8mQfuMEzt7Ps6m812Rnqdxrculbf96pflp/GZGHRIAIEAEiQASIABEgAtZFgERp6yoP8oYIEAEiQASIABEgAkSACBABIkAEiAARIAJEgAgQASJQrQmYNtGsWqOhzBEBIkAEiAARIAJEgAgQASJABIgAESACRIAIEAEiQASIgNAESJQWmijZIwJEgAgQASJABIgAESACRIAIEAEiQASIABEgAkSACBABnQRIlNaJhi4QASJABIgAESACRIAIEAEiQASIABEgAkSACBABIkAEiIDQBEiUFpoo2SMCRIAIEAEiQASIABEgAkSACBABIkAEiAARIAJEgAgQAZ0ESJTWiYYuEAEiQASIABEgAkSACBABIkAEiAARIAJEgAgQASJABIiA0ARIlBaaKNkjAkSACBABIkAEiAARIAJEgAgQASJABIgAESACRIAIEAGdBEiU1omGLhABIkAEiAARIAJEgAgQASJABIgAESACRIAIEAEiQASIgNAESJQWmijZIwJEgAgQASJABIgAESACRIAIEAEiQASIABEgAkSACBABnQTsdF6hC0SACFiQgAh+j03FtL6BkHA8ihKPYMWyA3ggs6ALRiVlK34alRm6iQhUPQGJF5p06o7OrRoh2McNjmIROE7pVuG1zfhszUXkGeWlrbRNW/HTKOh0ExEwiYC4+Ri8N64F+90HpA8OYOmKw0iyut99k7JoIw9Tv2QjBUVuWoAA9UsWgGyRJOzQYuy7GN9CLvfIELt3KX44mgLeImlTIkSACBAB4wnUDFHa3h8RQ8di9MBuaNukLnzdJJBmp+DBzUs4dmAL/rf5GO7lGoLGwb3tKDzTPQDGTy+XIeH4Wqw7k0o/AIbw1vjrItTp8iTGjAqCmLGQpQD7f7BOUdpcfkp8WyDCLw6nrqSyVyc6iEB1J8ChVvgkLPz8NfSt6wSVDl0q0/n/nMPXFRClzdU2hS0JW+nrhM01WSMC2giIgztixMiBcGQdQNGVWKz6iYnS2m6kc2YmQP2SmQFbtXl6/yxdPNbYL1EZVaYJ2aFO5ycwqr8De7gIl2JWYQUTpaWVMUXPEAEiQATMSKDai9KODYZh/uK5GNHYtbSY7BCEJh3lfwMxYdIBLJo5D2uiHukRj5koHf4Epr7YGhKjC6QIV/L+wnomStMPgNHQ6MYaRYAJc43746lnJ2H8wBbI/HU8hjNRmg4iUN0JiAKfwOfLZqO3l/HDnNWdCeWPCBABIkAEiIBlCND7p2U4m5IKlZEp9OhZIkAEiICtEKjWorSo9mAs/PkTDA4QK2eh8TLkpcXiTtwjOPjVQz1fF4jZOmnHOv0wd4UzZJOmYW10ka2UHflZ7QiUXFDF6xkgqeqMC+mnBG2feR+vD3dnbVSKzKrOGqVPBCxCQILwp19ED4UgzUP68DCWfPQttpyLQUpOYXHbZ79ZFRvQFLJtmhOErfhpTgZkmwgQAesiQP2SdZWHub2h909zEzbdPpWR6QzJAhEgAkTA+glUX1Fa5I8n3puLQSpBmi96gH1fvImP1kUiWa47i9wQOuh1fPHBODR34SDy6oI3P5qIU8/8ittGqABFVzdi4f/+Q4HeMpYh7XIihSLQy4guKglIcW3jQsy76csGSnjIUi/jP6scH7EVP6leEQErJiAOQfcugYpQPeBz8O+38/DjIVPDPNlK27QVP624/pBrRIAICEyA+iWBgZI5IkAEiAARIAJEgAgYRaDaitIOrSfjpcc8lCE7+DxEfvcqZq++USwiy7Jwc9dCTOU9sfWLgfARcXBuPQXT+mzG7H0ZBmepSuNOY8vGXcgxCjPdRAQMEeCRfetfbL5l6L6qvm4rflY1J0qfCOghYBeMukGqsB2yWFy5Zvg3R4811SVbaZu24qdh4nQHESAC1YUA9UvVpSQpH0SACBABIkAEiIBtEaimwSyd0WXkENRRTENjO5o/3IYlf5QQpDVlJEPS3m+xMrJAKUKLPNFnVD/4attxyrbKlbwlAkSACBABayUgcYKzneqHhg2a5hrcaNdaM0J+EQEiQASIABEgAkSACBABIkAEiAARqByB6jlT2qENendXzZJmETlj92zHaV0f/dJY/LXrAma07ggHeXzpiD7o7rkJm1JLxparHFx6igjoIyBy8UWwt5My3nmZG3npIyQ+SEWePgOlrnFw8g6Cr4sIHF+IjIR4pCtiy7AVAEFt0aNHe4TV84WrXSEyH97ChcMHceR6KtuL2fAhnJ9iuPoFwtux5KiPBL6uxWNj9u7+qFv3kZaQNyykSXYyYlNyDa5iMJyjit7B+gWfUIS3DkPTRnXh5+kGF3EhsjNTER99DZcuXMCVB48qEPvXDrX8A+DpwDiw0A1JD5KRI1P5ZO+DsK490LllCAI8HCDLScWDW5dw/N+TuJGmr7TMYVNZf0zOu8QdAbXdYS8vdj4fafEJyNSXFU3xsDrtxeo0qx+KR3NTEJuUraVuVLQ8LXy/nRtqB3iy35cS6Tr7wFnzb3t4BtZBPS05k+Uk40FyjpYrSlvCtU1lWVt/H2KJsqP2blJfV9Pbe9kqau+LsG490KVVQwS6S1CUmYjbl47hwJErSNYf/01pyWw8zffOoHRcgHbE+k5/1nc6spBm+WnxeJjFwbdVPwzt1RLBroWI/+8gtv11EYmF8hTt4B3WF0N6t0I9Dw7p0WewZ8ch3MhU/7iWLRgWxU/Qd7Dy9uVnRC7BCO8YgZaN6yPQyw2OogJkZyTj/o3/cPb0edzS+7uu3ab1n7WDZ+PO6NU1HKGBnnBCLlLuReHkP//gbKzyHU7s7AlPZzZziO2bkJ+ViiyDbYHV19ot0blLW4SFBMDbVQJZbgYS7t3ExVPHcDY6w8A7mK2+f5qptE3tl8q5JUB7ZwHNzP+NIISf5TJvgyfs4dviMfTp1BR1/D3gVJSFh3f+w/FDx3A5Mb+C+WFt0785OnZqg2YNguDj7gixNB85WSmIi4nG9UsXcOlOKvIrJKuYw2YFs0W3EwEiYFEC1VKUFjdsh7ae6qXRmTh36ioU76zs4Dw74+VZHXHtuyU4mCB/WZUh8ewZREs7ohmjwdm3QvuW9tj0b0U7ZYuWGyVm8wQ4eAz8BLs+7gZ7LXmRpWzEC73fx1F1xdVyT+lTEnR+axO+H+oKTpaCP6f2wfyzARj45qeYPzYc3upZmaqH+Nffwq0dn2Hmh5txU6/yLaCfnAceX7AdH3XVlmO5Y2LUG/8d9ozXllkeubtnoMPsAwbiuGt7tnLnOK+WGD52BPr3YiJxM384i3UsoWAzXR+e34EVXy/BugupBj6M5NmsiwnfbcHMMNbhFJzEB/2fx/8SJajT9zUsePdpdKhtX26ggs+LxeFvZ2H6qivaByoEtilo3iXheG31Moz0ZX0y/wgH3x2EaduMiJ8sboqpv/6JaaHyD9ciXFk6EqN/sPr4NuUqm7juWHy3dSZa6vq1tWuGF37ZhRfKPQnk//Muur2yTccGoAK2TUXaNtCHaGEk1ClB63xJpwRumwrTAtsUNO81vL0XF709gnu/igXzJqJjuT59OubEHsbyefOwylAFNhtP87R3IeuSOHAUluycjdZ2UsSvnY7ZiZPx3fQIeLJwe4qDfxZThi/C5Fe2wGnSUixn17zU1zARUyfvxtuT3sGueG3CtND9Z+mCFHm2xKhXZuHlJyMQ4KgcWC1b1HxhKq4eXI+flv+Gv25kVcGAe1mPTP+3yKsdprz/EV7pW7/EwKvS7itvJuPsqvmY/c1xNHxrG34e4w0Rn40d07th9t+6VWmxXwc8+/YcvNg/FLW0vYexd7C4k+vw5YLvsCtaxwwkG3v/NL0kdFkQqF9SmReyvcOMZSSon7rQ2sh5x5AhePPTtzG6hRfKfBpiVl4cjq58H+/+cByJRuyvZeffBc/PeRvP9WmovW3KmbCBp9z4SOxZ/gHmbrpl8BvJHDZtpGjITSJQowlUw/AdHFxDmyBYnTPpTVy+rlb2xGg07g288uQUzJkczj7BlYc0JgrXs1UvrSJXNG4SpNyAqkZXDcq8zRJgddjPvwGGfvorvp7QupwgLc8XJ3JB6LAP8OO8nvDUobXabP4Fctyu6Ui8+cpY9GlRW7cgrYDpiNrtRuO93/7EN6MaaB1k0OmSyAOebEZ0vSe/xNrFz2oRL5RPco7BbIZQEzgZU1YC2BQ07zknsXH3A+WLKOeCzsP7o7YRvzyS8KEYEqKMwcTnX8CWHdEGX2Z1cqYLFSNQA/sQQeu8LtoCtM1ypgWwKWjeqb2zIpKg/kjWp387BZ3KCdLyEmSz9YJ7YMay7zC1uUO5Ii11whI8BWzvgtYlDQgx/PrPxzevlRCkFRhF8Or0Oj5Z+Am+eLWkIK1kLAkaiLde7MRm6lr2cG72NJZt/AMfTeiAQB2CtMJDiReaD3gRHzzTVvM9YllPhU2N8+qOeb+twOx+5QVpRX7tfNB+ymL8PLs3Gge6Kff8MeCCpP4ILF7LbA5qrFv0Yu9ggZ0n48u1P+P1dm7lBvUNJFGDLgvYL6momae9C18ktuKn8DkvbVHkPwif/rwQ41qWF6Tld3KOgeg+bRn++KA35PNI9B3iwCFYtGY5ZvRvpLttKoyK4BTYGv061DGorZjDpr480DUiQASsh4CuuVvW42GFPREhsE4gJOqJFLnxiEtTC861mbDTiI0MihHYsRMaiC/ghnwksCgBcYlsXYm7PDH2fN0g9r/6BRBx0GOYOrc3Woc3QoC7A7iCR0iJv4trF0/i7917cfxuls4l1xXOEj1QDQnwyDq+HK+/tl7zYi6uNwzzZvaFnyoWeuUzbYcmkz5H21B/Fk/9BNb8sg57z0WzpcKOCGjeE+NfnoL+DVjYEHk7GDYDk9YexbdRuuIpCOgnn4kjS1/HS2tKKqt2aDHpU7zSyYV9SEgR99cifLLjnta2U5RwxahwI5Xnpv1JPj8ZUccP4J/jFxAZdYuFU0hDJpuM4+gViMZteuHJiePQO8QFIkkg+s39Ei9fG49vL+ue9VMqFc4dfq2fwoI3eyvKPf/hRRzY+w/OXHuAFBbTw9EzGE3adEP/fhGord298mcFtClM3gsQuXU7bj79CpqyWU6ObYfh8Tob8HOMvmkYjugwbCCCFG2BbUB1Ygv+itM226189q3tjOzhXnz66k3UKvmC79gBL38+GeHykVHpHWz66CvsTyqfP2nyNWTrzJCAbbNcGlbah5TzU/gTwtR5HX4J2DY1KQhoU5i81+z2Li8X++bP4yv2fuivmNXJVvlE78eK79dg/8UYpMtcERTWA+OmvYThzVrhhcmFLPCEvsMSPIVs78q8CFOXirmIvX2Qt+t9PPnFX7jLhWDInK/x/gA2gYQJkq0G9mXvOgexYPYCbL5WgMDeM7FkwQg0kDAxu2dftJYcx4lyq87M03+Kg0fgqxVvo7e3ssPnpWmI2vMn1u0+iou34pDKftflYcpCwjqi/6gJeCLCX1/h2841kR+GzF+A8Y0cleG22GbyV7evwA8b/8Xl2Cz2fVUPbQc8g+lTeqLR0x9iWq7+Wq/IuFNrvLb4PfQPlChtSlNwfsMK/LL9OKLicyDxboj2gyZh2sSuCGLxwUS1WuOlr97HzTFvYXdimd9TG33/FLICCNsvlfZMkPZugTISxE8hC8WitsRoPPoFhNmLUBD7L35Ztgq7z91BWqET/Jt1xaipL2NMuBfrU+1Rf8SHmH/qMl7fmaj1ewycNwa/MwcDA+0UbVOWcQVbVqzAhkOXcPthBvI5J9TyDkCj5q3RsecADOnbFp6G8moOm4bSpOtEgAhYDQEj3gqsxlcjHRHB289HM1IuS0lCslr7sGuIpg2Vip+4fjM0cQbYijnWm6YgMYXdJF8mziRCF18fuLBeNl1P/CO7pkPwctPSLtVr2Axtuw1iot8buL57GT74bC0uqAVxI72n22oOgcL4izgYX5xfcctwzBIk+0xsbhKKgtvrMG3yQhxJKX45vxsdhVOnY/DNxs8wwIctKbULweODw7AsKlKn4Cucn4WIu3QYcaXyaA++X7Egnh1zDocORVnFjFg+6xb2LJuJ9Wv/xvUMLQJqcgKLC3kBf2/fi2krf8P01s7gHBpjwuQe+HX2fh0hF8oUsMgH/aY9y2Ir5uLan+9h+hd7EFN29en6lfh6UThG9bJHoZ4+SWNZAJtC5116czs2X3wec9qxATz7Fhg2pBF+XXZddzm7dsbwvr7KWRWyNPyz5SCSjcm7IO1HWCN8zn2cO3y/tFG3WhijbpbsQ+z2qcP4556WOmbAFeHaZtmErLUPKeuncP8Wus5r9UyAtlnOrgA2hc57TW7vENXGEzMmI0yxdwKPwuh1eHXiAhxNU3dgSUh6eAeRJ88jbuVKTGvFfjfKFWrpE+bnKVx7F7ouqUnwRefx29dbcCVZ3nFexsal6zG6ryosEttHI/L3z7H6/EOFgHJj93KsHTsUc9tJIPJqguYBIpy4V37QT/D+UxSIkfPfRi+1IP3oMn6d9Sq+PJpU+reOfZfERV/G0R1rsLLfa5jbWmrzoTsc207B9D4sHIe8wGSZOPP1s5j6yzUWTVp1JCbiwc1zOHHlQ/xvyQjUdTVU68WoP242nmnM3hmYCV6agL1zJ+GN7bHF76oJDxETdQL/nJ6L1UvHIkQuTPv1xxtTN+CfT04Vp61wwbbeP9XYBPt/M/RLct+Ebe/mKyNh/RSsVCxsiIO9vQTS2O144+l52F9i4CYpIQaXT55FzPLf8VZHtopB5IU+0yYhfN+XuKBljg3n3QtPdHNXtne2N9efs57DhydKhiDKR1JOOpLuX8WJvf/D0i/C0DcsR/c7PyNhDpsWBkzJEQEiYAIBA4szTLBcZY+K4Var+CWfz8nRvJhwbn7wd1ZmmbOrjWD1lFS22dijnGLFg3OpBTdD70t68seJa6Hp0Hewas3HGBhg8rRXPSnRJSKgg4D0ATZ88nUpQVp9pyxxL1Zuu6d6OWAfo61awq8a9gQ6yBh9uui/1fh4+T7tgnRJK7lX8OuPe6HU/kWo1bEbWqljAxlKjZPAx68WEnfOwXMfaxGkVc9LUyPx56YzeGTInvy6ADYFz7vsAXZtPgllN8vCKA0ZpocRi/X52DD0Uu0LIE3ch81H5aOHdFiUQA3rQwSv89oKS4C2Wc6sADYFz3sNbu/i+kMxVrHyhx2yVOxe/C2OaQTp4tLjsy/hx8/W4a4xY1GW4ClQexe8LqmQyZKu47pCkFYe0gc3cStb9d4uS8Lly0pBWnGV/Tv6jmq1IlcbgcbEi9JYrvx/2LeZhKmdVeEjWNkfXPg6FpUVpEuZz0PM/kV4+esTmn1vKp96VT7pim5jhiBYtbIp/8ov+GhVCUFa45oMyYcWY8lBI1aS2oVh9OhWbJNLRYEi7cCX+GhHCUG6hM2UI1/hw42qEGFsKDtoyFj0rGXCR1xVojRT2mbpl5iv5mrvQmOwFT+Fznc5e7IM7P9mEQ6UXUkgvzHvBn7/7HfcUM0TEtcdgpEdHMuZkJ8Q123IVqIo25gs4yQOnNUfE1+adgV7j97RK0qbw6ZW5+kkESACVkmgGkpREjiw0XL16whfmI8C1XuryM0dbuocsw0VvNgO3cqjCAXsJrUszdnbg5nQcrBlmPdPY+tPn7GR+AkY3Kc72kdEoE2nnug/5iW8u2w7LqUUqexwcKg/HJ9+NQVNde3rpiUFOkUEhCAgvbsbm87m6DBVhOsXL6sEQrY2ILAOgqphT6Aj82Y5nXclEtdVL3Iit0AEuWvtQLSmzeecwg+L2Uzg8hO5tN5vzElz2NSVrnF555FyYDMOpiszKQ4ehOER2l92wfmg7/BuqoFBKWJ2bsVpvZtx6vKMzptCgPoQ3fSMq/PanzdH2zSHTe3es+9Wo/q6mtreRQjo9hiaqHaPkqX8gx3HdH+s5/+3AztvGaNKm59nVbR34+qSsibyaakope2zsBgpqt8T8GlITi25lEaGzPQM5bs4i7nu7WGJRaEOaD90gCrkFIvKdHs9vttZQijX1aDYeanUmDqgx0BVX3IIR8/OqlmTfAHOb9mO27qyxKfin51HkGngfUfcqAceq6Oa1CNNwt4//0aKztVSOTjz5xbNv/1haQAAIABJREFUOxjn2hG92KosOtQEzNUvVYxwRdp7xSwLe7et+FmZXMvS/8W2Q2k6V2ZIb/2FnVfVHzNe6NytufbwUqLizVs5O0c4CjH/zhw2KwOJniECRKBKCFQ/KYoF1BdxJQQhmax4ZI51eJp+k80ukqgDT7PuWSYt8YYkEmvZgEOGxG0z0Wfws3h78R/YeTQSt+NTkZmTi5zMJMRcPoJNy+Zg7PDn8cNF9SwADs7hz+GNYf5a7FVJeVOiNYIAi8HLhAOdHwWMQVFqMjSh1t3cigdragQfEzMpsodzLS/4sBiXPj7KP2/2/aMe/ILIDbU0o1+G0uKRd2on9iYY+EIzZKbUdXPYVCVgQt75rKPYvC9R2R+LfTHgia5w1ZIvUWB/DO/AYp6za3zhNWzbFqUztIyWx+mUIASoD9FgNKHOly8Kc7RNc9ik9l6+7Iw5Y49mLUJVH/E8Cq6cx6V8Pc+xePLnLqRoj9lZ5jHz9p8WaO8mtiM+j616LCVK5iJbvcKRz0VuXmnFMjc3Tym8sO8BBydjly7pKStDl8Sh6BShCl/BfuWi/z6gEUkNPWrr18V1WyLMXfU5yer0mfPJeut0zqULuKZLtFbA4FCreRjqqUzyOedwLFJfQ5JvzXASJ+NURtk7WPMW9Q1uqmbr3I3333z9kk4fTGzvOu0KfcFW/BQk3yycVNQ5RJYNEVjStvQ+LlxM0Kyk9W/WTOuGh7IH9xArU/a5nGsPPDOpZel9UyrhrzlsVsINeoQIEIEqImCJ6QOWzRpfhEJp8cspJ5FoZj3LsjKRpdZ++LwSL7EiSOzFxXH9pIVal9LlpSbB0IQ9WeoZLJn5GZps+Ri9PdgbFeeKziMfR50tv0Dvvl6WpUSpVWsCMqQmpWitw+ps8wUF0IQJE0vo5V1PfZD4tEDfoYPRs0M4WoU1Rl0vJ9iJ9M2EZn2O0d/A7OP10mVk6pwBpMcxnZeEsyls3vNwevMuxIx6DiFiETx7ykN0HMSOUtPfxKg3aCjaKJaq8Mg/vwXb7+j9etVJgS6YQqDm9iHC1vmyZSBc2yy2LJxNYfNeA9s7i+8dHKjc6E0eciDp7j2oI0yUrQnKf0tx/24sEwD8jJi4YE6ewrd3YesSoyUtKrP0uwhFmp8GaYn/VpItnmjC4qiy7wDlL4r2UhDkrHMIGgWqVdRHuPKf/s3SBUnTSoyIg+uqQnewX+2iWMTE6v/NlqXG4B6bKt1JFXu7fDbkG84Hsk3pVa0k9jbuaolrW+o56V3ckn9k1VXuDRTANrwX45recAHl062mZ8zaLymZCd7ezVQUtuKnebLP+vmYe8jQ+73BVidG32fthm0iy5wQBbG2zbq1+DLzZmQJ/2D3mdfRvgsLVcUGgTq8vgYHhrIwHgcO49ipMzh36RYe5ujvB8rm0Rw2y6ZB/yYCRMB6CVQ/UZpJcTk5hUzOUG6Owdk7QB09g89IQGI+643lggfbXCpNrQSxnWblIT/UhyIOtd5OW3+ByhJ2Y8WWqejxbD3WqXOwa9oBEe6/IqbU8kL9NugqETCFQF6e/lklptiuMc9ytdDyqflYNGMgGjjrE6HLEFGs1jCWkhQJ8arZw8Y+YvA+AWyaKe9FUVux9eokzGzBRALXrniinx92rU8onlUlboShQ5pDsYiFf4RjW/aWexk2mH26QRACNa4PMVOdL10YArTNcqUrgE0z5b3GtXfG0b2WegEij/S0dJ3LpJXFKFPcY+w6GXPyFKy9m6kuyUGWfi1nKxw1k0xY+D2+9FWZ5iITVtgqSXMfYi8feKtVVBbTOi6heANnc6ddtfbZilAPT1XsZ1ZGeVnIKjTgEYtrmypXxrx13SeCu4e7ZqKQLCMNGYYaCdsbKC09n9URe/YcG4hw91BsWK9ZwaYrqZpw3pz9krnau9DlYit+Cp3vMvYy1GGNdKbDIyMlFUUqqUTk4QX5/LpyhywOGz76FJ1/+wD9a9uB48Rwb9gVI+V/L7J+QJqHlHvX8d+FU/h3zzbsOH4Xjwy1YXPYLOc4nSACRMBaCVRDUVqGjLQM9pLvqhjl49QdqnzAThqD2/KR9BZ2bDQ/AfFJ6qVenizmXPGHRFFGevGM6kqVXAGizl7Eo8n1IA8ty9nVRYh8qDG1YqOGlUqaHiICREAAAg5o/twy/DKjrWpJGg9pVizOnziFSzfuIC4lC7kF0uKPZHELTJg/Hi1VParRmjT7kM4XegDBZJtmzDubzbRjyzm8HNYJTpwjOgwbiOCNq3BP9bIqaTkUQxoqgyzJ0v7BpoOpBkQdAYqaTBABNohN7d0MfV2Na+9i2GlixLGl0gXyCRL6j8KCCoiXVs/TQu1IP9KquSrfi0adMp+P/Bo0L0BsV+JTksXHNvylw+4xUO3tihsSU5YZT4OlysLl5Cnbm+L9y06iPRauQTvV8QZz9Uu20t5txU9z1z0eRYUGGh5zgS8s0Ky05dhKWjttojS7r+jeFswcdQejX34FU4Z1RF234hXnnNgRPg3C0Uv+N2IKXj37K96evRRH1bqLjqyaw6aOpOg0ESACVkagWorS8pmHMtXSE87dD37y/S7kI/fSWET+x+L3tfCHLPoKrqr3geO84eetlpFkSHmYUBzaoJIFVpScjFQmtLgrlHFXuLnKe3XDr2qVTI4eIwJEQEACojqjMWdaG6UgzTbuidnzGWZ+uAFXdO3O41SA3nOLRWkBXbG4KfPmXYb4PVtwdEZH9HNjs5laDWMi9Gp8f1PeNzoiYtgg1TJgKR7u3YpjjyyefUqwBhIwb523bqDmzXtNa+/5yJWvxlMcLJaxg3zWpv7DwbEiO2FbN0/z1iX9HKv8KlOhNcIp5wRnpyr3yEIOsA3g2epSRXhZ+SQcRyfNrGmdDrABaScDfApLiGecg9Km/rAD8tjhJdpbCWFNpx815oJ5+iVbae+24qf5qyN752aDZ4YOUckV5oV5yNczw1maehHrFryAdV96I7R1BNqFt0CrVm0REdECdWuxGdTyxDg7+LR/HkuX5mD8xBW4ZmAlhTlsGsozXScCRKDqCegY/6p6xyrvgQwJt+9ololwkvpoVE89daUQF3btwf2ibJzfthfqUKVcrQYI8VWh4KW4Gx1jsnzMSexKjNKzWHikR1e+SOlJImBRAmyn8l4D0MZRKSdIb/+O2e/+qVuQZr6JvLzhWS16U/PnnZfPgD6g2tzLLhTDhoUp+0qXThjOwnkoemu2qkU+o9pQDH+LVgtKrJoSMH+dt15w5s97jWrvslQky2cjKA4Onj5eBkRpFlvfy6NCezpYL0/z1yXrbUfsJys1AUnyNe/yQ+SLoADD4o8156civhUkJigm4cgPzt4PATpjRaus2vnAX+8Lk3LFq3p4R+TpDS9DozucG3w81aI0W4HGVryq98GsSF6q5b1m6Zdspb3bip+WqHnsN8nbw8D+Bew3yddbE89dlpaCND2itMbr/BTcPLUX61Z8hXdffQr9u/fCkzO+w/67uarVQizMT4uJmNLdxfiMmsOm8anTnUSACFiYQLWQUcoyK7z2H65qXg7roGVY8YdB/vmvMWbAELy4+q5GeLZv1hJNFUFM2SG7j8tXDMUBLJti2X+zzjeoDnzUdGUpSEw2plcva4f+XaMI8LLiwRCxuEIfqhblJKifZRY3G/rwsEhGxWjQUB4PXn5IEXfsEKIMrB11CG0GVdQJ9gyLKa1Zwm0RhwVMxBJ5z8bxLX8hTjFQJ0bdwcMQ4cDBvfsw9FZ8qLJl71e3sdjThpcZCpjx6mFK0LZpRiRW5acl6rwZWZpk2hJ5r0Htnc9AzL00VYxoEVu+XB8een/T7FA3pK4BkaBsAVsrT0vUpbIsBP63Kf1SbjRuquNQcc5o2bpJjQkfIY2+gWj1N5e4IZqF6hfkxfUao6GTvoYhw4N7D1Co1viDGyHEwMxqiBugUQP1i5fyecNzgazx/VPgOi03Z5Z+yVLt3dQyspSfZig3wU2K4FG/Abz0Kj9i1Nd8/7AvoPt3cd9wQyrvaWEqovYtx2tPv4ktypd99mnkjtbtGlW+XzSHzfKe0xkiQASqiIDerqmKfDI5WT71NI5fV/WinARt+/aAr+b9pwjpLLxH8Qi6A1r36qbppKUJJ3FMsZTchINzR/c+7cB0FsUhy7yOqAcm2jTBHXrUHAQ4OPk1RkSXTmgZ6GxgNpSR6Wdl4pHq/Ytz8oJ3RTbXMzIJQW4T2M/CwuK4m46Oyg1KBfGz0kbky0AdNWWam60e6ddl0Bnt+3SGu6Y3ZbElS2ycqusp6zxvmbznX9iKbbeVfaLYvz+e6FoXfYd3U4VLyce5Lbtw16q6TDO0d3NUAIHbpjlcVNi0Kj8tU+fNxtIkw5bJe81p70W4dukqlBE82CbXYe3RRt/EMLsm6NTWvYKiNGCdPC1Tl0yq7oYeNqVfkt7GiTPqTYvFCO47iK22MpSgNV2v/G8cn34BZ26pfrCZ8NS1d1vo1pDFqNO1Oxrq/frk8ejKpeLVrI7t0C1Ct0U5RXGTrujirxKl2UaKVy4Zt+LV+t4/9dWJypaROfoly7V308rIcn7qKznTrlW23Munate8Pdq56hkQEoegQzsf1W+SFPcuRyGtzLhAeau6z/CpR7HtsGplJPuqcnNzNfl72Rw2deeArhABImApAnpfCyzlhODpSO9j31//aT4MHDuMx7hm2kfuRb798PRAf82syNi9u3GhoLxHIrGxqDjU6vASXuldS9Wpy5B25G+co3Xo5aHa7BlHNJ2wBDv3bsaan1diw56d+PHpJiwirmmHNCEad7KVM+o5SUt0aOtsmkEzPS2snyyGe7J6MzsRfBuGKDYHrdpDhky2Q7WyJNjSv4b1oa8kxA1G4YWBvsXCAoshX0vfS1/VZs5A6hbKu/QGtm29hAL5y67IC31f+BBPd1IO7vDZJ7Bl70MVfwPuWuSyedq7OVwXtm2aw0OlTevy00J13nw4TbBsobzXmPbOI/PEIZxTxZUW1eqO4T29dX6EO3cYgcF1K7Gsxip5WqgumVDbDT1qWr9UiPPbd0O+l7r8EAc/iZkTQos3P9STuD2LPV61h4m/cWwDzn37rqpmNovhP2QqRmvCJpbOGefWEc+OC4N6caqufEujD+OQemRa5In+E4YgUNdnGAvd8diE4VBPlJalH8PfFwwsb1MkbI3vn7qImFJG5uiXLNXeTS0jS/mpq9xMPW9KuZdPm3PthpFM89DVlBxaDcVg9bJPaRyOHr5hYjhTB3h4OKl+A3mkp6YL8G5vDpvlWdEZIkAELEtAV79kWS8ET42N7m37AwdUQc44+yZ49oNX0aGs2uXQACPnz0If1VoWPvssVq27pNl1ttgtO7R69VesWfA8Brb0h+5VZ46o22cWflz8FBraKZU1vuA6/vf7UdB+XYIXcpUZFPkPw1uzeyFYNRWes/PHYzNmYaifiWpq/kUcPZ2tjL/FXsIHvfoiImqZaNMclAT1U4qYqOvIUijAbEZD+7GYFG76SLpp2ZbiRmQUchWzAzi49piC58JdtAoLYt9ueOer6WjvUqKc2NJdD3eJaS5U2dOWyrsM93ZvwUkFZDZ7Irw9mivakwzph7bi71QTpmYIzM5s7V1gPxXmBG2b5nBQZdOq/LRUnTcjz0qbtlTea057lyXux/qDqhAeolroPfNtDKpdXnjmvLrgjTkjEFD+khGlaY08LVWXjMBT2VtM7JeKLv+B7w+mKkUX9h7QdvoSLHwiRPesYZEbGj/xIVbO7mSUeF3ZbBl6zvTfOCnubFqFA6rgs5xzBGZ9Mwd9g0qL7ZxLY4xb+DFGBxlR6aXXsOnPc6pVrew9rMsMfDKxsRaWdggc9B7eG6baj0K+L9DWdThq1EeXNb5/ai8tU8tI+H7JUu3d1DKylJ/ay83Us6aWe7n0ORd0eXUeRtYr/43CubXBK++OR31F8+RRcG0LNkZq35XQofsMLHlrNDoGqQXncimxE2ySXrupmNpT9U3HYpufO3tbp8htDpvavKJzRIAIWCcBO+t0y3Sv+LQDWLz0GLrO7w4PkTzA/hSsWN8Y61bvwOm7j+AQ0BJ9xo7H4KaqTWb4HFz86XNsuK899rN88442I2Yi4onpyEm4jgsXWdzq23FITs9GgcgZXkENEd6pOzqFehXPAJA9wsXl7+Pnq9o7ddNzSRaqgoCoXihCykzz4BzqIzSY/ZInmhAHl0/HgVWbcKfXMwhhgxqOzabg123t8c/hS4h7VKTaLAIourkTS7ayWSlVkXl5mgL7mXtqJ/YlDsYY9uHOOYThxV+2ov3ff+PUzXhk5MlU+eZRdOcQ1h25r/OFRjgcPDL+XY9dD3thLFMMOMcwvPTzOjRaswqbD19GTFoBJB5BaNZhAMY9PRTh3nbgkw5hd3QEBndkL19sp+mAoNps9UW0BXwVLtdKS5bLO5+0H5v+nYVug0psvCJNxJ4tR5EldLZMsGe29m6CTzofFbht6kzH1AtW5afl6ryp2IR/3nJ5rzHtXV63v/8Z53u8iQg2WCkOGIwv1nqj9U9rsS/yHjKkLghq2RNjn5+IXnXtkJOZBQc3N83GUsaWsfXxtFxdMpZRhe8ztV/ik7Brwcd4LGwRhgbasU3/6mLogg1oM3Qb1u86ios3HyA1XwQXDz/Ub9ERvR8fhr7sG+TR1oMVdlXIB4T4jeNT92HRV4+j/ce92H46LNxAk3FYuq07zh06gov3MsB5NkSHXo+hpZ89iu4ewQl0QTel+qUjKzLc37gIPw3/HdNbMOFL5IGub/6BDW1W47etx3A1Pgd2XiFoP+gpTBkRDm+xfFCbhzR2Cz77ORLGzJOWJ2x975/acZhcRoL3S5Zr76aVkeX81F5ypp01udxLJS9jkdOy4ezdEx+u/hVhP/2O3efuIK3IGf5Nu2DUc5MxoJEydCEvfYDN366FOipP2VyIXOuj5+QX0H/SW4iPPIwDR87gwuUbuJeYhuwiNpM5MBTteo/AUyM6IFAx4YRH7qU/sOqk7mXj5rBZ1m/6NxEgAtZLoNqK0vINyu5veBdvhPyEJRObwoVjL0l1uuPZOeyvbHnw+Wxk/T3MWnkdWiJ3lL6bE8O5dnN0Hcj+ytop8W9emoLTP7yBGT9dQa6e++iS7RGQxcciXsazGU7Fs2N56UPEJmgf0KhIDnPPL8Ob3zTDT7M6sDjnHOz9W2HA6FalTOT/HYXlVSlKM28E9TP7GL79aCPafT0GDR05JgIHoN3jT6NdqVyzF5rd8dhgEVGaJfzoOBbPX4vWS55GE7Y0gnMJQb+pH7K/sqXJPoLSzuC719/Frjbfo3/H1pAwObpBi2asz4lGpvVM+C3ruO5/WyrvfCb+3bwfSf1HQx0KUhq/HzutLNaROdu77kKo/BVB22bl3TD4pFX5aak6b5BKFdxgqbzXoPYujV6Ntz5sgd8XDEIwG8CW1O6EZ95jf6WKl/12PNyPBYviMPWLyarZaRUof2vkaam6VAFMFb3V1H5JlrgPc19wgmzpexjOdufjOEcEdx6LWexP+1H1LwnC/MZJ8WDrHLzisxjLpneCD3s/FjkHo/3g8WhfIuOy9DP4ds5yOLzfGd3U53UhyI/CjzPmInjFQjwZwsQykStC+7+EBeyv/MHaU8JhfDr9U/ybrstg+adgje+fWtwUoowE75cs1d5NLSNL+aml3Ew9JUS5a3xgWseJxe8ibvwiPNO4Dca/w/60OSjLxIXv38IXx7I0k6G03SY/x7FJeYFtBmKS/E/XTcxKfsxOzHvrN9w0Yt6WOWzqdI0uEAEiYDUEqmn4DhVfPhVHP5+MCfPW4vTDfC2dK4/C1MvYtHAKxr23B+oNYsuXjgyxRzdh+6k7yFBvB13+JsUZvigDNw+twrynnsCzy85AFUFEx9102hYJyGK3YskfV/FIrUHzubi+Zjm2xpkuSgM5uPzLNIyZ9i22nY9FlrQCL9cWhSmknzySD32MMWNmYvHGI7gSl4kCJvpX7cEj7djneGriB1gfmaSMfVzKIR6y3Ie4sP0bTB09Fd9fzEDs8ROqjXnYAFhEL3R2s8LQK0ZBtVzec8/swv5E9Y6GbAnw7h1aY/ob5baZbjJvezeH00K2TXP4p7ZpTX5ars6bk2jlbFsu7zWnvTOBbuc7mPDydzgYk1P+3ZMvRNK51Zj17DvYcvouYiu5qav18bRcXapcXTfmKdP7pYI72/DOmNGYvuwvXEkpKF/+CjfY6q/MOzj6v4V4belJwxNijHG9kvcI9hvHZ7EVpy9i+DMLsPrITTYrvHilmzQ7Dhd2LsG0sS/ip8t5TKxXvR+xtlBQpPt9Txq3F/MmTMTcNafwIFdtr3RG+cIUXN7xFaaMnY4/ruueiakdjzW+f5b3VJgyErpfslR7N7WMLOVn+XIz9Yww5a7yQpaIe9cO4/PnXsI3B2OQU+47i/VJKZH437xn8PwPkcjW3SxRcHEdFq3cjuM3kpCr8zuVDRRl38ex1fMxfty72Gngh84cNk3lT88TASJgOQJcw8ZN9HQ7lnPE7CnZeSCkTQTaNK4LXzcJ6yhTEHvrEs6cu4Fkg9Oji70TOfmgfigL31A3CLV93OHqZA+RrBB5WamIv3cbUZeuICbTiKFAs2eYEjAvAUcEtu2J7s09kXvzKPafvq+KQSxsqmIHN3h6ucNZItLENJblJCM2WcuHrrBJV8ia0H5ydk5wdXGAmM0WV3668OALspGeXRVBS+zhHdoWHVqHIsjTEbKsZDx8cBsXz15GXI4QAxEVQm3hm82bd1GdSfhj+1uIkC/vK7qGJaPGYNmNSio0ZiVjmfZujiwI3TbN4aPcpvX4ad46by5+wtg1b95rZHsXu6Fe646IaFYPfq5iFGY+xM2LJ3EyKtHoEAO6yta6eZq3LuliIvR5k/slVv51mrdCi8b1EeDlCkeuAI/Sk3Dv5hVEXmFL5yvw/SF03krbM8NvnJ0LvL3d4cAmW6QlpzPxSpWiXQTm7vkFkwJZyDu2SeLPTw3DokuGf/dFLkFo0S4czeoHwMtFAlleBhLv38Slc5G4nSbcu6F1vX+WLCUBy0jwfsmy7b3yZWRZP4VpswKWu8YhMWo1aIvO7Zqhng/bZDwvDXFMEzl15hoSVRv1Guu7nVswmjRrhJB6wfDzcIWDuAh5Gew7NfoqLkbeQGJexWUmc9g0Nj90HxEgAlVDoOaI0lXDl1IlAkSACBABrQTs0Py1DdjwUmMWT5VtqnJ+EYZMWoWY6q7za2VBJ4lAdSdA7V3YEiaewvIka5YiwPmMxsoD76OrPQc+71+82+cVbE6ruHBlKX8pHSJABIgAESACRMC8BKp3+A7zsiPrRIAIEAEiUEkCnEdPTBndSLnBF5+NY5t24R4J0pWkSY8RAesmQO1d2PIhnsLyJGuWIsDBu1tPhCs2C2fhAq6extkMEqQtRZ/SIQJEgAgQASJgjQSq8UaH1oibfCICREBIAi7dZmLpC+Fsc0FTDilu/W8OPt6TCNJETeFYgWe5Wuj8ygwM8laOi0oT/sLqvck6Ym9WwC7dWq0JUHu30eKl9i5swRFPYXmSNUEIiAJao5vXfZy4kgJdwTREXo9hxsvd2UbQLEm2H8upbXsQSy9egvAnI0SACBABIkAEbJUAidK2WnLkNxGo8QQ4iH1C0b59e9ibxKIQkkMOJlmghw0Q4NwQ2rUrGtcSQR6Xv2mP0Rjfu4FmlvS5X37BiRwDNuhyDSdA7d1mKgC1d2GLingKy5OsmYWAuO4QfPLzkxBfO4Ldew7i2JlIRN1NQCrbC0TiHoSmHQdhymsvoF8dMdsrhEf+jdVYsv0hTQYwS2mQUSJABIgAESACtkOARGnbKSvylAgQgVIEeOSc/BGvv7YJpsUhkiGd7SBNk3XMWL1EQRj85heYFso2Nip58FIkH/4S89fdg+FtjszoH5m2AQLU3m2gkJQuUnsXtqiIp7A8yZr5CHAO8Anri0nyP52p8JAmHsans5cjMk/nTXSBCBABIkAEiAARqCEESJSuIQVN2SQC1ZFA0cNIHHxYHXNW3fPEQ5b7ACfWLcZHS/fgblF1zy/lTwgC1N6FoFgVNqi9C0udeArLk6wJQUCWdA0nI++hV4s6qKWIGV3+4AtTEbX3N3z51SocT6Af/vKE6AwRIAJEgAgQgZpHgGvYuAntMFHzyp1yTASIABGwHAHOBfXahKOus4gt2pWiIDMRd27cQVIezU+3XCFQSkTAQgSovQsLmngKy5OsmZWAyMkfoS2aor6/D3x8veHpLEZRTjoextzApfORiE4nMdqsBUDGiQARIAJEgAjYGAESpW2swMhdIkAEiAARIAJEgAgQASJABIgAESACRIAIEAEiQASIgC0TMC0Uqy3nnHwnAkSACBABIkAEiAARIAJEgAgQASJABIgAESACRIAIEAGLEyBR2uLIKUEiQASIABEgAkSACBABIkAEiAARIAJEgAgQASJABIhAzSVAonTNLXvKOREgAkSACBABIkAEiAARIAJEgAgQASJABIgAESACRMDiBEiUtjhySpAIEAEiQASIABEgAkSACBABIkAEiAARIAJEgAgQASJQcwmQKF1zy55yTgSIABEgAkSACBABIkAEiAARIAJEgAgQASJABIgAEbA4ARKlLY6cEiQCRIAIEAEiQASIABEgAkSACBABIkAEiAARIAJEgAjUXAJ2NTfrlHMiYBsExM3H4L1xLSDhAOmDA1i64jCSZLbhe/XyUgS/x6ZiWt9AVhY8ihKPYMWyA3hAZVG9iplyQwSIABEgAkSACBABIkAEiAARIAJEgAiYnUDNEKXt/RExdCxGD+yGtk3qwtdNAml2Ch7cvIRjB7bgf5uP4V5uxVlzrvXR9fHhGNyjA8KZ3dqeLrCT5uFRRgrioqNw7tQR/L33IM7F5oB0q4rzpSeUBMTBHTFi5EA4MlG66EosVv3ERGmCUwUERKi0fJEoAAAgAElEQVTT5UmMGRUEMUtdlgLs/4FE6SooCEqSCBABIkAEiAARIAJEgAgQASJABIgAEbBxAtVelHZsMAzzF8/FiMauKBWrxCEITTrK/wZiwqQDWDRzHtZEPQJvVIE6osHgWfh0zli09rYD0wpLHA5wdHGHT2AIWnUbgmcmb8DzvT/AsUKjDNNNRIAIEAEiQASIABEgAkSACBABIkAEiAARIAJEgAgQgWpNoFqL0qLag7Hw508wOECsFI55GfLSYnEn7hEc/Oqhnq8LxBwHxzr9MHeFM2STpmFtdJGBAndC2JRl+HlWB3iJSsjRzHZRfjZypBK4ODlArLnGlRGtDZiny0SACFgxgZLDVryRg1hWnB1yjQgQASJABIgAESACRIAIEAEiQASIABEgAlVAoPqK0iJ/PPHeXAxSCdJ80QPs++JNfLQuEsly3VnkhtBBr+OLD8ahuQsHkVcXvPnRRJx65lfcluoqCQ5evefhu5lqQZrFlU2JxKafV+LPfadwLT4b8kc5By/Ua9YW3fsNw5ieFLhDF006TwRsi4AU1zYuxLybvmwwi4cs9TL+MzSGZVsZJG+JABEgAkSACBABIkAEiAARIAJEgAgQASJgEQLVVpR2aD0ZLz3moQzZwech8rtXMXv1DRSoscqycHPXQkzlPbH1i4HwYTObnVtPwbQ+mzF7X4b2GZDOnTB9zlAEiuUzpHnkXl+LGS99jkMJpVVsPj8Vdy8eUPytWeYCBxKuLFKZKREiYF4CPLJv/YvNt8ybClknAkSACBABIkAEiAARIAJEgAgQASJABIhAdSdQKsxy9cmsM7qMHII68t3I2CF9uA1L/ighSGsyKkPS3m+xMrJAKUKLPNFnVD/4lg4SrbpbhNpDpuCJQKVR/tFpfDWjvCBdlqEsJxu5xgWqLvso/ZsIEAEiQASIABEgAkSACBABIkAEiAARIAJEgAgQASJQ7QhUz5nSDm3Qu7tqljQLqBG7ZztO5+ooO2ks/tp1ATNad4SDPL50RB9099yETalllGRRIAYMjYCjQrCW4s6f3+LPGJ1xPnQkRqeJgBYC9r4I69YDXVo1RKC7BEWZibh96RgOHLmCZM3Ufi3PqU9J3BFQ2x32ign8+UiLT0CmUbPzOTh5BcHXVaSIe87npiA2KRvFAWfYdW923YVd5wuRkRCPdIU/bFVBUFv06NEeYfV84WpXiMyHt3Dh8EEcuZ4Ko5JW+M7am08owluHoWmjuvDzdIOLuBDZmamIj76GSxcu4MqDR4qQODoPOzf4B3iydskjPy0eD7M4+Lbqh6G9WiLYtRDx/x3Etr8uIlGx0agdvMP6YkjvVqjnwSE9+gz27DiEG5m6Q+yIXHwR7O2kNS48L32ExAepyNPpnHEXRC7BCO8YgZaN6yPQyw2OogJkZyTj/o3/cPb0edxKM56ocSnSXUSACBABIkAEiAARIAJEgAgQASJABIgAEahaAtVSlBY3bIe2nqpJ4LJMnDt1FQpNih2cZ2e8PKsjrn23BAcT5GKUDIlnzyBa2hHNGA3OvhXat7THpn/zS5UM59kJj4VJlOJU0XVs33q5OBRI1ZYhpW6zBOwR3PtVLJg3ER1r25cRPqdjTuxhLJ83D6sM5U8SjtdWL8NIX1bn+Uc4+O4gTNuWqj0ETUlb4qaY+uufmBbKZv/zRbiydCRG/1AyNoUEnd/ahO+HuoKTpeDPqX0w/2wABr75KeaPDYe3XeklBfzrb+HWjs8w88PNuKlHqeW8WmL42BHo36sHOjfzh7MiHI6Wg4XdeXh+B1Z8vQTrLqRqFafFgaOwZOdstLaTIn7tdMxOnIzvpkfAU73RKP8spgxfhMmvbIHTpKVYzq4Vb1A6EVMn78bbk97BrnhtwjQHj4GfYNfH3WCvxT1Zyka80Pt9HFV3Llru0XdK5NkSo16ZhZefjECAo3JgoOz9fGEqrh5cj5+W/4a/bmQZLtOyBujfRIAIEAEiQASIABEgAkSACBABIkAEiAARsEIC1TB8BwfX0CYIVudMehOXr6tVIzEajXsDrzw5BXMmh0OiKhBpTBSuZ6tEKZErGjcJgiryh6bIJM1aoZliKiqbJ/3gJE7QLGkrrM625JIE9Ud+ibXfTkGncoK0PB9sFnFwD8xY9h2mNnfQn7Gck9i4+4FStOVc0Hl4f9Q2omVLwodiSIgqHE3+BWzZEa1V+FUkztqFn38DDP30V3w9oXU5QVrhscgFocM+wI/zesJTh84sv8+u6Ui8+cpY9GlRW7cgrTDoiNrtRuO93/7EN6MaaBWG5bcpDzH8+s/HN6+VEKQVNkTw6vQ6Pln4Cb54taQgrbgISdBAvPViJzhp7FjmP5ybPY1lG//ARxM6IFCHIK3wUOKF5gNexAfPtNX0V5bxkFIhAkSACBABIkAEiAARIAJEgAgQASJABIiA+QhUw5nSIgTWCYREJYrxufGIS1MLzrXRuUsj2HFiBHbshAbiC7ghjw1QlIC4RBauw10Omj1fN4j9b0mBTgS/hiGopRD6eBTcuIqb8hX1Yg806zsSowZ2QasG/nB34JGTGo/oqDP4Z9d27L2YQLOpzVd3bdqyffPn8dXc3vBXb5oZvR8rvl+D/RdjkC5zRVBYD4yb9hKGs8GQFyYXssAT+o4CRG7djptPv4KmzJ5j22F4vM4G/Kx34MQRHYYNRJBCk2Yb+J3Ygr/itM0WVqdrhyaTPkfbUH8Wo/0E1vyyDnvPRbPwIo4IaN4T41+egv4NWJgLedsaNgOT1h7Ft1H6w07w+cmIOn4A/xy/gMioW3iQnIZMFmbH0SsQjdv0wpMTx6F3iAtEkkD0m/slXr42Ht9e1h3PROztg7xd7+PJL/7CXS4EQ+Z8jfcHsAEmJm63GtiX+X0QC2YvwOZrBQjsPRNLFoxAAwkTs3v2RWvJcZwoN+OZR9bx5Xj9tfXKDVPlTb7eMMyb2Rd+ZUet9BVPmWvi4BH4asXb6O2tHDngpWmI2vMn1u0+iou34pCaI4O9uz9Cwjqi/6gJeCLCvwLW6VYiQASIABEgAkSACBABIkAEiAARIAJEgAhYPwH9Wpf1+6/FQxG8/Xw0oRBkKUlIVgeltWuIpg2VapK4fjM0cQbYingWwSMFiSnsJnkYAyY/ufj6wIWJ2umasNIiBAT5q4QpGZLj4lHo3RkzFn+Bqe28mOhVwo16IWjWpisen/AiXtu/BG/N/wMXM2mnQy0FVXNPiWrjiRmTEaYIUM6jMHodXp24AEfT1PUkCUkP7yDy5HnErVyJaa2ctcY0LglQenM7Nl98HnPaObAQNC0wbEgj/Lrsuu6Zz66dMbyvr3JFgCwN/2w5iGS91ZSJzU1CUXB7HaZNXogjKcUC9t3oKJw6HYNvNn6GAT4sDIVdCB4fHIZlUZFa40vzWbewZ9lMrF/7N65naIkYnZzA4ilfwN/b92Layt8wvTXLv0NjTJjcA7/O3o9MHTWHLzqP377egivJct8uY+PS9RjddyZayns5FhM78vfPsfr8Q0XM7Bu7l2Pt2KGY204CkVcTNA8Q4cS98qJ8YfxFHIwvTlDcMhyzdKRv1GkWm37k/LfRSy1IP7qMX2e9ii+PJpUuK9ZvxUVfxtEda7Cy32uY21pKoTuMAkw3EQEiQASIABEgAkSACBABIkAEiAARIAK2QMCIRf62kI2SPorhVqtYxONzcqDe45Bz84O/szLLnF1tBKunO/I5eJRTrMhxLrXgVir8gAjuHu4qUZpHZn4dTGUxqV+KkAvSPPiCLCTej8G9hEzky1R2OCfU6/8mVq54BW1cbI0h+WtOAuL6QzG2k4tSaJalYvfib3FMI0gXp8xnX8KPn63DXS26bTn/ZA+wa/NJKKsxC1MzZBhaqePTlLuZxUp+bBh6qeKuSxP3YfNR+eiMgUP6ABs++bqUIK1+Qpa4Fyu33VMJq0zAbtUSfjp6l6L/VuPj5fu0C9IlXci9gl9/3Aul/i1CrY7d9OSJjS0lXcd1hSCtPKQPbuJWtqo9ypJw+bJSkFZcZf+OvpOl3NSRq41AY+KdlPStkv9t32YSpnZ205T9wYWvY1FZQbqU7TzE7F+El78+oYmLX8mk6TEiQASIABEgAkSACBABIkAEiAARIAJEgAhYDQEdspHV+FcJRyRwYLGf1ZoyX5iPApUuJXJzh5s6x5wHvDzUdxWhgN2klqU5e3uowker0reHk7OdyiYH/6EzMJXNXkXubez8fCr6d+2C7gMGo1+vrujY71l8tP0mchXGRHBtORWfTW8PdjcdREBRJwK6PYYmqk0CZSn/YMcx3RvY5f+3AztvGaNK80g5sBkH05WirDh4EIZHOGonzvmg7/BuqoEXKWJ2bsVpPRsTqo1I7+7GprM52m2yOdHXL15WieIsl4F1ECRA75J3JRLXVVFARG6BCHLXHayaT0tFKW2fhcVIUfEAn4bk1JJTwWXITM9QtnmRB7w9LLFoxAHthw5QhUxhselvr8d3O0sI5TrIyk9LpcbUAT0G6BIRIAJEgAgQASJABIgAESACRIAIEAEiQASsiIAAspEV5UbuCtvYTMSVEK5ksuJl8SJR8QaGnAQSdeBpJk3JpCWW7ovEmhiyityxOLkSTYwOMXwC/OEgi8PWt57Fm6uO4556k0Q27zI3/gzWvPsC5vyVqNp4Tox6I6dimIVmYlpZaZA75QjYo1mLUFWMaBaf/Mp5XMovd1PxCekdnLuQopzRq+c2+SU+6yg271PVO7EvBjzRFa5anhEF9sfwDiz+s/yZwmvYti1Ka5iN0o+yuNNMIL6tRxstSk2GJny7m1vxAJAWH7SeEtnDuZYXfFhsaB8f5Z832+NRPagEkRtqaUaVylvg89iqiFIhSHKRrV4BweciN6/UReTm5ilFadZfODjpnFZePqHKnhGHolOEt6pvkSL67wMawb2yJuk5IkAEiAARIAJEgAgQASJABIgAESACRIAI2CIBS0wPtCwXvgiF0mLxiZNINLOeZVmZyFJrz3xeCZFKBIm9uDhur7Sw9FJ5ngnb6rAcitzweHT0e3x1UIdYyEID7PtuNS73m4lwJnxzTu0wqKcv1q9LMEpctCwwSs2iBEQ+CA50VNU1GZLu3oM6woR2P6S4fzeWDXD4lR4o0XpzHk5v3oWYUc8hRCyCZ095iI6D2FFq+jAbJBk0FG0USwF45J/fgu139CjNmnRkSE1K0RtCgi8oKN7YUywpHgDS6isg8WmBvkMHo2eHcLQKa4y6Xk6wE+meCc2egL0+7VhaVCaGdhGKNFmTlvhvpUPFA1EcsytRivQ6fBXktHMIGgWqxgH5R7jyX8nNVAVJgYwQASJABIgAESACRIAIEAEiQASIABEgAkTAJghUv5nSTDbLySksEYrDAfaqouAzEpCYrxKs+UykqTcg5OwVIT/UhyIOdalJlQXIY89pTvHZOLbjAJJKT7wsVeDS+0dwOFqlgDP7zVs30/hhEzWDnDQPAa4W3Gupmx2P9LT04nqlNUWZ4p7yW/BpvRlFUVux9aqy/nOuXfFEvzJitrgRhg5pDsUiASaMHtuyF/FGGs/L0zelW7s/Ws8yBi2f/hI79qzDN28+gyd6tEaIj7MBQZpZUqyC0GpReZK1x9JNkq2A0AxCsfbLl74q01xk4UbYKgpzH2IvH3irwrbIY1rHJajikpg7YbJPBIgAESACRIAIEAEiQASIABEgAkSACBABKyNQ/WZKM/kuIy2D/a+rYqYm5+EFD7neJJ8xKY3B7Rj2Hy3swBclID5JNY1S5MliyhYLhUUZ6cUzqhUFxuLPZsjj/qpmuDI7V6/riq2rKmHpfZYWEwebyGdgc3AKCIIXSyLOSAHQyuoJuSMYATHs5BVTcfAoLCgeQNGVRGFBBcRL6V3s2HIOL4d1ghPniA7DBiJ44yrcU9U7ScuhGNJQ6YAs7R9sOphqQBTX5VVlzzug+XPL8MuMtlBq8zykWbE4f+IULt24g7iULOQWSIt9ErfAhPnj0VLVU+nTpCvrkcWek8eqVyfG5yNfII3fYv5TQkSACBABIkAEiAARIAJEgAgQASJABIgAERCIQLUUpRPiE5mMHKQUpd394Mfi0iriDkhjEfkfC7nRwh+y6Cu4qtaVOW/4eavlLhlSHiYUhyFQgGZhFh7KbfoqQyjI2CzrDEPqchEeZeVohGzO2RXONq2oCVTjaryZfOSqZ+uzwQoHB/visDE62Dg4aqRMHXeUPC1D/J4tODqjI/q5sbAUrYYxEXo1vr8pH4BxRMSwQQhWaNJSPNy7FcceGWFSwFtEdUZjzrQ2SkGaL0DMns8w88MNuJKpoz05FaD33GJRWkBXLG+KqdAaHZpzgrOT5V2gFIkAESACRIAIEAEiQASIABEgAkSACBABImANBMy/Zt3iuZQh4fYdPFJHzpDUR6N66qmphbiwaw/uF2Xj/La9UIfS5Wo1QIivOtarFHejY8rEppUi7s59FGuJdhBrNj7UlUGOzYi1KxYcZWXj3ep6js5XawKyVCSnqgVYDp4+XgZEaRYb2svDYHzmksx4+QzoA6p453ahGDYsTLmxoksnDGfhPJSadIxiRnWeRWGLENBrANo4KkdnpLd/x+x3/9QtSDPfRF7e8KwmvZQ0NQFJRaoQIiJfBAVUZLDBogVFiREBIkAEiAARIAJEgAgQASJABIgAESACRMCsBKqJ3FOaUeG1/3BVI/7UQcuwYuEv//zXGDNgCF5cfVcjPNs3a4mmiiC77JDdx+Ur5eP85t+Iwi31pmkiPwT6G5j2zLnAy9tR45gsPQ3pOiaDmrWEybh1EeAzEHMvTRUjWgSfBvXhobcq2aFuSF0jNjksmc1sHN/yF+IU9VWMuoOHIcKBg3v3YeitUHhZ2JCr21js6QqEBRGEohgNGtZTCexsoOfYIUQZCGHhENoMqmgjzAMWU1oT+kQQhypuRL7pqfopsfj/7J0HeBTV18bf2d303iGEAIEkQKgh9AChCkiXKoqIigqfiIj+VYpiwQ6KYkGKKChKr9IFIXQIBBJKICEhhCSk97Y7392atjXZTT3zPItm5s4tv1tm5r3nnmvQZAHyoxGl9KPCWaNjF3/5ZIHhuaA7iAARIAJEgAgQASJABIgAESACRIAIEAEiUK8JNEhRmk+7gDO3FdIRZ4bAIQPgphL+SpDB3HvkqfY8s0CXgcEyf8/SQ5x0DqEyVwflD/GD87jwQHFe2Aw9e3prF6TM26Kjn9JSWiyz3s7WsjFixfTo77pOgPkJd/dDUJ9e6OhprcPauWxZSnAr/KbC6p5Z0wd0R1cbLWUV+aNXoIOBojRQGLYLu+/J26vQYxjG9fXGkLHBCrcZhbi8cz/uV27mWjJijEvMXYmVwi87iy4/N1+HP2trdB/cGw6qUYr5ZC6zIakxcmRwHNlZyFH0Y87KGS6G+OQR38PZi8kKUVsIryEjmNW4wTmgG4gAESACRIAIEAEiQASIABEgAkSACBABIlDvCTRIURpsk8HD/1xXCX+WPaZhajv1S+UFbkPxzHAPlfVm/KEDCCtSU6/im/jnsNK6WoT2E6aim7WacLJTHOz7jMJgpUsQSQYunLuJmrZL1ZQ7Ol9dApZo+/Qq7Du0A5vXrsPWg/vw8zP+zGOzPgePrLMncFnhC0Zg3w9jQ1w0itrWPcZjpHcVzIPFd7B7VziKpAKqwBlDXlqGZ3rJxXM+9yx2HkpUWGvrk2djhWEbhmZINyGVHsyVR+uW0NiFWAhhq4l4abjCj7v0Fs4W9rZazcqNlVGN8YiTohGTKy8BZ9YRPQK1laBiNMW4sucApHutSg+h1wS88bRv6eaHFYOX+duc+R6ngwgQASJABIgAESACRIAIEAEiQASIABEgAg2FQMMUpZktYtzu33FU4buXM/fH8x/8H3o4VBC0LFrhqaULMFhhJs3nXsLGLeGyPRErH2Lc3LoZ53LlZpJC7yn46N0haKJGLxR6DMI7b4+CUpMWP9iP7edr1ntv5fzTGWMREHiMwdsLB8KLucSQHpzIA/3nL8Bod/0EU0nyEfx9XOHCQ2CPQW/8DyPUNCTOuQ/efHc8mqppY7rLIkHcgZ04ly9trxzsOndHe1l+Jcg4sQvH0mrDbF+MO9ciIcsSy5PtgFl4obONWkFe6BaMd76eh+42ZZgylxeODma6i27KEIVXcfpCrtzCW+CEEf/3MoLs9at3abZKbvyOH46nyYV5Vp7AeauwfJwPNO55KLCD37hlWLewl17itSmLTnETASJABIgAESACRIAIEAEiQASIABEgAkTAWARExoqorsXDpx/Fyu9C0XdpPzgKOFh3mIU1f/thy6a9uHA/BxZNO2LwlGkY2VaxiRyfh6u/fI6tDzQ7fpYk7MSXv4xF19c7w5q5BWk5YQV2+f+DP7cdw5X7qSg0c0bLLgMxcdoodHIWysQ2XpyE/SvW4ooO37l1jR/lRzMBQQtf+Ch9kCuCcRYt4evF1ONkPezh+Qwc/YG1iQFvIYiJrsKmI/HFHy7o8ssfOHwtDpliGzTrGIIpLz6Lgd4i5GVlw8LODiL9tU9ZrvjHR7D95AIEj3Asdf8hTsbBnaeRrbl4JrzCI/Pk39ifOBBTmNLOWQbglbVb0GbzRuz47wZi04tg5tgM7Xo8ganPjEZnFxErwwkciA7CyJ624DgRmjZrwlY1RFfYiNSEWa4YtbTuNm5HzMDn4MMqxLLdLGzY3R3//heOhJwSlTuSkqh9WLXrZuUJLv4x9n/yEfoHfInRnsy9j7k3Rn+yFV1H78bf+0/jatRDpBUKYOPojpYdemLQk2MwhI1RObuOV8wJ/U0EiAARIAJEgAgQASJABIgAESACRIAIEIF6S6DBitLMOzQebH0Pb/r8glXPtoUNx3wAN++H599lv4rVxRfi/q4lWLDuNtR57igNXoSb6xbgHa9f8PlTzLqRE8KpwyjMYT91By9Ow/lvX8eyo6k6fOequ5vO1VUCkkfxeCThmQVzqUrMixMRn6R5QqNiWcTRm/D2sg747ZMR8GICt1mTXnhuCfuVC8hDnHgEn3yZgNlfzERLQy2m+Syc3HEEj4dNgofiXvGjI9h3uRat9nPOYOXSP9Bl1TPwt+LA2fhg6Oxl7FeRECt7+kV8//p72N/1Bwzr2QVmTI5u1aEd68vRyKoNQ29FFvOvrMZb37TDLwt6MF/0HMw9OuGJSZ3KFaDwWCR+VCdKs1CS5MNY9JIVJN8twVgfKya2W8Kr9xQsYD/1Ry0WVn2G6CwRIAJEgAgQASJABIgAESACRIAIEAEiQASqRaCBuu9QMOHTcPrzmXh68R+4kFioRhjmUZx2A9uXz8LUJQeRoM/Gb0x8PPT+dEx//y9cSlIXJ0ubL0HazQNY+epkvLj2umpjtGrVFN1cZwhI4ndh1e83kaPUoPl83N78I3Yl6C9KSydNHu57B0+/+j2Ox+ZVbpt8MR5f3oQFz7+DnRfuI16ftqmGUP7F/TiSrLxZjJgDe9X7TFdzr2lO8UgP/RzTn/0Af197LPd5XS4hHpL8RITt+QazJ83GD1czEX/mLGJkRWATS0ED0dvOQJNxoxckDzfWz8HkOd9i95V4ZIsNF42LYnbjncmTMG/1P4hILapc/7I88yjJisHpP5fjte/O6ZgwM3ohKUIiQASIABEgAkSACBABIkAEiAARIAJEgAiYjADX2s/fcEXFZNkxYcQiR/h0DUJXP2+42ZlBnJuK+LvhuHj5DlK0m0drzpTIHi06BaKzbws0cbSCiC9ARtIDRF2/gqvR6ZWX7muOia7UOwKW8AwMQb/2TsiPOo0jFx4ofCVXoSBCO7To0hNB7VrA3VaI4qxERF09h3ORyaiu1xdB8xn4fc/bCJL6ky65hVUTJ2P1nSoq3FUomvZbzOHiG4geXXzRzMkSkuwUJD68h6uXbiAhzxCBX3sqpr4qtLCDk7MDrM0EKv/YkrwUxKeomWxQlxlW/83bd0IHv5Zo6mwLS64IORmPERcVgWsRMWBeTeggAkSACBABIkAEiAARIAJEgAgQASJABIhAgyLQeETpBlVtVBgioA8BEdq/thVbX/Fj/qh5FF35EqNmbERs/dF79SkkhSECRIAIEAEiQASIABEgAkSACBABIkAEiAARqGcEGrb7jnpWGZRdImBMApxjCGZNaiPfIJHPRej2/YgjQdqYiCkuIkAEiAARIAJEgAgQASJABIgAESACRIAIEIEqECBRugrQ6BYiUOcJcPboPXc+RrjIu7g46R9sOpSiwXdxnS8NZZAIEAEiQASIABEgAkSACBABIkAEiAARIAJEoAEREDWgslBRiEDjJcDZwbdvX/jZCyCwckXbAZMwbVArlZX05fXrcTav8eKhkhMBIkAEiAARIAJEgAgQASJABIgAESACRIAI1B0CJErXnbqgnBCBqhMQNMPIt77AHF9h+Th4MVL++wpLt8ShrmxvWPVC0p1EgAgQASJABIgAESACRIAIEAEiQASIABEgAg2BALnvaAi1SGUgApUI8JDkxyP017cx/Y2/EVNSKQCdIAJEgAgQASJABIgAESACRIAIEAEiQASIABEgArVCgGvt58/XSsqUKBEgAsYjwNmgRdfO8LYWML/RYhRlJSPmTgweF9DOhsaDTDERASJABIgAESACRIAIEAEiQASIABEgAkSACBiDAInSxqBIcRABIkAEiAARIAJEgAgQASJABIgAESACRIAIEAEiQASIgF4EyH2HXpgoEBEgAkSACBABIkAEiAARIAJEgAgQASJABIgAESACRIAIGIMAidLGoEhxEAEiQASIABEgAkSACBABIkAEiAARIAJEgAgQASJABIiAXgRIlNYLEwUiAkSACBABIkAEiAARIAJEgAgQASJABIgAESACRIAIEAFjECBR2hgUKQ4iQASIABEgAkSACBABIkAEiAARIAJEgAgQASJABIgAEdCLAInSemGiQESACOWxcwMAACAASURBVBABIkAEiAARIAJEgAgQASJABIgAESACRIAIEAEiYAwCJEobgyLFQQSIABEgAkSACBABIkAEiAARIAJEgAgQASJABIgAESACehEgUVovTBSICBABIkAEiAARIAJEgAgQASJABIgAESACRIAIEAEiQASMQUBkjEjqfBzmHggaPQWThgcj0N8bbnZmEOem4mFUOEKP7sSfO0IRl6+tFEK0GPw8xnWwBqctmMZrEjw69Tv+vpIJXmMYukAE6g8BM7cOCHJPwPmINEjqT7Ypp0SACNQRAjSG1JGKoGwQASJABIgAESACRIAIEAEiQARqiUCDF6UtW43B0pWLMN7PFuXMwi2awb+n9DccT884ii/fWIzNkTkaRGMBmg94Dq9MdC4fh96VVoywrN3YSqK03sQoYF0kwMHebximPz8D04Z3QNaGaRjLRGk6iAARIAL6EaAxRD9OFIoIEAEiQASIABEgAkSACBABItDwCTRoUVrQZCSWr/0YI5sK5RbOvAQF6fGISciBhXsLtHCzgZDjYNl8KBatsYZkxhz8EV1i/FoXpyAyMpksSo1PlmKsUQJmCHzufbw+1oH1JzGyajRtSowIEIH6T4DGkPpfh1QCIkAEiAARIAJEgAgQASJABIiAcQg0XFFa4IFxSxZhhEKQ5kse4vAXb+HDLdeQItWdBXbwHfE6vvhgKtrbcBA498FbHz6L889twD1xRbhiRO36HEvCLfV038HBI+QVzBnUBEIWlTjuAHZfLqwYKf1NBIgAESACRIAIEAEiQASIABEgAkSACBABIkAEiAARaHQEGqwobdFlJl7p7yh3t8EX4Nr3/4eFm+6gSFnFkmxE7V+O2bwTdn0xHK4CDtZdZmHO4B1YeLii72cJkq7sw7YrerYPoQ9emeyicPVRgjv79+GGCQyw9cwNBSMCRIAIEAEiQASIABEgAkSACBABIkAEiAARIAJEgAjUGQLl3CzXmVxVOyPW6PPUKDSXmimzQ5y4G6t+LyNIq+KX4PGhb7HuWpHcl7TACYMnDoVb1XYzVMUqChiHce3MZFbVfNF17N57lzk7oIMIEAEiQASIABEgAkSACBABIkAEiAARIAJEgAgQASJABBqmpbRFVwzqp7CSZnJw/ME9uJCvobLF8fhnfxjmd+kJC6l/6aDB6Oe0HdvTeA036DptiZ4TRsFbJojzKLi4GwceSnTdRNcbFQEOVi7N4GYjAMcXIzPpETJkJvzMWr9ZIAYM6I6AFm6wFRUjK/Euwv47jlO302CYsT1Lo0lH9O4TiACfpnCxNYMkPxNJcVG4ej4Ul6IzdUyUCGHr7gkXy7IzNGZwsy2dxzJ38IC3d44aX+k8JLkpiE/N17BxaPnK5izc0b5Xb3Rr7wNPZ1tYCoqR/fgBoq5fROiFO0gtrguNQwQnv94Y2LczfD2dYIV8pMZF4ty//+JSvLycQmsnOFmzjs981xdmpyFbtSxDmX/T1LuFvTscrTjZJFhxbipSc7S0FJEtXF1sIB34ebaCJCM5EzXjWKhMe+ILkZaQhGzpTJ3QAW16D8SAQD80c7KQtZvYm5dw4sQlPMjVdwwWwd6jKZwsGAE+D48fpiBPOeSauyKg7wD07uiDpo4s/rw0PLwbjjMnz+FOuhZOqiZX3X4kjciUZS/tG8brR8biaYIxxMwBTZs4wFw241uI9EdJyNKnGlnvsHJmYy4bv2S35qci/nGumrGrlCf9HxEgAkSACBABIkAEiAARIAJEgAiYlgDX2s9f3y9/0+bEiLEL28/Dnr9eRhupMCxJx445g/Huf3LphXPqjVcX9MSt71fheJJcuRD6vYrt2/4P7aRKjSQDO+cOwjsnqybVcHZD8dXBFRjlxMQ7PhtH/jcCr+1L10ucMyICiqpOEzDHoM9P4YfRtuAkqfhr9mAsvdQUw9/6FEundIaLqLypPi/Jxd29n+GNZTsQVaC7YEL3Hnj+f+/i5WG+sBeqMftnYmTCuS346pPvsT9aw2wN54Ipa47iw77muhOsFIJH/oH56LHwaKm7nEph2AmRB/rMXIh3XngCfg6KzUjLheNRlByG7auW4+udN5FdSyOVwLkbZr3/IeYOaQnrCjj5khRc2rgUC785g9ZLjmGt1G0Pn4u984Kx8FhFVdoU9V4mTjbNcGv1RExYfUfjhIMw4HXs2TJbNjbyeQfwWp+3cKRiNtXVVXXPlW1P4mj8NHU8fioajaVf/A/j/OzAvCeVOXiIM29i19dLsHz7LeToqnepu6QtO/FGABvAi87hg2Ev4s9kMzQf8ho+ee8Z9GhiXmkvAL4gHv99uwDzNkZAU5cySj+SlsqUZZfGb+x+ZCyephhDrPtj+T+r8ZSb9Pmag+PvjcCc3Wm6n6/Cdnh9x1+Y4ytt+CWI+O4pTPqJVjBVt1vT/USACBABIkAEiAARIAJEgAgQgeoQaIDuOzjY+vrDS1kycRRu3FaaWgrRZuqbmDthFt6d2RlmCnLi2EjczlWY1gls4effTLZBoeEHB9ehEzDQUZ64JP0Edp0gQdpwjo3oDtbe3D1aYfSnG7Di6S6VBGkpCU5gA98xH+DnxSFwUqMxl6Vl1nI8Vv6xBgtH+KkXpGURWsKz90x89cdavN7NrpJgVxP0OdtOePHnv7H2jZHwVytIyzIKc/dATPvoN2x6rz/z+14TOSufBufcD4t/ZTyHVhakZTkUuaL7rJVYu3AQ/DyZuKpvFo1c7/omWyfCCdzRImgCvvhlGcb7VxSkZVSZAXV7PPXBBqx5uSOsDcm0wBFOzCK6xYSv8MfK59FTjSAtS8HSi60i8AczMFd7mKwfGbnsJu9HRuKpFnJVTuadw7YDD+WTLpwNeo8dhiZ6dDqzzqMxykf+VOcLw7Bzb7TGiZuqZIvuIQJEgAgQASJABIgAESACRIAIEAHDCTRA9x0CeDb3hJlCbODzHyEhXSk4N2FCRBuIOCE8e/ZCK2EY7kiXkJckISGZmeM5SAGy+72bsX+r8NEq8MKTE3oqrCnFSD66B6E5hlcK3dGYCIjgP+NzBPp6MN/nZ7F5/RYcuhyNlCJLNG0fgmmvzsKwVlbgpG12zHzM+OM0vo3UsF7dqgteW7kEwzwV/szFqbiydQ3W7zmDyEd5MHNpje4jZmDOs33RjK1/F9h3wStfv4+oyW/jQHIFFzN8Fk599zpe2VxWtROhw4xPMbeXDZMNxUj450t8vDdO7RL4kqQIze5GhF6Y8PlqvNnbWS7iSnJw9+hmbNhxHFei2HJ8sQWcvAMwYNwsvDg2AE5Ca7Sd9jm+iJ6Kl/6MrTkxiQmIo5Z+gmltLOVL/tnmqDf3rMFP207iRnw2Gy9aIPCJ5zBvVgjaPLMMc/INGU6NWO/1rbswMXHQ6+/A3FIASeoV/PXTOuw6cxuJBZZo0q4fJr3yCp4KcIBAYI/AuV/i7fBJWHYmW7c1rJQD5wD3LtPxyVuD4M40yMLEqzh66F9cvPUQqcynh6WTF/y7BmPY0CA00cTNmP2oYhrGLHtN9KPq8DTJGFKEa7v2IOqZuWjLVoFYBo7Bk823Ym2stl0bLNFjzHA0U7jUyj27E/8kkEutik2T/iYCRIAIEAEiQASIABEgAkSACNQ0AUNUlJrOWxXTE8DF3VVl/SlJfYwU5feqqDXatpZbSwlbtoM/M8G7w7QlpowgOZUFki7tZTKZjZsrbJgWl6Fr2XiFHAp9x2BCZwt52uKHOLD7IvM8SwcR0EaAic3+vii6twVzZi7HqdRSseR+dCTOX4jFN9s+wxPMTJgT+eDJkQFYHXlNjeArRMupC/Gcn7z98eIkHFo0A2/uiS8Nm5SI2Miz+PfCImz6bgp8pMK0+zC8OXsr/v34fIW2WoyE8P+QUC7r5uCHlgriubGXme/fSANFYgGajnsP7wyQC9K8OBGHl72E/22LLpd+SnI8oi6dwLHwFdi0NIRZSduj99x5GHZwIf5JN7BjasOv5Zpl4CzMG8zccUjDSLJwccXzmL3+Vmk+k5PxMOoyzkYsw5+rxsPbVoPZrdo0jFXvaiOv4yc5WFgy/86Pj2HJMwuw/UFpm0p6FINrZy4gbu1GLAhk7m2Y8PrUG09j8/mfEaVNd1SWWOCKoXOeZ76983HrryWY98VBxFYchP9ehxVfdsbEgeYortSUjN2PKlaFscpeQ/2oWjxNM4aIo/Zgx9UX8W43NtaZd8CYUW2wYfVtzeOQbW+MHeImX/3E3Hn9u/M4UirVe8V6or+JABEgAkSACBABIkAEiAARIAJEwNQE9Fj4auosGDt+IezsrVWiNJ+XpxKRODt3eFjLi8yJmsBLakonPdjmWDl5pV+pnI097AzRl2SRmKPr+DFyP9bsL/G9/dgdXid2aJOXkf6tuwTYBMbWj1eUE6SVmZUkH8K63XEKwYUJmZ06wl1drxUFYNKkTpDvSyhB+tGv8OHeMoK0qvQSpJ76Gsu2KZbAM6mm2agpCLE3uMFXjadZRzzzQjDspWXgxYjb8h7eqyBIl0ZciJhtH+P783kyK1mBUwimDvfQ30VG1XKouMsWwZNHwUthXVkYsR4fbiwjSJfhmXJiJVYdz1ZrMa41C8aod60J1OGLzN/+f998gp1lBGlVbgtuYcNnf+KuWFrrzIVL2wmY1FnpbElHmTgzuLrbI3nfu3jhIzWCtOJ2cdo1/LX9IiotZKmJfmSMstdUP6ouTx3VVaXLkofYv+Mc5I9s5pJr1Bh00tg8ODj2H4OB0j0e2CFOPowdp6Uz0XQQASJABIgAESACRIAIEAEiQASIQG0TUCdv1Xaeqpm+GSyYBahSYuOLC1Gk0JsFdg6wU5aYc4SzozJUCYpYIKUszZmbg0Vh2GHTGxNGesqtsfhi3Ni7Tz/LPsNSodANkID4/gFsv5SnoWQluH31hkKAYcKsZ3M0U9NrhW0GoH9zxSSL+DEO/XUMqRqtAfNw8a+duK0wUOVse2IgszqsicOsy5MYqcgnX3gJv65XIwyWzYgkEYf2XUSBTJ+0QOfgnqgR/dyiM0J6MxcS0rzwRbiycw/uabLU5dPw775TyDLQI4Ax6r0m6swUaUjSj+OvQ0kahfzim/txQGkaLWyK4P5+evv55/PO46eVzBrWwPqQlrMm+pExyl6T/ag6PE3RdliHROrRHTieIa9godcIjA2yVJ8U54ohY4MVk8xixO7bhQuadrZUHwOdJQJEgAgQASJABIgAESACRIAIEAETEVAjb5kopZqKlhNAwJVRlCWS0mW9AkGpsMEswMyUjqfZR65EXEbBEAgNtMbk4DRwAoa6yHHyhZexa7/SurWmCk7p1E8CPHIjrmkWPFmhStJSoHKLbmdXOrGiKjAH+/YBaKHozXzeZYReK9SKQxxzDucSFCqrwA7tO7TUW/TTGrHWi0K07tkdHgrtvOT6MZxI0qUc8si8dRPxsmDMata3LRQeeLSmVN2LQu+OCHBQABXH4OKVFI0CqjStvPAw3NIkWqvNjDHqXW3E9eAkj6Jr53CpoluNsjkX38eVq2kK5kI0D2ivc5NP+e08Cs7vwyGd7UodpproR8Yoe032o+rwVMfYOOf47NPYcThZ/mwXuuGJcX1hqyZqgecwjO3BfPKza3zxLezeHanG9ZGaG+kUESACRIAIEAEiQASIABEgAkSACJicQMPzKc2XoFi27Ft+cGZmKqtnSXYWspUaGF+AfJn5pfQQwMxcqLKuhrgYBjneEHhg+HilNRYTm87uqaIoosw1/bfxEJAg7XGq1vbGFxWhSAlEaKZGPJZuzunJNvCUBxLH38N91Q0aSDLR7650czBvuR/1pmxzUCFuafbLqiEaw05boY2ft2LCR4L8QiaG9x8Afx2RcC6lPuIFru5wlY5aGvZ61BGV3peFXt4K1x1MzCqJR2y8dsVZkhaLOGYq3UsxMaU7IWPUu+5U6mYICZJi7iNXoyW/NNdiPIxLYP+6y9qLkK0Q8GT/o9ofQGPBxIgOv4EsrXFrurkm+pExyl6T/ag6PDVxNsb5AlzYsR+xE1+Aj1AApxCpi47j2FvO37wQLUaMRlfZsicehVd2Yk+M9n5sjJxRHESACBABIkAEiAARIAJEgAgQASKgH4GGJ0ozeS8vr5h9gso3fOPMLZi3Z/nBZyYhuZCpFdKPVD4L6UrlgjOXufxQHjI/1AaIGsKWozAhSLHBoSQTJ3YfR5oB9+tXVRSqoRIoKNBu1ay73AI4ODqUbu6ZmY5MnQbIeUjPKGT9xJzdxyyQHRxlm3sqXd3oTrMKIYQuaOImUuRTAPvg17A62LB4OM4KVlL/sSZdgs/B2tFJ4Z+bDRUF2cjWNUvF+n1aJuv0LvqXp/r1rn9adSskj4y0TB1Z4pGdmVXqUsnBQe6HXKemKEbSI4UFrY4UKl+uiX5khLLXaD+qDs/KhI15piRyF3bdnIE3OpiBs+2LcUPdsf/vMi5hhG0welR7yBZE8TkI3XkIj3SNi8bMIMVFBIgAESACRIAIEAEiQASIABEgAloJNDz3HWzBd2Z6pmqpPefoDEdlKcWxuCe1DmUHX5KER4+V7guc4KIKxKMkM6PUolorPulFEdqPGYsAhSsQScpR7DqVrRJTdN5OAYiAEQiIRAqfGNK4igqhW+ZmbgQKpJM3ikNkxlqyqQ8LWMp3Yqx6Qsw1j0BQxj1P1WPSeqdQVIaGWKyHBTkLY2Lrba0ZrlcXWdtj1v/a5+1YmOLS9slJ26c+1c4zi9hqTPKYvh8Zo+w12I+qydOkzZKt9ti787LC37wleowZDq8ybzRmHUdjlMLXjyT9X2w/nqajzZk0txQ5ESACRIAIEAEiQASIABEgAkSACFQgYHodqsaRs+XRzFJOgmYyNwecgzvcpXu4SS0dxfG4dj0Vkg4ekERH4KZybznOBe4uSsVDgtTEpFJ3CbrybxmECaNbKFwqsCXnB/fgvDZfqbrio+tEoAoEiotLFVHOwkpm5Ss13NV8cLCwklpJK47iIq0uRDTHY8gV5hanWJmpEkSun4t3dmve7E5tzJJcJOVoLZja2ww7ySOfrZaQSJNhgDhLOU+tcXCWsLLSGoIuqgiwtmdpWdr21JJhYdiGs8r2KXVho2o6asMb56Tp+5Exyl5f+pFx6kRzLBI8OrgTp+f3xFA7ttqj0xgmQm/CD7INMi0RNGaEwgWPGImHdiE0R3NMdIUIEAEiQASIABEgAkSACBABIkAEap5AwxSl78UgR9IVTsxqijNriTYtmDwdIf1QLUbY/oN4MGkiknYfgtK9JGffCj5uyl3ixLgfHauHZaS8suyCx2O4cuc2Zrm1b+9V/QXtmq9vSrFBEpCvDuDhJiudwMkFzkzNS9JWVs4Ork5K0Y9Zl7LVAXmm1nol6UhJEzNrRakLDw5mRWm4GxWld1/TVhxjXytKTkIaW+rvyYYOztwdTaW+orWt/Re5wkM64NTyocuYWCqw1752zsHZxYm1gBgttJh7F0d71YazfEYaMkzueqEm+pERyl6P+pGWCjbKJV5qAX00FYPHu0Ig8sWYMQFY83U4Smx6YSxz5yFbP8JWSMksqo2SIkVCBIgAESACRIAIEAEiQASIABEgAsYiUPsqirFKUiae4lvXcbNEobAJmqNjgLPK4q7wygpMfmIUXt50XyWGmbfriLYK9xuQPMCNiAz9lvlyrhg6IUQmfks3Uiq+uRd7bul0emqCElOUjZuAhG0K91BlSSrwagMfXcqjsBXatFK6/JDfr7vlVlCtdSmgFSuF+XW9dzdR4VpHAC9/XzADxzp5iKPvIFo5hghbo52v0jO9+uwKW/ihtVVtFIZnbkNKVOOVhaV0WYjmw8LdQzFeaQ5j+isCuLX2gYNWXEI0b+GlEKXZ2Bofi/gaEKVN34+MUPZ61I8qt6VqjiGVIszFmZ3/IEE2eAnhPXIMgiw4OPQbg0GyB7P0ubyb+Z4m3zqV0NEJIkAEiAARIAJEgAgQASJABIhALRNokKI0n3YBZ24rJDbODIFDBsBNJYCUIIO59yi1CrVAl4HBcFaQECedQ6hs+a/uQ9BsBCb0tpEL3nwRwnYfwH39btUdOYWo4wQ4WLn7IahPL3T0tNbhisDUReGRExFeavlv2Q3BQdpVaaF/X/RRWvizTfoiwvVbHVBcxs+vJRNAteqKlYpdgltnLyBVJi5ysAwahoEqtzmVAhvhRNXriM8Iw8W7is4scEDfQYFaLIyZgNq3H1rXymjKIytD6cNeANemTVQbu1YGaI6AwA5gml0Vj6rzLJ8gc7XQuQ962GrJBtukrltXR4UoLca9axEwudcWJmCavh8Zo+w13Y+01FMVLlVvDKmcYGHYLuy+J++rQo9hGNfXG0PGBss3xuQLcXnnfnouV8ZGZ4gAESACRIAIEAEiQASIABEgArVOoFZkFJOXWvwAh/+5jkKZURYTv3pMw9R26i0dBW5D8cxwD5VP6PhDBxBWpE8OhWgzZhy6mssVHj7/PHYdSlBtsKhPDBSmvhKwRNunV2HfoR3YvHYdth7ch5+f8WdeTGvvEEf/hxPKGRGBE4Y9PQqemno3c93R/+mxUBpKSzJCcSxM99aIYK07NUW5WZg+Fp+VeRRc3IV9D+QCEmfbD6+80gv2eoukAgg1lalSUtWsI+aK5/DhmwrrcyE8Rs3GJKkbIDUHZ9cTz08NgHKxhZogJjwlRnxsPMSKsc4qsA8CNTREzmkAWyXSRDHWGZqlavKskBxn2x9Pj2uucs9RMTeWXUbjSWUDFcfg5MmYGnHzUhP9yBhlr7l+VLFmqvt39ceQSjkQ38HuXeEokvYBgTOGvLQMz/SSTxTyuWex85BydUalO+kEESACRIAIEAEiQASIABEgAkSACNQiAb0lnlrMYxWSFiNu9+84KnUKyw7O3B/Pf/B/6FFxvbhFKzy1dAEGK8yk+dxL2LglXL8N38w7YcIYX4hkgpoEWad242iqqZ3yVgEF3WJ0AgKPMXh74UB4KUxOOZEH+s9fgNHuequrRs8TxLew/a/LihUAHGz7zMfHz/qpse4VwXPEEiwZo/C3yjMf6ru24LRem4CJERt5G9kKS2eL7lMwo7OtYdbSReHYsPoYUqRxcEK0mPIFvn1J7v9dIxShHVoFP43Fv2zD+wPUTy5VvLf6dSRGzPaNOJquGEOsg7Dgm3cxpFn59DkbP0xd/hEmNVMvWFfMl/H/5pF2LQwxCtcWQo9ReO25dpXr3bwFxi39H0ZKfWNX4ag+zwqJclYImvshZrWtbNHP2QVi7ruT4S1DyiPv0l/YfqeGlqDURD8yRtlrqB9VoanouMUIY0ilFCSIO7AT5/Klz18Odp27o71sbJYg48QuHEuj53IlZHSCCBABIkAEiAARIAJEgAgQASJQBwg0wI0O5VT59KNY+V0o+i7tB0cBB+sOs7Dmbz9s2bQXF+7nwKJpRwyeMg0j2zrKLQf5PFz95XNsfaCf41LrnuPxpJdCiJKk4eiu/5BJ3751oEmbPguCFr7wqWAWy1m0hK+0PSTXlu9SCR5s+xK/jP0N8zpYgRM4ou9bv2Nr1034dVcobj7Kg8jZB91HTMes8Z3hIpSKNswfcfxOfLb2GvSxk5aSzT+/D4eTR2JyEyE4iwC8vH4Xuh87hvNRj5BZIFH4NuZREnMCW049UGPdKkHy/k+wpKc/Vk1oATOhM/q8vhEHhh3Bjl3HcC7yPhIzi2Fu5wiXpq3RKagXgkOC0bmJFbOqzcXeLfrVrzHqiE87jC+/fhLdPxoIVzaGWPlPxXe7++HyiVO4GpcJzqk1egzsj47u5ii5fwpn0QfBLWtenBbfPYA9ES9gYSfmToWzRpfX1uPPNpvx55FwPMwTwqllVwydOBlDfa2ReOE8ioJ6wtBsGoNnac1JkJdbAEv7Hnjztz/RceNG7DhzG4kF5mjSth8mvvAchvpYyiY7+IKb2PD1zhrwJ63Mnan7kbHKXjP9SL/eZlio6o8hldPjHx/B9pMLEDxC6fKFhREn4+DO08iuHJzOEAEiQASIABEgAkSACBABIkAEiEAdINBgRWn2RYoHW9/Dmz6/YNWzbWHDMVGpeT88/y77VQTP/E7e37UEC9bdhl6eOzhHDHxqKBOq5BGJEw9j17m8irHS3w2UgORRPB5JeDSVCbvygxcnIj5JvwkNk2EpjMTP8xfBa81yTJCKegJb+A57BZ+wX+WDCdJJ/+HTeZ/iZIYBsym5ofj2w23otmIyWlty4CybotuTz6BbuQR45B94hK1qRWkWkE/B8WUvYkHhKiyf2g52AiGc2w/Hi9Jf5YyWnjEgm8apIzEe7noXc11XYvW8XnBl9S2w9kL3kdPQvUw+JRkX8e27P8Li/d4IVp43IK/aiqzXNebe4s+v/sC4X2bCl1mIcgJ7tHvyVXz4ZNm7WZ3c+hXvLo7Cc/t6MFHaMKt+4/BU5keMG5u+waMn38YYL18Mn/sx+1UuKV+SiCMfL8SPNwoqXzTlGZP2IyOWvQb6kUkwG2MMqZgxPgsndxzB42GToHSVL350BPsu13DbqZgv+psIEAEiQASIABEgAkSACBABIkAENBKo2lpujdHVsQt8Gk5/PhNPL/4DFxILFVacZfPIozjtBrYvn4WpSw4iQc8V4gL3YZjQz061CVfs/j24oq+paR1DRNkxnIAkfhdW/X4TOUoNms/H7c0/YldCLYvSrCjihENY/PSzWLT5PB7mKy2Xy5eRL07Fjb1fY9aUefj9tqGiDY+UEx9h8uQ3sHLbKUQkZKGICfQGHyUJOPzxdIyZ/QW2XUpAvsY4mHieE4+rRzbhs/nP47NTek0bwWh1xGezFRQvY+xzn2DTqSikFZZag4tzExC2bxXmTHkZvzDhlGMTX7KDL0ZRSRWYGAyx9IbcSyvx0hvrcSG5uNI4x4uzEfXPl5j1wgqcS36EREMmIRRJGI2nIj7+8VEsmfUmNlxMlvsCLlt2XoLc2BP4fs50m8fKLAAAIABJREFUvLEjVj93StVgp+5WU/Yjo5bdxP1IHZvqnzPSGFIhI/kX9+NIsvIhztzvHNir5/4Q1S8RxUAEiAARIAJEgAgQASJABIgAESAChhPgWvv516x6YngejXOHyBE+XYPQ1c8bbnZmEOemIv5uOC5evoMU/XQu4+SDYmkgBCzhGRiCfu2dkB91GkcuPIDMpWkdOgQ2zdChW2e0a9kUzjZmkBRkIvlBFMIvX8O99GKj5ZQTWcHWxoJtQsisdGWx8uCLcpGRq28abBWDux86d24Ln2ZucLASoqQgF9mpj3D/7m3cjIoH8+hRhcMEdSSygYuLAyyQh/SUDOQrNTBREBYdXI8Znsx9B9skce30MfgyXM9ZriqUTOMtFh7o0LsXuvg0gb1ZMbKT7+PGxfO4Fp9rhE1Yq8GTc8GUNUfxYV+pT+5inP/4Ccz8I4nlyQJu7Xqgd5fWaOpgAUnOY8TevISzV+OQXQv41HGtdj+qsbKbqh+po2Lcc9UfQ9geh81n4Pc9byNI6k+65BZWMZc1q2vKF7lxcVBsRIAIEAEiQASIABEgAkSACBCBRkGg8YjSjaI6qZBEgAjUBgHOdRLWHX0ffc055gf5JN4bPBc70uvYLEVtgFGmqVGYrc1M1VDajbnsNYQYEKH9a1ux9RU/tvkwj6IrX2LUjI2Irf3FKzVGgBIiAkSACBABIkAEiAARIAJEgAjUNwIN231HfasNyi8RIAL1kAAHl+AQdJZtfsk2ebx5AZdo19N6WI+U5fpKgHMMwaxJbZggLe2CuQjdvh9xJEjX1+qkfBMBIkAEiAARIAJEgAgQASLQSAiQKN1IKpqKSQSIgOEEBE27oH+AC8y03Cpw7o/5r/Zjm6myQMy/+PndBxFPgpgWYnSJCBiRAGeP3nPnY4SL/HVGnPQPNh1KqeRb3YgpUlREgAgQASJABIgAESACRIAIEAEiYAQCIiPEQVEQASJABBokAaH3KHy8dgKEt07hwMHjCL14DZH3k5DG/GWbOTRD254jMOu1lzC0uZD50+ZReGcTVu1JNIL/5gaJkwpFBKpPgLODb9++8LMXQGDlirYDJmHaoFYqK+nL69fjbF71k6EYiAARIAJEgAgQASJABIgAESACRMC0BEiUNi1fip0IEIH6ToCzgGvAEMyQ/jSWhYc4+T98uvBHXCvQGIguEAEiUF0CgmYY+dYXmOPLNhUte/BipPz3FZZuiUMd2SOzuiWl+4kAESACRIAIEAEiQASIABEgAg2aALnvaNDVS4UjAkSgOgQkj2/h3LU4ZBVr3rSQL05DxL6VeHHKPPx5r6g6ydG9RIAIGEyAhyQ/HqG/vo3pb/yNmBKDI6AbiAARIAJEgAgQASJABIgAESACRKAWCHCt/fw1qy21kCFKkggQASJQ1wgIrDzg26EtWnq4wtXNBU7WQpTkZSAx9g7Cr1xDdAYpYdrrzAxNOnSHr6N0HlSCjHuXcP1RYxHwG3PZtbeKKl3lbNCia2d4WwuYwxwxirKSEXMnBo8LyJF7lXjSTUSACBABIkAEiAARIAJEgAgQgVoiQKJ0LYGnZIkAESACRIAIEAEiQASIABEgAkSACBABIkAEiAARIAKNkQC572iMtU5lJgJEgAgQASJABIgAESACRIAIEAEiQASIABEgAkSACNQSARKlawk8JUsEiAARIAJEgAgQASJABIgAESACRIAIEAEiQASIABFojARIlG6MtU5lJgJEgAgQASJABIgAESACRIAIEAEiQASIABEgAkSACNQSARKlawk8JUsEiAARIAJEgAgQASJABIgAESACRIAIEAEiQASIABFojARIlG6MtU5lJgJEgAgQASJABIgAESACRIAIEAEiQASIABEgAkSACNQSARKlawk8JUsEiAARIAJEgAgQASJABIgAESACRIAIEAEiQASIABFojAREjbHQVGYiQASIABGoSQIidJjyHqZ1kD5yJIg/9B1+Op0KviazUOW0BHDvPxtzhnjCjONRknwKa1YfxUOJnhEKvTFi3gsIdubU38Dn4tLvX2FnlFj9dSOcFbafjCVTO7D8A+KHR/Hdmv/wWN/8GyH98lFUk6eB+albZTcw8xScCBABIkAEiAARIAJEgAgQASLQgAk0DlHa3ANBo6dg0vBgBPp7w83ODOLcVDyMCkfo0Z34c0co4vINqWURXAKGYPy4oegX2B6tm7nC3lIISWEOUhNicPPaWRzbsxMHriSh0JBoKSwRqCcEzNw6IMg9Aecj0pjESAcR0EVAhOa9x2HiMAsWsAThsRuxhonSppNhdeXHkOsCNO8zAZMnNoOQ3SZJBY78ZIAozbmgy4jxmOglvVvNIUkHd3iFaUVpr54Y/9RwWDJRuiQiHht/YaK0mqzUzKlq8jQwk8I6VXYDM98AgzfOZ4cQLQY/j3EdrCGfmuIhjj2OdbsikKdHHXNOQZg6vQ881A4hPHiJBMX52UhLeoB7t67j+t0UFOic8RPAo+90TA1yUuRJj4zIgvAoiNyLX47cr/Xxu3G2JX3ricIRASJABIgAESACRKB+EGjworRlqzFYunIRxvvZopyvEotm8O8p/Q3H0zOO4ss3FmNzZI5Oyz3Oxh+TFn+O/41uA1tBBcs3cwt4+buwXxCGTnoJc459h7eXbERYps6vg/rRWiiXjZwAB3u/YZj+/AxMG94BWRumYSwTpekgAkRACwG+COkJDxDHl1WUzOHYxB32UtNlOohAgyfQyJ8dQl+MmzcPc3xLxwBJWlNEHHoPx/UwiBA4dcFTs19GR33e2HkxcuMvYs+vq/H931eQonHmj4N7jyl4+aVWssk2/Q8emTvDsb7WROlG3pb0rygKSQSIABEgAkSACBCBekFAn1fcelEQdZkUNBmJ5Ws/xsimQrklCC9BQXo8YhJyYOHeAi3cbCDkOFg2H4pFa6whmTEHf0SXqItKfs7MB09/sxaL+zqrBG6+MA0xt24jNq0QZvae8G3XGu7WLD3OEt5DFmJdE3u8OOs7XMkhYVozWLpSPwiYIfC59/H6WAfWn8TIqh+ZplwSASMQKDt+M8tEQ2IUR+CnmU/ip7L3CAOwYPefeNnHMDnIkGTrdthq8KzbBaPcqSXQuJ8dwpb9MaBV+b4ucOyDgYGWOB5aoJZYlU9yQtg074Vpi7tj6KAVeHn+r7iRW+XY6uCNjbst1cEKoSwRASJABIgAESACRKBaBBquKC3wwLglizBCIUjzJQ9x+Iu38OGWa0iR6s4CO/iOeB1ffDAV7W04CJz74K0Pn8X55zbgnlrLErbkePISvNlHIUjzxXhw5Ct2zxaEpZUK2QK71hg5/3Msm9oOtkzwtgl4AR/NPokJK66RK49qNVW6mQgQASJQGwTEuLVtORZHubFJTB6StBu4rmXusjZyWL/SJJ71q74ot9UjIIBX/wHwk2nSEmRn5cLG3g4CgTOCQzrCPPQiigxJgL17hv36HjZcKzMIcSJY2DrB06cD+g4diu5eVswwQgjXPgvw3bsxGL/kJDIqzaQx3/5HVmHJA/tyqwgFXkMx78VguEqXFvLZuPjbCuy+V9ZJF4/C+7eZEyY6iAARIAJEgAgQASJABIhA9Qk0WFHaostMvNLfUf6yzRfg2vf/h4Wb7pS+/EuyEbV/OWbzTtj1xXD2As7BussszBm8AwsPZ1a2hBO2wbiJ3cD0a3awza6ifsWCdzYhvIKRiyT7HvYtnw+HVjuxpBfzH8g+FnzGTUCPH67hlJENYqpf/RQDESACRIAIaCfAI/fuSey4qz0UXdWXAPHUlxSFawAEBE3QP6Q9RNJ3R+aQ/vC6feg073n4CoXw6BeCANFFhBmk8IqReO0oDh1WL2X/tGoNpqzYgA8GukHAhOmmo17BxHWnsTamorUFj/Qbh7H9RnnGwo7emPUCE6Wlp/lCRJ/aia1nihtARVARiAARIAJEgAgQASJABOoigXJulutiBquWJ2v0eWoUmitWS4oTd2PV72UEaVWkEjw+9C3WXSuSi9ACJwyeOBRuatx8cg4d0bmVEpcYEXt3IUKTyCx+iH27zqs2mhE4sXtbNNZl2lWrQbqLCBABIkAEiAARIAL1mQDnGoyBHc1kLuT43Is4ue0EzibKBWJhs/4I8Tfyu2FhDLat3IKbCqGbM2uL4J4uBm5mWJ+JU96JABEgAkSACBABIkAE6hOBhmkpbdEVg/oprKSZ79v4g3twQdNmMuJ4/LM/DPO79ISF1L900GD0c9qO7Wnl1zoK7Bxgp9zYkFmPxN1P0LLzOLMEexCHx2zFo7fse8MODnZqlO761FIor0YkwMHKpRncbATg2FLczKRHyJAZPTFr/WaBGDCgOwJauMFWVIysxLsI++84Tt1OM3C5LEujSUf07hOIAJ+mcLE1gyQ/E0lxUbh6PhSXojO1tF9pXoSwdfeEi2XZdmsGN9vSeSxzBw94e+ewBckVD+biIDcF8an5lVccVAwqLbWFO9r36o1u7X3g6WwLS0Exsh8/QNT1iwi9cAepdcJISwQnv94Y2LczfD2dYIV8pMZF4ty//+JSvLycQmsnODF/8mC+6wuz05BdyZDNNPVuYe8ORytOJjoU56YiNUeL2Z3IFq4uNpAO/DxbQZKRnFnLboXM4dahPwb3aovmHo6wKslGYsx1nDkRihvJhWpaS/lTpiq7wMYNXi5sCbyaHPDiHCQ/TIOmOUk1t5j+lLkbAoIHoE+n1vB0MENJVjLuhYfi6KkIpFRqh6bPTsUUTMqzjpe9Iovq/W2aMaR8nujZUb06Kns3B6e+IQi0kEnSKAg7g0sZN1B4IRPPjGeu4ITeCBnQGqsi7uh4HhuWI3HcTdzJ4xFgz9KVWks3a8JWDSYbNQ3DclTV0DXxHsLe+1190blLANq28Ya7kx1shMXIzUrDo+hbCA8LQ8TDnCqwM8Y7Q1W50X1EgAgQASJABIgAEag/BBqkKC1s3Q2BTgrxTJKFy+dvQqlrcU698eqCnrj1/SocT5LKaRIkX7qIaHFPtGM0OPNO6N7RHNtPlhdEJNlZyFGpb0wAYgK21oNdL5XvcpBNGx1qxdW4Lpqh99vb8cNoW3BsOe9fswdj6aWmGP7Wp1g6pTNcZOt8Sw/+9bdxd+9neGPZDkTpoYQJ3Xvg+f+9i5eH+cJeqKadMjEy4dwWfPXJ99gfrWG2hnPEk5/swYd9zTVUjRAtpn2Pg9PUXeaRf2A+eiw8qt1XpsgDfWYuxDsvPAE/B8VmpOVLjqLkMGxftRxf77yJ7Eo+MdWlbfxzAudumPX+h5g7pCWsK+Cc+1YKLm1cioXfnEHrt3dj7WQXCPhc7J0XjIXHKqqBpqh3c/RdtFfelthn863VEzFhtWaBQ+j/AjZumY02Uu087wBe6/MWjlTMpvERqo3R0mcU3vr0f5jUwVm+tL1MqAUFCTi97n2899MZJFdcda4KZ6qyc3Ac/jH2fxQMda1fkroNLw16H6frxGSJObwG/R8+WfwsejYxryCiz8O78f/hx8WLsVFtDdTUSVPxrA9lNzZjU4whpXmkZ4eR64uzR5+QbpDN7fIliAi9gHT2/L0Sehl544ayfUdEaDOgH7x/voNK3jWqkxX2rOTLPC8lYo2DaHVSMf29JnwP4Zw7YuyU8Rg2cAB6t/OAtbp3JWkJWX0lXtmLNStWYUtYml7itPHeGUyPmFIgAkSACBABIkAEiEBtE2iA7js42Pr6w0vlaSMKN24r1QMh2kx9E3MnzMK7MzvDTEFfHBuJ27kKxVlgCz//ZsxOtPzBZ0YiPE7xYs+Zo7Wvd6UwpXewj/A2beCm0sVv4sb9evpRUNsttKGnz9qbu0crjP50A1Y83aWSIC0tPiewge+YD/Dz4hA4qdGYyyIyazkeK/9Yg4Uj/NQL0rIILeHZeya++mMtXu9mp9Ya1NTYOdtOePHnv7H2jZHwVytIyzIKc/dATPvoN2x6r7984yVTZ6xC/JxzPyz+lfEcWlmQluVQ5Irus1Zi7cJB8PNkm1fpmz8j17u+ydaVcAKPEfh07XJM7VhZkJZxtfREvzmr8fsHg1TjaF3Je93JhxlaPvUV/vh2FnpVEqRlFGHpNQDzV3+P2e0t6k62jZKTxlx2BUAjjyH07DBKwywfiU0PDOrB9haRnhXfQ+i5RNnKouyLobhaKFeNhW1D0L+p3k8OvTIp9GwNH/kGKDIxPCEhSc2KJr2iarCBRG2fwltzp2BwhyaaBWlp6dn7UpNuk7Dk17/wzcRWaicqy0Iy2TtDg60JKhgRIAJEgAgQASLQ2Ak0QEtpATybe8JMId7x+Y+QkK4UnJswdwZtmFWeEJ49e6GVMAx3pFpxSRISktkHgoO0ObD7vZuxf6PLW0SIb2PX1jDMfCeIWUuK4DduOvpsXoZTWWrMNy0DMH1KEMxl1jFiPNizHWf0sHBt7I2xcZZfBP8ZnyPQ1wPixLPYvH4LDl2OZkvuLdG0fQimvToLw1oxNwLSNjtmPmb8cRrfRmpwz2DVBa+tXIJhngr/leJUXNm6Buv3nEHkozyYubRG9xEzMOfZvmjGGqfAvgte+fp9RE1+GweSKzjh4LNw6rvX8crmsiq4CB1mfIq5vWzYR7YYCf98iY/3xqn92C1JitDsbkTohQmfr8abvdnyZWmlS3Jw9+hmbNhxHFeikpAltoCTdwAGjJuFF8cGwElojbbTPscX0VPx0p+xelkqGaUtCdwxauknmNbGUiYq8Gxz1Jt71uCnbSdxIz6bjRctEPjEc5g3KwRtnlmGOfmGDKdGrHejFLYmIxHCb9JLCDAXoCj+JNav3ogDl2OQXmwFj3Z9MXH2q5jc2RlCNvnXcvwyLD1/A6/vS1bbzkyTax7ZZ37E66/9rZpkELYYg8VvDIF7xdlK02RAr1jN27+IrxcNgofMwo+tTog+gjU/bMaRq7HIkNiiWcAATJ3zCsa264SXZhbLXLbUzmF8nvWn7KYkbsQxhJ4dJqkoq6CB6G0nF5zFCWdxRmEOzaeeQ+itEgR3Yc9qUQBzN+eG3/80knDMrIt7Pz8JHRUdni+6gZNn0/RypWUSCNWJ1JTvIYp88YUpiDxzFP+eCcO1yLt4mJKOLLaAzNLZE35dB2LCs1MxyMcGAjNPDF30FV69NQ3f3tCwvMik7wzVAUn3EgEiQASIABEgAkSg7hKove9UkzERwMXdVWX9KUl9jBSlkbKoNdq2lqsKwpbt4G8N3GHaknRH9ORUFshXek0AGzdXSI1MMsrpzWLEbvkQX/XbgEV9XSBs/hS+/rkIn376Cw5cfwy50QvzIec/WOY64cW20qXUPPJu/orFP1ypW/5HTcaeIjacABOb/X1RdG8L5sxcjlOppeLw/ehInL8Qi2+2fYYnXJn/aZEPnhwZgNWR19QIvkK0nLoQz/lZyAVUcRIOLZqBN/fEl4ZNSkRs5Fn8e2ERNn03BT5SYdp9GN6cvRX/fnyeeUkuexQjIfw/JJQ7Zw5+aKkgnht7GSdORBooEgvQdNx7eGeAXJDmxYk4vOwl/G9bdLn0U5LjEXXpBI6Fr8CmpSHMStoevefOw7CDC/FPupqJIMPB67zDMnAW5g1m7jikIZkboIsrnsfs9bdK85mcjIdRl3E2Yhn+XDUe3rY6zNjLpWisetdZjDoYgFnAm5tBHL8Hbz6zGEfKTIg8TorFjXOXEPvjb3i7J7M8Fzhj8JwZ6Hz4K4Rp0AFMUcDiR1dx/FFpzMKOnbHAFAlVNU5BE4ybPxMBcr8AKI7egv979hOcVvWNx3icGINr564gYd06zOmksNasanrVvM+oPOtZ2auJTsvtxhpD6NmhBXI1LlmiW0hvOMofIEg7d0a1+SAkCTh7NgbiLn6yybfOIcFw3rIdKdV4tAmtXODdrgeemDYbL41QrORjrieiNq/C9gcVJp2rUaqavdVU7yFsGi/7Lg6ufgN//3EMtzPVrGRMScKDO2E4tucQ5qz7FfO6sDHUwg9PzxyADQuPIEsNCNO+M6hJkE4RASJABIgAESACRKABEDDumsE6AUQIO/vSD3A+L08lInF27vCwlheZEzWBl9Lsjc9DDtsURnlwNvZQuy9h8T1snvccFv5+EUlFHBw6T8dnfx7HpXP/4tihQzhx5jxCd6zAy73cIJBk4taeTzHzhW9wobac4daJ+qBM6CQgfoitH68oJ0gr75EkH8K63XEK4ZeJEJ06wl1dr2XWVpMmdZL7rmQ2pelHv8KHe8sI0qpMSJB66mss2/ZQFWezUVMQIt0QqSYOs4545oVg2EvLwFYRxG15D+9VEKRLs1GImG0f4/vzeTIrL4FTCKYO99DfRUa1ymOL4Mmj4CWbw+JRGLEeH24sI0ir4pYg5cRKrDqebbglrzHqvVplrMWb2fh45JsvcbSihb40SwV38Ntnv+GOYv5D6D0KT/WwrMXM1r2khS1HY4psxQI7JGk4sPJbhKqZrOFzw/HzZ1vQkLxHNeayV2qJxhhD6NlRCatRTph3xMB+iklNPgcXzlwrs6msGFGh55Ao00KZm53AEPRx0PMZzFlg+NeXEHk9vMzvOiIu/YeDm77CG0/6wVbAozgtEnu+eAkzV1xCrlEK1LAiKbm+CR/9eFi9IF22qPkR2PDzIcjtBQSw7xmMTkrff+WQ1MA7Q8OqAioNESACRIAIEAEiQARkBNTJW/UcjRksmAWo8vWeLy5EkUJvFtg5QLGSkn0HOMLZURmqBEUskFKW5szN5a431JEoiMGBz+dg1qLfcSmlBDwngDkTu72ae6GpoyWzeuEhyWauPpa/ipmLNuNaZn21UFFXeDpnCgLi+wew/VKehqhLcPvqDSjnTASezdFMTa8VthmA/s0VvgXEj3Hor2NI1Wh1lYeLf+3EbYXox9n2xMBuNeNz1qzLkxipyCdfeAm/rr+IHA0ll52WJOLQvosokJaFfYx3Du6JGtHPLTojpLeDfIDki3Bl5x7cU2NMJcsjn4Z/951CloFd3Rj1rg1dXb4myTiJ3SfSNS4pF9/9B/tuKhoos5buHdy+Ft1P1DWSbLVBcH/4KzZElaT+i72h2RpZFl7fi313NTXeulY2XflpzGWvzMYYYwg9OypzNcYZEXO/1U9h+MAXhiG0wjO+JPIMzmXIHxqcdXcM6mmrZ7Ls/VYohLDcj62kUr30liA14gC+W/I2Pvz9ikJM1TNqCqaWQEHENdX7ksDOE83UTSDUwDuD2szRSSJABIgAESACRIAI1HMCauStel4iJhILVG/nrCwSSal7AYGgdHNCzgxmSsfT7HNeIi6jKAmEGtR6DnZtJ+Ljvw5h9xczEOQqkrnoEBflIiMtHdkFYvYXc4lg54/xizexZX/fYnYPVy0bItZz1pR9IxDgkcs+eDQKniyFkrQUqNyi29mVTqyoUudg3z4ALRS9mc+7jNBrhVrzJo45h3MJCqFKYIf2HVrWQDsVonXP7swHrjxrJdeP4USSLiWXR+atm4iXBWNuH3zbQuGBR2v5qntR6N0RAQ4KoOIYXLySotUSOi88DLcM0v2MUe/VLWVt3c+s+CIv41p5fzHlMyN+gLCrSSprfo927WjDQxUhc7Tr4KsQ6XkURVxBuLbuztrv5bBUre23tlqC4ek25rJXpGWMMYSeHRWpGudvIfxD+qtW2hTfOIOz5f3BsRUhV3H6snwVEDgb9BrYHcyjnB6HBFkPIhEREVH6i7yFqNgkZBcz4wq254lLwJNY8P1uHNuyFKNa1cyEsx4Zrx9BBOawtneGq4srXF3lPxeGUGncwl7wYa+ybiktkunfGeoHPsolESACRIAIEAEiQAQMJdDwfEqzncaLxWVccZiZqayeJdlZyFZqYMzXXr7M/FJ6CGBmLlRZV0NcjOJKJDnYdpmDX35+BV2lL6TM9UDKxc1Y8d1mHA6LR7ZUkBKwjbraD8DkV+fjpZDmsGk1BAvWtIb3guex9PjjBiIKVAJDJ6pFQIK0x6lq2ltppHxREVTudIVmasRj6eacnmwDT/k94vh7uK/L/674Pu7GskbrLfej3pRtDirELQP9QxtacCu08fNWTPhIkF/IxPD+A+CvIxqOfRwqjcAEru5gc0FMqddxUzUvC728FYIC6+ol8YiN1644S9JiEcdMpXu56DvPZ4x6r2Yha+12VvbYOGRqtOSXZoz58I9+wP5tJmvvgmasPhjaR7rmMGqtTDWYsMAVXp7yzTfZrCse349Drg6WD+7HM5buGiZblXnn4DpwHhaNbaVmjNFWPuYu6NQP+HD7XROPH9KGYKqyaytfXb1mjDGEnh0mqV1hawwc0ELRj8S4e+YcKs+/Mpceocylx9C+zO2WAA59QtDN8jhO6doUm63cCf16OuYfrvyQ5yzd2DN1AmbPexFP+FjDocNkfLHOAdwzb2OvchLaJAWuR2NIhfKbuXbAkNEjEdKjMzoF+MHb2QoigTZXKuybQo37DtO/M5i04ihyIkAEiAARIAJEgAjUGoGGJ0ozeS8vr5hZLMs3fOPMLWCuwMtnJiFZuiMhc+8Btqt3epbiS55tNCN1+aE8ZH6oK37kW3bGnI9no4vMQoJ9hJ9ejun/x3x1llWvJflIunEQ3712ERHLNuG7Cd4QmbfCUx++i7PX3sR+zf4Uaq0BUMK1T6CgQJuZoz75Yx+0juzDUxFUkpkOnV5jmB/19IxC1k+kG3IyC2QHR9nmniprIH2SNTSM0AVN3KSrC6QH880Y/BpWBxsWCcdZwUr6Qajrw92waCuE5mDt6KTwz82GioJsZoGmI0LmIzlNqrK66AhX5nL1613/tOpayMyMTI3uJuR5ZRbyqWkoUQzXAkdnxYZhda0ktZAfzh4OMqfs0oNHRnqGDpYSWRjdej5r9y17YOiwLlCjuWgpqBiPHv9ZOqmrJWS1L5ms7NXOWa1EUP0xhJ4dpqg4oXd/hCiX9DC/32fO3lczYcOzzQ9D2eaHfdGVdTiBU18OgzxEAAAgAElEQVQM6myOU+cri8365pEveIyIwz9j/oXrWLLpRzztI4KwyTC899YxnFlwQItLL31T0BWuHowhyiKwsaTj9KX4cv5wtLLWJkJXKLNsNWZFDjXzzlAxVfqbCBABIkAEiAARIAINgUADFKUlyEzPZB/gtjIrFU4pZkgNHcWxuCe1Du0gYtaPSexDWum+wAku8i3SWSAeJZkZpRbVilq26zcdT7VUCGolt/Hb11vLC9JlW4MkFf9+8xNODvsEg9mOiQKnQXh2THP8syFOD2GgITQrKkNNExCJFD4xpAkXFZbZUElTTtiy/wLp5I3UKQY7RGY14LPXApaWlb7mNGVQ/Xnmmkcg+yKsOGukPnhVzwpFZYZGsViNoFAxZhbGxNbbFVOsv3+zMbZYNyy+uEi1goBjKwRE+hqh118weuZciNLuzlyhFMn7sbabi4t089Z2f9251pjLbppaoGeHsbky6/P+IWireCTzxdmw7fgUprVVk47QHYW5bLpI+v4pdEO/kACIzodVeyEQn3EW3685hbGfDoQtE1GdQiZheJOD2ExLTRSVYIH2L6zG+vmB8k2X2fuEODseV86eR/idGCSkZiO/SOqOT3EIO+DppdPQUfFaoO4tht4Z1LRvOkUEiAARIAJEgAgQAT0INEhROulRMhN/5cu+OQd3uEtd6kktHcXxuHad+dbs4AFJdARuKveW41zg7qJ8zZQgNTGp1F2CDKII7Xt2U/nyFT84g9PanACzO/i0Mzh1oxiDezM7bebjr12PrrD/NQ4V3QrqUUcUhAjoJFBcRuTjLKxkVr7a3SNwsLCSWkkrjjICoM7EqhyAucVhPi/lRwki18/FO7uTDJuokeQiKce0grRU8M5nqyUkCsWes5Tz1FpszhJWVlpD0EUVAWaZzzaT1XUIyq5yKS5AoW5TX11RNpDrhcz1jbIPsH5sUaYfayihhaVu3tIVQA+3LcDIY/JVRhqiUnOaCePZydUW0tRErOaUqcquJqlGcoqeHUauaIE7+oewjVkVD1fOsgOmvtdBj0SEMjG73VdhuK7dW5QecbEVFFcusM35BqIbs8LmzAMQ1NGCidLaHPnrEa3OIPVhDGFW6c0n4d057J1cOtHJ3KHEHvwMbyzbighNuxVbFWHQolJRujIGemeozITOEAEiQASIABEgAkRAPwINU5S+F4McSVc4sRdOzqwl2rRgJisR0rf8YoTtP4gHkyYiafchxChe/Dn7VvBxU5jhMV/R96NjK1hGWqGpp6PKz6bkcSIe69LF+EwkPS51jyDy8IQ7SyKj2h8b+lUshWpMBOSrA3i4yQotcHKBM/sgTtKGgLODq5NSzOJRyFYH5Olq09ri0+eaJB0paVLrI+mKAw5mRWm4GxWlhxWyPpEbN0xRchLSmAjqyYYOztwdTaW+orVZmYlc4SEdcGr5UGfBVTZLUoG99rVzDk4ujjL/xpqHQ2bd5+aiEnYk6amqzT41Ia4fZdeUewPOS9JYP1Iq9IylqzPrTdFaImAsnUufX1oCMmvBJMRlawtRy9dMWPZaLlktJU/PDmOD55yDMZC54dA1HqlLV+b2o80qXL+teWRUd5+6c5KMNGSohglzuLpJx9x8wyaB1UWs41ydH0MYhaYDn0BXxaot8b3fsPC9vxChxYuawNlF9j2h7aiv7wzaykTXiAARIAJEgAgQASJQEwQaoCjNpOdb15mfvvHoI/UTLWiOjgHsoz3isWwpXuGVFZj8xK8oSkxWCSLm7TqirZniE0LyADciKvjoZJbOQmGZTwy2eaJucBzKLovlBCyOmqhRSqMREmDWSXEPUcy3gbSZCrzawIcpjzdztKAQtkKbVsoWKb9f92dwBdXa0K9uPgf37iZC0l+6AZQAXv6+sOMi6+TqAXH0HUQzh8aeUqBs06p2vszS9JFmR9bCFn5obWUoEC31o/cltuy4pETlhsXCUrosRPNh4e6h8+Na893GuiKAY8tWcBao2/xLmYYQLVsrNwpj4vWD+3hQqYHWYNl5SamALhQaYSxneVcJRiw+pVmlPojZhGdsXDokfTxYLxLAtVVLOHKXkKJxUkkEbx/lBqP6JFADYarKsyGUvQbw6p8EPTv0Z6VPSA6ObMPCQAv5s4DPD8PGT5jgqW1PAvYsHvf2S+grc+HhgxC2QeIPt6O1TNjpkw82mWptCxsdQqp+MdW1UNV8D2GjdyvVs0WMhNATiNQiSEtLb+HbDkoX4dL9MARqXubrzztDXatPyg8RIAJEgAgQASLQ2Ak0zFfWtAs4o7Q04cwQOGQA3FR6UQkymHuPUqtQC3QZGMwEEnlTECedQ2hUBfVDuilcutTqWX4IW7RBK107QQm90LplqbWMJD0FaRpFg8beDOtj+TlYufshqE8vdPS0rpJVlPFKzSMnIrzU8t+yG4KDtNvDCv37oo+H4suKbdIXEV5xdYD63BUXl/qvtWQCqGEybAlunb2AVJkYx8EyaBgGqtzmqE+vemerXkd8Rhgu3lWMAwIH9B0UqMXCWIjmffuhda2MpjyyMrIVYxMTKJs2UW3sWpmdOQICO0Chl1S+rPNM1XlWjFrUvju62WppPUyc6dHNVWZNLbWnjrsRifRK42cNlj07C0qvMZyVM1wM2RirYuGlf/Ns88xspSptCWdnGwP6EutH4Tch9+DBJj8DuqOrjbpEFOdE/ugV6KBgqSVcTV6qMs8GUHZW0/TsaKjPDlv0GhgE+fDA9m0I34f1u/bi/9m7D/AoqrUP4P/ZTe899E5Cb9IJvQhIsYAUERE7KCKiFxTwqmD9FEXRqyBergioVCnSRZReQ4dAIBBCEtIgpGd3vrMtdXezyW76f54n98rOzJlzfmdmsnnnzHt+32TmZ8OPWHMkVX8PVyK4d0/UtsHvEqcWrdHUEDyVMxAbKx5kleU1XorHsu57iCZ1mVPO/TYtJS03d7TROrugU/9u8MzpEweRfqrw767K853BaCP5IQUoQAEKUIACFCg3ARt89S23ups+sOomdvxxJuePdqfO4zC2ufGcmgr/gZgwOFA/8k2FyO1bcbLQ5OdZuHjmohiJqjukwqsPHunrbTaI4NB8OB4KNvxFoMKts+cQV1X+IjAtX03WOKHZ+EXYvH0dfl76A37bthnfTQiGUzm2XhW+D3uvG4Ko3hg0fhhqmbq6ReqOXuNHwjBQWp20H7tPFjFUSNs2kW89LiEnAOrfuBE8C/9tZlYh/egGbNYPeZXceuLFF7vCw+IyFFCaalOho1rZR6rr2LHjgv6aVyJw2PMYrUkDZGSR3Lvg6bEtYXjZwsgmpfiRuGdFREKlvTeJYFeH7uhg4kSUvHuLt0RqlHCUr5WeBQQktxA8Ju67prrTsc1wDDUMTVNF4Z99l42MHCyrtouweEw4rmkmJNMo27dG5w4u1vWpOhZXr9/XBYnEmzitunSAubhy/oOJYPzBvTiuzyut8OiJkX18Tf4+cun8CIbWM37uWteIku9dcs/K3nbbXkcl74HcPfm7o6CiFX3k2hn9uhgeMKlw+cBhC7733ceRf07lecjUF70CTd0ZC9bVxL8dm+KJZwblDLaQM87g2OlCX2xN7FzRP7b2e4haPMjVTIauWUQqj8YNYO5urmw4Cs8N9s/9XSW5wcPYA9VK852hovcv60cBClCAAhSgQHUTsPKbb0XlEiPrNv6EXfq8m5JDMJ7+98voXDCC5tgQj82bgf76YdJyyjEsX31aOydi/kWN6N1bcSTNEJX2wYOz3sfYIONfZZUBvTFr/pNook/5IWddwebN54wEVQoeh/+uDAKKwBF4c2Zf1NEPOZXsAtFr+gwMD7A4umr7ZqouYu0vx/VvAEhw6z4d858MMjK61w61hszF3BEBuuCkJof6htX4x1yqj5zaqhBx/hJ0AzzFaKNOYzCxrZvJYJjRRmaexo+Ld+v+UJeUqD/mE3z5nC7/u9HtNR8q3dEwZDzmLFmDd3obf7hUcF/r+0iFa2uXY1eiPhDp0hEzvpiNAbXzH19yDcLYD97H6NrlFfSTkRB6Etf0D7yUgcPwylPNC/e7Q308PO9fGKrJjV2CxXrPAgeVXNH95Tl4rH7hV04k9/aY+tY4NNCSitGGF9djTWjhu7JmXVm0XVvzjFP450iK7oGMwhtDXn4BHS1/mmJEPBMn/zmiH30tcj4PmoIpnTwtvpbUsTvx6x79yEeFB/q99i8MqVH4HJR8uuP12Y+gZuFVRupUhh9Z4VmZ227z68gWXcbfHfkUrekj5wf6oLt29jyxiMERBw/esOB7n7iPHdyPsyJdlGbRPPTqG2L6IVO+yhb4h+Tog6Y9xmDO0qWYIR6c6b6RqBG3YxW2xlaVURHWfg8RDwtCz0P3dV58V+o9Gc+0Nf6mitI/BLM+m4ZOrnm+20ku8PIs/HtL80ZP5fjOYO4M4joKUIACFKAABShQ9gJFp0Yu+zrZ5Ihy4i4s/Go/eszrCS+FBJdWk/H9r0FYvWITjogRao41W6P/mHEY2kw/AZRI0XFqycf47abxL+7q6I34/IfH8MDLraBJHasM6It3Vq3HwN/XYuuBc7iRkA6FWyCatO+LR0c9iBY+St0fBHIWrv/6KZZfLpQQ1SbtZCFlL6Co3xSNCgyLlRwboGkdEfmJzS77CmmPqMbNNZ9iycj/YVorZ0gKL/R44yf81n4F/rthPy7cToWdTyN0GvIEJj/SFr7aByYir23keny0NBSWjJPWHCXt8GbsiB2Kx0UATHJsiReWbUCn3btxOOw27qar9aOoZWRf24vVf9808ge5GrFbFmBul2AserQ+7JU+6P7qcmwdtBPrNuzGofPXEX03Cw7uXvCt2RhtOnZFSJ8QtK3hLEYqpWDTast4bdFHcsIOfPrZQ+j0fl/4iXuIc/BYfLWxJ47v/RunbtyF5N0Ynfv2QusAB2Rf/xsH0R0hukiqZZW00VaqK1vx+7lnMLONeCVe/MHc7pVlWNXkZ6zaeRq3UpXwbtAeA0c9joFNXRB95DAyO3bRB3wtr4AtPHOPpkbyvRS4+PbBuyt+RMsl/8PW49eQmO2CwGbdMeqZSXiwie71all1C+u+XAlDJpWCNS6LtmuPKSdh1/K1uNb3KTQS+Z+dmk/Gjxs74c99pxF1X5fTW7NZdthmLNogRtgXrGihf4sRv3/+D79e649nGomJPx2bYfIScS39tQ+nbt2HPj4l4hzigebi9YUn4dLU55ulONH7DXQUARNlzaH4ZKUv2i1ZiR2hN3BX5YrarftgzLNPom89O6TeS4aju3vOxJGFqlPWH1jjWYnbbtvryFadxt8deSVL3kciFVyfHjmjk9V3DuOAhd/71NEHsF/c5Do2F1/JJUd06NMdXms2GklZJGoqOaDX7PXY9mrefEYK2Dt7wFdMZuicd/4T8Rs5Pfw3zP10D+4WSn+kRPMXluP7CQXyzStdcucdkHww8vPd6J/vhiYj+Y9ZGP7BQQvuc7Y6R/OXY933EBl3//oVW6L7Yox4Wic5tcSLS1ejyc/LsW7fWUQkZsLeqzaad34QYycMR1tfO8h39mJreEcM7SIewos3W2rW1rxxVDjvd2X5zlA6vcJSKUABClCAAhSgQMkEqmxQWjNq4eZvb+H1Rkuw6MlmcJVEUKluTzw9W/wUtBL59q5vmIsZP1yC6RccM3Du+1cx0/8bfDImWJQn/jZwroMeY14VPwUL1P9bTse1ze/ixU8P4l6hPwhM7MOPK7yA+nYkbqtlMfowd/SMrIpGZIzxBxpl1qCM8/hu+tuo8/0HeLSRCOop3NB00ItYIH4KLyIgHbMPH077EH8lFePkTNmPL99bgwc+fxyNxez1klNNPPDQBDyQ7wAy0rbexm9Gg9JiQzkOe959FjMyFuGDsc3hLmYN8mkxGM9qfgpXNPeTYlTTNn0k0u5smI2pfguxeFpX+In+VrjUQaeh49ApTz3VSUfx5exv4fhON4QYPi9GXc012aJ1qmtY9X8r8fCSSWgqRu9LYuRs84dewnsP5d1b9MnF/2L2nDA8tbmzCEoXb1S/bTz19RH324ML30LUuE/xVFB7jJslfow1VH0PJ795E5/sN+TMNrJRGbTdcNS0E4vxxhfNsWRGZxF4kuAQ2AYPjm6Tr1IZu8/jW4uC0mK39FP4+s3P0fy719HdVwRHHALQZuAo5Csx409cWGIkKC12V4WvwJvvtsL/FgxBHfGQzL5GVzw1V/zkq5G4zqN3YsGnUXj+k0nFfhhhRNxmH1njWVnbbtPryGY9IQri744czRL3kX0r9Asx5MEXD96OHUCo6S+U+XtP3Mf+2X8TLzdvKIKd4rtqxz7o5vY7tiYb+0WigGtgAzQsov9ltZhYeMd/8M785ThmYkITOxfx8NfX13RKJ0kBJw/fAqnJZNi75s6XUkQ1Sme1td9D7h/Awnkr0W7RBASLUSaSayMMfP5d8VOwuuL+mXgUX7/6Fra0/waDurSDvdBq2Kq5+Bsg3Mj3+krynaFgM/lvClCAAhSgAAUoUI4CJXuXuxwrXKxDywn45+NJGD9nJY5E505UmFuGjKyEs1j7wWSMnbsNUUUNZhaBx13vPYFHpy3G1nPxyDT294KmcDkbiZd24T9vjMWoWb/juqV/mBSrcdy4vATUkRuw6KcLuG+IQctpuPTzt9gQVc5BaQGiitqOOeOfxNs/H8atNMPI5fxSclY8zm76DJPHTMNPl9KLySgjbu/7ePzx17Bwzd84F3UPmSJAX+wlOwo75j+BEc9/gjXHopBmsgzxR+H9SJzauQIfTX8aH/1t2cVksz4SE9KdWvICRj61ACv+DkNCRu5ocFVKFE5uXoQpY17AkrPpYgSVPtAr3o7IzBnqWmyZEu2QcmwhnnttGY7E5k5EaShIViUj7I9PMfmZz3Eo9jaii/MQQl+IzTw15Yl8yjcu7sPHz7yIL/ZEILVQ34uR9vGhWDXnKTz7n1CkFHF6lXbbczskFWeXTcHjU77ExhORSNYl8i5Rfxl2Sju/HC+Nm4LPNh7HzWRVERNuFTyUCIBsnoXxL32NPRGGidLybCPOwzvHV2DG07Ow/sh1RBb1+61g8aX+b2s8K2fbbXod2bh/+LtDB1rSPlI2741ehjw54sHb8QMnkGZxH6lwcf8h3NFfo5I2N7Xx9HDGipRlNVQZ95Fw+xrOHNyOVYv/jedHDsSIGT+KgHT5fy8xVmfrPrP2e4iMxP0f44kn/41fQ+8Y+S4vQ50WjZO/f4HnRz+Pb07dReSBg/rJpDUPDfqim7uJB7uV5DuDdf7cmwIUoAAFKEABCthOQGocFFzEn/y2O1i5lmTnhUbtO6J9UD34u9tDlRKPyCuncfT4ZcRZFucqUH0lPOq2RLvWQWhQwwduTgqo0+8jPvoGrpwLxZmIuyivRA7l6lxtDu6EWh36oGcLb6SF/YOdR27qcxRWHACFa220eqAtmjeoCR9Xe3F+3kXszTCcPh6Kq4lFJxiwtCWSnTPcXB3FJIRixJF2JxlyZgqSUiw9hvgjLyAIbds2Q6Pa/vB0ViI7PQXJ8bdx/colXAiLhMjoUYKlFPrIzlWMLPOEI1KRGJeENEOgz64j3t62DBNriRQuYsKjpU+MwKenyyEK6BiIVt26ol2jGvCwz0Jy7HWcPXoYoZEp+omdSsCYs0speIpRZx4NO6DbA81R30/kQE1PRJS4Lx8+ehGx+on8LK5xqba9cC2Uju7w9vGEi70iJxe0OjUOkXFGAsSFdy/8idIRHl7e8HARY/FyHnCk4s6tOBG4L7x5vk9E3vX67bqI1//rI8BNiax70Qg7dUikw4m1ODVPEUco9dUl9qx0bS+N68i23cPfHRW/j2zb45W/tJJ/D3GAb9MO6NyuKWp7O0GdHIfoW1dx6thZRBV547XAraJ/Z7CgCdyEAhSgAAUoQAEKlKZA9QlKl6Yiy6YABaq1gOQ3Gj/segc9HCTI6X/hrf5TsS6xejzvq9Ydz8ZTgAIUoAAFiinA7wzFBOPmFKAABShAAQpUWYGqnb6jynYbG0YBClQcAQm+IX3QVjv5pUg9ceEIjhWeVariVJc1oQAFKEABClCgnAT4naGc4HlYClCAAhSgAAUqoACD0hWwU1glClCgYggoarZDr5a+YnIj04vCpxemv9RTO/kpRH7xwxu3IbKodAumi+MaClCAAhSgAAUqoQC/M1TCTmOVKUABClCAAhQoVwG7cj06D04BClCgAgso6w3D/KWPQnnxb2zdtgf7j4bi/PUYJIh82faetdGsyxBMfuU5DKyrFHmFZWRcXoFFv0fbIH9zBUZh1ShAAQpQgAIUKCTA7wyFSPgBBShAAQpQgAIUMCvAoLRZHq6kAAWqvYDkCL+WAzBR82MSQ4Yqdh8+nPktQtNNbsQVFKAABShAAQpUZQF+Z6jKvcu2UYACFKAABShgYwGm77AxKIujAAWqjoD6zkUcCr2Be1mmJy2UsxJwbvNCPDtmGlZdzaw6jWdLKEABClCAAhSwWIDfGSym4oYUoAAFKEABClBAKyA1Dgo2HW0hEgUoQAEKQOEciKatmqFBoB/8/H3h7aJEdmoSoiMu4/SJUIQnZVOJAhSgAAUoQAEK8DsDzwEKUIACFKAABShgoQCD0hZCcTMKUIACFKAABShAAQpQgAIUoAAFKEABClCAAhSwXoDpO6w3ZAkUoAAFKEABClCAAhSgAAUoQAEKUIACFKAABShgoQCD0hZCcTMKUIACFKAABShAAQpQgAIUoAAFKEABClCAAhSwXoBBaesNWQIFKEABClCAAhSgAAUoQAEKUIACFKAABShAAQpYKMCgtIVQ3IwCFKAABShAAQpQgAIUoAAFKEABClCAAhSgAAWsF2BQ2npDlkABClCAAhSgAAUoQAEKUIACFKAABShAAQpQgAIWCjAobSEUN6MABShAAQpQgAIUoAAFKEABClCAAhSgAAUoQAHrBRiUtt6QJVCAAhSgAAUoQAEKUIACFKAABShAAQpQgAIUoICFAnYWble5N3MIRMfhYzB6cAg6BNeDv7s9VCnxuBV2Gvt3rceqdftxI60YTVS4oVHPkRj1UB90ad0E9QI84SRlIzUpFhGXT2H/jvX4ZfNxRGcWo0xuSoFKJGDv3wodA6Jw+FwC1JWo3qwqBShQMQR4D6kY/cBaUIACFKAABShAAQpQgAIUKC8BqXFQsFxeBy+L4zo1HIF5C9/GI0FuMD4sXEb6zV349LU5+Pn8fRSFoQzogVc+XoDnOvvDTjLVAhkpVzfhw9ffx2+XU01txM8pUMkEJHgEDcITT0/EuMGtcO/HcRi56DxUlawVrC4FKFBeAryHlJc8j0sBClCAAhSgAAUoQAEKUKCiCVTpkdKKGkPxwdL5GFpTCW38WFYjPTES16LuwzGgPur7u0IpSXCqOxBvf+8C9cQpWBmebbKPJK/umLVkEZ5s6qQrT4Sw5YxEXL8SgfhMB/jWa4wGPmKdKNO18Qi8t8wbdhNfwarwLJNlcgUFKo+APTo89Q5eHekpzn8V7lWeirOmFKBAhRDgPaRCdAMrQQEKUIACFKAABShAAQpQoAIIGB88XAEqZnUVFIF4eO7bGKIPSMvZt7D9wwno32cIHn58NIb064+Rb67C+RTd2GiFT3e88d6TaKw0cWTJE33eeB9PGALS6iQcXzYdQ0N6Y/DoCXjiiccxuHdvPPTaDziWoEtooPAJwb/mT0QTU2WaOBQ/pgAFKEABClCAAhSgAAUoQAEKUIACFKAABShQVQWqbFDasd0kvNjLS5eyQ05H6NcvY+aKUMQZBkKrkxG25QM8/852xGljyBJc2k3GlP6aUaCFF0WdkXhuaCC08WVZhZtr3sSLn+1CeEqejLrq+7i6YyFeePV/CMvSBLslOLeZhBf6uhsts/BR+AkFKEABClCAAhSgAAUoQAEKUIACFKAABShAgaotUEWD0i7o/tgw1NWPUFZFb8Siny6j8LyDatzZ/iV+CM3U5ZJWeKP/qIHwLxSVVqBG7/5o46BbIWeewPLvD+Ke0QTUMu6f+A5f7byrmwBOlDng0X7wKVRm1T6x2DoKUIACFKAABShAAQpQgAIUoAAFKEABClCAAsYEqmZOacf26NdTP0pa5L6N3PY7jqQZa774TBWJP7acxPR2XeCoyS/dsT96eq/F2oS8EWcHtGgTnDOxoSpsPw7E5BkhXbBo+R7+2XkIqUMGw02U6dyxD7q4bcTW5IIb8t/VU0CcE7614e+qgCRn4W7MbSRpn5iI0fq1O6B3705oWd8fbnZZuBd9BSf37cHflxJgOtu5MUVxjBqt0a17B7RsVBO+bvZQp91FzI0wnDq8H8fC7xYxQaESbgG14OuU92mKPfzdcp9jOXgGol69+7qHL/mqIEOdEofI+LQiJw7VttoxAC26dsMDLRqhlo8bnBRZSL5zE2FnjmL/kcuIrxAp2e3gHdQNfXu0RdNa3nBGGuJvnMehP//EsUhdO5Uu3vB2EU/CRO76jOQEJBd6ClY6/e7oEQAvZ0n7NkZWSjzi75s5U+zc4OfrCs2NXxZvkCTF3kWGsdPH5p/lOZ/kDCRExSBZM0Om0hNNuvVF7w5BqO3tqD1vIi4cw969x3BTn1qp6KrYwSOwJrwdhYCciju34pBquD07+KFlj97o1roRanqJ8lMTcOvKaRz46xAuJ5pxyjmotdeRpqDSbHuuju2uI1t5lsI9xN4TNWt4Qvt8WJxHibdjcM+SbtS8teQj7rni/qXdNS0ekXdSjNy7ij7buAUFKEABClCAAhSgAAUoQAEK2EagSgallY0fQAdvffBMfQ/HD1+AIa4leXfDSzO64OLXi7BHG1hWI/bYUYSruqC50JAc2qBTawes/StPqEbhg1o1cic3zLp5Hbc0ARUzS3p4GG6oBqOFpkzn1mgfbIetxyz669lMqVxVNQTs0e3NtfhmuBskdTx+eb4/5mtRuDQAACAASURBVB2ricFvfIh5Y9rC1y7/sHr51TdxZdNHeO3ddQhLL1pAGdAZT/9rNl4Y1BQeSiND9EUwMurQavzfgq+xJdzE0xrJCw8t+B3v9XAwcUAl6o/7GtvGGVstI23rdHSeucvI2wl5trcLRPdJMzHrmQcR5KmfjDRfcTIyY09i7aIP8Nn6C0g2+maCsePb9jOFzwOY/M57mDqgAVwKcE59Iw7Hls/DzC8OoPGbG7H0cV8o5BRsmhaCmbsLRqVLo98d0OPtTbpzSTxmuLh4FB5dfNnkAwdl8DNYvvp5bZ57OXUrXun+BnYWrKZt+XSl5T2fVOH4z9hH8J/M4Zj3yb/wcJA7FPlcZcy+ewEbPpuLD9ZexP2i+l1ZD+O/Xo/XWoqbbeYh/HvQs1gVa4+6A17BgrcmoHMNh0Lpk+T0SOz7cgamLT8HU5eUTa4jTetLs+2a8m19HdnKszTuIfZt8cqKxXjMX/x+l+9jz1tDMGVjQtEPv5TN8PyPv2BKU82Jn41zXz2G0f+5UhpnOsukAAUoQAEKUIACFKAABShAAQsFqmD6DgluTYNRx9AyVRjOXjKEpJVoMvZ1TH10MmZPagt7PZIq4jwuGXJDK9wQFFxblzvagCg5wzUnGiUjNSXVZNDHsIucnJwbTFH6oklj70KBEQv7iJtVZQFxvgUENsTwD3/E5+PbFQpIa5ouKVzRdMS/8d2cPvA2EmPOy2Pf4BEsXPk9Zg4JMh6Q1hbohFrdJuH/Vi7Fqw+UT75zya0Nnv3uVyx9bSiCjQaktRWFQ0AHjHv/f1jxVi/4lcPdSvLpiTn/FZ4DCwektTW080OnyQuxdGY/BNUSwdW8nWHuv23c7+YOVeHWKQJQv+Oj+GTJu3gkuGBAWtfvSs8WeOzfP+L7F1rDpTgNUHjBW4yIrv/o/2HlwqfRxUhAWnsEpzriLYJgiAHmRpdSu45s3PZSv45s5GkUuSQfph7Cmq23dL9/JVd0GzkINSy46OzbDsewRrp8XnLGSazfFF7k7/CSVI/7UIACFKAABShAAQpQgAIUoIDlAlVwpLQCterWgr0+2CCn3UZUov5dbkUNEYhoItJwKFGrS1c0VJ7EZc2I5+wYRMWK4XieGjixf73a4n/z/tGqQnbOyGgJ9g72RQaYJUdH3SvG2r4Qx6tTQ5R5h38IW35uVpMt7RA88WN0aBoIVfRB/LxsNbYfD0dcphNqtuiDcS9NxqCGzpA05+yI6Zi48h98ed7EiHvndnhl4VwMqqU7P2VVPE789j2W/X4A52+nwt63MToNmYgpT/ZAbfH+u8KjnZis8x2EPf4mtsYWSEcjUtD8/dWrePHnvFE7O7Sa+CGmdnUV578KUX98ivmbbhh9BT475pzpdCPKOnj048V4vZuPLogrJgi9sutn/LhuD06EidfxVY7wrtcSvR+ejGdHtoS30gXNxn2MT8LH4rlVEWV3DYkA4rB5CzCuie4tCVlMjnrh9+/xnzV/4WykyMXjWR8dHnwK0yb3QZMJ72JKWnFupzbs98p2pYhgYr9XZ8HBSQF1/An88p8fsOHAJUSnO6FG854Y/eKLeKylJxQKD3SY+inePD0a7x5ILno0rMZB8kRAuyew4I1+CBAxyIzoU9i1/U8cvXgL8SKnh5N3HQS3D8GggR1Rw5SbLa+jgsewZdvL4jqyxrNU7iGZCN3wO8ImTEUz8RaIU4cReKjub1gaYe7VJSd0HjEYtXWzFCPl4Hr8EWUm/VbBPuO/KUABClCAAhSgAAUoQAEKUKBUBIoTRSmVCti+UAV8A/xygsbq+DuIM/y9atcYzRrrRkspGzRHsBiCd1mT51mkUIiNFxtpXu0VYTJXfz+4ilhckuG1cXUS4hNVIihiJ8oVfwj7BcBDrI8z81q5okYt1MwZwaWAj6+PdvS1uT+dbW/BEiu+gAg2BzdF5tXVmDLpA/wdnxssuR5+HoePROCLNR/hQTFMWLJrhIeGtsTi86FGAr5KNBg7E08FOWrPfVkVg+1vT8Trv0fmbhsTjYjzB/Hnkbex4qsxaKQJTAcMwuvP/4Y/5x8WWZLzLlmIOr0PUfk+c4A8MDcgnhJxXOT+PV/Mc1qBmg+/hVm9dQFpWRWNHe8+h3+tCc93/LjYSIQd24vdpz/Hinl9xChpD3SbOg2Dts3EH4lmLjwbdrhTh8mY1l+k49CUKdIAHf38aTy/7GJuPWNjcSvsOA6eexerFj2Cem4mht0arZOt+t1o4RX8QwmOTiK/853dmDthBtbezD2nYm5fQ+iBI7ixdDlmdBDpbUTg9bHXxuPnw98hzJKbp8IPA6c8LXJ7p+HiL3Mx7ZNtiCiYoebXH/D5p20xqq8DsgqdSra+jgp2ha3aXkbXkVWepXMPUYX9jnWnnsXsB8S9zqEVRgxrgh8XXzJ9H3LrhpED/HVvP6kT8ef6PWZ/dxfsMf6bAhSgAAUoQAEKUIACFKAABUpHwIIXX0vnwKVXqhLuHi45QWk5NTUniCS5ByDQRddkya4G6miG0mkWMTnW/dTc6ITk6gH3vPElORlXw27njAi1a9YWrZzMtUCJxp0eyJNuQAQi3HSTi5nbi+uqqYDqFn6b/3m+gLRBQh27HT9svKEPuIhAZpvWCDB21dq1xOjRbaCbl1CNxF3/h/c25QlI59CqEf/3Z3h3jf4VeBGqqT1sDPponrKUxWLfGhOeCYGHpg2yCjdWv4W3CgSkc6uRgWtr5uPrw6naUbIK7z4YOzjQ8hQZVrXHDSGPD0Md/ejKjHPL8N7yPAHpPJ5xexdi0Z5koyPGzVbBFv1u9gAVeKW4p+77YgHW5wlI59Q2/SJ+/GgVrqg0vS5SuDR7FKPbGpItFdEmyR5+AR6I3Twbz7xvJCCt312VEIpf1h7F/YLFlcV1ZIu2l9V1ZK1nQV9b/Ft9C1vWiYmEtb+yRUquYSPQxuTpIcGr1wj01c8xoYrdgXX/cMZhW3QDy6AABShAAQpQgAIUoAAFKGCtgLHwlrVllvP+9nAUI0ANITY5KwOZ+nizwt0T7oYWi0mYfLwMW2UjU2xkCEtLDg55Um9omiMmENt/CHf0I/UUXn0wakDuaOyCDZY8QzDxkcb58lJL9vYibUjBLflvCoiz6/pWrD2WaoIiG5dOndUHYERgtlZd1DZy1Sqb9EavuvqHLKo72P7LbsQXGgVqOEQqjv6yHpf0A1Qlty7oK0YdlsVi3+4hDNXXU844hv8uMxIYzFsRdTS2bz6KdG180hFtQ7po31Io9cWxLfp0EykkNAeSM3Fi/e+4amqkrpyAPzf/jXvFzAhgi34vdYdSOoA6cQ9+2R5jMpCfdWELthqGRitrIqRXUP48/2bqJacexn8WitGwxewPTZFlcR3Zou1leR1Z42mmm6xYJSN+1zrsSdJ1sLLOEIzsaOIpseSHASND9A+ZVYjYvAFHTM1saUWNuCsFKEABClCAAhSgAAUoQAEKFF/ASHir+IVUqD0kBRRSnqiVWp37Wq9CkRvYECPA7A2Jp0U4Wq3KE8FQKAuNxsw4tgZrr2TpAtdi8qf+M9/D+CDnwk13boIx77+Dh8XsS7I6N9Ata4JqJoOEhYvhJ9VFQEbKuVDTAU/BkJ0Qh5y06O7uuQ9WcogkeLRoifr6q1lOPY79oRlmAVXXDuFQlOEpiztatGpgcdDPbMFmV4o3CLp0QqA+dp59Zjf2xhQVOZRx9+IFRGo3E6NmmzaDPgOP2SNZu1JZrzVaeupBVddw9EScyQCq5lipp0/ioqmgtdHK2KLfjRZcCT6UkRl6CMcKptXIW3PVdZw4laA3V6JuyxZFTvKp211G+uHN2F7keWWMqSyuI1u0vSyvI2s8jRnb5jM5+R+s2xGr+92u9MeDD/eAm5GiFbUGYWRnkZNfrJOzLmLjxvNGUh8Z2ZEfUYACFKAABShAAQpQgAIUoECpC1S9nNJyNrK0r33rFs0IZTFwWruok+8h2RADk9ORph1+qVkUYvJCZc7oaqiykKVfk/N/2ZpXyldj8HcT0FiTi9e/N+au3oBBmzdh96nrSMhyhE+DdhgwfCg61xGjttIvYccBewzo10gE+8RxMjMLl1nwGPx3NRRQI+FOvNlzQxbnTqZBRmlvJHismZyzVs5IfFXkVVzP2cEEqQj6XdFMDlZPl0e9ppgcVImLpvOymiimeB87o0lQPf0DHzXSMkQwvFdvBBdRiOSb+1aCQuRz99PctUzM9VhEURavVtapp0/dIYJZ2ZGIiDQfcVYnROCGGCrd1dfS53y26HeLm1PBNlQj5tp1pJh9SKfCrRtR4nwM0J4vSvGGQC3xHznzA5hskQrhp8/intmyTe1cFteRLdpelteRNZ6mnG3xeTqOrNuCiFHPoJFSAe8+mhQde7ApX755JeoPGY722i8AMjJOrMfv18xfx7aoGcugAAUoQAEKUIACFKAABShAAcsEql5QWoT3UlM1I5p1E75JDo5w0FvId2MQmyGiFZo/UuV7SDRELiQHbcoPw6LNQ10oqCEj+fDnmPpeAH54ZxBqi1HWklMddB31kvjJjy2rYvHnR7Owov6XGKBdJUZFJieXdhzNsh7nVhVOID3d/KjmoiusgKeXZ85DFfXdRNwtcgByKhKTMsSZ6SD2EyOQPb20k3saUt0UfcwSbKH0RQ1/zWShmkUBj5BXsDikeOVIkjOcNfljS/UVfAkuXt76/Nzi6k1PRnKhp1QF6q2+i4S74qbha3l7rO93y49VsbaUkZRwt4gqifvt3Xs5L5dInp66PORFxhRViLmtH0FbxBEKry6L68gGbS/T68gaz8LCtvwk+/wGbLgwEa+1sofk1gMPDwzAll/zpIRRNsHwYS2gfSFKvo/967fjdlH3RVtWkGVRgAIUoAAFKEABClCAAhSggFkBS4f1mS2kYq1U427i3ZxX7SUvH3gZWqmKwFXN6FCxyNkxuJ2TJNobvjkbyci+m5Q7ojpf4zJxbd0bGDVxPlYdjUKaSM+Rb5HVSIn4C9++MgHTfo2Am5+3flSoyIEZZ3gVvWJpsTZVQ8DOTp8TQ9OczAwUHeYWaQTS9eloNPvYiZznpU7hCCfdTIwlP5JIzaNQ5D5AKnlB5vdU2uXRUKksGEEutinl0dvma1yZ1opzT4z+L/TcL18TxDZZueenpDk/Lel2kScpw4qHPKV/Hdmi7WV4HVnpWapnpXjbY9P64/p8807oPGIw6uT5RmPfejiG6XP9qBP/xNo9CUWcc6VaWxZOAQpQgAIUoAAFKEABClCAAgUESj8OVebk4vVoMVJOjdraNAeSZwACNHO4aUY6qiIReiYe6laBUIefwwXD3HKSLwJ8DREPNeKjY3LTJRSqvwoJoavx76d+xceBTdG6eUPU9BbpOjLuIUaUGXopRjfKWlkfjerpclmKCDiixKvoHKRVCJMf2EggKys3Iio5OmtH+WoG7ppeJDg6a0ZJ65esskgvI9LiZBkqlY3zy6Zi1kbTk90Zrbs6BTH3zTbM6G7F+1BGmnhbQvvMSQBJTjpPs2VITnA2kmLe7D7VdqU495yccs89ow5iGzHhrOH81KSwyTl1jG5vmw9L/zqyRdsry3Vkmz4xXYoat7etxz/Tu2Cgu3jbo80IEYRegW+0E2Q6oeOIIfoUPCpEb9+A/fdNl8Q1FKAABShAAQpQgAIUoAAFKFD2AlUzKH31Gu6r28NbjJqS7BugSX0Rnj6n+UM1Cye3bMPN0aMQs3E7DOklJY+GaOSvH2Ilq3A9PMKCkZEiJ27MJRwRP8YWybUV2jXRj15VR+FSWDJHaRmD4mc2ENC9HSDDX1uWwtsXPiKaF2OuZMkdft6GoJ8YXSreDkgt7VivOhFxCSpxHWhSeEiwz0zAlbAwC641cw0pnXWZsTFIEE+RaolLWHIIQE1Nrmhz7/7b+SFQc8Mp56WowcSaAHv5x84l+Ph6izPgmhktkd7FyyNnwlk5KQFJpf5UryyuIxu0vRJdR2Y62CarZM0I6F3x6P+IHxR2TTFiREt8/9lpZLt2xUiRzkP7G1i8IaUdUW2TI7IQClCAAhSgAAUoQAEKUIACFLCVQPlHUWzVkjzlZF08gwvZ+giboi5at/TJGXGXceJzPP7gMLyw4npOMMyheWs00yaeFIv6Js6eS7IygCyJfLkD0MVFV6Y66QSOXikyGWopSLDI6iGgFpPC3coZSaqo0wSNioo8KhuiSUNDyg/d/kWfoQWi1kVFQAvii7yuV69E698YUKBOcFOIAY4VclGFX0a44R6ibIzmTQ2Z6Y1XV1k/CI2dy6Mxskgbkp1zv3J00rwWYnpxDAjUPqwr30UB/8aN4GmWS4m69evkpD/KioxAZBkEpUv/OrJB2yvRdVT4PLPyHlKowBQcWP8HorQ3LyXqDR2Bjo4SPHuOQD/tiS4j68JGkXuauXUK0fEDClCAAhSgAAUoQAEKUIAC5SxQ7uGJ0mi/nHAEBy7pQ2ySPToM6A3/nABINpJEeo/cUaGOaNc3BD56CVXMIezXvv5rxaJsgNETeukDbmok7NuNYxymZQVoRdxVgnNAEDp274rWtVyKSEVQ2vWXcf/c6dyR/04PIKSj+ai0MrgHugcaRvLfxbnTlrwdIN41yJPn10kEQM3GFQs1OxsXDx5BvDa4KMGp4yD0zUmbU2hjG3xQ8j6Sk07mPkhSeKJHvw5mRhiLAGqPnmhcLndTGfeSDG9hKOBXs0bOxK6FAR3QskMriJhdCZeSe+Y/oEi10LY7OruZqYaYpO6B9l76oLQKV0PPodSztogAZulfR7Zoe1lfR2b6qQSrrLuHFD5gxskN2HhV9ztbGTgID/eohwEjQ3QTY8oZOL5+C65b+Su98FH5CQUoQAEKUIACFKAABShAAQpYK1AuYRRrK13k/qqb2PHHGWRoB2WJ4FfncRjb3PhIR4X/QEwYHKh7zVeMnY7cvhUnM4s8gpkNnBA08R280EaXM1UWkzFt+OUgDOmrzezIVZVGwAnNxi/C5u3r8PPSH/Dbts34bkKwyGJafosqfB/2GiIvCm8MGj8MtUxd3SJ1R6/xI2EYKK1O2o/dJ4ueGlG8RqCdsFM31tGSEZ+FPdKPbsDmm7oIkeTWEy++2BUeFgdJFVCaalOhQ1nZR+K63bHjgn70uRKBw57HaE0aICOL5N4FT49tCcPLFkY2KcWPxD0rIhIq/b3OuUN3dDBxIkrevcVbIjX097riVslKzwKHk9x6YfzDdXPScxSsjVO74XjIcIKqruGvv66VSZqXsriObNH2sruOCvaMtf+2/h5SqAaqy9i44TQyNdeAwgcDnnsXE7rqHhTKKQexfrvh7YxCe/IDClCAAhSgAAUoQAEKUIACFChHAYtDPOVYxxIcWoUbG3/CLk1SWLFIDsF4+t8vo3PB98UdG+KxeTPQXz9MWk45huWrT2vnRDS6KJtiyBMD0czLeHAKDjURMvVrLJvRUTdKS4RRYv9YhGVnrIpyG60KPyw/AUXgCLw5sy/q6IecSnaB6DV9BoYHWBxdtX3lVRex9pfj+jcAJLh1n475TwYZGd1rh1pD5mLuCH2+VU0O9Q2r8Y9Fk4CpEHH+EpL1I50dO43BxLZuxRstnXkaPy7ejThNGZIS9cd8gi+f0+V/N4midEfDkPGYs2QN3ult/OFSwX2t7yMVrq1djl2J+nuIS0fM+GI2BtTOf3zJNQhjP3gfo2ubuCcUrJjN/y2LiVdP4po+tYUycBheeap54X53qI+H5/0LQzW5sUuwWO9Z4KCSMzpOfQ+TmxUe0S+5d8DU2Y+jnpZURuqxX7D2chkNdS2L68gWbS+j66gEp0oRu9jgHlLoCGrc2Loeh9I0UWkJ7m07oYX23qxG0t4N2J1QIGVIof35AQUoQAEKUIACFKAABShAAQqUh0AVnOhQxygn7sLCr/ajx7ye8FJIcGk1Gd//GoTVKzbhyPX7cKzZGv3HjMPQZl66kYNyKk4t+Ri/3TSTuFThj+4vfo6FbyThyonDOHYmDDfv3EOG0g0BDVuhe5+eaBVgSGkgIzP8N8z5aBfi+TdxeZzbpXZMRf2maFRgWKzk2ABN64goWmx55S5V4+aaT7Fk5P8wrZUzJIUXerzxE35rvwL/3bAfF26nws6nEToNeQKTH2kLX6UmaCPyEUeux0dLQ2HJOGkNaNrhzdgROxSP11BCcmyJF5ZtQKfdu3E47Dbupqv1o6hlZF/bi9V/3zQyulWN2C0LMLdLMBY9Wh/2Sh90f3U5tg7aiXUbduPQ+euIvpsFB3cv+NZsjDYduyKkTwja1nAWo2pTsGm1Zd1qiz6SE3bg088eQqf3+8JP3EOcg8fiq409cXzv3zh14y4k78bo3LcXWgc4IPv63ziI7ghpUPbBadWVrfj93DOY2UbceyQXtHtlGVY1+Rmrdp7GrVQlvBu0x8BRj2NgUxdEHzmMzI5dUNxq2sIzt+fUSE1Jh5NHZ7z+v1VovXw51h24hOh0B9Ro1hOjnnkKAxvp3zRJv4AfP1tfBvmkDbUr7evIVm0vm+vIsquteFtZfw8pfDz5zk6s/WsGQoYYUr6IbVSx2Lb+HyQX3pyfUIACFKAABShAAQpQgAIUoEAFEKiyQWnxFylu/vYWXm+0BIuebAZXSQSV6vbE07PFT0F4kXfy+oa5mPHDJVgyplly8EHTrkO0P8YXNe5f/AWzp36IfRylZZyoEn+qvh2J22oZNbWBXd0iq6IRGWPmgUZZtDfjPL6b/jbqfP8BHtUE9RRuaDroRSwQP4UXEZCO2YcPp32Iv5KK8dQkZT++fG8NHvj8cTR2kiA51cQDD03AA/kOICNt6238ZjQoLTaU47Dn3WcxI2MRPhjbHO4KJXxaDMazmp/CFc39pBjVtE0fqXBrw2xM9VuIxdO6wk/0t8KlDjoNHYdOeeqpTjqKL2d/C8d3uiHE8Hkx6mquyRatE+ktVv3fSjy8ZBKaihGiksIDzR96Ce89lHdv0ScX/4vZc8Lw1ObOIihdvFH9tvE01EeFsyu+wO2H3sSIOk0xeOp88VO4pXJ2NHbOn4lvz5ZxQv5SvY5s2PYyuI4K94oNPrHFPaRgNeR7+GvdTtwZNBqGVPmq2zux+XgZnzsF68V/U4ACFKAABShAAQpQgAIUoIBJgZK9y22yuAq2Qk7APx9Pwvg5K3EkOkM/ijNvHWVkJZzF2g8mY+zcbYgq6g1xdRSO7j6BmykqI2VpyhWjo+POYtMXL+OR8fOx43ZRBVYwL1bHIgF15AYs+ukC7hti0HIaLv38LTZElXNQWtReFbUdc8Y/ibd/PoxbaYaRy/mbJWfF4+ymzzB5zDT8dKm4QRsZcXvfx+OPv4aFa/7Guah7yBQB+mIv2VHYMf8JjHj+E6w5FoU0k2WI4Pn9SJzauQIfTX8aH/1tyWMj8eK+rfpIThZvULyAkU8twIq/w5CQkTsaXJUShZObF2HKmBewRAROJfHgS7vIWcjMLoFJsRFzd0g5thDPvbYMR2KzCt2bZFUywv74FJOf+RyHYm8jujgPIfSHsJmnvjz5zi7Mnfw6fjwaq8sFnLftshopEXvx9ZQn8Nq6CNPplKzwKmrX0ryObNr2Ur6OinIq2Xob3UMKHDzt6BbsjDX8zhXpd7ZusnJ+iJK1jntRgAIUoAAFKEABClCAAhSggGUCUuOg4LKNnlhWL9tvZeeFRu07on1QPfi720OVEo/IK6dx9PhlxFkW58qtk703GrVui5ZN66GGpwvsRdjkftJtRFw6g5Nnb+IeY9G2778KV6ITanXog54tvJEW9g92HrkJbUrTCrQoXGuj1QNt0bxBTfi42kOdfhexN8Nw+ngoriaazJxe7BZIds5wc3UUkxCKUbravWXImSlISrH0GOIthoAgtG3bDI1q+8PTWYns9BQkx9/G9SuXcCEsEiKjRwmWUugjO1f4+nrCUUxdmhiXhDTDtW7XEW9vW4aJtUT6DjFJ4tInRuDT0+VwI3AMRKtuXdGuUQ142GchOfY6zh49jNDIFJFh19rFCk/JF2O+34X3emhycmfh8PwHMWlljKiTI/ybd0a3do1R09MR6vt3EHHhGA6euoHkcuAzJmT1dVRmbS+t68iYim0/s/4eIuY4rDsRP/3+Jjpq8klnX8QikbJmcVnlIrctB0ujAAUoQAEKUIACFKAABShQLQSqT1C6WnQnG0kBCpSHgOQ3Gj/segc9HCTI6X/hrf5TsS6xgj2lKA8YwzFNBmbLs1JldOzq3PYyIgbs0OKV3/Dbi0Gwk8QbSyc+xbCJyxFh/ZOYMmsBD0QBClCAAhSgAAUoQAEKUKC6CVTt9B3VrTfZXgpQoBwEJPiG9EFb7eSXYpLHC0dw7C4D0uXQETxkNRWQvPpg8ugmIiCtuQRTsH/tFtxgQLqang1sNgUoQAEKUIACFKAABShQWQQYlK4sPcV6UoACZS6gqNkOvVr6ihQ9pheFTy9Mf6mnmExVbCPyix/euA2RDIiZBuMaCthSQPJAt6nTMcRX93VGFfMHVmyPK5Rb3ZaHZFkUoAAFKEABClCAAhSgAAUoYL2AnfVFsAQKUIACVVNAWW8Y5i99FMqLf2Prtj3YfzQU56/HIEHky7b3rI1mXYZg8ivPYWBdpcinLSPj8gos+j3aBvmbq6YnW0UBqwUkdzTt0QNBHgoonP3QrPdojOvXMGeU9PFly3Aw1eqjsAAKUIACFKAABShAAQpQgAIUKGUBBqVLGZjFU4AClVxAcoRfywGYqPkx2RQZqth9+HDmtwhNN7kRV1CAAtYKKGpj6BufYEpTMalo3kVWIW7f/2He6huoIHNkWttS7k8BClCAAhSgAAUoQAEKUKBKCzB9R5XuXjaOAhSwRkB95yIOhd7AvSzTOaLlrASc27wQz46ZhlVXM605HPelAAWKLSBDnRaJ/f99E0+89iuuZRe7AO5AAQpQgAIUoAAFKEABClCAAuUgIDUOUy10gAAAIABJREFUCjYdbSmHCvGQFKAABSqagMI5EE1bNUODQD/4+fvC20WJ7NQkREdcxukToQhPYiTMfJ/Zo0arTmjqpXkOqkbS1WM4c7u6BPCrc9vNnxUlWiu5on77tqjnohAJc1TIvBeLa5ev4U46E7mXyJM7UYACFKAABShAAQpQgAIUKCcBBqXLCZ6HpQAFKEABClCAAhSgAAUoQAEKUIACFKAABShQHQWYvqM69jrbTAEKUIACFKAABShAAQpQgAIUoAAFKEABClCgnAQYlC4neB6WAhSgAAUoQAEKUIACFKAABShAAQpQgAIUoEB1FGBQujr2OttMAQpQgAIUoAAFKEABClCAAhSgAAUoQAEKUKCcBBiULid4HpYCFKAABShAAQpQgAIUoAAFKEABClCAAhSgQHUUYFC6OvY620wBClCAAhSgAAUoQAEKUIACFKAABShAAQpQoJwEGJQuJ3gelgIUoAAFKEABClCAAhSgAAUoQAEKUIACFKBAdRSwq46NZpspUPUElGj22CxMaOcICWrc3vMtvvkzRvxXJVvsfRDctSe6tWmCOn7ucFIqIEm6NmRdXIePfj6F9ErWJFZXI1D+56eyxeOYO7YV7MX5pLq1C199vw93Kt0FwrOJAhSgAAUoQAEKUIACFKAABShQNQSqXVDarm4fPPVwG7hrx4ircPPP5Vh3+j7k4vanQyA6Dh+D0YND0CG4Hvzd7aFKicetsNPYv2s9Vq3bjxtpxS2U21OgpAJK1Oo8AqOGu4mgtAoXo1fiWxGUrjyLBI+2E/HBx69gQD1n0YbCS8afx/E5g9KFYSrFJ+V/firrdMEjjw2Gkzi5ss9FYvkSEZSuFHasJAUoQAEKUIACFKAABShAAQpQoOoJVKugtOTbG3O+XYixjRz0Qa8sHL6zBuuLGZR2ajgC8xa+jUeC3JAv/4ljbQR30fwMxviJu/Dpa3Pw8/kSBLyr3nnGFlHArICi1sP4ePFM9PNhRiGzUFxJAQpQgAIUoAAFKEABClCAAhSgAAWqgED1CUq7tsZLiz7GmJyAdMl6T1FjKD5YOh9Dayp1gW1ZjfTESFyLug/HgPqo7+8Kpcg34FR3IN7+3gXqiVOwMjy7ZAfjXhSoFgL2aDvhBfTWBqRlqKL3YdF7X2L98QjEp2blvsUgrjVVtfBgIylAAQpQgAIUoAAFKEABClCAAhSgQNUWqB7DEu3qY9THi/ByO/f8I5uL27eKQDw8920M0Qek5exb2P7hBPTvMwQPPz4aQ/r1x8g3V+F8ii4ZiMKnO95470k0Vhb3QNyeAtVIQNkIPbvXElmHxSKn4q8v5+C7vZcQk5yObJUKKsOPuthJdqoRIptKAQpQgAIUoAAFKEABClCAAhSgAAUqj0DVD0pLvujz9mK80zdAjGAWMa/sLGSXMLbl2G4SXuzlpQtsy+kI/fplzFwRijjDQGh1MsK2fIDn39mOOO0EWhJc2k3GlP6eRnPkVp7ThDWlQCkK2NVBvdr6W5E6Eucu3i1+jvdSrB6LpgAFKEABClCAAhSgAAUoQAEKUIACFLCtQBUPSruizYuL8H+jG8JBE5BWxWDXgq+xN7MkiC7o/tgw1NWPelZFb8Siny6jcFFq3Nn+JX4IzdQF1hTe6D9qIPyNzdxWkmpwHwpUNQF7Z7jY6S8Q8bAnjROEVrUeZnsoQAEKUIACFKAABShAAQpQgAIUoEA+gSqcU9oO9R/7CIuntIW7JvQuRjGf+uZVvLmhJj6cVYKzwLE9+vXUj5IWmW0jt/2OI6aCZ6pI/LHlJKa36wJHTX7pjv3R03st1iaUcIh2CarLXSqXgOQYgBZdu+GBFo1Qy8cNToosJN+5ibAzR7H/yGXEZ5W0PRKca7VD796d0bKBP9ztspEcG4GzB/dg7+kYZJS02JLuZ+eOGjW9xXWRpwAXP7jk/NsB3rXqoj60rxrkW9SpcbgVl2pkjWEzO3gE1oS3pnCRBuTOrTikGopx8EPLHr3RrXUj1PRyhDo1AbeunMaBvw7hcmJROd/FNezXFG3btUSzJvUQ4O0OV2UWUu4l4Hb4RZw+eRLnbt03n+9atDtQtNtJkpGReBvRyRL82wzE8L6tUcctC7fP7MHGP04hVtvPdvBtOQDD+rVBfS8JSeFHsW3TXly+V9ikoJHm36V3Lhk7mrWf2fD8dPBHy5De6N6mMWp52iP7Xiyunt6PXX+fQ1zhp4dFVLy0zqUiDsvVFKAABShAAQpQgAIUoAAFKECBaiJQdYPSkgcatw+Cr0IToMrEtbWz8PJ3Z5BqV7NEXats/AA6eBtSDNzD8cMXYIgTSt7d8NKMLrj49SLsidEEjtSIPXYU4aouaC6EJYc26NTaAWv/KvMQYInayp3KUMAuEN0nzcSsZx5EkKd+8sx8h5eRGXsSaxd9gM/WX0BycZ5rONTDgzM/xLyxbeFnGIlsKHvaTNzc/RmmzVqJ86ll115lvTH4esNraG3qzmPXHM8t24LnjFQp48+3EDJ1I+4ZWaf9SFkP479ej9daisIzD+Hfg57Fqlh71B3wCha8NQGdazgUSqMjp0di35czMG35OaQXKFfyaY2RYx7BoL4imN08EC6a/D/GFjG6O/rEJnz/+SKsPplgNDitrDUKizbPRDs7FW6vnIaZsZPw9bSO8NbcnzSL/DQmj/wUk6auh/PEr/CtWOdjWIcn8fykrfjXxFnYcttMYLo0zyVj7bb2M5udnw6o0+9lLJjzJLoU6uNpmB25D9/OmYPlxamvjc+l4hya21KAAhSgAAUoQAEKUIACFKAABaqDQNVN3yEnYM+C1/H16WTE7fsQL83fq8/zXJJuleDWNBh1DFqqMJy9ZAhJK9Fk7OuY+uhkzJ7UFvb64lUR53EpRR9AUrghKLi2biK3khye+1RJAcmtDZ797lcsfW0ogo0GpDXNluAQ0AHj3v8fVrzVC36WXrGKmhj2wY9Y+ES7wgFpbbFOqNt/Fr55ZyD8TMRaKzW6wgveYkR0/Uf/DysXPm0kWKlrneRUB926B8PZiIFds8fwxtQx6N+qhumAtN6yxgOjMfe/v+CLUSJVkFk4JQIGzcMXr+QJSGvLUMCn66uY/8F8fPJy3oC0diXsaw/Gmy90hbOJskv1XDJxTKs+ttn5aY8Gj4k+/nIyuhYKSOvsnOr0xvTFX+P5Fo4lq7INzqWSHZh7UYACFKAABShAAQpQgAIUoAAFqq6AqfGKVaPFaWfx3SuPY1PaTdwscfoDDYUCterWgr1hUGPabUQlGgLONURQqwnsJCVqdemKhsqTuKwSu2THICpWDGv11O9fr7YoJdzoKMqqgc1WFEtAWQePfrwYr3fz0U2cqb6PK7t+xo/r9uBEWAzuqRzhXa8lej88Gc+ObAlvpQuajfsYn4SPxXOrIoo8j3wffANzGgQiPXw7fvxhLf46ewt31a6o07ofnnhpEvrVc4IkztkaQ6dh4k9/4vOzRaWwKFbrTG6sjt6OD18Og0fe4LpTZ7z08SS01TzRUV3D2vc+w847hUcEq+IuIsVkyQVWSJ4IaPcEFrzRDwEiD3xG9Cns2v4njl68hXiR08PJuw6C24dg0MCOqFFEmXJGHM4f2IU/D5xE6PkrIoVIIu6J1D1OPrUQ1L4vHn1yLPo1coXCvhYGvv1/eOniOHx51nS+CKWvH9K3vINHP/kD16VGGDb7c7zzoHhoJR4UtBk8AKroPVgwcwHWXcxErX6vYdGCR9DQXgSz+wxAO/sDOFjwXlbK51IRPCVabavz06HFs/js7X4I1I5il5EWvhPff/Mzdp6KQJLaDbVb9sbYKS9iZPM2eG5SlkiMUoLFhudSCY7OXShAAQpQgAIUoAAFKEABClCAAlVSoER/o1cmCVXcDdy0usIK+Ab45bz6r46/gzhN4Fmz2DVGs8a62Q+VDZoj2AW4nCw+V8cjNl5s1FSzTgFXfz+4irhJUnHSL1hdbxZQMQUUqPnwW5jVWxeQllXR2PHuc/jXmnDkTVMeFxuJsGN7sfv051gxr48YJe2BblOnYdC2mfgj0dyJpIR/owZIO7sETz+zCCfz5PyICD+HQ4ci8OXaBRjoo4CkrI9Bg5qLIOqZIgPdtrCUU2/i+L4CV6S7Bx43xKDle7h6eB/+vGG4wEp4VIUfBk55Gt4uabj4y1xM+2QbIgrmgP/1B3z+aVuM6uuALCOccvIVbFv8Gn5duRuX7hqpT1wMbl4+id2/b8eUH/6Lae1cRD7nIIyf1Bs/ztxpMs2InH0C//18Pc7FaRp9Fmu++hWjB+hTmshZCP3fx1hxIlqbO/vy1m+xcsxwvP2APRQ+wWhRU4GDN/IG7Ev7XCqhv9ndbHR+Kmrg4emT0NJJF5DOCl+Nl59cgH9yro07uBN9DaGHTiDqhx8wpY3oH7P1MrHSBueSiZL5MQUoQAEKUIACFKAABShAAQpQoNoKWJoMoNoC6RquhLtHbkBDTk3NCR5K7gEIdNExSnY1UEczLFOziInW7qfmRrokVw+4lygiUs3pq2Lz7VtjwjMhutHCsgo3Vr+FtwoEpHObnYFra+bj68OpYhyoeLzh3QdjBwfqRlebs1Fdx8oP/5MvIG3YXBWzFT9svKkPQivF6OlW8K9qdwLJHn4BHojdPBvPvG8kIK3HUCWE4pe1R3HfiGX2mRV4/9sdxgPSebdPO4cfv9uOeG2sWAGPLiFoY8jjY6Rc9Z1LuKQNSOsW1a0wXEnR3yvUd3D2rC4grV0r/h1+LVk3uaNUA7VqFOiosjiXjLTB6o9scH4qGwzHmK6uukCzOgFbF36J/UYe1sgpp/HdR6tx3chzBYvaYYNzyaLjcCMKUIACFKAABShAAQpQgAIUoEA1EqhqoahS6jp7ODpIOaPs5KwMZOpjSAp3T7gbFCUv+HgZIs/ZyBQbGcLSkoMDRBFcKAD7dg9haF3dwws54xj+u8x4UDSHSh2N7ZuPIl1zMkmOaBvSBR5FnEuq6zux5bSpiTWzceHEWRiemShq10PtKngnkFMP4z8L91iRS97ykzX9XCgu6TOgKNxroban6Q6SExOQL3aqSkR8kj5ILSciLiHvsG017iXd1d1HRG5jX6/8L7eUxblkuYLlW1p/fooR4iG9EKyfwFMd/yc27U/Oud8WrEnGmU3YfKWkUWnNM8ayO5cK1p3/pgAFKEABClCAAhSgAAUoQAEKVEWBKhiKKoVuEpOQKaQ8QSa1OjfVgUKRO4GhGFFnb0g8LcIjalWe1+wVyqJHt5ZC1VlkRRNQonGXTiIHrq5e2Wd2Y29M3nQMxuor4+7FC4jUbiYmPmzaDPqMMcY2Fp/JSDl/GlfNxOCyE+4gJy26p2f+HM8mSq1cH8tIP7wZ24u0LUGrFA5w8fCBn8gN7een+/EVc+gZHlRB4Q6PnCdVhcuX08WbFvnShaQhxfCEQE5DmvbpQ+6SlpauC7aKe5Cjc94h2GVxLhWuv/Wf2OL8dEDzVk31OaJlZJ47AZPPYDQVFrnKj5+M1404L3YDSvFcKnZduAMFKEABClCAAhSgAAUoQAEKUKBqCFT5nNI26SY5G1mq3ECRZG+fM+pZnXwPyYaYopyeJ6CkgL2DMjeHqSoLBecns0ndWEglE3BGk6B6+gcUaqRluKNFr94ILqIVkgiAGh6LKPwC4Ke5ck3OTahGXPQds+ebnJmJnKn4lPYlmwCuiDqX72oVwk+fxb388d0SVcnerxUGDB+KPp3bok3LINTzcYadwvRIaEDcH8yk74Aqu0D+7mxk5zxAUOX5b111cx9uiQcS4t6jObKuWWVxLpWIrIidbHB+ijzPdWqJyTq1R1LjzvUbMGRAMX5wFW5ejxTuASV4OGi7c8l43fgpBShAAQpQgAIUoAAFKEABClCg+gkwKG1Rn2chNTVLBIIctUEQycERDvr95LsxiM0QISJNbg4xSVuiIQomOWhTfhgWbR5qGwTILKouN6q4Akpf1PC30wfTRP7hkFewOKR41ZUkZ2gHzKab3i9TBJ2r96JCzO1Y6yZvlDzQ+ol5+HT6YDR0MReELiCtfbPCjL64D+S/FYi3KnIebImUP3L+teqclSJjtXgzI2cpo3PJTEtKvMrq81P0jaeHwUJGUmKSydQdukqqtdsU9U6C8QbZ4FwyXjA/pQAFKEABClCAAhSgAAUoQAEKVFsBBqUt6no17ibeFQENN22qDsnLB16aeIhmdKMqAlcjxH+0soOcHYPbd/RDHhXeIv9rbtAk+25S7ohqi47JjaqmgCOcnMxFLC1otUjjoNBGPfmUw6SWCOxmpJvKqW1yrzwrHNHimcVYNr2DPrWJDFVyJE4cPIzTl68hKj4ZaZmq3B5QtsL4eePQWn9HtbKHLamg2KY6n0tK2OlT4Giug6xMzUND80tWpslXC8zvaPW5ZL54rqUABShAAQpQgAIUoAAFKEABClRHAQalLep1tXbUpRq1dUFpzwAEiByy2vwIqkiEnhG5SlsFQh1+DhdS9QVKvgjwNYSm1IiPjslNl2DRMblR1RQQaVyyDOGzbJxfNhWzNsYUbwSnOgUx94sKwVVNvbJqlaLuaMye0l4XkJYzEbHtI7z27m84d8/EWFvnTPR7OzcoXTb1rM7nUoZIfWO4BkSubUeH3FRJJvAdnQzvt5jYgB9TgAIUoAAFKEABClCAAhSgAAUoUGYCDEpbRC2C0lev4b66PbzF4GfJvgGa1BfD9M5pRkVn4eSWbbg5ehRiNm7HNf1AacmjIRr560dKyypcD4+wLpWARfXkRhVeQJ2IuATNCFtNCg8J9pkJuBIWxnOjQnWcAjX7Poj2+hHtqqv/w8y3fsE5MwOvFT6+2ntDmS7V+VxSJ4jryPCAQIK3n4+4msLN8Cvg7eOVOymtmS25igIUoAAFKEABClCAAhSgAAUoQIHSFyjrMErpt6iUjpB18QwuZOtH5inqonVLTRBEt2Sc+ByPPzgML6y4nhNcdGjeGs3s9Vuob+LsuaJynpZSxVlsxRKQ7+PqlWj9yGgF6gQ3hXvZ5HqoWA4VujZKNGxcXx/AVCFq/16cNxOQ1jTFsWlzNM5JJyFySuf8dyk2tDqfS/JdRNxIzLmO/Bo2gJfZ68gO9RoZJhgtxT5h0RSgAAUoQAEKUIACFKAABShAAQpYJMCgtEVMImtpwhEcuGQYBm2PDgN6wz8nCJKNJJHeIzUno4Ij2vUNgY9eVxVzCPvD9PtaeDxuVtEFJDgHBKFj965oXculyNQBua3JxsWDRxCvHeQpwanjIPTNSfNS0dtcXeon0kE4O+X0aVpKWhH5il3QqX83eObcTR3gkGeS09JTq87nkmj76QvQZfCQYNeyE9q7mpG2C0bXDp7gLzwzRlxFAQpQgAIUoAAFKEABClCAAhQoQwH+jW4ptuomdvxxJicI4tR5HMY2N56jVOE/EBMGB+aMtIzcvhUnMy09ELer+AJOaDZ+ETZvX4efl/6A37ZtxncTguFkYcXTj27A5pu6hxSSW0+8+GJXeJgd5Zm3YAWUvGotlC7pZmrcS9JMbKpZRCqPxg3gYqYoZcNReG6wf27AU3KDh5vFHWqm5KJXVd9zSca9g3txXJ9XWuHREyP7+Jp8OOTS+REMrVcWw9eL7jNuQQEKUIACFKAABShAAQpQgAIUoIAm4sLFQgEVbmz8Cbv0eUwlh2A8/e+X0dmzQPDJsSEemzcD/fXDpOWUY1i++rR2TkQuVUNAETgCb87sizqOur6X7ALRa/oMDA+wMBCZeRo/Lt6NOE3UU1Ki/phP8OVzunzlJoWU7mgYMh5zlqzBO72NPwwxuS9XFFNAhcuh55GmffNBglvvyXimravRgKfSPwSzPpuGTq55+l5ygZenfTGPWcLNq/G5pI7diV/36FN4KDzQ77V/YUiNwoFnyac7Xp/9CGoWXlVCdO5GAQpQgAIUoAAFKEABClCAAhSggLUCVXqiQ5dBH2DL3BDkD+E5wD3nAzt0mL4Gf7+Uk3dD65l58CM8/K+tuJv/Y8iJu7Dwq/3oMa8nvBQSXFpNxve/BmH1ik04cv0+HGu2Rv8x4zC0mX5CLTkVp5Z8jN9uGibksra7uH9FEFDUb4pGhnzh+gpJjg3QtI6IesVmW1BFNWK3LMDcLsFY9Gh92Ct90P3V5dg6aCfWbdiNQ+evI/puFhzcveBbszHadOyKkD4haFvDWTxFSsGm1RYcgptYISDj7l+/Ykt0X4wRkUzJqSVeXLoaTX5ejnX7ziIiMRP2XrXRvPODGDthONr62kG+sxdbwztiaBc3SJIdatauId6UCC+DCSyr8bkkJ2HXN0txovcb6CgeCihrDsUnK33RbslK7Ai9gbsqV9Ru3Qdjnn0SfevZIfVeMhzd3WFn4bMjK04g7koBClCAAhSgAAUoQAEKUIACFKBAEQJVOigtObjD19cXjiYRJNi7+cDPLf8GmZ5OJoaQq3Dzt7fweqMlWPRkM7hKIq9w3Z54erb4KXgMOQPXN8zFjB8ugZk7CuJU7n+rb0fitloWIy9zo1uyKhqRMcV4+CDHYc+7z2JGxiJ8MLY53MXMeD4tBuNZzY85ngIPSsxtynVWCNw/gIXzVqLdogkIdpYguTbCwOffFT8Fy5ShSjyKr199C1vaf4NBXdrBXoSjG7ZqLu4P4bhXFv1Vjc8lVfgKvPluK/xvwRDUEQ+K7Gt0xVNzxU++bhJ9FL0TCz6NwvOfTEIDjpgueBLz3xSgAAUoQAEKUIACFKAABShAgTIXYPqO4pLLCfjn40kYP2cljkRnGJkATUZWwlms/WAyxs7dhijOb1hc4Qq/vTpyAxb9dAH3DTFoOQ2Xfv4WG6KKEZTWtDI7CjvmP4ERz3+CNceikCYC3cYXEVS7H4lTO1fgo+lP46O/+ZjDuJMtP5WRuP9jPPHkv/Fr6B1kFuoaGeq0aJz8/Qs8P/p5fHPqLiIPHMQ17fUuHlZ17Itu7mU4JLfanksq3No8C+Nf+hp7IlIL34/lLNw5vgIznp6F9UeuI5L3Y1teJCyLAhSgAAUoQAEKUIACFKAABShQYgGpcVBwoXBLiUurbjvaeaFR+45oH1QP/u72UKXEI/LKaRw9fhlxjBtW8bPh/9u7D/goij0O4L+9u/SEkEKAEFpoQoAAUgWliChKUylWRJ6igCD4sCCiz4INFaWIXXmWh0hvgiAgRUCkCoj0EloSEkgg/e7eXEm/y1243cvm7refTz7K3e7szHdm9nb/Ozvrj+g23XBzszBkHtmMNX+csc5BfL3FFoHMqMaIj78BsbWqITRAi7ysa0i/dB4nj/6Dv48kQMzowaVCBHwR0agN2rdqhFph/jCkJ+PC2WPY8+d+nMso540It+TfS9uSmHe9bqsOaNu0LqKCtchNu4Aje7aJ6XASke0Wd+6EAhSgAAUoQAEKUIACFKAABShAAWcFGJR2VorrUYACFKAABShAAQpQgAIUoAAFKEABClCAAhSggMsCnL7DZUImQAEKUIACFKAABShAAQpQgAIUoAAFKEABClCAAs4KePSLDp1F4HoUoEBxgaAu4zHj8Xjx0j5XFj2O/m8iXl+VCDVOcuFKyTx1W9a7p9Ysy0UBClCAAhSgAAUoQAEKUIACFFCXAIPS6qoP5oYCKhCQoI1shHbt2sHXpdzkwmeDn0spcGN3CrDe3anNfVGAAhSgAAUoQAEKUIACFKAABbxZgHNKe3Pts+wUsCOgqxGPW+Ii4dr8PgZcPrwVf57JsrMXfqw2Ada72mqE+aEABShAAQpQgAIUoAAFKEABCnimAIPSnlmvLBUFKEABClCAAhSgAAUoQAEKUIACFKAABShAAVUKuDYQUpVFYqYoQAEKUIACFKAABShAAQpQgAIUoAAFKEABClBArQIMSqu1ZpgvClCAAhSgAAUoQAEKUIACFKAABShAAQpQgAIeKMCgtAdWKotEAQpQgAIUoAAFKEABClCAAhSgAAUoQAEKUECtAgxKq7VmmC8KUIACFKAABShAAQpQgAIUoAAFKEABClCAAh4owKC0B1Yqi0QBClCAAhSgAAUoQAEKUIACFKAABShAAQpQQK0CDEqrtWaYLwpQgAIUoAAFKEABClCAAhSgAAUoQAEKUIACHijAoLQHViqLRAEKUIACFKAABShAAQpQgAIUoAAFKEABClBArQIMSqu1ZpgvClCAAhSgAAUoQAEKUIACFKAABShAAQpQgAIeKMCgtAdWKotEAQpQgAIUoAAFKEABClCAAhSgAAUoQAEKUECtAjq1ZkypfOlqd8MjA1oixByO1+PM+jlYuO8qjC7sUIk0XcgON6UABShAAQpQgAIUoAAFKEABClCAAhSgAAUooFoBrwpKSxFd8dLsabgv1heSuUpysT1pPha5EJRWIk3VthZmjAIUoAAFKEABClCAAhSgAAUoQAEKUIACFKCAiwLeM31HUAuMnP4OhhQEpF2UM22uRJoyZItJUIACFKAABShAAQpQgAIUoAAFKEABClCAAhRQq4B3BKV1dTHwnel4qlUIZCuwEmmqtZUwXxSgAAUoQAEKUIACFKAABShAAQpQgAIUoAAFZBKQLUYrU37kT0aKQLdJs/BK9yhoxZwdxrxc5LkygbQph0qkKX/JmSIFKEABClCAAhSgAAUoQAEKUIACFKAABShAAdUJeHhQOggtn5yO9wbVh68pIK2/iLVTZmJDjiv1oESaruSH21KAAhSgAAUoQAEKUIACFKAABShAAQpQgAIUqDwCHhyU1qHuvW9j1qh4hJhKaUjHno+fxnOLTyPvuutHiTSvOzPckAIUoAAFKEABClCAAhSgAAUoQAEKUIACFKBApRPw3KC0VAUNWjdGhMY0RDoHJxa8gKc+/QsZrkzdoUSala7JMMMUoAAFKEABClCAAhSgAAUoQAEKUIACFKAABa5fwHOD0sYUrJvyb8zcl47kjW9h5BsbkGy4fijzlkqk6WKWuDmUwkTGAAAgAElEQVQFKEABClCAAhSgAAUoQAEKUIACFKAABShAgcokoKtMmS13XjP349Mxg7Es8wzO5JZ7a9sbKJGm7T3xUwpQgAIUoAAFKEABClCAAhSgAAUoQAEKUIACHifg2UFpUV365NM4I3O1KZGmzFlkchSgAAUoQAEKUIACFKAABShAAQpQgAIUoAAFVCngudN3qJKbmaIABShAAQpQgAIUoAAFKEABClCAAhSgAAUo4N0CDEp7d/2z9BSgAAUoQAEKUIACFKAABShAAQpQgAIUoAAF3CrAoLRbubkzClCAAhSgAAUoQAEKUIACFKAABShAAQpQgALeLcCgtHfXP0tPAQpQgAIUoAAFKEABClCAAhSgAAUoQAEKUMCtAgxKu5WbO6MABShAAQpQgAIUoAAFKEABClCAAhSgAAUo4N0CDEp7d/2z9BSgAAUoQAEKUIACFKAABShAAQpQgAIUoAAF3CrAoLRbubkzClCAAhSgAAUoQAEKUIACFKAABShAAQpQgALeLcCgtHfXP0tPAQpQgAIUoAAFKEABClCAAhSgAAUoQAEKUMCtAgxKu5WbO6MABShAAQpQgAIUoAAFKEABClCAAhSgAAUo4N0CDEp7d/2z9BSgAAUoQAEKUIACFKAABShAAQpQgAIUoAAF3CrAoLRbubkzClCAAhSgAAUoQAEKUIACFKAABShAAQpQgALeLcCgtHfXP0tPAQpQgAIUoAAFKEABClCAAhSgAAUoQAEKUMCtAlKDxk2Mbt2jG3cW2OtNrJjcBb7F9umLkPAQ+EmmD43IvZqKK9nFCXK2vo0Bz6/EFRsySqTpRhLuigIUoAAFKEABClCAAhSgAAUoQAEKUIACFKBAhQroKnTvCu9c8g1BREQE/OzuR4JPcDgig4uvkBPqD3tDyJVI0272+AUFKEABClCAAhSgAAUoQAEKUIACFKAABShAAQ8TsBd79bBisjgUoAAFKEABClCAAhSgAAUoQAEKUIACFKAABSigBgGPnr5DDcDMAwUoQAEKUIACFKAABShAAQpQgAIUoAAFKEABChQKcKQ0WwMFKEABClCAAhSgAAUoQAEKUIACFKAABShAAQq4TYBBabdRc0cUoAAFKEABClCAAhSgAAUoQAEKUIACFKAABSjAoDTbAAUoQAEKUIACFKAABShAAQpQgAIUoAAFKEABCrhNgEFpt1FzRxSgAAUoQAEKUIACFKAABShAAQpQgAIUoAAFKMCgNNsABShAAQpQgAIUoAAFKEABClCAAhSgAAUoQAEKuE2AQWm3UXNHFKAABShAAQpQgAIUoAAFKEABClCAAhSgAAUowKA02wAFKEABClCAAhSgAAUoQAEKUIACFKAABShAAQq4TYBBabdRc0cUoAAFKEABClCAAhSgAAUoQAEKUIACFKAABSjAoDTbAAUoQAEKUIACFKAABShAAQpQgAIUoAAFKEABCrhNgEFpt1FzRxSgAAUoQAEKUIACFKAABShAAQpQgAIUoAAFKMCgNNsABShAAQpQgAIUoAAFKEABClCAAhSgAAUoQAEKuE2AQWm3UXNHFKAABShAAQpQgAIUoAAFKEABClCAAhSgAAUowKA02wAFKEABClCAAhSgAAUoQAEKUIACFKAABShAAQq4TYBBabdRc0cUoAAFKEABClCAAhSgAAUoQAEKUIACFKAABSigIwEFKKAGAQ2ibhmBUT2j4SMZkZe4CZ/NWouzBjXkrWgeKks+1ebG/FDAjoBPOJp0vBmdWjZETGQI/LUaSJJl3dxDC/H293uQZWfT4h9Xlr5ZWfLpFDpXooBLAtpmgzH5vubidx/Qn12LGZ9tRJLqfvddKmIl2ZjHpUpSUcwmBShAAQpQgAIeJuB1QWld7W54ZEBLhJjHiOtxZv0cLNx3FUYnK1byr464Tl3RrXM7tIq7AQ1iIlA1yA+GrDSkXjyFv/ftwtb1K7F801Gk6Z1MlKtRABrUvukeDB5YC1qhYbgErPlEnUFppfLpU6052kadw/YDKeA1ObuE5wtIqBI/FG++MwY96wTAGocuVuzs9TvxQTmC0kr1TXnrorIc6+QtNVOjgC0BbUwH3H3vHfAXB4C8AwmY87kISttakZ8pLMDjksLAqk6e55+qrh5mjgIUoAAFPFzAq4LSUkRXvDR7Gu6L9bUGAHKxPWk+FjkRlJZCmuGe0U/hsbu7oH6ItnQAwd8fwVWjULtJO/Qa+BjGH16G9ya9jXkH050OeHt4W2PxKGBDQATmGvfCg48Oxf13NEfa1/ejvwhKc6GApwtoogfgnVkT0COcs2h5el2zfBSgAAUooDYBnn+qrUaYHwpQgAIU8E4B7wlKB7XAyOnvYEhBQLp8Fa6J7oFhD3ZFrGkYa9HFqEdOZib0voHw14nHrk3fSVpUaTIA//k6FtWffBwzdjs/Ert8ueLaniVQdLy+UcU3M+TMpw/aPPIKnu4fKvqOHmmeVaEsDQXsCPgg/qEn0NUckDZCf2Ejpr/2ERbtPIVLGbmFfd9oEL2iPIucfbM8+y3vupUln+UtF9enAAUqrwCPS5W37q4n5zz/vB41bkMBClCAAhSQW8A7gtK6uhj4znQ81SpETJLg4iKCBNcSduDnJSux7vcd2H0oASlZImygCUD1Zl1w92NP48nb6iNARKc1IS3w5NvjsXPgG9iS7uwEIS7mj5tXUgE9Ds1/Ey8dqQatmFPakLIff+WpsSiVJZ9qtGOeKGAV0Mbi5puizVP1wJiB3z56CZ9uSHHxRlRl6ZuVJZ9srRSggPcI8LjkPXXNklKAAhSgAAUooCYBzw9KSxHoNmkWXukeJYJ94vo/Lxd6rQ90tibwLLNm9Ljyz0pMm/UxvvvtBK6WnPTWkImL+9fgk/HbsWvCHHwxrDH8xNuqtDEDMOrub7D1v2c4T26Zvt7+pRHXjv6GhUfV7lBZ8ql2R+bPqwV0MahTy3qL1JCAA4euuBiQNmlWlr5ZWfLp1S2UhaeAlwnwuORlFc7iUoACFKAABSigEgGXBw6rpBx2shGElk9Ox3uD6sPXFJDWX8TaKTOxIcfO6mV8rD/2JYYPfhafrLcRkC66nTENf8z+EMuTrVFryQ/xPW5GdQ+XLoOOX1GAAhSgQFEBnwAE5t8ZNWZBzADFhQIUoAAFKEABClCAAhSgAAUo4FUCHjxSWoe6976NWaPiEWIKCBvSsefjp/Hc4pp464XrqOO8HDgdy766E1v35uCenv5inlwJmjqxqC3ycL7k6OrryAY38RwBTVA1xEQElH5ppiiiUX8ViWdTkOV0cSUERNRCtSAxr7kxF1cunsdlc4OVEFirDbp2bYe4utUQrMtF2oWj2L1xHTb9kwJnZgiRL59aBEdFI8K/6GMKPqgWXHjHxje0OurUuWrjqQIxpcm1ZCRcypRhRKnTqNYVJfhHNkJ8qzjc0LAOosJCEKTNxbW0FJw/fgj7du/GgbNXyzH3rw5VqtdEmJ/pTlkGks4mIyP/2OAbibjOXdGpRSxqVvWDISMFZ4/uw++/bcPh1LJqS4k0Le3H5bL7hKJmjVDzjUEYs5F6/iLSyipKQfWINh0u2rRoH+ZNMy8hIemajbZR3vp08/q6ENSoGSaenCmy38BIBBb82xdh0bVR10bJDBnJOJucYeMbS1ry9U1LXav/GOKOumN/d+lY5+39vWQT9a2GuC5dcVPLBogO9UFeWiKO7duCtZsOINmZk0rFPJU7Z7AQyNCPxLGzujh2+ospzbJTz+NCuoRqLW9D3+4tEBOci/N/rcOSn/cgMde0Rx0i4nqiT4+WqFtVwuXjO7Bq2QYcTrN/4i3v8bNkxecfo2MQ36EtWjSuh+jwEPhrcnDtSjLOHP4Lf/6xC0fL/F23nab6P9UhrHEndO8cj0bRYQhAJi6dPoht69fjzwTLOZw2MAxhgWICKzElYnZ6CtId9gXRXmu0QKeb2iAutiYign1gyLyCi6ePYM/2Lfjz+BUH52CV9fxT/bXNHFKAAhSgAAVcFfDcoLRUBQ1aN0aExhT4ycGJBS/gqU//QoaupqtmTmyfjctXMkTwzBSUFmFBnRY+RQMSTqTAVTxdQELVO97Aite7wNdGUQ2X5uPxHq9gs/liy5nFB52eW4CP+wZDMlzCjyNuxct/1sQdz76Fl4fEI6LEfDXGp5/D0WVvY/yrC3GkzMi3jPmUquKuKUvxWmdbJTaVUYu698/EqvttldeIzJXj0H7CWudvDtlKphyfSeEt0H/I3ejVXQSJm1ZHoGn+H1uLGOl6YdcyfPbBdMzdneLgwshUzDp4YOYijI8Th9+cbfhPr8fwv0Qf1O45BlNefAjta/iWulFhzErAxo+ewdg5B2zfqJA5TVnL7hOPMd/Nwr3VxM0H41Wse7E3Ri1xYv5k7Q0Y8fWPGNXIdOGahwMz7sWgT1Q/v02pFqKtMwQzF49HC3u/trqmePyrFXi81JZA9voX0WX0EjsvAJWxb5r3XQmOITaM5PpI1jZfNFMy901z0jKnKWvZvby/F1a9L2J6PIUpLz2MDqWO6WMxMWEjZr/0EuY4asCKeSrT3+VsS9rogZi+fAJa6fQ4/8NYTEgchplj2yLMdF5vWoyPYnj/qRg2ehEChs7AbPFdeP53eBgjhq3E80NfwAqbI0LkPn4Wr0hNWAsMHP0MRt7TFjX9rS9BL1HXxtwU/L1uHj6f/Q1+PpxeATfcHTW+8n+vCb8Rw195DaN71ity49WSzuhnk/HnnJcx4cPf0eC5JfhicAQ0xmtYNrYLJvxqPyqtjWqPR5+fiCd6NUIVW+dh4hzs3La5eE88CbviuJ3HjirZ+Wf55bkFBShAAQpQoPIKeO6kEsYUrJvyb8zcl47kjW9h5BsbkD+jhuLVJQUgPDywILBkuHgBF+0P1lA8O9yBlwloghFVvT76vvU1PnigVamAtElD0gShUb//4NOXuiHMTqzVy9RKFVd3w714dvQQ3Nq8hv2AtBnTHzVuHITJ3/yIDweKqYJKpVTGB5qqCBMjouve8x5+mPaojeCFZVvJP0aMEGpifoGqw0WGNGUte8Y2zF951hKsl4LQqX8v1HDil8cnvi/6xJpfBSgGWO/GomXHHQf8HeJwBacEvPAYImubt4csQ98slbQMacpadvZ3UUU+qHevOKZ/NBwdSwWkTTUoRhHHdMW4WTMxoplfqSot9oE7PGXs77K2pQIILaJ6vYwPxxQJSJsZNQjv+DTeePMNvPtU0YC0xdin1h147omOYqSue5fApg9h1vxv8doD7RFtJyBtzqFPOJrd/gT+80gb0WIq/yKF34yXvvkME24rHZA2l1cXiXbDp+GLCT3QONq5F8/71Lsb034QafZubDsgbU7YH9GdhuG9H77A0zeGlLqpX/llWQIKUIACFKCAZwvYG7vlGaXO3I9PxwzGsswzOOP0iFMZih54I26Kzx/tqMfFXX/ilF6GdJmEBwkYkf77bDw9Zh7y43Pauv3w0vieiLLE4Vwoqw5Nhr6DNo2qQ39hK77/ai5W7zwuHhX2R81m3XD/yOHoVV9MGyJpEd1vHIb+sBkfHbQ3n4KM+RTzrW+a8TSe/L5oZFWH5kPfwuiOQeJCQo9zP0/FG8tO25yuIO/iAaemG3EBzuamxuxkHPx9Ldb/vht7Dx4V0ymkIk0MxvEPj0bj1t1xz8P3oUdsEDQ+0bht0nsYeeh+fLTf/qifYjuRQhHV6kFMebaHud6zL+zB2tXrsePQWVwSc3r4h8WgSesu6HVbW9SwmTsbH8qYpjxlz8HexUtx5KHRuEGMcvJv0w931f4JX5R5UPRH+353oJa5L4gXUG1dhJ/PVc47e4YLq/HWU0dQpWgg3r89Rr4zDPGmSIT+BBa89j7WJJUunz75EK7ZqGLLRzL2zVL7UOkxpFQ+5f9AnjZvJ18y9s2CPciYpjxl9+7+bqoX32aP4f1JPVDdPKpTPOVzfA0++/h7rNlzCpcNwagV1xX3jXoS/Zu2xOPDcsXEE2Ut7vCUs79byiJPWyp00UZEImvFK7jn3Z9xUopFn4kf4JXba4kXmPuj5R09xbnOOkyZMAULD+Ugusd4TJ9yN+r7iGB2t55o5fM7tpa6BlDm+KmNuRvvf/Y8ekRYDvhGfSoOrvoRc1duxp6j55AiftdN05TFxnVAr4EPYEDb6mVVfuX5ThOFPi9Pwf0NLU+IGsWUiX8v/QyfzP8N+xPSgdC6aHP7Ixg7vBsaPvQqRmWW3erNBQ9ohTHTJqNXtI9lCi/9Jez66TN8tfR3HDyfAZ+IBmjXeyhGPdwZtcT8YJoqrfDk+6/gyODnsDKxxO9pJT3/rDwNgDmlAAUoQAEKXL+AE2cF15+4GrbUJ5/GGbdmRIOad92PnmHWE9K841iyZC9KnQ+7NU/cmRoFcs/vwbrzhTnTtojHM7JkVASbmzRCzrG5GDXsTWy6VHhyfvL4QWz/4xQ+nP82bo8Uj5TqYnHXnXGYdXCv3YCvfPnMxbl9G3GuWBl9YbytMCB+7dRObNhwUBUjYo3pR7Fq1njM++FX/HPFxl2l5ItiXsjd+HXpaoz68huMbSWejvBrjAeGdcXXE9bYmXKhRAVrInHbqEfF3IqZOPTjZIx9dxVOlXz6dN6X+GBqPAZ290Wu0YkGIkOacpddf2QpFu55DBNv9IPk2xz9+jTE17P+sV/PwZ3Qv2c1MaGLWAypWL9oHZKdKbsTPO5exZhxBjs3lvgVCqmCwfndUlwsH9u+EetP22hjDjIrX98suSO1HkNK5lO+f8vd5m3mTIa+WSpdGdKUu+ze3N+hqYEB44YhzvzuBCNyj8/FUw9PwebU/ANYEpIunMDebbtw7ssvMapl4VN1perW+oHynvL1d7nbUr6JMW8XvvlgEQ6YH3ncj/kz5mFQT+u0SOI9Gnv/+w6+23XBfEP78MrZ+GFIX0y60Qea8CZoVlODradL3/ST/fipica9Lz+P7vkB6av78fUzT+G9zUnFf+suJeHc8f3YvOx7fHnbGExqpa/0U3f4txmOsbeK6ThMFWZIw44PHsWIrw6J2aStS2Iizh4R79s58Cr+N/1u1Al29NiXFvXum4BHGotzBpGE6UX1qycNxb+XJhSeq4qnUE8d3Ir1f0zCdzOGINYUmI7qhX+P+Anr39heuG9zFirX+Wc+G/9LAQpQgAIU8AYBJx6i9gYG+coohffAM092hOV8y4BLv3yC7/+2NwpVvv0yJQoUE9CfxU9vfFAsIJ3/vSFxNb5cctp6kSQuRlu2QBSPBKUaUN5f3+H12b/YDkgXXTvzAL7+dDUssX8NqnTogpbOPosr+SAyqgoSl0/Ev163EZC27kefshc/LtiBq6VyaeMDGdKUveyGs1ixcBsyzHEZLRr26VeGkZjr85Z+6G69sadP/AULN4uRVlzcK+BlxxDZ27yt2pKhb5ZKVoY0ZS+7F/d3bb2+GGJ+8kcshhSsnPYRthQEpAtrz3htHz59ey5OOnMvyh2eMvV32duSlcyQ9A/+KTIHn/7sERy9Zg30G5Kwf78lIG1eXfz7+Il0yxNXUg1EOzNfVKmOVf4PfFsPxYhO1ukjRN2ve/NpTC0ZkC6WbBZOrZmKkR9sreQDV4LRZXAfxFifbMo+8BVem1MkIF1QZgOSN0zD9HXWuimLWBeHQYNaipdcmisUqWvfw2vLigSki6R5adP7eHW+dYowcX5Rq88QdKviKOhd1s75HQUoQAEKUIAC7hRgKEpObW0M7nltMvrUMJ2ZGcXjhKvw+ru/VNoRfnLSMC33CuhPrsSCPzPs7DQP/+zZbw0QApro2qjFI4EdK+c+zjqwF/9Y7z1pQqJRK9T5CyJjxnZ8Mk2MBC49kMu5ndtYS4k0bezG/JFzZTfi0tqFWHfZUkhtTG/0b+tvO0kpEj37d0GImVCPU8sX448yX8ZpOxl+6poAjyH2/Zxr87a3V6JvKpGm7dyzv9tzsXwunpTrcguaWF8sbLi0Hsu22H+BXfZfy7D8qDNRaeWPnxXR38vTj4ypKSgW2xfTYlyy/p7AmIrklKKP0hiQdvmKZfSxmHM9oqo7Hgr1Q7u+t1unnBK/XMfmYebyIoHyMhqOXu9MGygjgYr+yi8e3TqFWkZJixfL71q0FMfsFUm872f98k1Ic3C+o23YFbfUts5lp0/C6h9/xSW7T0tlYMePiwrOwaTgDugunsriQgEKUIACFKBA5RBgKEquepKC0WbMB5jcPdJ8YmbMPopvJ76G1SXnNZNrf0yHAnYFxBy8Ikhq96JAbJeXkoxU60WBJiQEITwS2NUs9YXGF4FVwhEp5riMjLT8RYjrn5z8CyZNCKo4DWpE1vblWC3rm1CVSNOq4ELZjembsfCXRMsIfW013D6gM4JL4ZpukvRC//ZiznPxnTH3kJj+6KDdqWVsbM6PZBHgMaSA0YU2X7oqlOibSqTJ/l667pz5xBdNmzeyzhFtRM6BXdiXXcZ2Yj75nbsv2XyHQsmtlD1+uqG/u9iPjFkZyCwWlMzENcujN+KHIhOZWcUjlpmZWZagtCTBL8DZR5dKqpfj39pG6NjWOn2F+JU7/uvagiBpOVKplKtq67RAXKj1JFK06R27ksts0xn7duOQvaC1WUBClWZxqGtN0pixE1v2ltWRTK9m2IZt56yJinOwZs3rWab/qpSizDQFKEABClDAuwTcMXzAC0R1qDtgCj78VzMEiEiKUdzVX//WeLy33f4IGS9AYRErTMCAlKRLZT4OaszJQcGr+LQ+PHkvo658IpujZ9870a19PFrGNUad8ADoNGWNhPaBr9PXwOLidd9+pNkdAVRGxux+JV+a8pY9C38sXIFTA/+FWK0GYd1MU3Ssw7Jiw9+0qNu7L1qLuSFNT5tk71qEpSfKvHq1q8AvXBHw3mOIvG2+ZB3I1zcLU5YvTXnL7oX9XczvHRNtedGbacqBpJOnkT/DRMmWYPm3HmdOJogQZlTBC49tr2f6VElP+fu7vG1JFF+fV+IdBHnIK/hp0Bf5f4ugQZ8/FFcSv8fWF+XZx3X9m8BYNIzOj6JexYG/jpfIr+u7UGsK2pg61qk7xK92XgJOJZT9m21IOYXTYqh0R+vc26XLpUF0nWhYHziAPuEYTjp6d7T+JI6aXp5cxzS6WjyxUDtanNce8po6KG3ITyhAAQpQgAKVR4BBaZfrSoOoHpPx6Su3Wt60Lt44vWf2WEz46USZQUGXd8sEKFCGQFZW2aNKytiUX+ULSFXQ4sGXMXXcHagfWFYQugSZpEGZMetiq+tx8bx19LBs8jKkqVDZ8w4uxuK/h2J8cxEkCO6MAbdFYcW8i4WjqrQN0bdPM/iYY9JXsWXRapx38JivbGxMqJiA1x1DFGrzxZuVDH2zVDuVIU2Fyu51/V04hlbJf+zIiMuplx28wM5gXsfZQ5ySnrL1d4Xakgmy+L1bIwz5cEYjjOKv6GIo+FKEKDXKPwqmDY9ERH4UVcxpfe6it7xLRkJg1TDr3M+ijrLSke7oze6GK0i5IuorotTBzPqBBqFVQy3zsotPDFdSccVRJzFmIPVytmgjvmI7cSMitCqCxHlEwRNs9nbFzylAAQpQgAIUqHABBqVdqgIJoR3G45N370V908g+YzaOznsOo2fvczA6xqWdcmMKUEBxAT80+9csfDWuDSwxBjFHfHoCdm3djn2HT+DcpXRk5ugLL5K1zfHAy/ejhfWI6nQIW1xIZ8t9A8HlNBUsuxjNtGzRToyM6yieKvFH+353IGb+HJy2XnD6tOiLPg0s80gaUtdjwboUB0EdxRsCd+AVAgq2+aJ+LvdNG5XhcpoKlt3r+rsWOus0uKYQam5OrsPjV25OOYKXqvdUsC3ZaPqq+sjXV4RDrYu4Fsj2onEBWl2RS0kxP3bZ46RNRmIdB81eV9iRRGRZeDqsbDFdTpalv5nPv3Q+1ml0HG7IFShAAQpQgAIUqGABBqVdqIDA5v/CrI+GIc40itKYh7M/T8YTUzaW8TIOF3bGTSlAAbcJaGoPwsRRrS0BafHinlOr3sb4V3/CAXtv5wnIQY9JhUFpt2VUgR0pW3YDzq9ahM3jOuA28SZD35b9RBD6O3x8xHQZ64+2/XpbHwPW48LqxdhyVYECMkkKlBBQts2rm1vZsntbf89GZnb+iF0xl7GfadRm2Yuff0Eos+wVzd+q21PZtuQET0WuIqLQBYFTKQCBARWZGXfu24jMjAwYTM1eNHbJP6Bg1LTdXIgb0gEOfHJzC6PWkp8lTdPgavuLae7wIv0tN4dPq9rH4jcUoAAFKEABVQko/0ybqoorX2Z86t2LqTPHoq1pGKVRPD67YQoen7QCDqZSky8DTIkCFFBIQMxH2P12tPa3hBP0x/6LCS/+aD8gLXKhCY9AmEccTZUvu9E0Anqt9eVeukbo1y/OMqIpqCP6i+k8zAMN9afMI6qzFKphJkuBQgHl27x6tZUvu1f1d0MKklMK5zIOiwx3EJQWc+uHVy3XOx3U66l8W1JvPxI/WSkXkZRnjZpqqqFWzfLcbFBzyRznLSfxIvKbveQbhZp254q2pqWLRPUyT5gMuJJ6peApA01YBMId3d2RQhAZlh+UFk+gXbmM/PdgOi4B16AABShAAQpQoCIFPCKM4m5AbY1eeP2Tybg1SgtJBKQvrH8Dw/89D8ccP1/m7qxyf5VJwGgofOxRqy3XhapbiylrPksMfXF04eGWgmpRv0Fdq78e57ZswEEHfduvUVNYZ50QORRzShc8wu2WDMu4E3eU/Rp+X/Qzzpmf8dWizp390NZPTIV0cz/0MF+oisfe/14i5p528HyvjKX2mKRk7ZsKqqgqn+5o8wpaupS0O8ruRf3deAWnTqda54jWILJ+PVQt8zdNhzqxdZx4yWHRSlarpzvakkuN3fHGrhyXMo/jSP48VFIgWrRq4jXTR+iPH8bx/IC8tgGaNio7IK+t2xgNTG+Ftzo22d0AAA6xSURBVLsYcPb0WeTmx/hjGiLWwchqaOujYf38Ey/L9o6nEVHj+addFH5BAQpQgAIU8FgBBqXLWbWaiC548ZO3MKCOeFGXKSC97jU8KgLSRzmkr5ySlX11CQFRjdH2po5oER3oYDSUk2VNT8NV6zmyFBCOiPK8XM/JXciymsz5zM0tnHfT399PHkuXCmp6DNS/IB+Z1zIdzAsaiHa3dkJowdFUzC1pmmO+Ui7uKXv27sVYcsxyyait3gsDOtdBz/5drNOlZGPnohU46fiK0o3CCvR3JXIvc99UIovmNFWVT/e0ecUsXUrYPWX3nv6eh0P7/oZlBg8Jurh2aB1URgXpmqBjm9ByBqUBdXq6py2Voen6V64cl/THsHVH/kuLtYjp2Vs8beV6ltyXwvX/xhkv78aOo9YfbE0oOvdoA/sxZC1qd74ZDcq8+jTi6oF9OGFNUvK/EV3a2k/RZKRt0hk3VbcGpcWLFA/sO+XE3NaA+s4/3Vfj3BMFKEABClBALQJlnhaoJZNqyYcU2g7jZ3+ABxuLgJUISCdtfBOPTZiP4w5GUaol/8yHXAL+uOGB6Vi+eiG+/+JL/LRqOT59qImYEde1RX/xOE5cszz6K/m0QPs2ga4lqNDW8ubTgEvJ+S+z06Bag1iEVng814C0y1cKRrvVbFAPZdWEtv5APH5HtcLAghSMKsEVXojrrH03lV1/GEsW70OO6SaMJhw9H38VD3W03NwxXtuKRasvWP2vsxiybqZMf5c1i9bE5O2bSuTQkqa68ummNq8cpwspu6nsXtPfjUjbugE7rfNKa6rcjP7dIuzeaA1sfzfurHMdj9Wo0tNNbcmF1u5oU9eOS7nYtXQlTlkDqdqYezD+gUaFLz8sY+e+Yu7xil1c/I0TL+D85Ze/rSObtajeZwQG1bXdrqWQDnj0vjj4ODhF0h/fiA35d6Y1Yej1QB9E27tiFVN33PJAf+QPlDZc3oJfdztzYabG88+KbQncOwUoQAEKUKAiBOz9xFdEXtS9z4A4jJg5HY81DxIXGAakbp+GJ56ZiyPOnPeou2TMXTkFNNX74bkJ3REjphwwLZKuOm4Z9wz6Rjk4y3a0n+w92PzHNcuoXHES3vupJ8Sc5S6m6Wif1/O9rPnU49TBf5BujsWLkVbthmBofLDdi/jryW75t9Hj8N6DyDSPWpcQ3HU4/hVv6velF221Lnjh/bFoF1TkW/HobtVQn9IrV4pP3FV2A06vXIRtZmQJIfHt0Mzcnwy4vGExfk0p8VhtBdop1t+VKJOsfVOJDFrTVFU+3dXmFfS87qTdVXbv6e+GxDWYt846hYemCnqMfx69a5QO0EnhN+HfE+9GzdJfOVGbavR0V1tygud6V3HxuJS3/1t8vC7FckNVnAe0GTsdbw6ItT9qWBOCxgNexZcTOjoVvL7eYjnazvXfOD1OLJiDtanWQRWBbfHMhxPRs1bxYLsU1Bj3vfk6BtVyotHrD2HBjzut80KL87CbxuGNhxvbsNQhuvdkTO5nfR+FGDB0cvFcbHbqJclqPP90VFv8ngIUoAAFKOB5AjrPK1JhiQJ7vYkVk7uUONnzRUjBeZIObcbNx6aRxQMgOVvfxoDnV6Lom56De4zAyDZVLKMhjUb4N3sUn/3yqHN8uQcwa+ho/JCQ/wIc5zbjWuoU0NRthNgSwzwkv3poFCNOtBNdmAfXeBlr5yzAie6PIFYnwb/pcHy9pB3Wb9yHc1fzCqaQyDuyHNMXi1EpFcUjcz4zty/HL4l3YrC4cJf84vDEV4vR7tdfsf3IeVzJMljLbUTeiQ2Yu+mMU49kukZjxJXf5mHFhe4YIiIGkn8cnvxiLhp+PwcLN+7HqdQc+FSthabtb8d9D/VFfIQOxqQNWHm8Le7sIALqkg41a9UQsyUfd0NeXStp6a3dV3Zj0hos+O0ZdOldtXCUuT4RqxZtRnrpjFXYJ4r1dyVKJHPfVCKL5jRVlU/3tXnFPK87YfeV3Wv6u6ltf/wFdnV9Fm3FzUptzTvx7g8RaPX5D/hl72lc0QehVotuGPLYw+heR4eMtHT4hYRA/OSXa1Gfp/vaUrmgyrOyq8clYxJWTHkdt8RNRd9oHSTfOug75Se07rsE81Zsxp4jZ5GSrUFQ1SjUa94BPe7qh543VMXVxevKk0vZ15XjN86Y8gumvn8X2r3eHZEaMRVIk/swY8nN2LlhE/acvgIprAHad78FLaJ8kXdyE7biJnSpV1Zw2oAz86fi8/7/xdjmAZA0VdH52W/xU+vv8M3iLfj7fAZ04bFo1/tBDL87HhFaUwcyQp+wCG9/sRfOjhdS3/mn7NXLBClAAQpQgAKqF/DooLTkG4KIiAj42a0GCT7B4YgMLr5CTqh/iTn+JPj6+8N8zmNaJC0CqkTYuGNvZ0d5oQgQJ2lcPEPAcD4B5w1GMcKpsE6N+gtIuOj6TYfMXbPw7IdN8fkz7REu2oxv9Za4fVDLYnDZvx7E7IoMSovcyJrPa1vw0WvzceMHg9HAXxJB4Jq48a6HcGOxUhuRufI8fnJLUFrs+OrvmPbyD2g1/SE0ES/kkYJicduIV8VfyTYsLoJSd2Dm0y9iReuP0atDK/iIcHT95k0RJB1HmnoG/JbMuP1/u6vsxjT8tnANknoNQv5UkPrza7B8p7om6Feyv9uvhOv/Rta+ef3ZcLilqvLprjbvUKUCVnBX2b2ov+uPf4fnXm2O/07pjRhxA9unRkc8Mln8Fate8dtxYQ2mTD2HEe8OQ5nxOVvNQo2e7mpLtjxk+szV45Ih8RdMejwAhhmT0V+8nU+S/BHTaQieEX+2l4o/SZDnN06Ps4snYnTkNMwa2xGR4vxYExiDdnfej3ZFCm64vAMfTZwNv1c6oUv+5/YIsg/i03GTEPPZm7gnVkybqAlGo15PYor4K72I/nRxI94a+xZ+u2wvwdJbQY3nnzayyY8oQAEKUIACnizA6Ts8uXZZNkUEDAmLMf3bv3E1PwZtzMQ/38/G4nOuB6WBDOz/ahQGj/oIS3YlIF1fjpNrRUprL1E582lE8obXMXjweEybvwkHzqUhRwT9K3YxInXLO3jw4f9g3t4ky9zHxTJkhCHzAnYv/RAjBo3Ax3uuIOH3rdYX84hRQm27o1NIZb0R5b6yZ+5YgTWJ+W80FI8Ar1yG3TkVW/Ml965sfy+5Nzn+LWfflCM/9tJQUz7d1+btaVTc5+4ru/f0dxGgW/4CHhg5E+tOZZR+Ua4xF0k7v8Mzj76ARX+cRMJ1vtRVfZ7ua0vK9RfXj0s5J5bghcGDMHbWzzhwKad0/ZszL57+SjuBzf97E2NmbENF/uzJ9htnTMeez59A/0em4LtNR8So8MIn3fTXzmH38ukYNeQJfL4/SwTrredHoi/k5Nk/39OfW42XHngYk77fjrOZ+ekVr31j7iXsX/Y+hg8Zi2//Ke9NbTWefyrXupkyBShAAQpQQI0CUoPGTeyfDagxx8wTBVQh4I/oNt1wc7MwZB7ZjDV/nLHOQSxv5rR+IQgLD0Wgj6ZgTmNDRjISkm1c6Mq763KlJnc+JV0AgoP8oBWjxS2XLkYYc67h8rWKmLTEFxGN2qB9q0aoFeYPQ3oyLpw9hj1/7se5DDluRJSL2s0rK1t2Te2h+Hbpc2hrmk867xCmDxyMWYevM0KjqIx7+rsSRZC7byqRR1Oa6smnsm1eKT950lW27F7Z37UhqNuqA9o2rYuoYC1y0y7gyJ5t2HYw0ekpBuzVrbo9lW1L9kzk/tzl45Ko/9rNWqJ543qoGR4MfykHVy8n4fSRA9h74ATEbGAqWRT4jdMFiadVQ8XTqhlITb6MzPyfdl1bTFr1FYZGi+k7xEsSv3iwH6buc/y7rwmqheY3xqNpvZoID/KBIesKEs8cwb6de3EsVb5zQ3Wdf6qkeTAbFKAABShAAQUFGJRWEJdJU4ACFKCAPQEdmo35CT892VjMp2pEzq6p6DN0Dk55epzfHgc/p4BHC7C/y1u99JTXk6m5S0CKHIQv176Czr4SjFm/4cVbR2NhKsdHucuf+6EABShAAQqoTYDTd6itRpgfClCAAl4gIFXthuGDGlpe8GW8hi0LVuA0A9JeUPMsojcKsL/LW+v0lNeTqblLQEJEl26IN78sXExh8vcf+LPoW+XdlQ3uhwIUoAAFKEAB1Qh49IsOVaPMjFCAAooIBHUZjxmPx4uXC7qy6HH0fxPx+qpEMCbqimM5tpWqoNPocegdYbkvqr/4M75bnWxn7s1ypMtVPVqA/b2SVi/7u7wVR095PZmaLAKamq3QJfwMth64BHuTaWjCb8G4kTeLF0GLXYr3sWxfsgoJPPGSxZ+JUIACFKAABSqrAIPSlbXmmG8KeL2ABG1kI7Rr1w6+LlnkwmeDn0spcGMHAlIIGnXujMZVNNAEROKGroNwf4/6BaOkd371FbZmOEiDX3u5APt7pWkA7O/yVhU95fVkaooIaOv0wRtf3APtoU1YuWodtuzYi4MnLyJFvAvEJ7QWbujQG8PHPI7bamvFu0KMyD78HaYvvcDBAIrUBhOlAAUoQAEKVB4BBqUrT10xpxSgQDEBIzK2fYqnxyyAa/MQGXD5cBIvjJRsXZpauPPZdzGqkXixUdHFqEfyxvfw8tzTcPyaIyUzyLTVL8D+rv46suaQ/V3eqqKnvJ5MTTkByQ+RcT0x1PRndy9G6BM34q0Js7E3y+5K/IICFKAABShAAS8RYFDaSyqaxaSAJwrkXdiLdRc8sWSeXiYjDJlnsXXuNLw2YxVO5nl6eVk+OQTY3+VQrIg02N/lVaenvJ5MTQ4BQ9IhbNt7Gt2b10YV85zRpRdjbgoOrv4G770/B79f5A9/aSF+QgEKUIACFPA+AalB4yZ85bH31TtLTAEKUMB9AlIQ6raOR51AjXhoV4+ctEScOHwCSVmcTNJ9lcA9UcBNAuzv8kLTU15PpqaogCagOho1vwH1qkcisloEwgK1yMu4jAunDmPfrr04fpnBaEUrgIlTgAIUoAAFKpnA/wExr62VYzD45wAAAABJRU5ErkJggg==;" vertex="1" parent="1">
          <mxGeometry x="-160" y="175" width="1445" height="630" as="geometry" />
        </mxCell>
        <mxCell id="1d8bsyRUThCjwzLBU1c--2" value="" style="rounded=0;whiteSpace=wrap;html=1;fillColor=none;strokeColor=#b85450;strokeWidth=3;" vertex="1" parent="1">
          <mxGeometry x="-120" y="386" width="1170" height="38" as="geometry" />
        </mxCell>
        <mxCell id="1d8bsyRUThCjwzLBU1c--3" value="" style="rounded=0;whiteSpace=wrap;html=1;fillColor=none;strokeColor=#9673a6;strokeWidth=3;" vertex="1" parent="1">
          <mxGeometry x="-120" y="428" width="1170" height="42" as="geometry" />
        </mxCell>
        <mxCell id="1d8bsyRUThCjwzLBU1c--4" value="" style="rounded=0;whiteSpace=wrap;html=1;fillColor=none;strokeColor=#82b366;strokeWidth=3;" vertex="1" parent="1">
          <mxGeometry x="-120" y="473" width="1169" height="37" as="geometry" />
        </mxCell>
        <mxCell id="1d8bsyRUThCjwzLBU1c--5" value="&lt;font style=&quot;font-size: 30px;&quot; color=&quot;#ff6666&quot;&gt;RX&lt;/font&gt;" style="text;html=1;strokeColor=none;fillColor=none;align=center;verticalAlign=middle;whiteSpace=wrap;rounded=0;" vertex="1" parent="1">
          <mxGeometry x="1060" y="392" width="60" height="30" as="geometry" />
        </mxCell>
        <mxCell id="1d8bsyRUThCjwzLBU1c--6" value="&lt;font color=&quot;#9933ff&quot; style=&quot;font-size: 30px;&quot;&gt;R&lt;/font&gt;" style="text;html=1;strokeColor=none;fillColor=none;align=center;verticalAlign=middle;whiteSpace=wrap;rounded=0;" vertex="1" parent="1">
          <mxGeometry x="1050" y="434" width="60" height="30" as="geometry" />
        </mxCell>
        <mxCell id="1d8bsyRUThCjwzLBU1c--7" value="&lt;font color=&quot;#33ff99&quot; style=&quot;font-size: 30px;&quot;&gt;RW&lt;/font&gt;" style="text;html=1;strokeColor=none;fillColor=none;align=center;verticalAlign=middle;whiteSpace=wrap;rounded=0;" vertex="1" parent="1">
          <mxGeometry x="1060" y="475" width="60" height="30" as="geometry" />
        </mxCell>
        <mxCell id="1d8bsyRUThCjwzLBU1c--8" value="" style="rounded=0;whiteSpace=wrap;html=1;fillColor=none;strokeColor=#6c8ebf;strokeWidth=3;" vertex="1" parent="1">
          <mxGeometry x="-120" y="513" width="1169" height="37" as="geometry" />
        </mxCell>
        <mxCell id="1d8bsyRUThCjwzLBU1c--9" value="&lt;font color=&quot;#3399ff&quot; style=&quot;font-size: 30px;&quot;&gt;RW&lt;/font&gt;" style="text;html=1;strokeColor=none;fillColor=none;align=center;verticalAlign=middle;whiteSpace=wrap;rounded=0;" vertex="1" parent="1">
          <mxGeometry x="1060" y="516.5" width="60" height="30" as="geometry" />
        </mxCell>
        <mxCell id="1d8bsyRUThCjwzLBU1c--10" value="" style="rounded=0;whiteSpace=wrap;html=1;fillColor=none;strokeColor=#d79b00;strokeWidth=3;" vertex="1" parent="1">
          <mxGeometry x="-120" y="726" width="1170" height="37" as="geometry" />
        </mxCell>
        <mxCell id="1d8bsyRUThCjwzLBU1c--11" value="&lt;font color=&quot;#ff9933&quot; style=&quot;font-size: 30px;&quot;&gt;RW&lt;/font&gt;" style="text;html=1;strokeColor=none;fillColor=none;align=center;verticalAlign=middle;whiteSpace=wrap;rounded=0;" vertex="1" parent="1">
          <mxGeometry x="1060" y="729.5" width="60" height="30" as="geometry" />
        </mxCell>
      </root>
    </mxGraphModel>
  </diagram>
</mxfile>
